<svg xmlns="http://www.w3.org/2000/svg" width="1300" height="420" viewBox="0 0 1300 420" version="1.1"><g stroke="none" stroke-width="1" fill="none" fill-rule="evenodd"><g transform="translate(-58.000000, -2527.000000)"><g transform="translate(-189.000000, 219.000000)"><g transform="translate(247.000000, 2308.000000)"><rect fill="#FFFFFF" transform="translate(650.000000, 210.000000) rotate(-10.000000) translate(-650.000000, -210.000000) " x="8" y="110" width="1284" height="200"/><path d="M1267.25 124.11C1267.56 125.11 1268.49 125.19 1269.28 125.35 1270.58 125.62 1271.81 126.02 1272.86 126.62 1274.48 127.55 1275.4 128.63 1274.77 130.36 1273.98 132.53 1274.47 132.97 1277.21 133.71 1277.55 133.8 1277.94 133.81 1278.26 133.92 1278.98 134.16 1280.21 134.16 1279.97 135.02 1279.69 135.99 1278.6 135.4 1277.85 135.38 1277.49 135.37 1277.05 135.16 1276.79 135.26 1272.95 136.76 1269.59 134.98 1266.05 134.4 1265.82 134.36 1265.59 134.3 1265.35 134.27 1264.63 134.19 1263.84 134.03 1263.62 134.79 1263.44 135.41 1263.8 135.87 1264.64 136.01 1266.75 136.39 1268.87 136.76 1271 137.09 1273.01 137.4 1275.04 137.64 1277.06 137.92 1277.95 138.05 1278.73 138.26 1278.48 139.15 1278.27 139.9 1277.93 140.63 1276.75 140.67 1275.8 140.7 1274.83 140.56 1273.88 140.43 1265.18 139.24 1256.7 137.37 1248.19 135.59 1246.48 135.24 1244.73 134.6 1243.22 136.03 1242.65 136.57 1241.71 136.34 1241.43 135.79 1240.71 134.34 1239.07 134.05 1237.4 133.83 1229.64 132.78 1221.83 132.2 1213.95 132.1 1213.35 132.09 1212.45 132 1212.2 132.24 1210.44 133.93 1208.04 133.31 1205.87 133.27 1194.93 133.09 1184.16 134.17 1173.35 135.26 1165.99 136 1158.99 137.75 1151.77 138.85 1148.38 139.36 1145.27 140.69 1141.71 140.98 1139.97 141.12 1138.26 141.89 1136.93 142.84 1135.8 143.65 1134.44 143.85 1133.3 143.39 1131.82 142.78 1130.7 143.2 1129.58 143.67 1124.93 145.62 1120.28 147.57 1116.03 149.99 1114.85 150.66 1113.64 151.11 1112.23 151.46 1103.24 153.61 1094.17 155.61 1085.61 158.64 1082.56 159.72 1079.72 161.18 1076.2 161.29 1075.5 161.31 1074.78 161.47 1074.18 161.02 1075.86 159.56 1086.38 155.44 1093.8 153.25 1100.68 151.22 1107.87 149.78 1114.53 147.28 1112.99 147.05 1111.66 147.48 1110.32 147.8 1105.84 148.86 1101.28 149.6 1097.03 151.3 1093.3 152.81 1088.85 152.77 1084.69 153.31 1078.17 154.15 1071.74 154.21 1065.31 152.98 1064.73 152.87 1064.1 152.87 1063.51 152.89 1062.92 152.9 1062.29 152.86 1061.66 153.35 1063.41 154.03 1065.1 154.69 1067.12 155.48 1065.21 156.45 1063.71 155.78 1062.26 155.65 1061.31 155.57 1060.4 155.29 1059.46 155.12 1057.99 154.85 1057.02 154.99 1056.52 156.34 1055.9 158.03 1055.13 158.2 1053.14 157.48 1051.29 156.8 1049.49 156.07 1047.67 155.34 1046.92 155.04 1046.15 154.65 1045.3 154.75 1043.54 154.96 1042.17 154.75 1041.55 153.33 1041.48 153.18 1041.22 152.95 1041.07 152.96 1037.44 153.12 1035.24 150.66 1031.99 150.18 1027.85 149.58 1023.79 148.64 1019.53 148.55 1017.88 148.52 1016.6 147.71 1015.26 147.14 1011.05 145.36 1006.91 143.48 1002.74 141.63 1002.53 141.54 1002.34 141.36 1002.13 141.35 997.25 141.11 993.77 138.36 989.33 137.33 987.82 136.98 986.43 136.52 984.78 136.92 984.14 137.08 983.34 136.96 982.63 136.86 971.47 135.37 960.23 135.27 948.99 135.96 944.58 136.23 940.08 136.36 935.32 137.76 937.21 138.2 938.7 137.97 939.96 138.54 941.08 139.05 941.83 139.65 941.82 140.7 941.81 141.82 940.89 142.34 939.61 142.55 937.13 142.96 934.65 143.4 932.14 143.67 928.31 144.09 924.46 144.4 920.62 144.71 917.75 144.95 915.3 145.89 913.01 147.11 911.33 148 909.71 148.96 908.07 149.89 906.3 150.91 904.3 151.51 902.1 151.75 900.96 151.88 899.86 151.86 899.46 150.83 898.99 149.61 898.04 150.17 897.23 150.49 896.15 150.91 896.97 151.25 897.29 151.72 898.48 153.42 898.1 153.75 895.39 153.67 893.27 153.62 891.11 154.19 889.06 153.15 888.66 152.95 887.54 153.52 886.77 153.78 879.58 156.2 872.2 158.19 864.59 159.73 861.65 160.32 858.71 160.54 855.65 160.59 851.68 160.66 847.72 161.2 843.76 161.57 837.37 162.17 830.95 162.12 824.54 162.02 817.87 161.92 811.44 162.78 804.88 163.59 799.51 164.26 793.47 164.24 788.43 161.61 785.4 160.03 782.07 158.93 778.51 158.36 769.88 156.98 761.36 155.28 752.79 153.71 745.99 152.46 739.26 150.94 732.4 149.9 725.75 148.9 719.4 147.12 712.75 146.16 710.77 145.87 708.96 144.98 706.83 145.02 706.2 145.03 705.81 144.95 705.65 145.64 705.33 146.95 704.6 147.12 703.36 146.34 703.27 146.29 703.13 146.24 703.1 146.16 702.12 143.86 699.74 144.36 697.45 144.49 687.19 145.08 676.88 145.31 666.69 146.3 659.58 146.99 652.33 147.59 645.57 149.72 644.02 150.21 642.46 150.65 641.25 151.69 643.69 153.55 647 152.44 649.67 153.38 646.29 154.58 642.83 154.85 639.39 153.79 637.84 153.32 637.81 152.18 638.2 150.97 638.69 149.42 636.86 148.09 634.89 148.68 630.51 149.99 625.92 150.91 621.78 152.64 620.19 153.3 618.63 154.04 618.11 155.49 617.9 156.09 617.43 156.49 616.59 156.45 615.7 156.42 614.56 157.07 613.94 156.23 613.35 155.43 614.72 155.27 615.12 154.77 615.2 154.67 615.07 154.46 615 154.14 611.46 154.81 608.3 156.15 605.05 157.26 599.75 159.06 594.26 160.48 588.92 162.2 587.59 162.62 586.25 163.06 584.98 163.58 583.79 164.06 582.6 164.15 581.24 164.24 578.15 164.47 575.1 165.12 572.05 165.65 568.29 166.3 564.61 167.09 560.67 166.03 559.1 165.61 557.44 166.54 555.85 166.96 553.66 167.53 551.54 168.73 549.04 167.3 548.13 166.77 546.94 167.47 545.97 167.75 541.77 168.97 537.41 169.73 533.07 170.54 532.49 170.65 531.9 170.79 531.3 170.83 528.33 171.05 526.45 169.89 526.89 167.69 527.2 166.1 526.34 165.51 524.75 165.05 523.96 164.82 523.14 164.52 522.33 164.52 515.24 164.47 508.47 162.99 501.59 161.99 495.31 161.07 489.03 160.1 482.73 159.27 472.96 157.97 463.41 155.96 453.71 154.45 445.31 153.14 436.85 152.05 428.48 150.64 424.62 149.98 420.85 148.87 417.47 147.24 416.4 146.73 415.36 146.44 414.14 146.3 409.84 145.79 405.56 145.32 401.18 145.21 394.84 145.05 389.01 146.33 383.15 147.86 377.32 149.39 371.57 151.02 366.17 153.29 364.66 153.92 363.31 154.66 362.29 155.7 361.66 156.34 360.94 157.03 361.5 157.94 361.76 158.37 361.97 158.92 361.28 159.12 360.36 159.38 359.65 158.87 359.21 158.33 358.63 157.62 359.36 156.69 358.49 155.85 355.18 156.42 352.89 158.45 349.97 159.63 349.28 159.91 349.08 160.58 349.6 161.07 350.7 162.08 350.1 162.78 348.9 163.26 344.26 165.14 339.42 166.42 334.02 165.62 333.43 165.53 332.71 165.22 332.29 165.49 330.42 166.72 327.63 166.32 325.82 167.74 324.67 168.66 322.94 169.08 321.29 169.38 315.79 170.38 310.28 171.33 304.77 172.28 304.33 172.35 303.82 172.41 303.37 171.85 305.52 171.13 308.08 171.3 310.63 169.92 305.41 170.27 301.04 171.3 296.51 171.44 295.18 171.48 293.84 171.44 292.54 171.6 291.69 171.71 290.74 171.61 290.66 172.9 290.6 173.93 288.62 173.52 287.6 173.19 286.56 172.85 285.67 171.81 285.24 173.57 285.13 173.99 284.22 174.01 283.63 174.02 278.69 174.18 273.75 174.66 268.79 174.16 267.3 174.01 265.87 173.72 265.19 172.6 264.51 171.47 263.31 171.34 261.9 171.37 259.73 171.42 257.55 171.44 255.37 171.45 253.76 171.45 252.2 171.43 251.5 172.88 251.15 173.59 250.25 173.67 249.36 173.55 248.29 173.4 247.2 173.29 246.16 173.05 241.55 171.99 236.91 172.78 232.27 172.81 227.57 172.84 222.87 172.46 218.23 171.83 217.17 171.68 216.04 171.47 215.15 171.05 209.72 168.49 203.56 167.78 197.46 166.77 192.38 165.93 187.34 164.99 182.22 164.28 180.49 164.04 179.11 163.63 178.37 165.45 177.94 166.5 176.43 166.61 174.95 166.28 172.94 165.83 171.15 165.06 169.48 164.18 166.91 162.82 164.25 161.56 161.92 159.95 159.95 158.6 157.72 157.55 155.23 156.76 151.66 155.61 148.65 153.96 146.08 151.61 144.28 149.97 142.59 147.97 139.6 147.13 136.74 146.33 134.44 144.82 131.99 143.51 130.6 142.77 130.66 141.58 132.26 141.38 134.16 141.15 136.17 140.37 138.13 141.45 139.13 142 140.33 142.07 141.53 141.65 141.37 140.65 140.16 140.37 139.48 139.77 137.98 138.43 136.53 137.06 136.39 135.24 136.22 133.24 134.75 131.92 132.81 130.73 131.04 129.66 131.07 129.11 132.64 127.94 133.72 127.13 135.02 126.7 136.53 126.62 137.61 126.56 138.69 126.53 140.02 126.48 139.83 125.2 139.54 123.98 139.51 122.77 139.47 121.44 140.46 120.98 142.12 121.46 143.52 121.86 144.58 122.61 145.55 123.43 149.02 126.41 153.37 128.54 157.72 130.7 162.36 133 166.82 135.48 171.77 137.44 174.95 138.71 178.42 139.67 181.11 141.57 181.39 141.77 181.66 141.9 182.04 141.78 186.06 140.44 189.13 141.96 192 143.75 193.94 144.96 196.22 145.5 198.51 146.04 205.9 147.76 213.33 149.4 220.72 151.11 222.59 151.54 224.48 151.81 226.41 151.92 232.08 152.22 237.63 153.35 243.35 153.37 245.8 153.37 248.23 153.28 250.47 152.56 252.51 151.9 253.68 152.28 254.32 154.36 255.18 153.05 254.84 151.78 256.36 151.27 257.63 150.84 258.95 150.83 260.27 150.77 266.77 150.44 273.32 150.6 279.74 149.56 284.35 148.82 288.82 147.67 293.49 147.06 299.67 146.25 305.76 145.04 311.99 144.36 314.26 144.11 316.46 143.59 318.62 142.97 320.84 142.34 322.94 141.97 323.26 139.48 323.48 137.82 325.89 136.59 328.22 135.86 333.77 134.12 339.13 132.08 344.55 130.16 348.68 128.7 352.7 127.01 356.85 125.56 362.68 123.51 368.71 121.98 375.15 121.51 376.81 121.39 378.62 121.37 378.62 119.49 378.62 118.54 379.67 118.39 380.75 118.5 382.18 118.64 383.61 118.87 385.06 118.94 388.83 119.13 392.53 118.72 396.13 117.91 397.39 117.63 398.56 117.4 399.47 118.2 400.51 119.11 401.8 119.14 403.11 118.97 408.73 118.25 414.43 118.59 420.08 118.21 424.1 117.94 428.3 117.99 432.08 119.43 435.8 120.85 439.63 122.17 442.88 124.18 445.4 125.73 448.31 126.66 451.48 126.67 455.39 126.67 459.09 127.54 462.85 128.03 466.28 128.49 469.66 128.87 473.14 129.07 476.98 129.28 480.66 130.33 484.24 131.39 490.31 133.18 496.36 134.97 502.7 136.17 505.32 136.67 507.96 136.74 510.59 136.98 514.45 137.33 518.26 137.75 521.84 138.94 522.92 139.3 523.93 139.19 525 138.93 532.87 136.99 541.01 136.15 549.2 135.51 549.32 135.5 549.44 135.52 549.56 135.5 552.08 135.17 554.11 133.82 557.23 134.62 559.62 135.24 562.69 134.34 565.46 134.17 568.23 134 571.07 134.11 573.77 133.72 578.52 133.03 583.38 133.27 588.13 132.36 592.29 131.56 596.66 131.37 601 131.16 604.18 131 607.4 130.27 610.44 129.32 616.83 127.34 623.49 126.06 630.21 124.9 633.35 124.35 636.7 124.15 639 122.05 639.58 121.52 640.65 121.44 641.2 122.11 642.18 123.29 643.47 122.8 644.75 122.69 650.64 122.16 656.31 120.82 662.1 119.92 664.34 119.57 666.68 120.57 668.89 119.22 670.78 118.05 673.47 118.2 675.83 117.84 679.02 117.34 682.18 116.7 685.49 116.68 688.15 116.67 690.54 115.68 693.17 115.36 696.91 114.9 700.65 115.48 704.3 114.82 705.04 114.69 705.71 114.89 706.42 114.99 709.27 115.39 712.12 115.75 715.05 115.29 716.46 115.06 717.94 115.09 719.35 115.47 720.51 115.79 721.72 115.85 722.93 115.81 726.65 115.68 730 115.96 733.58 117.39 736.91 118.72 741.05 119.36 745.04 119.65 746.24 119.74 747.47 119.71 748.58 120.1 753.08 121.69 757.96 122.39 762.65 123.53 764.72 124.03 766.61 124.93 768.23 126.03 771.99 128.57 776.8 129.16 781.38 130.24 785.61 131.23 789.82 132.33 793.96 133.53 796.67 134.31 799.43 134.96 802.19 135.61 805.53 136.39 808.82 137.31 812.19 138.01 813.94 138.38 815.05 139.1 815.27 140.36 815.53 141.83 816.68 142.21 818.36 142.54 820.56 142.98 822.62 143.03 824.78 142.52 826.62 142.09 828.51 141.76 830.39 141.43 831.67 141.2 832.92 140.88 834.19 141.63 835.42 142.35 836.52 141.87 837.26 141.02 839.52 138.41 843.08 137.6 846.84 137.12 849.1 136.84 851.4 136.61 853.69 136.54 855.4 136.49 856.66 136.02 857.82 135.13 862.1 131.81 867.05 129.01 871.23 125.61 871.76 125.17 872.31 124.44 873.26 124.67 874.3 124.93 874.45 125.74 874.51 126.48 874.54 126.82 874.44 127.17 874.35 127.9 877.56 127.02 880.11 125.63 882.92 124.71 888.7 122.82 894.62 121.24 900.6 119.8 905.34 118.66 909.67 116.85 914.3 115.56 914.73 115.44 915.33 115.21 915.43 114.94 916.17 112.93 917.82 112.68 920.13 113.4 920.54 113.53 921.13 113.52 921.56 113.41 925.58 112.37 929.9 112.59 933.97 111.69 938.05 110.79 942.42 111.24 946.51 110.33 946.81 110.26 947.31 110.35 947.52 110.51 949.68 112.17 952.39 111.47 954.7 111.16 956.63 110.91 958.5 110.77 960.4 110.83 964.37 110.96 968.34 110.8 972.31 111.26 974.31 111.49 976.42 111.39 978.45 111.21 982.61 110.86 986.57 111.62 990.56 112.24 994.2 112.81 997.81 113.51 1001.44 114.15 1005.78 114.91 1009.96 116.01 1014.06 117.31 1016.24 118 1018.25 118.99 1020.7 119.22 1021.81 119.32 1022.68 119.62 1023.47 118.62 1024.07 117.86 1025.03 118.28 1025.43 118.92 1026.23 120.17 1027.72 120.73 1029.24 121.31 1029.99 121.59 1030.79 121.86 1031.43 122.26 1039.61 127.3 1049.33 129.72 1059.37 131.6 1062.66 132.21 1066 132.61 1069.38 132.81 1070.61 132.88 1071.49 132.78 1071.9 131.49 1072.71 128.91 1074.94 127.37 1078.75 127.07 1082.71 126.77 1086.6 125.97 1090.56 125.62 1097.6 124.99 1104.56 123.97 1111.67 123.68 1117.81 123.42 1123.94 122.77 1129.38 120.27 1129.98 119.99 1130.79 119.5 1131.35 119.92 1133.23 121.37 1134.28 119.79 1135.77 119.52 1135.53 119.24 1135.45 119.07 1135.3 118.97 1134.42 118.42 1132.81 118.26 1133.15 117.06 1133.46 115.97 1134.69 115.49 1136.02 115.19 1136.37 115.11 1136.72 114.94 1137.06 114.95 1140.32 115.06 1143.31 114.12 1146.42 113.68 1153.99 112.6 1161.65 111.92 1169.18 110.64 1172.49 110.08 1175.85 110.1 1179.24 110.06 1183.32 110.02 1187.39 109.43 1191.45 109.03 1192.78 108.9 1194.06 108.7 1195.3 109.32 1195.67 109.51 1196.24 109.6 1196.69 109.56 1202.56 109.05 1208.43 110.04 1214.37 109.19 1218.93 108.54 1223.81 109.19 1228.44 108.69 1233.53 108.13 1238.28 108.91 1243.09 109.74 1244.67 110.01 1246.5 110.11 1247.32 111.53 1247.65 112.1 1248.56 111.98 1249.2 112.18 1253.37 113.47 1257.93 113.59 1262.17 114.63 1265.61 115.48 1268.99 116.46 1272.27 117.62 1273.06 117.91 1274.11 118.19 1273.9 118.88 1273.3 120.8 1275.22 121.35 1276.66 122.28 1277.55 122.85 1278.22 123.66 1278.82 124.44 1279.25 124.99 1279.27 125.69 1278.68 126.24 1278.1 126.78 1277.34 126.5 1276.68 126.32 1274.53 125.73 1272.37 125.12 1270.26 124.46 1269.35 124.17 1268.49 123.91 1267.25 124.11L1267.25 124.11ZM416.93 133C416.15 133.14 415.35 132.68 414.61 133.01L416.95 133.01C417.89 133.77 419.04 133.88 420.3 133.61 420.94 134.28 421.66 134.61 422.73 133.94 421.86 133.55 421.01 133.75 420.2 133.68 419.29 132.98 417.91 133.55 416.93 133L416.93 133ZM1128.71 139.91C1130.11 139.54 1131.65 139.37 1133.11 138.1 1131.07 138.52 1129.3 138.36 1128.77 139.95 1126.94 139.51 1125.73 140.36 1124.57 141.3 1125.95 140.84 1127.33 140.37 1128.71 139.91L1128.71 139.91ZM1026.45 123.69C1025.13 123.67 1024.42 122.27 1022.45 122.73 1023.76 123.87 1025.03 124.07 1026.55 123.64 1027.23 125.41 1029.25 125.37 1031.07 125.61 1029.91 124.46 1027.95 124.42 1026.45 123.69L1026.45 123.69ZM1105.39 125.67C1101.67 126.38 1097.87 126.71 1094.07 127.06 1090.45 127.39 1086.89 127.93 1083.36 128.67 1083.85 128.81 1084.33 128.85 1084.78 128.8 1090.63 128.16 1096.49 127.53 1102.33 126.85 1103.49 126.72 1104.78 126.64 1105.4 125.66 1106.43 126.14 1107.43 126.76 1108.87 126.03 1107.64 125.38 1106.44 126.04 1105.39 125.67L1105.39 125.67ZM1025.91 132.3C1025.05 132.82 1024.2 131.45 1023.26 132.25 1024.2 132.99 1025.07 132.5 1025.94 132.29 1025.99 132.56 1025.91 132.94 1026.11 133.07 1030.16 135.69 1034.51 137.83 1040.07 138.16 1041.53 138.24 1042.3 137.68 1043.03 136.93 1043.37 136.58 1043.95 136.25 1043.51 135.76 1043.09 135.3 1042.43 135.03 1041.69 134.97 1040.8 134.9 1040.8 135.42 1040.76 135.87 1040.63 136.98 1039.9 137.24 1038.55 136.84 1034.18 135.57 1029.84 134.27 1025.91 132.3L1025.91 132.3ZM309.07 168.22C310.21 168.76 310.8 168.63 311.38 168.53 316.81 167.58 322.03 166.18 327.03 164.33 327.68 164.09 328.33 163.83 328.9 163.51 330 162.9 329.82 162.06 328.58 161.67 327.98 161.48 327.4 161.53 326.81 161.64 320.44 162.92 314.96 165.49 309.07 168.22L309.07 168.22ZM723.48 130.77C723.4 132.34 724.31 132.9 726.06 133.02 730.52 133.33 734.89 134 739.25 134.76 740.27 134.93 741.47 135.21 742.71 134.61 733.61 130.76 730.78 130.2 723.48 130.77L723.48 130.77ZM1053.7 133.64C1057 134.61 1060.08 135.88 1063.16 137.12 1066.54 138.47 1069.97 137.77 1073.4 137.78 1073.82 137.78 1074.42 137.57 1074.37 137.13 1074.33 136.8 1074.09 136.45 1073.81 136.18 1073.31 135.69 1072.53 135.8 1071.81 135.76 1067.83 135.53 1063.94 134.96 1060.07 134.21 1058.05 133.82 1055.97 133.2 1053.7 133.64L1053.7 133.64ZM410.77 132.37C409.43 132.08 408.05 131.22 406.75 131.92 405.58 132.54 404.9 132.22 403.87 131.89 399.84 130.6 393.56 131.94 390.64 134.68 397.7 135.51 404.05 133.06 410.77 132.37L410.77 132.37ZM721.46 144.42C722.37 146.03 722.37 146.04 723.9 146.28 729.88 147.21 735.87 148.09 741.69 149.54 742.42 149.72 743.3 150.15 744.34 149.78 740.06 147.06 727.38 144.32 721.46 144.42L721.46 144.42ZM971.45 128.11C970.82 127.44 969.78 127.52 968.89 127.51 965.4 127.46 961.92 127.08 958.42 127.3 956.63 127.41 954.69 127.07 953.11 127.83 951.46 128.62 949.73 128.66 947.92 128.7 947.28 128.71 946.48 128.33 946.1 129 946.14 129.43 946.58 129.47 946.9 129.45 954.83 128.93 962.78 128.9 970.73 128.66 971.07 128.64 971.41 128.48 971.45 128.11L971.45 128.11ZM325.84 140.52C329.42 140.63 332.14 139.11 335.03 137.97 339.55 136.19 341.37 135 342.45 133.08 336.54 135.46 330.37 136.93 325.84 140.52L325.84 140.52ZM810.92 141.33C810.62 140.62 810.04 140.5 809.47 140.33 804.84 139.02 800.22 137.68 795.59 136.38 794.79 136.15 793.78 135.39 793.16 136.46 792.69 137.3 793.45 137.81 794.47 138.1 796.05 138.55 797.59 139.13 799.22 139.43 802.96 140.12 806.75 140.66 810.92 141.33L810.92 141.33ZM467.74 141.38C462.86 140.35 458.09 139.11 453.01 139.11 457.36 141.97 462.24 142.91 467.74 141.38L467.74 141.38ZM939.33 118.64C934.56 117.6 929.82 117.26 924.83 119.39 930.08 120.85 934.67 119.54 939.33 118.64L939.33 118.64ZM689.46 137C682.99 136.55 677.04 138.53 670.9 139.58 676.86 139.25 682.79 138.69 688.71 138.1 689.17 138.06 689.59 137.81 689.46 137L689.46 137ZM1223.36 116.28C1219.48 114.43 1213.7 113.99 1208.27 115.18 1212.96 116.37 1217.68 116.1 1222.1 117.01 1222.49 117.09 1223.03 116.85 1223.36 116.28L1223.36 116.28ZM846.6 155.75C846.63 155.97 846.66 156.2 846.69 156.42 849.27 156.68 851.85 156.95 854.43 157.18 855.41 157.27 856.38 157.14 857.1 156.57 857.41 156.32 857.76 155.99 857.78 155.68 857.81 155.29 857.28 155.11 856.78 155.08 853.32 154.91 849.91 154.97 846.6 155.75L846.6 155.75ZM798.5 151.76C803.6 153.42 808.68 155.21 814.37 154.15 814.42 153.95 814.46 153.74 814.5 153.54 809.17 152.95 803.83 152.35 798.5 151.76L798.5 151.76ZM549.89 162.86C544.79 163.41 540.06 164.7 534.9 166.89 540.02 166.62 547.88 164.56 549.89 162.86L549.89 162.86ZM521.25 154.48C522.63 156.04 522.71 156.12 524.07 156.04 525.14 155.97 526.2 155.75 527.27 155.65 530.58 155.34 533.89 155.06 537.2 154.77 531.91 153.67 526.71 154.46 521.25 154.48L521.25 154.48ZM593.44 157.02C587.2 158.39 581 159.84 575.13 161.96 581.49 160.86 587.74 159.52 593.44 157.02L593.44 157.02ZM998 125.47C993.88 123.55 987.63 122.2 984.62 122.47 985 122.65 985.27 122.81 985.57 122.9 987.26 123.43 989.35 123.36 990.12 125.13 990.39 125.73 991.8 125.95 992.69 125.53 994.21 124.81 995.71 125.29 998 125.47L998 125.47ZM638.03 139.99C637.97 139.84 637.92 139.69 637.87 139.54 634.62 140 631.37 140.45 628.13 140.93 627.29 141.06 626.38 141.25 626.85 142.16 627.21 142.86 627.9 143.15 628.86 142.85 631.92 141.9 634.97 140.94 638.03 139.99L638.03 139.99ZM1255.16 133.86C1250.31 131.8 1242.01 130.22 1238.37 130.56 1243.7 132.07 1248.91 133.19 1255.16 133.86L1255.16 133.86ZM713.59 120.03C718.82 121.12 723.99 122.47 729.53 122.44 724.46 120.81 719.14 120.04 713.59 120.03L713.59 120.03ZM371.8 136.76C377.28 137.84 380.77 136.28 383.72 133.59 379.96 134.59 376.2 135.59 371.8 136.76L371.8 136.76ZM768.21 130.11C772.38 133.12 777.19 133.62 781.78 134.56 778.92 133.24 775.96 132.09 772.94 131.04 771.68 130.61 770.36 130.17 768.21 130.11L768.21 130.11ZM923.21 121.51C921.73 120.86 920.67 119.97 919.13 120.29 917.18 120.69 915.31 121.31 913.43 121.89 913.26 121.94 913.16 122.43 913.29 122.6 913.42 122.79 913.95 122.98 914.18 122.92 916.97 122.13 920.14 122.7 923.21 121.51L923.21 121.51ZM642.17 134.15C646.71 133.4 651.49 133.4 656.54 131.64 650.73 131.01 646.4 132.43 642.17 134.15L642.17 134.15ZM399.31 127.71C393.3 128.77 387.29 129.82 381.3 130.9 380.89 130.98 380.58 131.36 381 132.07 386.84 130.05 393.42 129.88 399.31 127.71L399.31 127.71ZM946.45 116.05C940.74 115.77 939.81 115.88 936.27 117.33 944.45 117.98 945.41 117.86 946.45 116.05L946.45 116.05ZM1053.03 146.1C1059.27 146.5 1060.71 146.34 1063.03 145.09 1060.07 144.32 1057.06 144.58 1053.03 146.1L1053.03 146.1ZM760.03 127.19C756.54 124.87 751.86 123.53 749.69 123.82 750.5 124.57 751.68 124.82 752.77 125.14 755.17 125.86 757.61 126.51 760.03 127.19L760.03 127.19ZM649.27 145.37C653.83 145.83 657.69 145.19 659.87 143.56 656.12 143.77 652.83 144.14 649.27 145.37L649.27 145.37ZM947.37 133.11C943.79 132.65 941.25 133.13 939.26 134.65 941.78 133.83 945.12 135.55 947.37 133.11L947.37 133.11ZM507.29 146.44C511.04 147.76 514.19 148.21 517.57 147.59 514.2 148.02 511.67 145.16 507.29 146.44L507.29 146.44ZM598.9 151.29C596.21 151.06 594 152.06 591.63 152.57 591.17 152.67 590.86 153.07 591.07 153.45 591.28 153.84 591.8 153.91 592.27 153.73 594.45 152.89 596.99 152.61 598.9 151.29L598.9 151.29ZM303.98 161.85C301.05 161.7 298.31 162.14 295.92 163.51 298.84 163.66 301.5 163.07 303.98 161.85L303.98 161.85ZM941.84 127.57C939.93 129.69 936.93 129.4 934.73 130.48 936.44 130.26 938.11 130.32 939.77 130.23 941.49 130.15 942.24 129.4 941.84 127.57L941.84 127.57ZM1099.65 135.21C1098.27 135.16 1097.05 135.3 1095.97 135.92 1095.59 136.14 1095.25 136.43 1095.34 136.81 1095.44 137.23 1095.95 137.33 1096.42 137.37 1098.22 137.56 1098.85 137.15 1099.65 135.21L1099.65 135.21ZM968.27 120.81C970.67 121.74 973.25 121.65 975.82 121.63 973.54 120.27 971.01 120.12 968.27 120.81L968.27 120.81ZM1057.5 150.12C1055.39 149.64 1054.19 149.27 1052.85 149.27 1052.26 149.27 1051.56 149.21 1051.44 149.8 1051.32 150.42 1051.71 150.89 1052.58 150.93 1053.99 150.99 1055.38 150.88 1057.5 150.12L1057.5 150.12ZM557.94 154.5C562.72 155.74 562.72 155.74 564.42 153.52 562.13 153.87 560.03 154.18 557.94 154.5L557.94 154.5ZM990.32 114.79C988.02 114.1 985.72 113.3 983.11 114.17 985.47 114.58 987.73 115.39 990.32 114.79L990.32 114.79ZM1200.23 129.66C1197.71 130.19 1194.96 128.91 1192.64 130.33 1195.19 130 1197.87 130.81 1200.23 129.66L1200.23 129.66ZM877.45 140.1C874.96 140.14 872.56 140.37 870.88 142.03 873.25 141.75 875.6 141.42 877.45 140.1L877.45 140.1ZM526.39 150.95C524.22 150.12 521.99 150.06 519.25 149.98 521.59 152.03 524.17 150.92 526.39 150.95L526.39 150.95ZM478.21 141.63C476.75 140.94 475.65 140.45 474.34 140.26 473.36 140.12 473.11 140.57 472.97 141.14 472.82 141.78 473.36 141.93 474 141.86 475.27 141.73 476.55 142.32 478.21 141.63L478.21 141.63ZM468.96 150.6C467.75 149.31 465.76 149.17 463.99 148.67 463.66 148.57 463.21 148.69 463.11 148.96 462.98 149.32 463.12 149.73 463.69 149.82 465.44 150.1 467.2 150.35 468.96 150.6L468.96 150.6ZM680.57 130.7C686.04 131.62 686.87 131.58 689.11 130.31 686.32 130.08 683.84 130.45 680.57 130.7L680.57 130.7ZM539.99 142.07C537.65 141.3 535.55 141.68 532.91 142.78 535.81 143.14 537.88 142.45 539.99 142.07L539.99 142.07ZM340.37 160.56C338.51 161.48 337.16 162.07 336.34 163.34 339.97 163.23 339.97 163.23 340.37 160.56L340.37 160.56ZM1211.47 124.36C1211.43 124.28 1211.4 124.19 1211.36 124.1L1201.95 124.1C1201.96 124.19 1201.97 124.28 1201.97 124.36L1211.47 124.36 1211.47 124.36ZM809.22 158.16C809.47 158.01 809.53 157.77 809.27 157.72 807.13 157.29 805.02 156.67 802.75 156.93 804.84 157.61 806.86 158.45 809.22 158.16L809.22 158.16ZM540.86 161.35C539.41 161.2 537.95 160.84 536.51 161.72 538.35 163.06 539.6 161.97 540.86 161.35L540.86 161.35ZM1154.66 116.04C1156.64 116.08 1158.54 115.9 1160.12 114.88 1158.15 114.86 1156.2 114.93 1154.66 116.04L1154.66 116.04ZM384.49 145.44C382.1 145.05 380.51 145.31 378.8 146.53 380.99 146.88 382.5 146.38 384.49 145.44L384.49 145.44ZM367.16 140.87C367.11 139.87 367.36 138.91 367.95 137.81 365.01 138.78 365.01 138.78 367.16 140.87L367.16 140.87ZM187.22 160.37C190.02 161.97 190.07 161.98 193.88 162.1 191.26 161.5 189.79 160.34 187.22 160.37L187.22 160.37ZM837.72 158.69C835.62 158.38 834.38 158.26 833.28 159.17 834.5 159.09 835.79 159.53 837.72 158.69L837.72 158.69ZM700.61 141.29C698.08 140.75 695.56 140.74 693.05 141.29L700.61 141.29 700.61 141.29ZM282.37 170.8C281.13 170.6 279.84 170.28 278.32 171.14 280 171.41 281.21 171.4 282.37 170.8L282.37 170.8ZM756.13 146.29C757.78 147.65 759.51 147.29 761.02 147.58 759.73 146.87 758.37 146.37 756.13 146.29L756.13 146.29ZM1113.62 131.39C1111.72 131.34 1110.4 132.13 1109.11 132.96 1110.91 132.93 1112.36 132.29 1113.62 131.39L1113.62 131.39ZM1144.78 127.39C1142.53 127.34 1141.29 127.72 1139.49 128.73 1141.71 128.69 1142.93 128.25 1144.78 127.39L1144.78 127.39ZM735.84 124.24C734.54 123.79 733.34 123.07 731.19 123.24 732.81 124.45 734.24 124.57 735.84 124.24L735.84 124.24ZM581.66 156.45C582.91 156.04 584.44 156.22 585.67 155.26 583.84 155.14 582.64 155.65 581.66 156.45L581.66 156.45ZM875.81 154.02C872.54 154.33 872.9 154.12 871.33 155.55 872.91 155.19 874.23 154.91 875.81 154.02L875.81 154.02ZM980.2 128.25C981.78 128.89 982.85 128.88 984.1 128.64 983.07 128.01 982.09 127.68 980.2 128.25L980.2 128.25ZM1082.27 134.94C1080.56 134.93 1079.41 135.1 1077.83 135.99 1079.87 136.19 1080.99 135.94 1082.27 134.94L1082.27 134.94ZM561.1 148.21C562.82 148.51 563.96 148.18 565.42 147.62 563.75 147.29 562.64 147.73 561.1 148.21L561.1 148.21ZM915.4 135.19C914.17 135.51 912.86 135.76 911.88 136.93 913.67 136.63 914.71 136.11 915.4 135.19L915.4 135.19ZM674.82 127.5C676.93 127.65 676.93 127.65 678.24 126.85 676.99 126.79 675.93 127.18 674.82 127.5L674.82 127.5ZM854.23 137.35C852.71 137.24 851.7 137.47 850.3 137.98 851.93 138.27 853 138.21 854.23 137.35L854.23 137.35ZM544.19 137.37C545.05 137.18 546.15 137.72 546.81 136.85 545.72 136.49 544.89 136.76 544.19 137.37L544.19 137.37ZM953.53 133.29C954.04 133.88 954.63 133.62 955.14 133.44 955.57 133.29 956.33 133.52 956.43 132.85 955.34 132.69 954.33 132.56 953.53 133.29L953.53 133.29ZM1050.17 137.91C1048.74 137.29 1047.72 136.85 1046.3 137.88 1047.62 138.45 1048.66 138.5 1050.17 137.91L1050.17 137.91ZM931.11 138.37C929.77 138.2 928.62 138.31 927.6 139.15 929.22 139.54 930.06 138.62 931.11 138.37L931.11 138.37ZM929.12 132.48C927.9 132.55 927.06 132.56 926.57 133.62 927.6 133.5 928.47 133.54 929.12 132.48L929.12 132.48ZM356.36 142.02C355.34 142.09 354.24 142.09 353.4 142.86 354.76 143.17 355.54 142.54 356.36 142.02L356.36 142.02ZM888.49 149.95C890.7 149.67 890.7 149.67 892.1 148.6 890.72 148.87 889.53 149.09 888.49 149.95L888.49 149.95ZM480 153.72C480.02 153.37 479.65 153.25 479.32 153.21 479 153.18 478.54 153.19 478.33 153.33 478.01 153.56 478.26 153.81 478.64 153.89 479.11 153.98 479.59 153.98 480 153.72L480 153.72ZM1121.22 138.35C1120.01 138.11 1119.2 138.36 1118.32 139.01 1119.63 139.35 1120.43 139.08 1121.22 138.35L1121.22 138.35ZM356.44 151.3C357.59 151.17 356.93 151.38 357.34 151.36 358 151.32 358.63 151.06 359.28 150.89 359.2 150.73 359.18 150.51 359.02 150.44 358.55 150.21 358.16 150.47 357.77 150.65 357.48 150.79 357.2 150.93 356.44 151.3L356.44 151.3ZM1097.67 146.4C1097.7 146.01 1097.33 145.97 1096.99 145.96 1096.41 145.96 1095.73 146.02 1095.56 146.49 1095.41 146.89 1095.98 147.03 1096.42 147.05 1097.05 147.08 1097.49 146.85 1097.67 146.4L1097.67 146.4ZM1014.71 143.04C1015.03 143.57 1015.63 143.75 1016.32 143.76 1016.39 143.77 1016.58 143.4 1016.53 143.36 1016.01 143.03 1015.4 142.9 1014.71 143.04L1014.71 143.04ZM346.87 154.92C346.93 154.56 346.62 154.49 346.25 154.51 345.79 154.54 345.34 154.64 345.12 154.99 344.94 155.28 345.15 155.47 345.52 155.51 346.16 155.58 346.61 155.37 346.87 154.92L346.87 154.92ZM1018.96 130.68C1019.14 131.2 1019.76 131.24 1020.29 131.33 1020.7 131.41 1021.01 131.26 1020.72 130.93 1020.4 130.56 1019.88 130.36 1019.29 130.34 1019.18 130.33 1019.07 130.56 1018.96 130.68L1018.96 130.68ZM1219.06 130.55C1219.14 130.35 1219.03 130.2 1218.73 130.17 1218.38 130.13 1217.86 130.02 1217.7 130.15 1217.27 130.49 1217.88 130.51 1218.1 130.59 1218.41 130.7 1218.76 130.79 1219.06 130.55L1219.06 130.55ZM610.54 151.09C611.03 150.75 612.16 151.14 612.12 150.28 611.42 150.34 610.83 150.55 610.54 151.09L610.54 151.09ZM968.59 117.83C968.79 117.64 968.69 117.53 968.34 117.56 968 117.58 967.61 117.59 967.36 117.73 967.19 117.83 967.39 118.1 967.64 118.08 967.98 118.04 968.3 117.91 968.59 117.83L968.59 117.83ZM534.08 162.15C534.06 161.83 533.89 161.77 533.64 161.95 533.38 162.12 533.09 162.31 532.97 162.53 532.86 162.76 533.1 162.82 533.37 162.63 533.62 162.46 533.87 162.29 534.08 162.15L534.08 162.15ZM315.44 169.19C315.28 168.88 314.93 168.88 314.61 168.97 314.43 169.02 314.19 169.17 314.17 169.3 314.1 169.64 314.47 169.68 314.8 169.66 315.16 169.63 315.42 169.49 315.44 169.19L315.44 169.19ZM649.13 134.13C649.83 134.21 650.33 134.32 651.25 133.83 650.35 133.93 649.87 133.65 649.13 134.13L649.13 134.13ZM832.33 149.56C832.29 149.22 831.95 149.07 831.61 149.17 831.31 149.25 831.01 149.5 830.9 149.72 830.77 150.01 831.06 150.26 831.46 150.26 832.02 150.26 832.26 149.95 832.33 149.56L832.33 149.56ZM323.94 167.18C323.91 166.89 323.74 166.79 323.48 166.89 323.2 166.99 322.96 167.16 322.71 167.3 322.87 167.37 323.07 167.53 323.2 167.5 323.48 167.43 323.72 167.28 323.94 167.18L323.94 167.18ZM694.5 130.23C694.39 130.13 694.28 129.92 694.17 129.92 693.73 129.93 693.19 129.9 692.9 130.08 692.57 130.28 692.87 130.54 693.27 130.55 693.71 130.56 694.17 130.55 694.5 130.23L694.5 130.23ZM665.17 129.65C664.89 129.62 664.68 129.58 664.47 129.59 664.32 129.6 664.18 129.68 664.03 129.72 664.24 129.75 664.45 129.8 664.66 129.79 664.81 129.79 664.96 129.71 665.17 129.65L665.17 129.65ZM887.98 126.53C887.8 126.5 887.56 126.39 887.44 126.44 887.19 126.55 887 126.74 886.78 126.89 886.98 126.93 887.18 127.01 887.37 126.99 887.7 126.96 887.98 126.84 887.98 126.53L887.98 126.53ZM363.01 148.23C363.32 148.32 363.54 148.44 363.75 148.42 364.12 148.4 364.48 148.26 364.36 147.91 364.32 147.81 363.92 147.66 363.8 147.71 363.51 147.82 363.29 148.03 363.01 148.23L363.01 148.23ZM545.41 142.65C544.95 142.61 544.62 142.55 544.3 142.58 543.97 142.6 543.89 142.77 544.14 142.87 544.33 142.95 544.6 142.96 544.81 142.93 544.98 142.91 545.13 142.79 545.41 142.65ZM1267.25 199.96C1267.56 200.96 1268.49 201.04 1269.28 201.2 1270.58 201.47 1271.81 201.87 1272.86 202.47 1274.48 203.4 1275.4 204.48 1274.77 206.21 1273.98 208.38 1274.47 208.82 1277.21 209.56 1277.55 209.65 1277.94 209.66 1278.26 209.77 1278.98 210.01 1280.21 210.01 1279.97 210.88 1279.69 211.84 1278.6 211.25 1277.85 211.23 1277.49 211.22 1277.05 211.01 1276.79 211.11 1272.95 212.61 1269.59 210.83 1266.05 210.25 1265.82 210.22 1265.59 210.15 1265.35 210.12 1264.63 210.04 1263.84 209.88 1263.62 210.64 1263.44 211.26 1263.8 211.72 1264.64 211.86 1266.75 212.24 1268.87 212.61 1271 212.94 1273.01 213.25 1275.04 213.49 1277.06 213.77 1277.95 213.9 1278.73 214.11 1278.48 215 1278.27 215.75 1277.93 216.48 1276.75 216.52 1275.8 216.55 1274.83 216.41 1273.88 216.28 1265.18 215.09 1256.7 213.22 1248.19 211.45 1246.48 211.09 1244.73 210.45 1243.22 211.88 1242.65 212.42 1241.71 212.19 1241.43 211.64 1240.71 210.19 1239.07 209.9 1237.4 209.68 1229.64 208.63 1221.83 208.05 1213.95 207.95 1213.35 207.94 1212.45 207.85 1212.2 208.09 1210.44 209.78 1208.04 209.16 1205.87 209.13 1194.93 208.94 1184.16 210.02 1173.35 211.11 1165.99 211.85 1158.99 213.6 1151.77 214.7 1148.38 215.22 1145.27 216.54 1141.71 216.83 1139.97 216.97 1138.26 217.74 1136.93 218.69 1135.8 219.5 1134.44 219.71 1133.3 219.24 1131.82 218.63 1130.7 219.05 1129.58 219.52 1124.93 221.47 1120.28 223.42 1116.03 225.84 1114.85 226.51 1113.64 226.97 1112.23 227.31 1103.24 229.46 1094.17 231.47 1085.61 234.5 1082.56 235.58 1079.72 237.03 1076.2 237.14 1075.5 237.16 1074.78 237.32 1074.18 236.87 1075.86 235.41 1086.38 231.29 1093.8 229.1 1100.68 227.07 1107.87 225.64 1114.53 223.13 1112.99 222.9 1111.66 223.33 1110.32 223.65 1105.84 224.71 1101.28 225.45 1097.03 227.16 1093.3 228.66 1088.85 228.62 1084.69 229.16 1078.17 230 1071.74 230.06 1065.31 228.83 1064.73 228.72 1064.1 228.72 1063.51 228.74 1062.92 228.75 1062.29 228.72 1061.66 229.2 1063.41 229.88 1065.1 230.54 1067.12 231.33 1065.21 232.3 1063.71 231.63 1062.26 231.5 1061.31 231.42 1060.4 231.14 1059.46 230.97 1057.99 230.7 1057.02 230.84 1056.52 232.19 1055.9 233.88 1055.13 234.05 1053.14 233.33 1051.29 232.65 1049.49 231.92 1047.67 231.19 1046.92 230.89 1046.15 230.5 1045.3 230.6 1043.54 230.81 1042.17 230.61 1041.55 229.18 1041.48 229.03 1041.22 228.8 1041.07 228.81 1037.44 228.97 1035.24 226.51 1031.99 226.03 1027.85 225.43 1023.79 224.49 1019.53 224.4 1017.88 224.37 1016.6 223.56 1015.26 222.99 1011.05 221.21 1006.91 219.33 1002.74 217.48 1002.53 217.39 1002.34 217.21 1002.13 217.2 997.25 216.96 993.77 214.21 989.33 213.18 987.82 212.83 986.43 212.37 984.78 212.77 984.14 212.93 983.34 212.81 982.63 212.71 971.47 211.22 960.23 211.12 948.99 211.81 944.58 212.08 940.08 212.21 935.32 213.61 937.21 214.05 938.7 213.82 939.96 214.39 941.08 214.9 941.83 215.5 941.82 216.55 941.81 217.67 940.89 218.19 939.61 218.4 937.13 218.81 934.65 219.25 932.14 219.52 928.31 219.94 924.46 220.25 920.62 220.57 917.75 220.8 915.3 221.75 913.01 222.96 911.33 223.85 909.71 224.81 908.07 225.74 906.3 226.76 904.3 227.36 902.1 227.6 900.96 227.73 899.86 227.71 899.46 226.68 898.99 225.46 898.04 226.02 897.23 226.34 896.15 226.76 896.97 227.11 897.29 227.57 898.48 229.27 898.1 229.6 895.39 229.53 893.27 229.47 891.11 230.04 889.06 229 888.66 228.8 887.54 229.38 886.77 229.63 879.58 232.05 872.2 234.04 864.59 235.58 861.65 236.17 858.71 236.39 855.65 236.44 851.68 236.51 847.72 237.06 843.76 237.43 837.37 238.02 830.95 237.97 824.54 237.87 817.87 237.77 811.44 238.63 804.88 239.44 799.51 240.11 793.47 240.09 788.43 237.46 785.4 235.88 782.07 234.78 778.51 234.21 769.88 232.83 761.36 231.14 752.79 229.56 745.99 228.31 739.26 226.79 732.4 225.76 725.75 224.75 719.4 222.98 712.75 222.01 710.77 221.72 708.96 220.83 706.83 220.87 706.2 220.88 705.81 220.8 705.65 221.49 705.33 222.8 704.6 222.97 703.36 222.2 703.27 222.14 703.13 222.09 703.1 222.01 702.12 219.71 699.74 220.21 697.45 220.34 687.19 220.93 676.88 221.16 666.69 222.15 659.58 222.84 652.33 223.44 645.57 225.57 644.02 226.06 642.46 226.5 641.25 227.54 643.69 229.41 647 228.29 649.67 229.23 646.29 230.43 642.83 230.7 639.39 229.65 637.84 229.17 637.81 228.03 638.2 226.82 638.69 225.27 636.86 223.94 634.89 224.53 630.51 225.84 625.92 226.76 621.78 228.49 620.19 229.15 618.63 229.89 618.11 231.34 617.9 231.94 617.43 232.34 616.59 232.31 615.7 232.27 614.56 232.92 613.94 232.08 613.35 231.28 614.72 231.12 615.12 230.62 615.2 230.52 615.07 230.31 615 229.99 611.46 230.66 608.3 232 605.05 233.11 599.75 234.92 594.26 236.33 588.92 238.05 587.59 238.48 586.25 238.91 584.98 239.43 583.79 239.91 582.6 240 581.24 240.1 578.15 240.32 575.1 240.97 572.05 241.5 568.29 242.15 564.61 242.95 560.67 241.88 559.1 241.46 557.44 242.39 555.85 242.81 553.66 243.38 551.54 244.58 549.04 243.15 548.13 242.63 546.94 243.32 545.97 243.6 541.77 244.82 537.41 245.58 533.07 246.39 532.49 246.5 531.9 246.64 531.3 246.69 528.33 246.9 526.45 245.74 526.89 243.54 527.2 241.96 526.34 241.36 524.75 240.9 523.96 240.67 523.14 240.37 522.33 240.37 515.24 240.32 508.47 238.84 501.59 237.84 495.31 236.92 489.03 235.95 482.73 235.12 472.96 233.82 463.41 231.81 453.71 230.3 445.31 228.99 436.85 227.9 428.48 226.49 424.62 225.83 420.85 224.72 417.47 223.09 416.4 222.58 415.36 222.29 414.14 222.15 409.84 221.64 405.56 221.17 401.18 221.06 394.84 220.9 389.01 222.19 383.15 223.72 377.32 225.24 371.57 226.87 366.17 229.14 364.66 229.78 363.31 230.51 362.29 231.55 361.66 232.19 360.94 232.88 361.5 233.79 361.76 234.22 361.97 234.77 361.28 234.97 360.36 235.23 359.65 234.72 359.21 234.18 358.63 233.47 359.36 232.54 358.49 231.7 355.18 232.27 352.89 234.3 349.97 235.48 349.28 235.76 349.08 236.43 349.6 236.92 350.7 237.93 350.1 238.63 348.9 239.12 344.26 240.99 339.42 242.27 334.02 241.47 333.43 241.38 332.71 241.07 332.29 241.34 330.42 242.57 327.63 242.17 325.82 243.59 324.67 244.51 322.94 244.93 321.29 245.23 315.79 246.23 310.28 247.18 304.77 248.13 304.33 248.21 303.82 248.26 303.37 247.7 305.52 246.98 308.08 247.15 310.63 245.78 305.41 246.12 301.04 247.15 296.51 247.29 295.18 247.33 293.84 247.29 292.54 247.45 291.69 247.56 290.74 247.46 290.66 248.75 290.6 249.78 288.62 249.38 287.6 249.04 286.56 248.7 285.67 247.66 285.24 249.42 285.13 249.84 284.22 249.86 283.63 249.88 278.69 250.04 273.75 250.51 268.79 250.01 267.3 249.86 265.87 249.57 265.19 248.45 264.51 247.32 263.31 247.19 261.9 247.22 259.73 247.27 257.55 247.29 255.37 247.3 253.76 247.3 252.2 247.28 251.5 248.73 251.15 249.44 250.25 249.52 249.36 249.4 248.29 249.26 247.2 249.14 246.16 248.9 241.55 247.84 236.91 248.63 232.27 248.66 227.57 248.69 222.87 248.31 218.23 247.68 217.17 247.54 216.04 247.32 215.15 246.9 209.72 244.34 203.56 243.63 197.46 242.62 192.38 241.78 187.34 240.84 182.22 240.13 180.49 239.89 179.11 239.48 178.37 241.3 177.94 242.35 176.43 242.47 174.95 242.13 172.94 241.68 171.15 240.91 169.48 240.03 166.91 238.67 164.25 237.41 161.92 235.8 159.95 234.45 157.72 233.4 155.23 232.61 151.66 231.46 148.65 229.81 146.08 227.46 144.28 225.82 142.59 223.82 139.6 222.98 136.74 222.18 134.44 220.67 131.99 219.36 130.6 218.62 130.66 217.43 132.26 217.23 134.16 217 136.17 216.22 138.13 217.3 139.13 217.85 140.33 217.93 141.53 217.5 141.37 216.5 140.16 216.22 139.48 215.62 137.98 214.28 136.53 212.91 136.39 211.1 136.22 209.09 134.75 207.77 132.81 206.58 131.04 205.51 131.07 204.96 132.64 203.79 133.72 202.98 135.02 202.55 136.53 202.47 137.61 202.41 138.69 202.38 140.02 202.33 139.83 201.05 139.54 199.83 139.51 198.62 139.47 197.29 140.46 196.83 142.12 197.31 143.52 197.71 144.58 198.46 145.55 199.28 149.02 202.26 153.37 204.4 157.72 206.55 162.36 208.85 166.82 211.33 171.77 213.3 174.95 214.56 178.42 215.52 181.11 217.42 181.39 217.62 181.66 217.75 182.04 217.63 186.06 216.29 189.13 217.81 192 219.6 193.94 220.81 196.22 221.35 198.51 221.89 205.9 223.61 213.33 225.25 220.72 226.96 222.59 227.39 224.48 227.67 226.41 227.77 232.08 228.07 237.63 229.2 243.35 229.22 245.8 229.22 248.23 229.13 250.47 228.41 252.51 227.76 253.68 228.13 254.32 230.22 255.18 228.91 254.84 227.63 256.36 227.12 257.63 226.7 258.95 226.68 260.27 226.62 266.77 226.3 273.32 226.45 279.74 225.41 284.35 224.67 288.82 223.52 293.49 222.91 299.67 222.1 305.76 220.89 311.99 220.21 314.26 219.96 316.46 219.44 318.62 218.83 320.84 218.19 322.94 217.82 323.26 215.34 323.48 213.67 325.89 212.44 328.22 211.71 333.77 209.98 339.13 207.93 344.55 206.01 348.68 204.55 352.7 202.86 356.85 201.41 362.68 199.37 368.71 197.83 375.15 197.36 376.81 197.24 378.62 197.22 378.62 195.34 378.62 194.39 379.67 194.24 380.75 194.35 382.18 194.49 383.61 194.72 385.06 194.79 388.83 194.98 392.53 194.57 396.13 193.76 397.39 193.48 398.56 193.25 399.47 194.05 400.51 194.96 401.8 194.99 403.11 194.82 408.73 194.1 414.43 194.44 420.08 194.06 424.1 193.79 428.3 193.84 432.08 195.28 435.8 196.7 439.63 198.02 442.88 200.03 445.4 201.58 448.31 202.52 451.48 202.52 455.39 202.52 459.09 203.39 462.85 203.88 466.28 204.34 469.66 204.72 473.14 204.92 476.98 205.13 480.66 206.18 484.24 207.24 490.31 209.03 496.36 210.82 502.7 212.03 505.32 212.52 507.96 212.6 510.59 212.83 514.45 213.18 518.26 213.6 521.84 214.79 522.92 215.15 523.93 215.04 525 214.78 532.87 212.84 541.01 212 549.2 211.36 549.32 211.35 549.44 211.37 549.56 211.35 552.08 211.02 554.11 209.68 557.23 210.48 559.62 211.09 562.69 210.19 565.46 210.02 568.23 209.85 571.07 209.96 573.77 209.57 578.52 208.88 583.38 209.12 588.13 208.21 592.29 207.41 596.66 207.22 601 207.01 604.18 206.86 607.4 206.12 610.44 205.18 616.83 203.2 623.49 201.91 630.21 200.75 633.35 200.21 636.7 200 639 197.9 639.58 197.37 640.65 197.29 641.2 197.96 642.18 199.15 643.47 198.65 644.75 198.54 650.64 198.01 656.31 196.67 662.1 195.77 664.34 195.42 666.68 196.42 668.89 195.07 670.78 193.9 673.47 194.05 675.83 193.69 679.02 193.19 682.18 192.55 685.49 192.53 688.15 192.52 690.54 191.53 693.17 191.21 696.91 190.75 700.65 191.33 704.3 190.67 705.04 190.54 705.71 190.74 706.42 190.84 709.27 191.24 712.12 191.6 715.05 191.14 716.46 190.92 717.94 190.94 719.35 191.33 720.51 191.64 721.72 191.71 722.93 191.66 726.65 191.53 730 191.81 733.58 193.24 736.91 194.58 741.05 195.21 745.04 195.5 746.24 195.59 747.47 195.56 748.58 195.95 753.08 197.54 757.96 198.24 762.65 199.38 764.72 199.88 766.61 200.78 768.23 201.88 771.99 204.43 776.8 205.02 781.38 206.09 785.61 207.09 789.82 208.18 793.96 209.38 796.67 210.16 799.43 210.81 802.19 211.46 805.53 212.24 808.82 213.16 812.19 213.86 813.94 214.23 815.05 214.95 815.27 216.21 815.53 217.68 816.68 218.06 818.36 218.4 820.56 218.83 822.62 218.88 824.78 218.37 826.62 217.94 828.51 217.61 830.39 217.28 831.67 217.05 832.92 216.73 834.19 217.48 835.42 218.2 836.52 217.72 837.26 216.87 839.52 214.27 843.08 213.45 846.84 212.98 849.1 212.69 851.4 212.46 853.69 212.39 855.4 212.34 856.66 211.87 857.82 210.98 862.1 207.66 867.05 204.86 871.23 201.46 871.76 201.02 872.31 200.29 873.26 200.52 874.3 200.78 874.45 201.59 874.51 202.33 874.54 202.67 874.44 203.02 874.35 203.75 877.56 202.87 880.11 201.49 882.92 200.56 888.7 198.67 894.62 197.09 900.6 195.65 905.34 194.51 909.67 192.7 914.3 191.42 914.73 191.3 915.33 191.06 915.43 190.79 916.17 188.79 917.82 188.53 920.13 189.26 920.54 189.38 921.13 189.37 921.56 189.26 925.58 188.22 929.9 188.44 933.97 187.54 938.05 186.65 942.42 187.09 946.51 186.18 946.81 186.11 947.31 186.2 947.52 186.36 949.68 188.02 952.39 187.32 954.7 187.01 956.63 186.76 958.5 186.62 960.4 186.68 964.37 186.81 968.34 186.65 972.31 187.11 974.31 187.34 976.42 187.24 978.45 187.06 982.61 186.71 986.57 187.47 990.56 188.09 994.2 188.66 997.81 189.36 1001.44 190 1005.78 190.76 1009.96 191.86 1014.06 193.16 1016.24 193.85 1018.25 194.84 1020.7 195.07 1021.81 195.17 1022.68 195.47 1023.47 194.47 1024.07 193.71 1025.03 194.13 1025.43 194.77 1026.23 196.03 1027.72 196.58 1029.24 197.16 1029.99 197.44 1030.79 197.71 1031.43 198.11 1039.61 203.15 1049.33 205.57 1059.37 207.45 1062.66 208.06 1066 208.46 1069.38 208.66 1070.61 208.73 1071.49 208.63 1071.9 207.34 1072.71 204.76 1074.94 203.22 1078.75 202.93 1082.71 202.62 1086.6 201.82 1090.56 201.47 1097.6 200.84 1104.56 199.82 1111.67 199.53 1117.81 199.27 1123.94 198.62 1129.38 196.12 1129.98 195.85 1130.79 195.35 1131.35 195.78 1133.23 197.22 1134.28 195.65 1135.77 195.37 1135.53 195.09 1135.45 194.92 1135.3 194.82 1134.42 194.28 1132.81 194.11 1133.15 192.91 1133.46 191.82 1134.69 191.34 1136.02 191.04 1136.37 190.96 1136.72 190.79 1137.06 190.8 1140.32 190.91 1143.31 189.97 1146.42 189.53 1153.99 188.45 1161.65 187.77 1169.18 186.49 1172.49 185.93 1175.85 185.95 1179.24 185.91 1183.32 185.87 1187.39 185.28 1191.45 184.88 1192.78 184.75 1194.06 184.55 1195.3 185.17 1195.67 185.36 1196.24 185.45 1196.69 185.41 1202.56 184.9 1208.43 185.89 1214.37 185.04 1218.93 184.39 1223.81 185.05 1228.44 184.54 1233.53 183.98 1238.28 184.76 1243.09 185.59 1244.67 185.86 1246.5 185.96 1247.32 187.38 1247.65 187.95 1248.56 187.83 1249.2 188.03 1253.37 189.32 1257.93 189.45 1262.17 190.48 1265.61 191.33 1268.99 192.31 1272.27 193.48 1273.06 193.76 1274.11 194.04 1273.9 194.73 1273.3 196.65 1275.22 197.2 1276.66 198.13 1277.55 198.7 1278.22 199.51 1278.82 200.29 1279.25 200.84 1279.27 201.54 1278.68 202.09 1278.1 202.63 1277.34 202.36 1276.68 202.17 1274.53 201.58 1272.37 200.97 1270.26 200.31 1269.35 200.02 1268.49 199.76 1267.25 199.96ZM416.93 208.85C416.15 208.99 415.35 208.53 414.61 208.86L416.95 208.86C417.89 209.62 419.04 209.73 420.3 209.46 420.94 210.13 421.66 210.46 422.73 209.79 421.86 209.4 421.01 209.6 420.2 209.54 419.29 208.83 417.91 209.4 416.93 208.85L416.93 208.85ZM1128.71 215.76C1130.11 215.39 1131.65 215.22 1133.11 213.95 1131.07 214.37 1129.3 214.21 1128.77 215.8 1126.94 215.36 1125.73 216.21 1124.57 217.15 1125.95 216.69 1127.33 216.23 1128.71 215.76L1128.71 215.76ZM1026.45 199.54C1025.13 199.52 1024.42 198.12 1022.45 198.58 1023.76 199.73 1025.03 199.92 1026.55 199.49 1027.23 201.27 1029.25 201.23 1031.07 201.46 1029.91 200.32 1027.95 200.27 1026.45 199.54L1026.45 199.54ZM1105.39 201.52C1101.67 202.23 1097.87 202.56 1094.07 202.91 1090.45 203.24 1086.89 203.78 1083.36 204.52 1083.85 204.66 1084.33 204.7 1084.78 204.65 1090.63 204.02 1096.49 203.38 1102.33 202.71 1103.49 202.57 1104.78 202.49 1105.4 201.52 1106.43 201.99 1107.43 202.61 1108.87 201.88 1107.64 201.23 1106.44 201.89 1105.39 201.52L1105.39 201.52ZM1025.91 208.15C1025.05 208.67 1024.2 207.31 1023.26 208.1 1024.2 208.84 1025.07 208.35 1025.94 208.14 1025.99 208.41 1025.91 208.79 1026.11 208.92 1030.16 211.54 1034.51 213.68 1040.07 214.01 1041.53 214.09 1042.3 213.54 1043.03 212.78 1043.37 212.43 1043.95 212.11 1043.51 211.61 1043.09 211.15 1042.43 210.88 1041.69 210.82 1040.8 210.75 1040.8 211.27 1040.76 211.72 1040.63 212.83 1039.9 213.09 1038.55 212.69 1034.18 211.42 1029.84 210.12 1025.91 208.15L1025.91 208.15ZM309.07 244.07C310.21 244.61 310.8 244.48 311.38 244.38 316.81 243.43 322.03 242.03 327.03 240.18 327.68 239.94 328.33 239.68 328.9 239.36 330 238.75 329.82 237.92 328.58 237.52 327.98 237.33 327.4 237.38 326.81 237.49 320.44 238.77 314.96 241.34 309.07 244.07L309.07 244.07ZM723.48 206.62C723.4 208.19 724.31 208.75 726.06 208.88 730.52 209.19 734.89 209.85 739.25 210.61 740.27 210.79 741.47 211.06 742.71 210.46 733.61 206.61 730.78 206.05 723.48 206.62L723.48 206.62ZM1053.7 209.49C1057 210.46 1060.08 211.74 1063.16 212.97 1066.54 214.32 1069.97 213.62 1073.4 213.63 1073.82 213.63 1074.42 213.42 1074.37 212.99 1074.33 212.65 1074.09 212.3 1073.81 212.03 1073.31 211.54 1072.53 211.65 1071.81 211.61 1067.83 211.38 1063.94 210.81 1060.07 210.06 1058.05 209.67 1055.97 209.05 1053.7 209.49L1053.7 209.49ZM410.77 208.23C409.43 207.93 408.05 207.07 406.75 207.77 405.58 208.39 404.9 208.07 403.87 207.74 399.84 206.45 393.56 207.79 390.64 210.53 397.7 211.36 404.05 208.91 410.77 208.23L410.77 208.23ZM721.46 220.27C722.37 221.88 722.37 221.89 723.9 222.13 729.88 223.07 735.87 223.95 741.69 225.39 742.42 225.57 743.3 226.01 744.34 225.63 740.06 222.91 727.38 220.17 721.46 220.27L721.46 220.27ZM971.45 203.97C970.82 203.29 969.78 203.37 968.89 203.36 965.4 203.32 961.92 202.93 958.42 203.15 956.63 203.26 954.69 202.93 953.11 203.68 951.46 204.47 949.73 204.51 947.92 204.55 947.28 204.56 946.48 204.19 946.1 204.85 946.14 205.29 946.58 205.32 946.9 205.3 954.83 204.78 962.78 204.76 970.73 204.51 971.07 204.5 971.41 204.33 971.45 203.97L971.45 203.97ZM325.84 216.37C329.42 216.49 332.14 214.96 335.03 213.82 339.55 212.04 341.37 210.85 342.45 208.93 336.54 211.31 330.37 212.78 325.84 216.37L325.84 216.37ZM810.92 217.18C810.62 216.47 810.04 216.35 809.47 216.19 804.84 214.87 800.22 213.54 795.59 212.23 794.79 212.01 793.78 211.24 793.16 212.31 792.69 213.15 793.45 213.66 794.47 213.95 796.05 214.4 797.59 214.98 799.22 215.28 802.96 215.97 806.75 216.52 810.92 217.18L810.92 217.18ZM467.74 217.23C462.86 216.2 458.09 214.96 453.01 214.96 457.36 217.82 462.24 218.76 467.74 217.23L467.74 217.23ZM939.33 194.49C934.56 193.45 929.82 193.11 924.83 195.24 930.08 196.7 934.67 195.39 939.33 194.49L939.33 194.49ZM689.46 212.85C682.99 212.4 677.04 214.38 670.9 215.43 676.86 215.1 682.79 214.54 688.71 213.96 689.17 213.91 689.59 213.66 689.46 212.85L689.46 212.85ZM1223.36 192.13C1219.48 190.28 1213.7 189.84 1208.27 191.03 1212.96 192.22 1217.68 191.95 1222.1 192.86 1222.49 192.94 1223.03 192.7 1223.36 192.13L1223.36 192.13ZM846.6 231.6C846.63 231.83 846.66 232.05 846.69 232.27 849.27 232.53 851.85 232.8 854.43 233.03 855.41 233.12 856.38 233 857.1 232.42 857.41 232.18 857.76 231.84 857.78 231.53 857.81 231.14 857.28 230.96 856.78 230.93 853.32 230.76 849.91 230.82 846.6 231.6L846.6 231.6ZM798.5 227.61C803.6 229.27 808.68 231.06 814.37 230 814.42 229.8 814.46 229.6 814.5 229.39 809.17 228.8 803.83 228.2 798.5 227.61L798.5 227.61ZM549.89 238.71C544.79 239.26 540.06 240.55 534.9 242.74 540.02 242.47 547.88 240.41 549.89 238.71L549.89 238.71ZM521.25 230.34C522.63 231.89 522.71 231.97 524.07 231.89 525.14 231.82 526.2 231.6 527.27 231.5 530.58 231.2 533.89 230.91 537.2 230.62 531.91 229.52 526.71 230.31 521.25 230.34L521.25 230.34ZM593.44 232.88C587.2 234.24 581 235.7 575.13 237.81 581.49 236.71 587.74 235.38 593.44 232.88L593.44 232.88ZM998 201.32C993.88 199.4 987.63 198.06 984.62 198.32 985 198.5 985.27 198.66 985.57 198.75 987.26 199.28 989.35 199.22 990.12 200.98 990.39 201.58 991.8 201.8 992.69 201.38 994.21 200.66 995.71 201.14 998 201.32L998 201.32ZM638.03 215.84C637.97 215.69 637.92 215.54 637.87 215.39 634.62 215.85 631.37 216.3 628.13 216.78 627.29 216.91 626.38 217.1 626.85 218.01 627.21 218.71 627.9 219 628.86 218.7 631.92 217.76 634.97 216.79 638.03 215.84L638.03 215.84ZM1255.16 209.71C1250.31 207.65 1242.01 206.07 1238.37 206.41 1243.7 207.92 1248.91 209.04 1255.16 209.71L1255.16 209.71ZM713.59 195.88C718.82 196.97 723.99 198.32 729.53 198.29 724.46 196.67 719.14 195.89 713.59 195.88L713.59 195.88ZM371.8 212.62C377.28 213.69 380.77 212.13 383.72 209.44 379.96 210.44 376.2 211.44 371.8 212.62L371.8 212.62ZM768.21 205.96C772.38 208.97 777.19 209.47 781.78 210.41 778.92 209.09 775.96 207.94 772.94 206.9 771.68 206.46 770.36 206.02 768.21 205.96L768.21 205.96ZM923.21 197.36C921.73 196.71 920.67 195.82 919.13 196.14 917.18 196.55 915.31 197.16 913.43 197.74 913.26 197.79 913.16 198.28 913.29 198.45 913.42 198.64 913.95 198.83 914.18 198.77 916.97 197.98 920.14 198.55 923.21 197.36L923.21 197.36ZM642.17 210C646.71 209.25 651.49 209.25 656.54 207.5 650.73 206.86 646.4 208.28 642.17 210L642.17 210ZM399.31 203.56C393.3 204.62 387.29 205.67 381.3 206.76 380.89 206.83 380.58 207.21 381 207.93 386.84 205.9 393.42 205.73 399.31 203.56L399.31 203.56ZM946.45 191.9C940.74 191.62 939.81 191.73 936.27 193.18 944.45 193.83 945.41 193.71 946.45 191.9L946.45 191.9ZM1053.03 221.95C1059.27 222.35 1060.71 222.19 1063.03 220.94 1060.07 220.17 1057.06 220.43 1053.03 221.95L1053.03 221.95ZM760.03 203.04C756.54 200.72 751.86 199.38 749.69 199.67 750.5 200.42 751.68 200.67 752.77 200.99 755.17 201.71 757.61 202.36 760.03 203.04L760.03 203.04ZM649.27 221.22C653.83 221.68 657.69 221.04 659.87 219.41 656.12 219.62 652.83 219.99 649.27 221.22L649.27 221.22ZM947.37 208.96C943.79 208.51 941.25 208.98 939.26 210.5 941.78 209.69 945.12 211.4 947.37 208.96L947.37 208.96ZM507.29 222.29C511.04 223.61 514.19 224.06 517.57 223.45 514.2 223.87 511.67 221.01 507.29 222.29L507.29 222.29ZM598.9 227.15C596.21 226.92 594 227.91 591.63 228.42 591.17 228.52 590.86 228.92 591.07 229.3 591.28 229.69 591.8 229.76 592.27 229.58 594.45 228.74 596.99 228.46 598.9 227.15L598.9 227.15ZM303.98 237.7C301.05 237.56 298.31 237.99 295.92 239.36 298.84 239.51 301.5 238.93 303.98 237.7L303.98 237.7ZM941.84 203.42C939.93 205.55 936.93 205.25 934.73 206.33 936.44 206.11 938.11 206.17 939.77 206.09 941.49 206 942.24 205.25 941.84 203.42L941.84 203.42ZM1099.65 211.06C1098.27 211.01 1097.05 211.15 1095.97 211.77 1095.59 211.99 1095.25 212.28 1095.34 212.66 1095.44 213.08 1095.95 213.18 1096.42 213.23 1098.22 213.41 1098.85 213 1099.65 211.06L1099.65 211.06ZM968.27 196.66C970.67 197.6 973.25 197.5 975.82 197.49 973.54 196.12 971.01 195.97 968.27 196.66L968.27 196.66ZM1057.5 225.97C1055.39 225.5 1054.19 225.13 1052.85 225.12 1052.26 225.12 1051.56 225.06 1051.44 225.66 1051.32 226.27 1051.71 226.74 1052.58 226.78 1053.99 226.84 1055.38 226.73 1057.5 225.97L1057.5 225.97ZM557.94 230.35C562.72 231.59 562.72 231.59 564.42 229.37 562.13 229.72 560.03 230.03 557.94 230.35L557.94 230.35ZM990.32 190.64C988.02 189.95 985.72 189.15 983.11 190.02 985.47 190.43 987.73 191.24 990.32 190.64L990.32 190.64ZM1200.23 205.51C1197.71 206.04 1194.96 204.76 1192.64 206.18 1195.19 205.85 1197.87 206.66 1200.23 205.51L1200.23 205.51ZM877.45 215.95C874.96 215.99 872.56 216.22 870.88 217.88 873.25 217.6 875.6 217.28 877.45 215.95L877.45 215.95ZM526.39 226.8C524.22 225.98 521.99 225.91 519.25 225.83 521.59 227.88 524.17 226.77 526.39 226.8L526.39 226.8ZM478.21 217.48C476.75 216.79 475.65 216.3 474.34 216.11 473.36 215.97 473.11 216.42 472.97 216.99 472.82 217.64 473.36 217.78 474 217.71 475.27 217.58 476.55 218.17 478.21 217.48L478.21 217.48ZM468.96 226.46C467.75 225.16 465.76 225.02 463.99 224.52 463.66 224.42 463.21 224.54 463.11 224.81 462.98 225.17 463.12 225.58 463.69 225.67 465.44 225.96 467.2 226.2 468.96 226.46L468.96 226.46ZM680.57 206.55C686.04 207.47 686.87 207.43 689.11 206.16 686.32 205.93 683.84 206.3 680.57 206.55L680.57 206.55ZM539.99 217.92C537.65 217.15 535.55 217.54 532.91 218.63 535.81 218.99 537.88 218.3 539.99 217.92L539.99 217.92ZM340.37 236.41C338.51 237.33 337.16 237.93 336.34 239.19 339.97 239.08 339.97 239.08 340.37 236.41L340.37 236.41ZM1211.47 200.21C1211.43 200.13 1211.4 200.04 1211.36 199.95L1201.95 199.95C1201.96 200.04 1201.97 200.13 1201.97 200.21L1211.47 200.21 1211.47 200.21ZM809.22 234.01C809.47 233.86 809.53 233.62 809.27 233.57 807.13 233.14 805.02 232.52 802.75 232.78 804.84 233.47 806.86 234.3 809.22 234.01L809.22 234.01ZM540.86 237.2C539.41 237.05 537.95 236.69 536.51 237.57 538.35 238.92 539.6 237.83 540.86 237.2L540.86 237.2ZM1154.66 191.89C1156.64 191.93 1158.54 191.75 1160.12 190.73 1158.15 190.71 1156.2 190.78 1154.66 191.89L1154.66 191.89ZM384.49 221.29C382.1 220.9 380.51 221.17 378.8 222.39 380.99 222.73 382.5 222.23 384.49 221.29L384.49 221.29ZM367.16 216.72C367.11 215.72 367.36 214.76 367.95 213.66 365.01 214.63 365.01 214.63 367.16 216.72L367.16 216.72ZM187.22 236.22C190.02 237.82 190.07 237.83 193.88 237.95 191.26 237.36 189.79 236.19 187.22 236.22L187.22 236.22ZM837.72 234.54C835.62 234.23 834.38 234.11 833.28 235.02 834.5 234.94 835.79 235.38 837.72 234.54L837.72 234.54ZM700.61 217.14C698.08 216.61 695.56 216.59 693.05 217.14L700.61 217.14 700.61 217.14ZM282.37 246.65C281.13 246.45 279.84 246.13 278.32 246.99 280 247.26 281.21 247.25 282.37 246.65L282.37 246.65ZM756.13 222.14C757.78 223.5 759.51 223.14 761.02 223.43 759.73 222.72 758.37 222.22 756.13 222.14L756.13 222.14ZM1113.62 207.25C1111.72 207.2 1110.4 207.98 1109.11 208.81 1110.91 208.78 1112.36 208.14 1113.62 207.25L1113.62 207.25ZM1144.78 203.24C1142.53 203.19 1141.29 203.57 1139.49 204.58 1141.71 204.54 1142.93 204.1 1144.78 203.24L1144.78 203.24ZM735.84 200.09C734.54 199.64 733.34 198.92 731.19 199.09 732.81 200.31 734.24 200.42 735.84 200.09L735.84 200.09ZM581.66 232.3C582.91 231.89 584.44 232.07 585.67 231.11 583.84 231 582.64 231.5 581.66 232.3L581.66 232.3ZM875.81 229.87C872.54 230.18 872.9 229.97 871.33 231.4 872.91 231.04 874.23 230.76 875.81 229.87L875.81 229.87ZM980.2 204.1C981.78 204.74 982.85 204.73 984.1 204.49 983.07 203.86 982.09 203.53 980.2 204.1L980.2 204.1ZM1082.27 210.79C1080.56 210.78 1079.41 210.95 1077.83 211.84 1079.87 212.04 1080.99 211.79 1082.27 210.79L1082.27 210.79ZM561.1 224.06C562.82 224.36 563.96 224.03 565.42 223.47 563.75 223.14 562.64 223.58 561.1 224.06L561.1 224.06ZM915.4 211.04C914.17 211.36 912.86 211.61 911.88 212.78 913.67 212.49 914.71 211.96 915.4 211.04L915.4 211.04ZM674.82 203.36C676.93 203.5 676.93 203.5 678.24 202.7 676.99 202.64 675.93 203.03 674.82 203.36L674.82 203.36ZM854.23 213.21C852.71 213.09 851.7 213.32 850.3 213.83 851.93 214.12 853 214.06 854.23 213.21L854.23 213.21ZM544.19 213.22C545.05 213.04 546.15 213.57 546.81 212.7 545.72 212.34 544.89 212.62 544.19 213.22L544.19 213.22ZM953.53 209.15C954.04 209.74 954.63 209.47 955.14 209.29 955.57 209.14 956.33 209.37 956.43 208.7 955.34 208.55 954.33 208.41 953.53 209.15L953.53 209.15ZM1050.17 213.76C1048.74 213.15 1047.72 212.71 1046.3 213.73 1047.62 214.3 1048.66 214.35 1050.17 213.76L1050.17 213.76ZM931.11 214.22C929.77 214.05 928.62 214.16 927.6 215 929.22 215.39 930.06 214.47 931.11 214.22L931.11 214.22ZM929.12 208.33C927.9 208.4 927.06 208.41 926.57 209.47 927.6 209.35 928.47 209.39 929.12 208.33L929.12 208.33ZM356.36 217.87C355.34 217.94 354.24 217.94 353.4 218.71 354.76 219.02 355.54 218.39 356.36 217.87L356.36 217.87ZM888.49 225.8C890.7 225.52 890.7 225.53 892.1 224.45 890.72 224.72 889.53 224.94 888.49 225.8L888.49 225.8ZM480 229.57C480.02 229.22 479.65 229.1 479.32 229.06 479 229.03 478.54 229.04 478.33 229.18 478.01 229.41 478.26 229.67 478.64 229.74 479.11 229.83 479.59 229.83 480 229.57L480 229.57ZM1121.22 214.2C1120.01 213.96 1119.2 214.21 1118.32 214.86 1119.63 215.2 1120.43 214.94 1121.22 214.2L1121.22 214.2ZM356.44 227.15C357.59 227.02 356.93 227.23 357.34 227.21 358 227.17 358.63 226.91 359.28 226.74 359.2 226.59 359.18 226.36 359.02 226.29 358.55 226.06 358.16 226.32 357.77 226.5 357.48 226.64 357.2 226.78 356.44 227.15L356.44 227.15ZM1097.67 222.26C1097.7 221.86 1097.33 221.82 1096.99 221.82 1096.41 221.81 1095.73 221.87 1095.56 222.34 1095.41 222.74 1095.98 222.88 1096.42 222.9 1097.05 222.94 1097.49 222.7 1097.67 222.26L1097.67 222.26ZM1014.71 218.89C1015.03 219.42 1015.63 219.6 1016.32 219.62 1016.39 219.62 1016.58 219.25 1016.53 219.22 1016.01 218.88 1015.4 218.75 1014.71 218.89L1014.71 218.89ZM346.87 230.78C346.93 230.41 346.62 230.34 346.25 230.36 345.79 230.39 345.34 230.49 345.12 230.84 344.94 231.13 345.15 231.32 345.52 231.36 346.16 231.43 346.61 231.22 346.87 230.78L346.87 230.78ZM1018.96 206.53C1019.14 207.05 1019.76 207.09 1020.29 207.18 1020.7 207.26 1021.01 207.11 1020.72 206.78 1020.4 206.41 1019.88 206.21 1019.29 206.19 1019.18 206.18 1019.07 206.41 1018.96 206.53L1018.96 206.53ZM1219.06 206.4C1219.14 206.2 1219.03 206.05 1218.73 206.02 1218.38 205.99 1217.86 205.87 1217.7 206 1217.27 206.34 1217.88 206.36 1218.1 206.44 1218.41 206.55 1218.76 206.64 1219.06 206.4L1219.06 206.4ZM610.54 226.94C611.03 226.6 612.16 226.99 612.12 226.13 611.42 226.19 610.83 226.4 610.54 226.94L610.54 226.94ZM968.59 193.68C968.79 193.49 968.69 193.38 968.34 193.41 968 193.43 967.61 193.45 967.36 193.58 967.19 193.68 967.39 193.95 967.64 193.93 967.98 193.89 968.3 193.76 968.59 193.68L968.59 193.68ZM534.08 238C534.06 237.68 533.89 237.62 533.64 237.8 533.38 237.97 533.09 238.16 532.97 238.39 532.86 238.61 533.1 238.67 533.37 238.49 533.62 238.32 533.87 238.14 534.08 238L534.08 238ZM315.44 245.04C315.28 244.73 314.93 244.73 314.61 244.82 314.43 244.88 314.19 245.02 314.17 245.15 314.1 245.49 314.47 245.54 314.8 245.51 315.16 245.49 315.42 245.34 315.44 245.04L315.44 245.04ZM649.13 209.98C649.83 210.06 650.33 210.18 651.25 209.68 650.35 209.78 649.87 209.51 649.13 209.98L649.13 209.98ZM832.33 225.41C832.29 225.07 831.95 224.92 831.61 225.02 831.31 225.1 831.01 225.35 830.9 225.57 830.77 225.86 831.06 226.11 831.46 226.11 832.02 226.11 832.26 225.8 832.33 225.41L832.33 225.41ZM323.94 243.03C323.91 242.74 323.74 242.64 323.48 242.74 323.2 242.84 322.96 243.01 322.71 243.15 322.87 243.22 323.07 243.38 323.2 243.35 323.48 243.29 323.72 243.13 323.94 243.03L323.94 243.03ZM694.5 206.09C694.39 205.98 694.28 205.77 694.17 205.77 693.73 205.78 693.19 205.75 692.9 205.93 692.57 206.13 692.87 206.39 693.27 206.4 693.71 206.41 694.17 206.4 694.5 206.09L694.5 206.09ZM665.17 205.5C664.89 205.47 664.68 205.43 664.47 205.44 664.32 205.45 664.18 205.53 664.03 205.58 664.24 205.6 664.45 205.65 664.66 205.64 664.81 205.64 664.96 205.56 665.17 205.5L665.17 205.5ZM887.98 202.38C887.8 202.35 887.56 202.24 887.44 202.29 887.19 202.4 887 202.59 886.78 202.74 886.98 202.78 887.18 202.86 887.37 202.84 887.7 202.81 887.98 202.69 887.98 202.38L887.98 202.38ZM363.01 224.08C363.32 224.17 363.54 224.29 363.75 224.27 364.12 224.25 364.48 224.11 364.36 223.77 364.32 223.66 363.92 223.51 363.8 223.56 363.51 223.67 363.29 223.88 363.01 224.08L363.01 224.08ZM545.41 218.5C544.95 218.47 544.62 218.41 544.3 218.43 543.97 218.45 543.89 218.62 544.14 218.72 544.33 218.8 544.6 218.81 544.81 218.78 544.98 218.76 545.13 218.64 545.41 218.5ZM1267.25 278.4C1267.56 279.41 1268.49 279.48 1269.28 279.65 1270.58 279.91 1271.81 280.31 1272.86 280.92 1274.48 281.85 1275.4 282.92 1274.77 284.66 1273.98 286.83 1274.47 287.27 1277.21 288.01 1277.55 288.1 1277.94 288.11 1278.26 288.22 1278.98 288.46 1280.21 288.46 1279.97 289.32 1279.69 290.29 1278.6 289.69 1277.85 289.68 1277.49 289.67 1277.05 289.46 1276.79 289.56 1272.95 291.05 1269.59 289.27 1266.05 288.7 1265.82 288.66 1265.59 288.59 1265.35 288.57 1264.63 288.48 1263.84 288.32 1263.62 289.09 1263.44 289.7 1263.8 290.16 1264.64 290.31 1266.75 290.68 1268.87 291.05 1271 291.38 1273.01 291.69 1275.04 291.93 1277.06 292.22 1277.95 292.34 1278.73 292.55 1278.48 293.44 1278.27 294.2 1277.93 294.92 1276.75 294.96 1275.8 294.99 1274.83 294.86 1273.88 294.73 1265.18 293.53 1256.7 291.67 1248.19 289.89 1246.48 289.53 1244.73 288.9 1243.22 290.32 1242.65 290.86 1241.71 290.64 1241.43 290.08 1240.71 288.63 1239.07 288.35 1237.4 288.12 1229.64 287.07 1221.83 286.49 1213.95 286.39 1213.35 286.39 1212.45 286.29 1212.2 286.53 1210.44 288.22 1208.04 287.61 1205.87 287.57 1194.93 287.38 1184.16 288.47 1173.35 289.55 1165.99 290.29 1158.99 292.05 1151.77 293.15 1148.38 293.66 1145.27 294.99 1141.71 295.27 1139.97 295.41 1138.26 296.18 1136.93 297.13 1135.8 297.94 1134.44 298.15 1133.3 297.68 1131.82 297.08 1130.7 297.49 1129.58 297.96 1124.93 299.91 1120.28 301.87 1116.03 304.28 1114.85 304.95 1113.64 305.41 1112.23 305.75 1103.24 307.91 1094.17 309.91 1085.61 312.94 1082.56 314.02 1079.72 315.48 1076.2 315.58 1075.5 315.6 1074.78 315.76 1074.18 315.32 1075.86 313.85 1086.38 309.73 1093.8 307.54 1100.68 305.51 1107.87 304.08 1114.53 301.57 1112.99 301.34 1111.66 301.77 1110.32 302.09 1105.84 303.15 1101.28 303.89 1097.03 305.6 1093.3 307.1 1088.85 307.06 1084.69 307.6 1078.17 308.44 1071.74 308.5 1065.31 307.28 1064.73 307.16 1064.1 307.16 1063.51 307.18 1062.92 307.2 1062.29 307.16 1061.66 307.64 1063.41 308.32 1065.1 308.98 1067.12 309.77 1065.21 310.75 1063.71 310.07 1062.26 309.94 1061.31 309.86 1060.4 309.58 1059.46 309.41 1057.99 309.14 1057.02 309.29 1056.52 310.64 1055.9 312.33 1055.13 312.5 1053.14 311.77 1051.29 311.1 1049.49 310.36 1047.67 309.63 1046.92 309.33 1046.15 308.95 1045.3 309.05 1043.54 309.26 1042.17 309.05 1041.55 307.62 1041.48 307.47 1041.22 307.24 1041.07 307.25 1037.44 307.41 1035.24 304.95 1031.99 304.48 1027.85 303.88 1023.79 302.93 1019.53 302.85 1017.88 302.81 1016.6 302 1015.26 301.43 1011.05 299.65 1006.91 297.77 1002.74 295.93 1002.53 295.84 1002.34 295.65 1002.13 295.64 997.25 295.41 993.77 292.66 989.33 291.62 987.82 291.27 986.43 290.81 984.78 291.22 984.14 291.38 983.34 291.25 982.63 291.16 971.47 289.67 960.23 289.56 948.99 290.26 944.58 290.53 940.08 290.66 935.32 292.05 937.21 292.5 938.7 292.27 939.96 292.84 941.08 293.34 941.83 293.95 941.82 294.99 941.81 296.11 940.89 296.63 939.61 296.84 937.13 297.25 934.65 297.69 932.14 297.97 928.31 298.38 924.46 298.69 920.62 299.01 917.75 299.24 915.3 300.19 913.01 301.4 911.33 302.29 909.71 303.25 908.07 304.19 906.3 305.2 904.3 305.8 902.1 306.05 900.96 306.17 899.86 306.16 899.46 305.12 898.99 303.9 898.04 304.46 897.23 304.78 896.15 305.21 896.97 305.55 897.29 306.02 898.48 307.72 898.1 308.04 895.39 307.97 893.27 307.91 891.11 308.48 889.06 307.44 888.66 307.24 887.54 307.82 886.77 308.08 879.58 310.49 872.2 312.48 864.59 314.02 861.65 314.61 858.71 314.83 855.65 314.88 851.68 314.95 847.72 315.5 843.76 315.87 837.37 316.47 830.95 316.41 824.54 316.31 817.87 316.21 811.44 317.07 804.88 317.89 799.51 318.55 793.47 318.54 788.43 315.91 785.4 314.33 782.07 313.22 778.51 312.66 769.88 311.28 761.36 309.58 752.79 308 745.99 306.75 739.26 305.23 732.4 304.2 725.75 303.2 719.4 301.42 712.75 300.46 710.77 300.17 708.96 299.27 706.83 299.31 706.2 299.32 705.81 299.25 705.65 299.93 705.33 301.25 704.6 301.41 703.36 300.64 703.27 300.58 703.13 300.53 703.1 300.46 702.12 298.16 699.74 298.65 697.45 298.78 687.19 299.37 676.88 299.6 666.69 300.59 659.58 301.28 652.33 301.89 645.57 304.02 644.02 304.51 642.46 304.94 641.25 305.98 643.69 307.85 647 306.74 649.67 307.67 646.29 308.87 642.83 309.14 639.39 308.09 637.84 307.61 637.81 306.47 638.2 305.27 638.69 303.71 636.86 302.38 634.89 302.97 630.51 304.28 625.92 305.21 621.78 306.93 620.19 307.6 618.63 308.33 618.11 309.79 617.9 310.38 617.43 310.78 616.59 310.75 615.7 310.71 614.56 311.37 613.94 310.53 613.35 309.72 614.72 309.56 615.12 309.07 615.2 308.96 615.07 308.76 615 308.43 611.46 309.1 608.3 310.44 605.05 311.55 599.75 313.36 594.26 314.77 588.92 316.49 587.59 316.92 586.25 317.35 584.98 317.87 583.79 318.36 582.6 318.44 581.24 318.54 578.15 318.76 575.1 319.42 572.05 319.95 568.29 320.6 564.61 321.39 560.67 320.33 559.1 319.91 557.44 320.84 555.85 321.25 553.66 321.82 551.54 323.02 549.04 321.59 548.13 321.07 546.94 321.76 545.97 322.04 541.77 323.27 537.41 324.02 533.07 324.84 532.49 324.95 531.9 325.09 531.3 325.13 528.33 325.34 526.45 324.18 526.89 321.98 527.2 320.4 526.34 319.8 524.75 319.34 523.96 319.11 523.14 318.82 522.33 318.81 515.24 318.76 508.47 317.29 501.59 316.28 495.31 315.37 489.03 314.4 482.73 313.56 472.96 312.27 463.41 310.25 453.71 308.74 445.31 307.43 436.85 306.35 428.48 304.93 424.62 304.27 420.85 303.17 417.47 301.53 416.4 301.02 415.36 300.74 414.14 300.59 409.84 300.09 405.56 299.61 401.18 299.5 394.84 299.35 389.01 300.63 383.15 302.16 377.32 303.68 371.57 305.31 366.17 307.58 364.66 308.22 363.31 308.96 362.29 309.99 361.66 310.63 360.94 311.33 361.5 312.23 361.76 312.67 361.97 313.21 361.28 313.41 360.36 313.68 359.65 313.16 359.21 312.62 358.63 311.91 359.36 310.98 358.49 310.14 355.18 310.71 352.89 312.75 349.97 313.92 349.28 314.2 349.08 314.87 349.6 315.36 350.7 316.38 350.1 317.08 348.9 317.56 344.26 319.43 339.42 320.72 334.02 319.91 333.43 319.82 332.71 319.51 332.29 319.79 330.42 321.01 327.63 320.61 325.82 322.04 324.67 322.95 322.94 323.37 321.29 323.67 315.79 324.67 310.28 325.62 304.77 326.57 304.33 326.65 303.82 326.7 303.37 326.14 305.52 325.42 308.08 325.59 310.63 324.22 305.41 324.57 301.04 325.59 296.51 325.74 295.18 325.78 293.84 325.74 292.54 325.9 291.69 326 290.74 325.9 290.66 327.2 290.6 328.22 288.62 327.82 287.6 327.48 286.56 327.15 285.67 326.1 285.24 327.87 285.13 328.28 284.22 328.3 283.63 328.32 278.69 328.48 273.75 328.96 268.79 328.45 267.3 328.3 265.87 328.01 265.19 326.9 264.51 325.77 263.31 325.64 261.9 325.67 259.73 325.72 257.55 325.73 255.37 325.74 253.76 325.75 252.2 325.73 251.5 327.17 251.15 327.88 250.25 327.97 249.36 327.84 248.29 327.7 247.2 327.58 246.16 327.34 241.55 326.29 236.91 327.07 232.27 327.1 227.57 327.13 222.87 326.75 218.23 326.12 217.17 325.98 216.04 325.77 215.15 325.35 209.72 322.79 203.56 322.07 197.46 321.06 192.38 320.22 187.34 319.28 182.22 318.57 180.49 318.34 179.11 317.93 178.37 319.74 177.94 320.79 176.43 320.91 174.95 320.58 172.94 320.13 171.15 319.35 169.48 318.47 166.91 317.12 164.25 315.85 161.92 314.25 159.95 312.89 157.72 311.85 155.23 311.05 151.66 309.91 148.65 308.25 146.08 305.91 144.28 304.26 142.59 302.26 139.6 301.42 136.74 300.62 134.44 299.11 131.99 297.81 130.6 297.07 130.66 295.87 132.26 295.68 134.16 295.45 136.17 294.67 138.13 295.75 139.13 296.29 140.33 296.37 141.53 295.94 141.37 294.95 140.16 294.67 139.48 294.06 137.98 292.72 136.53 291.35 136.39 289.54 136.22 287.53 134.75 286.22 132.81 285.03 131.04 283.95 131.07 283.41 132.64 282.23 133.72 281.43 135.02 281 136.53 280.91 137.61 280.85 138.69 280.83 140.02 280.78 139.83 279.49 139.54 278.28 139.51 277.06 139.47 275.73 140.46 275.28 142.12 275.76 143.52 276.15 144.58 276.9 145.55 277.73 149.02 280.7 153.37 282.84 157.72 285 162.36 287.29 166.82 289.77 171.77 291.74 174.95 293 178.42 293.96 181.11 295.87 181.39 296.06 181.66 296.2 182.04 296.07 186.06 294.74 189.13 296.25 192 298.04 193.94 299.25 196.22 299.79 198.51 300.33 205.9 302.06 213.33 303.69 220.72 305.4 222.59 305.84 224.48 306.11 226.41 306.21 232.08 306.51 237.63 307.65 243.35 307.66 245.8 307.67 248.23 307.57 250.47 306.85 252.51 306.2 253.68 306.57 254.32 308.66 255.18 307.35 254.84 306.07 256.36 305.56 257.63 305.14 258.95 305.13 260.27 305.06 266.77 304.74 273.32 304.89 279.74 303.85 284.35 303.11 288.82 301.97 293.49 301.35 299.67 300.54 305.76 299.34 311.99 298.65 314.26 298.4 316.46 297.89 318.62 297.27 320.84 296.63 322.94 296.27 323.26 293.78 323.48 292.11 325.89 290.88 328.22 290.15 333.77 288.42 339.13 286.38 344.55 284.46 348.68 282.99 352.7 281.31 356.85 279.85 362.68 277.81 368.71 276.28 375.15 275.81 376.81 275.68 378.62 275.67 378.62 273.78 378.62 272.83 379.67 272.68 380.75 272.79 382.18 272.94 383.61 273.16 385.06 273.24 388.83 273.43 392.53 273.01 396.13 272.21 397.39 271.93 398.56 271.69 399.47 272.49 400.51 273.41 401.8 273.43 403.11 273.26 408.73 272.54 414.43 272.88 420.08 272.5 424.1 272.23 428.3 272.29 432.08 273.73 435.8 275.15 439.63 276.46 442.88 278.47 445.4 280.03 448.31 280.96 451.48 280.96 455.39 280.96 459.09 281.83 462.85 282.33 466.28 282.78 469.66 283.17 473.14 283.36 476.98 283.58 480.66 284.63 484.24 285.68 490.31 287.48 496.36 289.27 502.7 290.47 505.32 290.96 507.96 291.04 510.59 291.28 514.45 291.63 518.26 292.04 521.84 293.23 522.92 293.59 523.93 293.49 525 293.22 532.87 291.28 541.01 290.45 549.2 289.81 549.32 289.8 549.44 289.81 549.56 289.79 552.08 289.46 554.11 288.12 557.23 288.92 559.62 289.53 562.69 288.63 565.46 288.46 568.23 288.29 571.07 288.41 573.77 288.01 578.52 287.32 583.38 287.57 588.13 286.66 592.29 285.86 596.66 285.67 601 285.45 604.18 285.3 607.4 284.56 610.44 283.62 616.83 281.64 623.49 280.36 630.21 279.19 633.35 278.65 636.7 278.44 639 276.34 639.58 275.81 640.65 275.73 641.2 276.4 642.18 277.59 643.47 277.09 644.75 276.98 650.64 276.45 656.31 275.11 662.1 274.21 664.34 273.86 666.68 274.87 668.89 273.51 670.78 272.35 673.47 272.5 675.83 272.13 679.02 271.64 682.18 271 685.49 270.98 688.15 270.96 690.54 269.97 693.17 269.65 696.91 269.2 700.65 269.77 704.3 269.12 705.04 268.98 705.71 269.19 706.42 269.28 709.27 269.68 712.12 270.05 715.05 269.58 716.46 269.36 717.94 269.38 719.35 269.77 720.51 270.08 721.72 270.15 722.93 270.11 726.65 269.98 730 270.26 733.58 271.69 736.91 273.02 741.05 273.65 745.04 273.94 746.24 274.03 747.47 274 748.58 274.4 753.08 275.99 757.96 276.68 762.65 277.82 764.72 278.32 766.61 279.23 768.23 280.32 771.99 282.87 776.8 283.46 781.38 284.53 785.61 285.53 789.82 286.63 793.96 287.82 796.67 288.61 799.43 289.25 802.19 289.9 805.53 290.68 808.82 291.6 812.19 292.31 813.94 292.67 815.05 293.4 815.27 294.66 815.53 296.13 816.68 296.51 818.36 296.84 820.56 297.27 822.62 297.32 824.78 296.81 826.62 296.38 828.51 296.05 830.39 295.72 831.67 295.49 832.92 295.17 834.19 295.92 835.42 296.64 836.52 296.16 837.26 295.32 839.52 292.71 843.08 291.9 846.84 291.42 849.1 291.13 851.4 290.91 853.69 290.84 855.4 290.78 856.66 290.32 857.82 289.42 862.1 286.1 867.05 283.31 871.23 279.9 871.76 279.47 872.31 278.73 873.26 278.97 874.3 279.23 874.45 280.04 874.51 280.77 874.54 281.12 874.44 281.46 874.35 282.19 877.56 281.31 880.11 279.93 882.92 279.01 888.7 277.11 894.62 275.54 900.6 274.1 905.34 272.96 909.67 271.15 914.3 269.86 914.73 269.74 915.33 269.5 915.43 269.23 916.17 267.23 917.82 266.98 920.13 267.7 920.54 267.83 921.13 267.81 921.56 267.7 925.58 266.66 929.9 266.89 933.97 265.99 938.05 265.09 942.42 265.53 946.51 264.62 946.81 264.56 947.31 264.65 947.52 264.81 949.68 266.46 952.39 265.77 954.7 265.46 956.63 265.2 958.5 265.06 960.4 265.12 964.37 265.25 968.34 265.1 972.31 265.55 974.31 265.78 976.42 265.68 978.45 265.51 982.61 265.15 986.57 265.92 990.56 266.54 994.2 267.11 997.81 267.8 1001.44 268.44 1005.78 269.2 1009.96 270.3 1014.06 271.6 1016.24 272.29 1018.25 273.29 1020.7 273.51 1021.81 273.62 1022.68 273.91 1023.47 272.92 1024.07 272.15 1025.03 272.58 1025.43 273.21 1026.23 274.47 1027.72 275.03 1029.24 275.6 1029.99 275.89 1030.79 276.16 1031.43 276.55 1039.61 281.59 1049.33 284.01 1059.37 285.89 1062.66 286.51 1066 286.9 1069.38 287.1 1070.61 287.17 1071.49 287.08 1071.9 285.78 1072.71 283.2 1074.94 281.66 1078.75 281.37 1082.71 281.07 1086.6 280.26 1090.56 279.91 1097.6 279.29 1104.56 278.27 1111.67 277.97 1117.81 277.71 1123.94 277.06 1129.38 274.57 1129.98 274.29 1130.79 273.79 1131.35 274.22 1133.23 275.66 1134.28 274.09 1135.77 273.81 1135.53 273.54 1135.45 273.37 1135.3 273.27 1134.42 272.72 1132.81 272.56 1133.15 271.35 1133.46 270.26 1134.69 269.78 1136.02 269.48 1136.37 269.4 1136.72 269.24 1137.06 269.25 1140.32 269.35 1143.31 268.42 1146.42 267.97 1153.99 266.89 1161.65 266.21 1169.18 264.94 1172.49 264.38 1175.85 264.4 1179.24 264.36 1183.32 264.31 1187.39 263.72 1191.45 263.32 1192.78 263.19 1194.06 262.99 1195.3 263.61 1195.67 263.8 1196.24 263.89 1196.69 263.85 1202.56 263.35 1208.43 264.33 1214.37 263.49 1218.93 262.83 1223.81 263.49 1228.44 262.98 1233.53 262.43 1238.28 263.2 1243.09 264.03 1244.67 264.3 1246.5 264.4 1247.32 265.82 1247.65 266.39 1248.56 266.28 1249.2 266.48 1253.37 267.77 1257.93 267.89 1262.17 268.93 1265.61 269.77 1268.99 270.75 1272.27 271.92 1273.06 272.2 1274.11 272.49 1273.9 273.17 1273.3 275.09 1275.22 275.65 1276.66 276.57 1277.55 277.15 1278.22 277.96 1278.82 278.73 1279.25 279.29 1279.27 279.98 1278.68 280.53 1278.1 281.07 1277.34 280.8 1276.68 280.62 1274.53 280.02 1272.37 279.42 1270.26 278.75 1269.35 278.47 1268.49 278.2 1267.25 278.4ZM416.93 287.3C416.15 287.43 415.35 286.98 414.61 287.31L416.95 287.31C417.89 288.06 419.04 288.17 420.3 287.9 420.94 288.58 421.66 288.91 422.73 288.24 421.86 287.85 421.01 288.05 420.2 287.98 419.29 287.27 417.91 287.84 416.93 287.3L416.93 287.3ZM1128.71 294.21C1130.11 293.83 1131.65 293.66 1133.11 292.4 1131.07 292.81 1129.3 292.65 1128.77 294.24 1126.94 293.8 1125.73 294.65 1124.57 295.59 1125.95 295.13 1127.33 294.67 1128.71 294.21L1128.71 294.21ZM1026.45 277.99C1025.13 277.96 1024.42 276.57 1022.45 277.03 1023.76 278.17 1025.03 278.37 1026.55 277.93 1027.23 279.71 1029.25 279.67 1031.07 279.9 1029.91 278.76 1027.95 278.72 1026.45 277.99L1026.45 277.99ZM1105.39 279.96C1101.67 280.68 1097.87 281.01 1094.07 281.35 1090.45 281.68 1086.89 282.23 1083.36 282.96 1083.85 283.1 1084.33 283.15 1084.78 283.1 1090.63 282.46 1096.49 281.82 1102.33 281.15 1103.49 281.01 1104.78 280.93 1105.4 279.96 1106.43 280.44 1107.43 281.05 1108.87 280.32 1107.64 279.68 1106.44 280.33 1105.39 279.96L1105.39 279.96ZM1025.91 286.59C1025.05 287.12 1024.2 285.75 1023.26 286.55 1024.2 287.28 1025.07 286.79 1025.94 286.59 1025.99 286.85 1025.91 287.24 1026.11 287.37 1030.16 289.99 1034.51 292.13 1040.07 292.45 1041.53 292.54 1042.3 291.98 1043.03 291.22 1043.37 290.88 1043.95 290.55 1043.51 290.06 1043.09 289.59 1042.43 289.32 1041.69 289.27 1040.8 289.2 1040.8 289.71 1040.76 290.16 1040.63 291.27 1039.9 291.53 1038.55 291.14 1034.18 289.86 1029.84 288.56 1025.91 286.59L1025.91 286.59ZM309.07 322.51C310.21 323.06 310.8 322.93 311.38 322.82 316.81 321.88 322.03 320.48 327.03 318.62 327.68 318.38 328.33 318.12 328.9 317.8 330 317.19 329.82 316.36 328.58 315.96 327.98 315.77 327.4 315.82 326.81 315.94 320.44 317.21 314.96 319.79 309.07 322.51L309.07 322.51ZM723.48 285.06C723.4 286.63 724.31 287.2 726.06 287.32 730.52 287.63 734.89 288.29 739.25 289.05 740.27 289.23 741.47 289.5 742.71 288.9 733.61 285.06 730.78 284.49 723.48 285.06L723.48 285.06ZM1053.7 287.94C1057 288.9 1060.08 290.18 1063.16 291.41 1066.54 292.77 1069.97 292.06 1073.4 292.07 1073.82 292.07 1074.42 291.87 1074.37 291.43 1074.33 291.1 1074.09 290.74 1073.81 290.47 1073.31 289.99 1072.53 290.1 1071.81 290.06 1067.83 289.83 1063.94 289.26 1060.07 288.5 1058.05 288.11 1055.97 287.49 1053.7 287.94L1053.7 287.94ZM410.77 286.67C409.43 286.37 408.05 285.52 406.75 286.21 405.58 286.83 404.9 286.51 403.87 286.18 399.84 284.89 393.56 286.24 390.64 288.98 397.7 289.8 404.05 287.36 410.77 286.67L410.77 286.67ZM721.46 298.71C722.37 300.33 722.37 300.33 723.9 300.57 729.88 301.51 735.87 302.39 741.69 303.84 742.42 304.02 743.3 304.45 744.34 304.07 740.06 301.36 727.38 298.61 721.46 298.71L721.46 298.71ZM971.45 282.41C970.82 281.73 969.78 281.82 968.89 281.81 965.4 281.76 961.92 281.37 958.42 281.59 956.63 281.71 954.69 281.37 953.11 282.12 951.46 282.91 949.73 282.96 947.92 282.99 947.28 283.01 946.48 282.63 946.1 283.29 946.14 283.73 946.58 283.77 946.9 283.75 954.83 283.22 962.78 283.2 970.73 282.95 971.07 282.94 971.41 282.78 971.45 282.41L971.45 282.41ZM325.84 294.82C329.42 294.93 332.14 293.41 335.03 292.27 339.55 290.48 341.37 289.29 342.45 287.38 336.54 289.76 330.37 291.22 325.84 294.82L325.84 294.82ZM810.92 295.63C810.62 294.92 810.04 294.79 809.47 294.63 804.84 293.31 800.22 291.98 795.59 290.67 794.79 290.45 793.78 289.68 793.16 290.76 792.69 291.59 793.45 292.11 794.47 292.39 796.05 292.84 797.59 293.43 799.22 293.73 802.96 294.41 806.75 294.96 810.92 295.63L810.92 295.63ZM467.74 295.68C462.86 294.64 458.09 293.41 453.01 293.41 457.36 296.26 462.24 297.2 467.74 295.68L467.74 295.68ZM939.33 272.93C934.56 271.89 929.82 271.56 924.83 273.68 930.08 275.14 934.67 273.84 939.33 272.93L939.33 272.93ZM689.46 291.29C682.99 290.85 677.04 292.82 670.9 293.87 676.86 293.55 682.79 292.99 688.71 292.4 689.17 292.35 689.59 292.1 689.46 291.29L689.46 291.29ZM1223.36 270.58C1219.48 268.73 1213.7 268.28 1208.27 269.47 1212.96 270.67 1217.68 270.39 1222.1 271.3 1222.49 271.38 1223.03 271.14 1223.36 270.58L1223.36 270.58ZM846.6 310.04C846.63 310.27 846.66 310.49 846.69 310.72 849.27 310.97 851.85 311.25 854.43 311.48 855.41 311.56 856.38 311.44 857.1 310.87 857.41 310.62 857.76 310.28 857.78 309.98 857.81 309.58 857.28 309.4 856.78 309.38 853.32 309.21 849.91 309.27 846.6 310.04L846.6 310.04ZM798.5 306.05C803.6 307.71 808.68 309.5 814.37 308.44 814.42 308.24 814.46 308.04 814.5 307.84 809.17 307.24 803.83 306.65 798.5 306.05L798.5 306.05ZM549.89 317.15C544.79 317.7 540.06 319 534.9 321.18 540.02 320.91 547.88 318.85 549.89 317.15L549.89 317.15ZM521.25 308.78C522.63 310.34 522.71 310.41 524.07 310.33 525.14 310.26 526.2 310.05 527.27 309.95 530.58 309.64 533.89 309.36 537.2 309.07 531.91 307.96 526.71 308.75 521.25 308.78L521.25 308.78ZM593.44 311.32C587.2 312.68 581 314.14 575.13 316.25 581.49 315.16 587.74 313.82 593.44 311.32L593.44 311.32ZM998 279.77C993.88 277.84 987.63 276.5 984.62 276.77 985 276.94 985.27 277.1 985.57 277.19 987.26 277.72 989.35 277.66 990.12 279.42 990.39 280.03 991.8 280.25 992.69 279.82 994.21 279.1 995.71 279.58 998 279.77L998 279.77ZM638.03 294.28C637.97 294.13 637.92 293.98 637.87 293.83 634.62 294.29 631.37 294.74 628.13 295.23 627.29 295.35 626.38 295.54 626.85 296.46 627.21 297.15 627.9 297.44 628.86 297.14 631.92 296.2 634.97 295.24 638.03 294.28L638.03 294.28ZM1255.16 288.15C1250.31 286.09 1242.01 284.52 1238.37 284.86 1243.7 286.36 1248.91 287.49 1255.16 288.15L1255.16 288.15ZM713.59 274.32C718.82 275.42 723.99 276.77 729.53 276.73 724.46 275.11 719.14 274.33 713.59 274.32L713.59 274.32ZM371.8 291.06C377.28 292.14 380.77 290.58 383.72 287.89 379.96 288.89 376.2 289.89 371.8 291.06L371.8 291.06ZM768.21 284.4C772.38 287.42 777.19 287.92 781.78 288.86 778.92 287.53 775.96 286.39 772.94 285.34 771.68 284.9 770.36 284.46 768.21 284.4L768.21 284.4ZM923.21 275.81C921.73 275.15 920.67 274.26 919.13 274.58 917.18 274.99 915.31 275.6 913.43 276.18 913.26 276.23 913.16 276.72 913.29 276.9 913.42 277.08 913.95 277.28 914.18 277.21 916.97 276.42 920.14 277 923.21 275.81L923.21 275.81ZM642.17 288.45C646.71 287.69 651.49 287.69 656.54 285.94 650.73 285.3 646.4 286.72 642.17 288.45L642.17 288.45ZM399.31 282.01C393.3 283.06 387.29 284.11 381.3 285.2 380.89 285.27 380.58 285.65 381 286.37 386.84 284.34 393.42 284.17 399.31 282.01L399.31 282.01ZM946.45 270.34C940.74 270.06 939.81 270.18 936.27 271.63 944.45 272.28 945.41 272.15 946.45 270.34L946.45 270.34ZM1053.03 300.4C1059.27 300.8 1060.71 300.64 1063.03 299.39 1060.07 298.61 1057.06 298.87 1053.03 300.4L1053.03 300.4ZM760.03 281.48C756.54 279.16 751.86 277.82 749.69 278.12 750.5 278.86 751.68 279.11 752.77 279.43 755.17 280.15 757.61 280.8 760.03 281.48L760.03 281.48ZM649.27 299.67C653.83 300.13 657.69 299.49 659.87 297.85 656.12 298.07 652.83 298.43 649.27 299.67L649.27 299.67ZM947.37 287.4C943.79 286.95 941.25 287.42 939.26 288.95 941.78 288.13 945.12 289.85 947.37 287.4L947.37 287.4ZM507.29 300.73C511.04 302.05 514.19 302.51 517.57 301.89 514.2 302.31 511.67 299.45 507.29 300.73L507.29 300.73ZM598.9 305.59C596.21 305.36 594 306.36 591.63 306.87 591.17 306.96 590.86 307.36 591.07 307.75 591.28 308.13 591.8 308.21 592.27 308.02 594.45 307.18 596.99 306.9 598.9 305.59L598.9 305.59ZM303.98 316.14C301.05 316 298.31 316.44 295.92 317.8 298.84 317.96 301.5 317.37 303.98 316.14L303.98 316.14ZM941.84 281.86C939.93 283.99 936.93 283.7 934.73 284.78 936.44 284.55 938.11 284.61 939.77 284.53 941.49 284.44 942.24 283.69 941.84 281.86L941.84 281.86ZM1099.65 289.51C1098.27 289.46 1097.05 289.59 1095.97 290.22 1095.59 290.43 1095.25 290.72 1095.34 291.11 1095.44 291.52 1095.95 291.62 1096.42 291.67 1098.22 291.85 1098.85 291.44 1099.65 289.51L1099.65 289.51ZM968.27 275.11C970.67 276.04 973.25 275.95 975.82 275.93 973.54 274.57 971.01 274.42 968.27 275.11L968.27 275.11ZM1057.5 304.42C1055.39 303.94 1054.19 303.57 1052.85 303.56 1052.26 303.56 1051.56 303.51 1051.44 304.1 1051.32 304.71 1051.71 305.19 1052.58 305.22 1053.99 305.28 1055.38 305.17 1057.5 304.42L1057.5 304.42ZM557.94 308.79C562.72 310.04 562.72 310.04 564.42 307.82 562.13 308.16 560.03 308.48 557.94 308.79L557.94 308.79ZM990.32 269.09C988.02 268.39 985.72 267.6 983.11 268.47 985.47 268.88 987.73 269.68 990.32 269.09L990.32 269.09ZM1200.23 283.96C1197.71 284.49 1194.96 283.2 1192.64 284.62 1195.19 284.3 1197.87 285.1 1200.23 283.96L1200.23 283.96ZM877.45 294.39C874.96 294.43 872.56 294.67 870.88 296.33 873.25 296.04 875.6 295.72 877.45 294.39L877.45 294.39ZM526.39 305.25C524.22 304.42 521.99 304.35 519.25 304.27 521.59 306.33 524.17 305.21 526.39 305.25L526.39 305.25ZM478.21 295.93C476.75 295.23 475.65 294.74 474.34 294.56 473.36 294.42 473.11 294.86 472.97 295.44 472.82 296.08 473.36 296.22 474 296.16 475.27 296.02 476.55 296.62 478.21 295.93L478.21 295.93ZM468.96 304.9C467.75 303.61 465.76 303.47 463.99 302.96 463.66 302.86 463.21 302.98 463.11 303.26 462.98 303.62 463.12 304.02 463.69 304.11 465.44 304.4 467.2 304.64 468.96 304.9L468.96 304.9ZM680.57 285C686.04 285.91 686.87 285.87 689.11 284.6 686.32 284.37 683.84 284.74 680.57 285L680.57 285ZM539.99 296.36C537.65 295.59 535.55 295.98 532.91 297.07 535.81 297.44 537.88 296.75 539.99 296.36L539.99 296.36ZM340.37 314.85C338.51 315.77 337.16 316.37 336.34 317.63 339.97 317.53 339.97 317.53 340.37 314.85L340.37 314.85ZM1211.47 278.66C1211.43 278.57 1211.4 278.48 1211.36 278.4L1201.95 278.4C1201.96 278.48 1201.97 278.57 1201.97 278.66L1211.47 278.66 1211.47 278.66ZM809.22 312.45C809.47 312.31 809.53 312.07 809.27 312.02 807.13 311.59 805.02 310.96 802.75 311.22 804.84 311.91 806.86 312.74 809.22 312.45L809.22 312.45ZM540.86 315.64C539.41 315.49 537.95 315.13 536.51 316.02 538.35 317.36 539.6 316.27 540.86 315.64L540.86 315.64ZM1154.66 270.34C1156.64 270.37 1158.54 270.2 1160.12 269.17 1158.15 269.16 1156.2 269.22 1154.66 270.34L1154.66 270.34ZM384.49 299.73C382.1 299.34 380.51 299.61 378.8 300.83 380.99 301.17 382.5 300.67 384.49 299.73L384.49 299.73ZM367.16 295.16C367.11 294.16 367.36 293.21 367.95 292.11 365.01 293.07 365.01 293.07 367.16 295.16L367.16 295.16ZM187.22 314.67C190.02 316.26 190.07 316.28 193.88 316.4 191.26 315.8 189.79 314.64 187.22 314.67L187.22 314.67ZM837.72 312.98C835.62 312.67 834.38 312.56 833.28 313.46 834.5 313.38 835.79 313.83 837.72 312.98L837.72 312.98ZM700.61 295.58C698.08 295.05 695.56 295.03 693.05 295.58L700.61 295.58 700.61 295.58ZM282.37 325.1C281.13 324.89 279.84 324.57 278.32 325.44 280 325.71 281.21 325.69 282.37 325.1L282.37 325.1ZM756.13 300.58C757.78 301.95 759.51 301.59 761.02 301.87 759.73 301.16 758.37 300.66 756.13 300.58L756.13 300.58ZM1113.62 285.69C1111.72 285.64 1110.4 286.43 1109.11 287.26 1110.91 287.22 1112.36 286.59 1113.62 285.69L1113.62 285.69ZM1144.78 281.68C1142.53 281.63 1141.29 282.02 1139.49 283.03 1141.71 282.98 1142.93 282.54 1144.78 281.68L1144.78 281.68ZM735.84 278.53C734.54 278.08 733.34 277.36 731.19 277.53 732.81 278.75 734.24 278.87 735.84 278.53L735.84 278.53ZM581.66 310.74C582.91 310.34 584.44 310.51 585.67 309.56 583.84 309.44 582.64 309.95 581.66 310.74L581.66 310.74ZM875.81 308.31C872.54 308.62 872.9 308.42 871.33 309.85 872.91 309.48 874.23 309.21 875.81 308.31L875.81 308.31ZM980.2 282.55C981.78 283.18 982.85 283.17 984.1 282.93 983.07 282.31 982.09 281.98 980.2 282.55L980.2 282.55ZM1082.27 289.23C1080.56 289.22 1079.41 289.39 1077.83 290.29 1079.87 290.48 1080.99 290.24 1082.27 289.23L1082.27 289.23ZM561.1 302.5C562.82 302.8 563.96 302.47 565.42 301.92 563.75 301.58 562.64 302.03 561.1 302.5L561.1 302.5ZM915.4 289.48C914.17 289.81 912.86 290.06 911.88 291.23 913.67 290.93 914.71 290.41 915.4 289.48L915.4 289.48ZM674.82 281.8C676.93 281.95 676.93 281.95 678.24 281.15 676.99 281.08 675.93 281.48 674.82 281.8L674.82 281.8ZM854.23 291.65C852.71 291.53 851.7 291.76 850.3 292.28 851.93 292.57 853 292.51 854.23 291.65L854.23 291.65ZM544.19 291.66C545.05 291.48 546.15 292.01 546.81 291.14 545.72 290.79 544.89 291.06 544.19 291.66L544.19 291.66ZM953.53 287.59C954.04 288.18 954.63 287.91 955.14 287.73 955.57 287.58 956.33 287.81 956.43 287.15 955.34 286.99 954.33 286.86 953.53 287.59L953.53 287.59ZM1050.17 292.2C1048.74 291.59 1047.72 291.15 1046.3 292.17 1047.62 292.75 1048.66 292.8 1050.17 292.2L1050.17 292.2ZM931.11 292.67C929.77 292.5 928.62 292.6 927.6 293.44 929.22 293.83 930.06 292.91 931.11 292.67L931.11 292.67ZM929.12 286.78C927.9 286.84 927.06 286.85 926.57 287.91 927.6 287.79 928.47 287.84 929.12 286.78L929.12 286.78ZM356.36 296.31C355.34 296.39 354.24 296.38 353.4 297.15 354.76 297.46 355.54 296.83 356.36 296.31L356.36 296.31ZM888.49 304.24C890.7 303.97 890.7 303.97 892.1 302.89 890.72 303.16 889.53 303.38 888.49 304.24L888.49 304.24ZM480 308.01C480.02 307.66 479.65 307.54 479.32 307.51 479 307.47 478.54 307.48 478.33 307.62 478.01 307.86 478.26 308.11 478.64 308.18 479.11 308.28 479.59 308.28 480 308.01L480 308.01ZM1121.22 292.64C1120.01 292.4 1119.2 292.65 1118.32 293.31 1119.63 293.65 1120.43 293.38 1121.22 292.64L1121.22 292.64ZM356.44 305.59C357.59 305.46 356.93 305.67 357.34 305.65 358 305.62 358.63 305.35 359.28 305.18 359.2 305.03 359.18 304.81 359.02 304.73 358.55 304.5 358.16 304.76 357.77 304.95 357.48 305.09 357.2 305.23 356.44 305.59L356.44 305.59ZM1097.67 300.7C1097.7 300.31 1097.33 300.26 1096.99 300.26 1096.41 300.26 1095.73 300.32 1095.56 300.78 1095.41 301.18 1095.98 301.32 1096.42 301.35 1097.05 301.38 1097.49 301.14 1097.67 300.7L1097.67 300.7ZM1014.71 297.34C1015.03 297.86 1015.63 298.04 1016.32 298.06 1016.39 298.06 1016.58 297.69 1016.53 297.66 1016.01 297.32 1015.4 297.2 1014.71 297.34L1014.71 297.34ZM346.87 309.22C346.93 308.85 346.62 308.78 346.25 308.8 345.79 308.83 345.34 308.93 345.12 309.28 344.94 309.58 345.15 309.77 345.52 309.81 346.16 309.88 346.61 309.66 346.87 309.22L346.87 309.22ZM1018.96 284.98C1019.14 285.49 1019.76 285.53 1020.29 285.63 1020.7 285.7 1021.01 285.55 1020.72 285.22 1020.4 284.86 1019.88 284.65 1019.29 284.63 1019.18 284.63 1019.07 284.85 1018.96 284.98L1018.96 284.98ZM1219.06 284.85C1219.14 284.64 1219.03 284.49 1218.73 284.46 1218.38 284.43 1217.86 284.32 1217.7 284.44 1217.27 284.78 1217.88 284.8 1218.1 284.89 1218.41 284.99 1218.76 285.09 1219.06 284.85L1219.06 284.85ZM610.54 305.38C611.03 305.04 612.16 305.43 612.12 304.57 611.42 304.63 610.83 304.84 610.54 305.38L610.54 305.38ZM968.59 272.13C968.79 271.93 968.69 271.83 968.34 271.85 968 271.88 967.61 271.89 967.36 272.03 967.19 272.13 967.39 272.4 967.64 272.37 967.98 272.34 968.3 272.21 968.59 272.13L968.59 272.13ZM534.08 316.45C534.06 316.13 533.89 316.07 533.64 316.24 533.38 316.42 533.09 316.6 532.97 316.83 532.86 317.05 533.1 317.12 533.37 316.93 533.62 316.76 533.87 316.59 534.08 316.45L534.08 316.45ZM315.44 323.48C315.28 323.17 314.93 323.17 314.61 323.27 314.43 323.32 314.19 323.47 314.17 323.59 314.1 323.93 314.47 323.98 314.8 323.95 315.16 323.93 315.42 323.78 315.44 323.48L315.44 323.48ZM649.13 288.42C649.83 288.5 650.33 288.62 651.25 288.13 650.35 288.22 649.87 287.95 649.13 288.42L649.13 288.42ZM832.33 303.86C832.29 303.52 831.95 303.36 831.61 303.46 831.31 303.55 831.01 303.79 830.9 304.02 830.77 304.3 831.06 304.55 831.46 304.55 832.02 304.55 832.26 304.24 832.33 303.86L832.33 303.86ZM323.94 321.47C323.91 321.18 323.74 321.08 323.48 321.18 323.2 321.29 322.96 321.45 322.71 321.59 322.87 321.67 323.07 321.82 323.2 321.79 323.48 321.73 323.72 321.57 323.94 321.47L323.94 321.47ZM694.5 284.53C694.39 284.42 694.28 284.22 694.17 284.22 693.73 284.23 693.19 284.2 692.9 284.38 692.57 284.57 692.87 284.84 693.27 284.85 693.71 284.86 694.17 284.84 694.5 284.53L694.5 284.53ZM665.17 283.94C664.89 283.92 664.68 283.87 664.47 283.88 664.32 283.89 664.18 283.97 664.03 284.02 664.24 284.04 664.45 284.09 664.66 284.09 664.81 284.08 664.96 284.01 665.17 283.94L665.17 283.94ZM887.98 280.83C887.8 280.79 887.56 280.68 887.44 280.73 887.19 280.84 887 281.03 886.78 281.19 886.98 281.22 887.18 281.3 887.37 281.29 887.7 281.26 887.98 281.13 887.98 280.83L887.98 280.83ZM363.01 302.52C363.32 302.61 363.54 302.73 363.75 302.72 364.12 302.69 364.48 302.55 364.36 302.21 364.32 302.1 363.92 301.96 363.8 302 363.51 302.11 363.29 302.33 363.01 302.52L363.01 302.52ZM545.41 296.94C544.95 296.91 544.62 296.85 544.3 296.87 543.97 296.89 543.89 297.07 544.14 297.17 544.33 297.24 544.6 297.25 544.81 297.23 544.98 297.21 545.13 297.08 545.41 296.94L545.41 296.94Z" fill="#3778FF"/></g></g></g></g></svg>