<svg width="358" height="379" viewBox="0 0 358 379" fill="none" xmlns="http://www.w3.org/2000/svg">
<path d="M300.859 104.01C295.701 98.4088 290.589 92.7536 285.384 87.2038C264.923 65.3853 240.63 54.6516 213.45 45.6674C203.641 42.4252 193.237 39.2775 182.497 36.5695M182.497 36.5695C155.718 29.818 126.846 25.7996 99.8901 29.8632M182.497 36.5695C190.297 31.8711 198.523 28.0614 207.702 25.7875C217.575 23.3421 227.84 21.7414 238.066 20.6275M182.497 36.5695C174.165 41.5882 166.319 47.6209 158.317 53.8786C148.194 61.794 137.838 69.384 126.439 74.7668C118.134 78.6884 111.446 83.272 105.084 90.1809C92.6827 103.65 88.7279 125.01 81.2094 142.041C77.9605 149.401 74.5636 158.022 72.1016 165.763C69.4602 174.067 65.0899 182.321 64.5412 191.261C63.9419 201.024 66.5237 207.832 70.8636 216.375C75.0612 224.638 79.6996 232.411 84.8113 239.808M99.8901 29.8632C81.5358 32.6302 64.0697 39.1441 48.7572 51.0935C36.7413 60.4703 25.7831 70.8593 15.3323 82.2098C7.23489 91.0043 1.29054 96.4406 2.06842 109.677C2.80492 122.208 4.91234 134.688 5.16332 147.227C5.36759 157.433 6.8911 170.018 11.751 178.968C16.4746 187.667 20.9918 194.19 27.535 201.297C32.4324 206.616 37.7417 214.698 43.8938 218.296C51.7621 222.897 60.4684 225.051 68.6742 229.111M99.8901 29.8632C105.817 23.3216 112.084 16.9892 119.321 12.7744C133.023 4.79424 143.698 1.73275 159.201 2.01813C181.022 2.41982 203.328 8.19748 223.928 15.6555C228.627 17.3566 233.343 19.0034 238.066 20.6275M99.8901 29.8632C96.7831 33.2927 93.7698 36.7796 90.7594 40.0492C78.9191 52.9088 75.5084 70.3552 71.0404 87.3958C67.4547 101.072 62.54 114.333 59.103 128.02C55.4744 142.47 57.6509 158.516 58.1745 173.302C58.8545 192.503 62.3399 211.424 68.6742 229.111M68.6742 229.111C70.663 230.095 72.6224 231.191 74.5333 232.461C78.0664 234.809 81.4853 237.262 84.8113 239.808M68.6742 229.111C75.4003 247.893 85.3385 265.284 98.5408 280.144C108.699 291.578 119.971 308.028 133.823 314.045C149.447 320.833 164.087 329.867 178.478 339.303C178.994 339.642 179.513 339.969 180.034 340.285M84.8113 239.808C100.063 251.483 113.361 265.123 126.749 279.664C131.234 284.535 135.899 289.335 140.574 294.162M84.8113 239.808C90.0567 247.398 95.8005 254.592 102.078 261.513C114.084 274.748 125.557 284.618 140.278 293.973C140.376 294.036 140.475 294.099 140.574 294.162M140.574 294.162C149.841 303.729 159.145 313.401 167.159 323.937C171.414 329.532 175.651 334.971 180.034 340.285M140.574 294.162C155.788 303.834 170.859 313.642 185.773 323.889C205.283 337.295 227.214 332.381 246.831 321.728C269.5 309.418 292.098 292.383 308.112 270.522M180.034 340.285C183.563 344.564 187.186 348.761 190.99 352.893C197.267 359.71 203.715 369.335 211.726 373.685C220.792 378.608 236.491 377.353 245.991 374.405C254.486 371.769 261.901 365.731 268.849 360.047C276.82 353.526 285.152 347.647 293.21 341.272C305.842 331.279 318.899 321.545 328.89 308.283C336.993 297.527 344.103 285.219 346.84 271.501C348.635 262.506 348.115 252.846 349.007 243.698C350.072 232.767 351.53 222.048 353.339 211.237C357.575 185.936 356.638 159.977 351.35 134.935C346.877 113.754 343.098 92.0283 335.08 72.0298L334.904 71.5931C327.224 52.4363 319.153 32.3041 300.063 24.0108C285.103 17.5117 268.717 18.171 252.932 19.305C248.019 19.6579 243.047 20.085 238.066 20.6275M180.034 340.285C205.319 355.628 235.671 344.566 259.122 330.084C271.863 322.215 286.321 313.033 295.995 300.792C302.681 292.333 306.112 281.602 308.112 270.522M238.066 20.6275C250.24 24.8141 262.461 28.8504 274.552 33.2785C286.893 37.7983 295.637 43.7553 304.131 54.3588C314.763 67.6329 321.248 85.7368 326.325 102.282C330.969 117.413 330.216 132.441 330.216 148.188C330.216 172.643 333.219 196.613 329.332 220.985C326.361 239.613 318.666 256.115 308.112 270.522M308.112 270.522C309.525 262.698 310.223 254.699 310.851 247.203C313.103 220.296 312.394 191.806 318.455 165.475C321.771 151.072 326.941 136.773 324.734 121.681C320.886 95.3785 293.884 80.8772 277.78 63.3864" stroke="#A5D718" stroke-width="4" stroke-linecap="round"/>
</svg>
