<svg width="284" height="133" viewBox="0 0 284 133" fill="none" xmlns="http://www.w3.org/2000/svg">
<path d="M23.5556 128.556C23.5556 127.83 23.3279 127.05 22.9631 126.259C23.7709 127.009 24.5571 127.665 25.2951 128.162C26.1446 127.357 26.97 126.086 28.4102 124.925C29.8996 123.099 31.6983 121.126 32 120.778C35.4835 116.758 38.1665 116.451 42.3333 114C46.2008 111.725 37.4742 116.866 32.7177 121.985C33.8269 121.234 34.8907 120.487 35.7778 119.778C38.9047 117.276 35.0234 120.977 34 122C32.8075 123.193 31.4787 124.624 30.0987 125.857C30.0312 126.057 29.9793 126.253 29.9444 126.444C29.3489 129.72 27.5465 129.68 25.2951 128.162C24.8171 128.615 24.3315 128.921 23.7244 128.977C25.6805 129.911 27.726 131 26.3889 131C23.883 131 21.9 130.235 20.0863 129.12C17.6716 129.136 14.8195 128.928 14.4444 128.778C12.0886 127.835 10.6386 123.935 9.83448 121.401C8.81357 120.443 8 119.389 8 118.444C8 117.976 8.20533 117.951 8.52855 118.176C7.78008 116.609 7.2155 115.309 9 117C12.7148 120.519 16.782 125.767 21.5 127.944C21.9491 128.152 22.6181 128.455 23.3314 128.79C23.4759 128.724 23.5556 128.646 23.5556 128.556Z" fill="#1E1E1E"/>
<path d="M273 2C273 5.4297 276.269 8.39605 278.222 11C282.217 16.3264 282.993 23.5959 281.833 30.1667C279.786 41.7671 269.461 53.1732 261.056 60.7778C245.118 75.1975 224.965 82.1758 204.333 86.4444C186.98 90.0347 169.085 90.5705 151.444 92.2222C134.071 93.8489 115.212 95.789 97.8333 92.3889C86.6185 90.1947 75.2047 89.2594 64 87.2222C58.9774 86.309 49.1903 85.5354 44.4444 88.5556C40.6459 90.9728 36.3404 92.6869 32.4444 95.1111C25.7713 99.2633 23.7583 101.559 20.7778 108.667C19.3238 112.134 16.3237 117.271 18.5556 120.111C20.1211 122.104 23.5556 125.738 23.5556 128.556C23.5556 129.491 15.1092 129.044 14.4444 128.778C11.7854 127.714 10.2804 122.882 9.55556 120.5C9.05423 118.853 6.26193 114.406 9 117C12.7148 120.519 16.782 125.767 21.5 127.944C23.2449 128.75 28.3106 131 26.3889 131C20.6796 131 17.6842 127.028 13.2222 124C11.703 122.969 8 120.46 8 118.444C8 116.813 10.4901 120.554 11.7778 121.556C14.7087 123.835 17.8139 126.008 20.9444 128C25.3065 130.776 25.226 127.077 29.0556 124.444C31.264 122.926 33.9117 121.271 35.7778 119.778C38.9047 117.276 35.0234 120.977 34 122C32.0858 123.914 29.8206 126.445 27.5556 127.778C23.3627 130.244 31.3336 121.547 32 120.778C35.4835 116.758 38.1665 116.451 42.3333 114C47.3785 111.032 30.9915 120.686 29.9444 126.444C28.2489 135.77 16.7699 118.218 13 116.222C11.3973 115.374 8.18524 116.982 7 115.5C5.45985 113.575 3.77573 111.776 2 110" stroke="#A5D718" stroke-width="3" stroke-linecap="round"/>
</svg>
