<svg width="42" height="48" viewBox="0 0 42 48" fill="none" xmlns="http://www.w3.org/2000/svg">
<path d="M2.37891 18.0991C2.37891 21.8046 2.88735 46.4995 4.1252 46.0398C9.46903 44.0549 14.3089 40.446 19.8418 38.5307C25.4656 36.584 31.2684 35.504 37.2174 35.3874C43.7605 35.2591 38.0216 25.1435 37.1301 21.0678C35.824 15.0969 34.8746 9.25444 34.598 3.16834C34.5302 1.67695 32.5153 3.04795 31.8912 3.34297C24.6687 6.75723 12.6713 5.70493 7.26852 11.8125C6.64543 12.5168 3.3338 16.1476 3.51399 17.1387C3.65316 17.9041 5.05937 17.3229 5.82783 17.4443C8.14298 17.8098 10.3636 18.5611 12.5074 19.4962C15.4958 20.7996 17.9585 24.5985 19.8418 21.5044C23.9674 14.7267 28.7139 8.26137 33.0263 1.59668" stroke="#A5D718" stroke-width="3" stroke-linecap="round"/>
</svg>
