<svg width="230" height="130" viewBox="0 0 230 130" fill="none" xmlns="http://www.w3.org/2000/svg">
<path d="M51.7515 54.0664C51.7515 69.2355 60.7736 79.2163 72.7069 87.4206C82.9822 94.4848 94.3385 98.7988 106.585 101.042C116.933 102.937 128.002 104.818 138.324 101.915C146.53 99.6069 154.291 96.0822 162.204 92.965C167.585 90.8454 179.043 88.1349 181.195 81.8324C183.3 75.6684 183.771 67.6531 183.771 61.1389" stroke="#A5D718" stroke-width="3" stroke-linecap="round"/>
<path d="M98.1151 27.348C94.1783 32.1598 100.405 32.7474 104.227 32.8488C106.098 32.8985 109.978 33.3217 107.021 30.9279C103.961 28.4505 100.402 26.548 96.5435 25.7764" stroke="#A5D718" stroke-width="3" stroke-linecap="round"/>
<path d="M142.122 29.7056C128.825 29.7056 138.131 52.74 150.591 49.0021C157.98 46.7854 151.958 37.1548 149.194 33.8093C147.534 31.8004 145.277 31.2813 142.907 30.4914" stroke="#A5D718" stroke-width="3" stroke-linecap="round"/>
<path d="M119.333 54.0664C116.853 54.6174 116.795 57.7241 118.722 58.825C122.331 60.8875 124.856 61.4692 128.763 60.3531" stroke="#A5D718" stroke-width="3" stroke-linecap="round"/>
<path d="M143.693 2.98747C110.639 2.98747 76.4452 0.937667 44.1548 9.62338C24.5731 14.8906 10.0253 31.5966 4.73233 50.9668C2.62055 58.695 2.19064 66.9746 1.80729 74.9346C1.46594 82.0228 0.987477 90.1321 3.55358 96.9379C9.05261 111.522 30.501 114.955 43.6309 117.5C60.9405 120.856 78.6691 124.09 96.1943 126.014C122.448 128.896 151.335 129.706 176.786 121.124C189.935 116.69 201.666 107.63 212.148 98.7715C217.269 94.4437 223.631 90.0534 226.817 83.9717C233.992 70.2729 216.328 50.8346 208.917 40.7947C197.434 25.2362 182.465 12.0026 163.688 6.48006C155.48 4.06572 147.525 0.850762 138.978 2.98747" stroke="#A5D718" stroke-width="3" stroke-linecap="round"/>
</svg>
