<svg xmlns="http://www.w3.org/2000/svg" xmlns:xlink="http://www.w3.org/1999/xlink" preserveAspectRatio="xMidYMid" width="957.09" height="1181" viewBox="0 0 957.09 1181">
  <defs>
    <style>
      .cls-1 {
        fill: #3778ff;
        fill-rule: evenodd;
      }
    </style>
  </defs>
  <path d="M175.186,985.818 C174.892,989.066 174.402,991.556 174.504,994.022 C174.671,998.023 175.120,1001.999 175.204,1006.025 C175.287,1010.034 173.237,1011.641 170.008,1011.773 C167.722,1011.867 167.947,1012.697 167.705,1014.376 C166.757,1020.947 168.203,1027.580 166.979,1034.130 C166.622,1036.039 166.793,1038.202 168.249,1039.488 C170.936,1041.862 171.588,1045.224 173.251,1048.074 C176.580,1053.777 175.891,1059.695 175.506,1065.763 C175.178,1070.929 174.188,1076.092 176.077,1081.287 C178.375,1087.603 179.391,1094.331 181.906,1100.602 C184.094,1106.059 182.376,1111.626 181.788,1116.989 C180.702,1126.892 181.025,1136.594 182.800,1146.348 C183.501,1150.200 183.687,1154.145 184.128,1158.243 C181.966,1157.810 181.946,1156.371 181.418,1155.361 C180.020,1152.686 178.497,1149.858 175.843,1148.516 C170.837,1145.985 170.909,1141.350 169.769,1136.905 C168.389,1131.523 167.260,1126.179 167.104,1120.623 C167.066,1119.289 166.398,1118.934 164.909,1119.425 C161.342,1120.601 158.152,1122.159 154.837,1117.634 C152.079,1113.868 151.827,1110.728 153.047,1106.793 C153.587,1105.052 152.931,1103.686 152.132,1101.971 C149.835,1097.042 149.749,1091.501 149.858,1086.177 C150.028,1077.950 151.152,1069.740 151.283,1061.514 C151.379,1055.486 150.399,1049.450 150.128,1043.407 C149.153,1021.632 140.490,1001.712 135.225,980.971 C133.700,974.963 132.137,968.917 131.314,962.791 C130.421,956.146 127.881,950.020 125.811,943.818 C124.023,938.459 122.699,932.980 121.010,927.607 C119.739,923.564 118.716,919.581 115.692,916.389 C115.035,915.694 114.672,914.362 114.761,913.378 C115.305,907.376 113.289,901.588 113.529,895.576 C113.716,890.885 111.535,886.438 111.036,881.701 C109.825,870.195 108.003,858.703 108.054,847.150 C108.085,840.205 108.631,833.154 109.389,826.228 C110.238,818.463 107.873,811.424 106.416,804.102 C104.094,792.437 99.284,781.517 96.766,769.885 C93.972,756.980 90.014,744.331 86.847,731.501 C84.885,723.557 82.434,715.674 82.249,707.379 C82.206,705.433 81.682,704.291 79.377,703.780 C74.169,702.627 69.765,700.271 68.977,694.139 C68.774,692.557 67.406,691.688 66.372,690.620 C61.773,685.865 57.211,681.073 52.638,676.292 C51.459,675.059 50.414,673.657 51.559,671.979 C53.414,669.261 52.810,668.268 49.580,667.507 C45.101,666.452 41.982,663.081 38.846,659.847 C33.100,653.923 28.438,647.281 24.770,639.901 C23.791,637.930 23.284,635.952 24.780,634.224 C26.292,632.477 28.263,633.492 30.088,633.966 C33.394,634.826 35.158,637.508 37.023,639.951 C39.071,642.632 40.846,645.528 42.651,648.386 C43.715,650.070 44.944,652.883 46.808,651.597 C48.157,650.665 49.254,647.434 47.409,645.015 C44.221,640.834 41.068,636.627 37.881,632.445 C31.845,624.522 26.276,616.322 22.847,606.873 C22.501,605.919 22.145,604.963 21.103,604.854 C15.085,604.227 12.696,600.709 10.733,595.059 C8.665,589.108 6.267,583.229 4.686,577.113 C2.352,568.080 1.979,558.729 0.645,549.533 C-1.024,538.031 1.032,526.667 1.785,515.279 C2.058,511.159 3.963,507.147 4.493,502.842 C5.572,494.067 5.441,485.328 4.444,476.639 C4.009,472.846 4.657,469.237 4.797,465.572 C5.101,457.634 4.626,449.616 6.820,441.799 C8.055,437.403 5.736,433.102 5.998,428.560 C6.304,423.252 7.100,418.126 8.488,413.074 C9.360,409.902 8.908,407.009 6.946,404.657 C4.058,401.198 3.614,397.387 4.589,393.330 C5.660,388.870 5.738,384.256 7.294,379.844 C8.682,375.905 6.427,372.158 5.198,368.489 C4.453,366.263 2.240,364.179 3.962,361.812 C5.890,359.160 9.197,359.208 11.804,360.089 C15.325,361.278 16.288,359.760 17.269,356.933 C18.871,352.321 20.604,347.758 22.630,343.288 C23.895,340.496 25.521,340.145 28.029,340.567 C32.159,341.263 34.400,344.275 36.720,347.991 C37.737,345.671 36.718,344.210 35.962,342.798 C31.053,333.623 27.203,324.054 24.399,314.012 C21.563,303.854 19.143,293.488 20.190,283.061 C21.068,274.309 22.016,265.420 24.330,256.826 C24.820,255.005 25.527,253.215 25.777,251.363 C26.885,243.165 32.362,237.626 37.121,231.477 C39.986,227.774 44.130,225.045 45.836,220.415 C46.085,219.738 46.862,219.125 47.544,218.762 C51.047,216.898 53.107,213.593 55.756,210.858 C60.599,205.856 62.484,198.946 67.171,193.833 C71.490,189.123 75.471,184.270 81.215,180.947 C86.278,178.018 91.398,174.705 94.626,169.518 C96.039,167.248 98.566,167.422 100.431,166.127 C111.669,158.327 123.992,152.326 136.130,146.176 C141.270,143.573 146.905,141.198 152.459,139.103 C158.025,137.003 164.167,135.876 169.429,132.396 C173.639,129.612 179.162,129.442 184.140,128.253 C185.435,127.944 187.297,128.075 187.577,126.578 C188.524,121.524 192.053,123.124 194.383,124.319 C198.747,126.558 202.460,126.228 207.072,124.670 C212.329,122.894 218.205,123.016 223.490,120.787 C225.070,120.120 226.953,120.121 227.490,117.909 C227.747,116.854 229.033,116.427 229.837,116.845 C233.314,118.656 233.322,115.911 233.675,113.946 C234.339,110.259 236.197,106.773 235.443,102.824 C235.213,101.623 235.813,100.360 236.825,99.576 C240.980,96.356 242.148,91.384 244.338,87.004 C248.308,79.061 251.008,70.400 257.832,64.091 C262.001,60.237 266.272,56.488 271.050,53.481 C273.293,52.069 276.295,52.540 278.910,50.892 C283.908,47.742 287.113,42.628 292.157,39.703 C297.102,36.837 301.747,33.467 307.021,31.144 C312.247,28.842 316.815,25.457 320.868,21.475 C322.718,19.657 324.585,18.345 327.225,18.527 C329.076,18.654 330.589,17.962 331.102,16.258 C331.958,13.415 334.122,13.223 336.505,12.325 C343.366,9.741 350.533,9.773 357.590,8.849 C359.325,8.623 361.151,8.306 362.831,8.609 C367.540,9.458 371.632,9.225 375.313,5.406 C377.744,2.884 381.789,3.940 384.932,2.815 C396.175,-1.207 407.526,-0.498 418.850,2.087 C423.889,3.238 428.364,5.794 431.971,9.641 C434.091,11.901 436.499,13.488 439.786,13.207 C440.455,13.149 441.205,13.088 441.804,13.320 C451.470,17.064 462.238,17.385 471.330,22.945 C476.651,26.198 480.445,30.963 484.339,35.617 C487.607,39.523 492.017,41.491 496.482,43.433 C497.053,43.682 497.821,43.672 498.454,43.552 C510.272,41.310 522.146,40.554 534.125,42.028 C538.056,42.511 539.194,39.231 540.383,36.692 C542.531,32.108 545.572,31.082 549.283,34.593 C551.614,36.798 554.118,39.281 555.291,42.151 C557.730,48.124 563.093,50.273 568.008,52.787 C573.402,55.546 578.681,58.466 583.694,61.813 C586.642,63.781 589.793,65.310 592.864,66.999 C595.766,68.595 598.042,68.067 598.853,64.339 C600.280,57.774 603.792,56.685 609.853,59.737 C616.888,63.280 623.409,67.425 628.963,72.934 C633.073,77.011 635.955,82.066 638.921,87.038 C644.599,96.555 648.446,107.220 656.490,115.267 C657.148,115.926 657.615,117.093 658.655,116.910 C664.099,115.948 669.314,118.296 674.728,117.874 C679.335,117.514 681.688,113.911 684.542,111.196 C686.235,109.585 687.748,108.455 690.094,108.478 C690.882,108.486 691.973,108.434 692.415,107.947 C696.808,103.099 702.114,104.745 706.701,106.673 C720.363,112.418 734.631,115.553 749.143,117.969 C751.374,118.340 753.606,119.179 755.632,120.206 C760.044,122.444 764.485,123.573 769.572,123.564 C773.717,123.557 776.037,127.052 776.791,131.199 C777.802,136.766 778.826,142.330 779.871,147.890 C780.880,153.260 781.602,153.677 787.281,153.386 C789.690,153.262 792.140,153.567 794.548,153.865 C807.046,155.412 819.083,159.128 831.358,161.722 C843.897,164.371 856.347,167.322 869.332,167.616 C878.772,167.829 888.057,170.258 897.230,172.600 C900.489,173.432 903.982,173.320 907.045,175.019 C907.506,175.275 908.644,175.155 908.896,174.801 C910.428,172.650 912.195,171.841 914.832,172.789 C918.266,174.023 920.665,176.304 921.871,179.625 C922.818,182.232 924.244,184.450 925.914,186.595 C927.870,189.106 929.000,188.560 929.924,185.771 C932.550,177.841 938.074,171.585 942.494,164.723 C945.235,160.469 947.847,161.133 951.143,164.853 C955.031,169.239 954.543,173.501 953.145,178.692 C950.541,188.369 944.101,195.754 939.200,204.049 C937.681,206.622 937.899,208.726 938.278,211.583 C939.100,217.781 942.722,221.467 947.171,225.049 C951.005,228.136 952.986,232.783 955.892,236.660 C957.467,238.762 956.572,241.411 956.647,243.793 C956.915,252.410 957.189,261.037 957.075,269.655 C956.933,280.337 956.587,291.177 952.997,301.259 C951.269,306.114 950.373,310.729 950.240,315.706 C950.042,323.118 946.052,329.273 943.329,335.818 C941.208,340.915 940.205,346.150 939.938,351.594 C939.835,353.690 938.885,354.953 937.246,356.531 C933.838,359.816 930.317,363.629 930.376,368.841 C930.415,372.317 929.889,375.740 928.706,378.746 C926.035,385.526 925.075,392.551 924.283,399.661 C924.024,401.987 922.733,403.623 920.592,403.907 C918.522,404.181 918.282,402.006 917.739,400.545 C917.320,399.416 917.021,398.230 916.793,397.046 C916.548,395.775 917.081,393.883 915.431,393.616 C914.009,393.387 914.117,395.403 913.378,396.295 C911.268,398.845 912.459,401.737 913.247,404.060 C918.158,418.541 920.152,433.757 924.795,448.313 C929.226,462.207 933.063,476.296 936.937,490.361 C940.213,502.256 942.802,514.367 940.065,526.692 C938.715,532.771 938.751,539.711 932.889,544.038 C933.031,549.369 925.677,552.295 928.287,558.482 C928.725,559.520 927.966,560.202 926.662,560.043 C923.986,559.716 923.048,561.068 922.464,563.646 C921.613,567.411 920.596,571.300 916.989,573.685 C915.929,574.386 915.376,575.562 915.124,576.754 C913.946,582.312 909.709,586.458 908.015,591.618 C905.624,598.899 901.318,605.394 899.920,613.084 C899.009,618.097 897.615,623.056 896.432,628.008 C895.668,631.206 892.268,633.811 891.002,637.362 C887.906,646.047 883.258,653.977 877.563,661.136 C873.747,665.933 869.180,670.229 864.481,674.194 C861.163,676.993 858.306,680.193 855.142,683.105 C847.644,690.004 839.165,695.518 830.613,701.013 C824.075,705.213 818.230,710.478 811.973,715.129 C804.982,720.324 798.962,726.838 790.765,730.419 C787.960,731.645 784.677,731.097 782.218,732.602 C777.838,735.282 773.002,736.878 768.419,739.021 C761.353,742.324 754.469,746.480 747.084,748.534 C739.870,750.541 732.599,752.576 725.600,755.072 C717.223,758.060 708.236,758.289 700.046,761.732 C698.707,762.296 697.153,762.630 695.705,762.609 C686.364,762.471 677.726,765.879 668.768,767.683 C660.071,769.433 652.144,773.748 643.219,774.758 C639.992,775.123 636.973,774.905 634.037,774.021 C625.923,771.577 617.563,770.895 609.207,770.284 C602.094,769.764 597.958,765.566 599.483,759.918 C600.158,757.416 601.944,756.504 604.051,757.532 C608.099,759.509 612.490,759.440 616.727,759.998 C621.806,760.667 626.792,761.146 631.801,762.673 C640.478,765.320 648.890,762.275 657.200,759.793 C665.696,757.255 674.298,755.142 682.902,752.995 C694.146,750.190 705.707,749.092 716.834,745.391 C724.589,742.812 732.641,740.832 740.425,738.190 C746.398,736.163 752.134,733.437 757.988,731.054 C767.339,727.249 776.638,723.300 786.091,719.765 C789.779,718.386 792.512,715.812 795.596,713.700 C804.485,707.612 812.017,699.741 821.231,694.043 C826.925,690.523 832.555,686.890 838.105,683.148 C843.173,679.731 847.236,675.276 851.293,670.688 C855.633,665.780 861.070,661.860 865.792,657.266 C873.505,649.763 879.658,641.152 883.020,630.809 C883.783,628.462 882.881,626.016 882.408,623.648 C880.532,614.251 871.957,610.384 866.185,604.250 C860.738,598.461 853.913,594.133 848.542,588.158 C845.722,585.020 841.597,583.360 838.413,580.367 C832.736,575.028 826.558,570.137 820.169,565.659 C813.741,561.155 806.363,559.565 798.520,561.353 C787.740,563.810 776.832,565.847 766.572,570.146 C761.020,572.473 755.583,575.040 749.789,576.790 C739.250,579.973 728.463,580.138 717.667,579.362 C702.268,578.255 687.190,574.978 672.032,572.185 C663.683,570.647 655.105,570.875 646.660,572.603 C644.421,573.061 643.583,574.206 644.065,576.284 C645.099,580.743 646.006,585.254 647.423,589.593 C648.439,592.706 646.138,593.917 644.551,595.025 C643.053,596.071 641.360,594.966 640.283,593.162 C637.633,588.725 636.599,583.746 635.222,578.886 C634.374,575.891 633.178,574.375 629.729,575.832 C627.165,576.913 624.319,576.608 622.069,574.800 C620.170,573.275 620.171,570.978 620.735,568.790 C621.527,565.721 624.256,564.638 626.796,564.044 C630.268,563.232 631.150,561.100 630.771,558.119 C630.162,553.332 630.373,548.411 628.630,543.799 C627.900,541.866 627.735,540.090 628.335,537.957 C629.268,534.645 628.233,531.234 627.550,527.938 C625.294,517.065 619.687,507.978 612.310,499.863 C601.297,487.748 586.893,482.221 571.548,477.933 C560.863,474.947 550.208,471.952 539.330,469.806 C530.305,468.026 521.394,465.802 512.495,463.494 C508.825,462.541 505.010,464.241 501.274,463.340 C501.156,463.311 500.988,463.457 500.883,463.417 C496.220,461.613 491.588,460.006 486.425,459.857 C484.491,459.802 483.809,457.086 484.056,454.853 C484.757,448.533 488.907,444.225 493.714,441.283 C500.919,436.873 507.727,431.747 515.460,428.216 C518.018,427.048 518.697,425.074 517.179,422.972 C510.201,413.310 506.520,402.057 502.305,391.180 C499.340,383.526 496.388,375.831 493.577,368.103 C491.166,361.478 488.008,355.201 485.328,348.707 C481.654,339.805 479.026,330.595 476.720,321.311 C472.709,305.158 472.659,288.795 474.271,272.258 C475.476,259.891 476.054,247.398 475.852,234.978 C475.667,223.594 472.368,212.611 468.628,201.856 C467.681,199.134 466.218,198.730 463.683,200.275 C461.108,201.845 458.775,203.729 456.752,205.830 C454.055,208.632 451.091,208.467 448.249,207.050 C445.714,205.785 444.104,206.275 442.112,207.938 C432.591,215.893 421.530,221.648 411.144,228.254 C404.876,232.241 397.132,234.867 389.799,237.589 C383.461,239.943 377.751,240.126 372.281,237.282 C363.178,232.550 354.523,226.951 347.721,219.025 C341.999,212.357 335.527,206.137 330.925,198.759 C326.274,191.302 322.122,183.366 318.991,174.996 C314.613,163.293 310.731,151.525 311.681,138.795 C312.012,134.356 312.734,129.945 313.349,125.531 C313.521,124.290 313.844,123.065 312.660,122.189 C311.578,121.388 310.661,122.310 309.648,122.579 C301.243,124.809 294.698,130.421 287.485,134.792 C285.882,135.764 284.943,135.760 283.591,134.653 C277.874,129.970 277.774,125.758 283.887,121.338 C286.366,119.546 287.889,116.572 291.094,115.700 C291.933,115.472 292.190,114.520 291.916,113.652 C291.521,112.399 290.275,112.314 289.607,112.849 C285.130,116.435 279.093,116.153 274.402,119.122 C271.340,121.059 270.174,123.440 272.215,126.961 C273.331,128.886 274.465,130.867 274.183,133.416 C273.726,137.545 272.885,138.601 268.852,137.963 C265.259,137.396 261.738,136.371 258.188,135.535 C257.795,135.443 257.431,135.226 257.037,135.138 C254.498,134.567 251.194,134.110 249.708,135.648 C248.071,137.342 249.880,140.440 251.314,142.194 C253.701,145.117 251.897,147.122 250.640,149.434 C249.308,151.884 247.130,151.573 244.946,151.231 C238.069,150.153 232.649,147.088 230.573,139.989 C229.774,137.256 227.970,136.636 225.659,136.936 C221.390,137.492 217.252,138.381 213.149,140.005 C209.773,141.341 205.784,141.123 202.069,141.612 C192.348,142.893 182.780,144.607 173.617,148.449 C165.551,151.831 157.131,154.357 148.962,157.507 C141.450,160.404 134.329,164.174 127.309,168.102 C118.351,173.114 109.199,177.849 101.006,184.086 C93.965,189.444 87.106,194.847 81.523,202.057 C75.123,210.322 69.016,218.909 61.430,226.277 C53.311,234.161 46.730,243.333 40.619,252.854 C36.401,259.424 35.359,266.828 34.202,274.277 C33.374,279.606 32.855,284.870 32.857,290.324 C32.862,303.256 35.004,315.319 40.650,327.222 C45.304,337.032 49.288,347.288 50.622,358.548 C51.431,365.375 53.438,372.405 55.880,379.106 C59.482,388.987 61.794,399.228 64.204,409.465 C66.612,419.692 68.779,430.033 74.142,439.433 C76.493,443.555 77.746,448.407 79.897,452.779 C81.212,455.452 83.010,457.606 85.495,459.022 C93.010,463.307 100.607,467.450 108.208,471.583 C112.738,474.046 118.099,474.026 122.690,476.528 C131.022,481.069 140.221,483.339 149.236,486.073 C151.373,486.721 152.606,486.620 153.779,484.367 C156.640,478.873 161.480,474.700 164.234,469.063 C165.482,466.510 167.809,466.662 169.646,468.438 C174.187,472.828 179.036,471.055 183.908,469.439 C188.856,467.798 192.762,464.289 197.230,461.779 C204.096,457.922 210.848,453.830 217.235,449.151 C225.409,443.164 233.335,436.894 240.805,430.053 C242.571,428.435 242.359,425.768 243.747,423.894 C244.642,422.686 244.758,420.914 247.299,421.895 C249.448,422.725 250.730,420.235 252.021,418.896 C257.787,412.919 263.620,407.032 270.247,401.990 C270.568,401.746 270.990,401.561 271.187,401.240 C274.978,395.062 279.962,395.936 285.735,398.204 C295.582,402.074 306.117,402.223 316.508,402.693 C321.254,402.907 321.886,401.997 321.538,397.171 C320.811,387.062 318.630,377.494 313.458,368.446 C306.750,356.711 299.154,345.548 292.305,333.908 C285.802,322.856 277.726,312.822 269.371,303.066 C260.529,292.740 258.107,280.571 258.260,267.305 C258.353,259.173 259.785,251.166 259.677,243.073 C259.587,236.278 257.838,230.475 251.812,225.838 C242.787,218.893 232.547,215.352 221.965,211.971 C216.849,210.336 211.409,210.143 206.495,207.577 C197.745,203.008 189.788,197.685 184.621,188.981 C183.271,186.709 181.738,183.778 184.101,182.049 C186.428,180.346 189.654,179.731 192.353,182.914 C196.173,187.420 200.023,191.944 205.688,194.504 C207.917,195.510 210.040,196.427 212.452,196.979 C222.075,199.183 231.966,201.444 240.496,206.111 C253.296,213.117 265.427,221.527 270.047,236.900 C271.521,241.805 270.396,246.550 270.363,251.334 C270.297,261.055 269.041,270.726 269.766,280.515 C270.398,289.052 274.582,295.621 279.791,301.742 C285.654,308.630 291.298,315.674 296.420,323.118 C299.860,328.120 303.392,333.113 306.253,338.449 C314.062,353.014 325.041,365.918 329.269,382.375 C330.353,386.593 330.969,390.848 331.341,395.160 C331.675,399.026 333.621,401.390 337.549,402.033 C340.753,402.558 343.928,403.227 347.218,402.808 C352.806,402.096 358.678,408.622 358.897,413.225 C359.050,416.443 356.463,419.274 353.754,421.006 C351.090,422.710 351.046,424.264 351.863,427.053 C352.910,430.630 354.632,433.837 356.399,436.977 C358.046,439.904 359.684,442.849 363.862,443.715 C368.331,444.641 369.687,449.680 366.917,453.414 C365.777,454.952 365.658,456.169 366.251,457.855 C370.795,470.776 369.304,483.283 363.856,495.635 C358.082,508.721 348.285,518.648 338.454,528.541 C336.773,530.233 337.213,531.206 338.292,532.606 C345.714,542.231 354.074,550.997 363.134,559.061 C375.484,570.053 387.034,581.605 395.351,596.175 C398.649,601.952 400.852,608.227 404.150,613.845 C408.834,621.823 413.296,629.924 421.136,635.979 C428.976,642.034 436.543,648.562 444.216,654.901 C449.558,659.314 455.391,662.877 461.206,666.552 C472.499,673.691 484.168,680.340 494.513,688.824 C502.850,695.661 510.837,702.956 519.538,709.318 C525.626,713.769 532.253,717.500 538.744,721.376 C549.175,727.605 560.655,731.925 570.726,738.817 C572.770,740.216 574.067,740.467 575.878,738.031 C577.855,735.373 580.292,732.100 584.611,735.045 C585.869,735.903 586.319,736.466 586.174,738.175 C585.896,741.434 585.207,744.517 584.342,747.655 C583.191,751.830 586.631,754.566 588.408,757.732 C589.164,759.080 589.995,760.136 589.586,761.747 C589.265,763.014 589.651,764.794 588.108,765.249 C586.454,765.736 584.711,764.892 583.849,763.509 C582.355,761.109 579.845,759.463 579.230,756.622 C572.517,764.338 567.070,772.776 559.456,779.425 C550.040,787.648 541.058,796.383 531.447,804.364 C525.076,809.653 517.585,812.786 508.880,810.983 C506.731,810.537 505.026,811.259 503.415,812.855 C501.513,814.738 499.924,816.934 497.595,818.443 C496.434,819.194 495.584,820.593 496.377,822.310 C498.616,827.162 498.295,828.691 493.784,831.953 C490.702,834.182 489.715,836.882 489.286,840.711 C488.623,846.635 489.305,852.779 487.037,858.508 C486.676,859.420 486.696,860.452 487.429,861.185 C491.158,864.910 490.408,869.457 489.970,874.014 C489.673,877.107 489.103,880.328 489.650,883.310 C490.424,887.519 488.322,891.243 488.788,895.535 C489.538,902.439 488.116,909.501 487.642,916.494 C486.732,929.951 483.581,942.856 480.003,955.790 C476.982,966.711 474.260,977.791 474.917,989.376 C475.321,996.496 473.142,1003.707 474.449,1010.727 C475.565,1016.721 473.131,1021.780 472.029,1027.194 C469.397,1040.112 470.282,1052.840 472.478,1065.768 C473.666,1072.766 473.499,1080.046 472.916,1087.383 C472.231,1096.012 469.554,1104.762 471.961,1113.567 C472.355,1115.009 471.829,1116.342 470.315,1116.861 C468.781,1117.388 466.606,1116.222 465.769,1118.549 C464.926,1120.892 464.780,1123.405 465.276,1125.750 C466.292,1130.560 467.591,1135.319 468.979,1140.038 C469.691,1142.459 470.502,1145.074 468.664,1146.927 C466.800,1148.805 464.101,1147.710 461.757,1147.197 C460.238,1146.864 459.119,1145.897 458.062,1144.809 C457.199,1143.920 456.687,1142.060 454.950,1143.030 C453.638,1143.763 452.615,1145.065 452.897,1146.715 C453.488,1150.160 452.541,1153.367 451.755,1156.638 C451.259,1158.703 451.584,1161.305 448.690,1161.684 C445.249,1162.135 441.407,1164.283 438.541,1160.660 C436.944,1158.640 434.976,1157.441 432.777,1156.459 C430.917,1155.628 429.621,1154.330 429.098,1152.414 C428.470,1150.111 427.537,1148.967 424.798,1149.712 C420.361,1150.917 416.953,1148.851 414.136,1145.544 C412.308,1143.398 410.707,1139.941 408.523,1139.510 C405.980,1139.007 404.902,1143.129 402.921,1145.003 C401.249,1146.585 399.265,1147.687 397.566,1149.253 C392.935,1153.522 392.286,1159.766 389.203,1164.788 C387.320,1167.858 384.491,1168.232 382.096,1168.178 C378.980,1168.109 375.747,1166.618 374.165,1163.372 C373.510,1162.029 374.297,1160.718 375.096,1159.596 C377.064,1156.834 377.643,1153.708 377.820,1150.397 C378.021,1146.645 378.463,1142.907 378.761,1139.160 C378.903,1137.376 379.034,1135.647 376.429,1135.394 C375.600,1135.314 374.696,1134.556 374.089,1133.874 C371.877,1131.388 369.887,1131.851 368.200,1134.311 C365.969,1137.566 363.252,1138.815 359.488,1137.060 C356.061,1135.463 354.714,1132.280 353.938,1129.028 C352.190,1121.711 351.856,1114.099 349.419,1106.903 C348.979,1105.602 348.445,1104.413 347.742,1103.244 C346.442,1101.080 345.317,1100.403 343.098,1102.517 C339.762,1105.696 335.823,1108.112 331.360,1109.500 C329.199,1110.171 328.468,1111.313 328.102,1113.787 C326.736,1123.041 326.535,1132.383 325.526,1141.658 C325.144,1145.177 323.132,1147.348 320.703,1149.287 C318.854,1150.763 314.116,1148.151 312.013,1145.189 C307.688,1139.098 307.767,1131.988 306.872,1125.069 C306.724,1123.921 307.645,1121.908 305.566,1121.809 C304.043,1121.736 303.670,1123.452 303.122,1124.691 C300.514,1130.590 297.859,1136.467 295.234,1142.358 C292.184,1149.202 283.759,1152.449 279.111,1147.096 C275.272,1142.673 271.292,1141.243 266.360,1140.129 C264.858,1139.790 263.768,1138.692 263.608,1136.971 C263.143,1131.972 260.109,1127.612 259.997,1122.513 C259.987,1122.080 259.589,1121.407 259.215,1121.268 C251.191,1118.302 251.580,1111.277 251.288,1104.691 C250.960,1097.279 251.339,1089.808 250.574,1082.449 C249.628,1073.342 246.327,1064.705 243.945,1055.889 C243.746,1055.154 243.383,1054.589 242.578,1054.709 C241.777,1054.829 241.790,1055.497 241.651,1056.211 C239.838,1065.491 239.218,1074.939 238.845,1084.310 C238.446,1094.357 235.984,1104.051 235.184,1113.991 C234.913,1117.358 234.338,1120.703 234.117,1124.073 C233.816,1128.641 232.303,1132.543 228.637,1135.450 C228.319,1135.702 227.980,1136.210 227.696,1136.179 C221.053,1135.470 221.502,1141.608 219.326,1145.045 C218.047,1147.066 217.294,1149.409 215.634,1151.273 C214.348,1152.717 213.666,1154.611 213.714,1156.527 C213.881,1163.129 212.620,1169.550 211.605,1176.018 C211.199,1178.606 209.679,1180.864 207.623,1180.988 C205.242,1181.131 204.398,1178.703 203.951,1176.118 C203.023,1170.748 202.546,1165.547 203.812,1160.131 C204.577,1156.861 203.425,1153.364 202.871,1150.129 C201.343,1141.219 203.854,1132.881 204.930,1124.284 C205.361,1120.842 204.881,1117.032 204.929,1113.364 C204.997,1108.182 205.421,1103.153 207.071,1098.247 C207.777,1096.149 207.709,1094.211 205.913,1092.684 C203.310,1090.472 201.689,1087.604 200.251,1084.585 C199.413,1082.824 198.086,1081.530 196.353,1080.590 C193.446,1079.013 192.997,1076.682 192.711,1073.312 C192.174,1066.996 195.853,1060.911 193.045,1054.468 C192.152,1052.418 191.474,1050.984 189.430,1050.273 C184.207,1048.454 182.023,1045.040 182.333,1039.328 C182.678,1032.982 183.315,1026.663 183.457,1020.291 C183.578,1014.907 182.063,1009.940 180.985,1004.844 C179.999,1000.182 178.631,995.602 177.617,990.945 C177.263,989.323 176.854,987.834 175.186,985.818 ZM542.781,457.349 C542.794,457.288 542.806,457.228 542.818,457.167 C543.883,457.346 544.950,457.515 546.012,457.706 C558.122,459.888 569.817,463.630 581.425,467.555 C590.185,470.517 598.780,474.032 606.226,479.796 C612.800,484.884 618.134,491.125 623.394,497.492 C629.675,505.094 633.767,513.926 637.189,522.940 C640.516,531.703 639.944,541.304 640.664,550.551 C641.409,560.118 641.116,560.265 650.709,559.110 C651.381,559.029 652.041,558.838 652.713,558.782 C658.917,558.266 665.247,557.756 671.304,558.885 C685.084,561.452 698.911,563.669 712.782,565.619 C717.587,566.295 722.588,566.748 727.308,566.505 C739.756,565.864 751.650,562.426 763.155,557.411 C775.524,552.020 788.604,548.855 802.001,547.275 C806.911,546.696 811.715,546.993 816.600,549.025 C826.164,553.003 832.725,560.751 840.509,566.913 C849.607,574.116 858.243,581.919 866.886,589.677 C873.323,595.456 879.457,601.574 885.718,607.549 C886.641,608.430 886.942,610.390 888.573,609.982 C890.115,609.596 890.427,607.855 890.988,606.458 C893.696,599.709 896.358,592.937 899.281,586.280 C902.258,579.499 906.467,573.251 908.640,566.134 C911.136,557.964 915.862,551.002 921.091,544.654 C927.024,537.451 929.985,529.192 931.187,520.530 C932.386,511.889 930.811,503.074 928.278,494.596 C924.188,480.910 919.914,467.274 916.091,453.514 C912.882,441.965 910.169,430.277 907.311,418.632 C906.311,414.558 905.101,413.603 901.198,414.469 C900.263,414.677 899.679,414.241 898.973,413.836 C893.075,410.453 892.301,407.067 895.317,399.832 C898.327,392.613 897.970,385.485 893.996,378.621 C892.448,375.947 891.117,374.969 888.095,377.387 C881.725,382.484 875.697,380.011 873.948,371.962 C873.189,368.469 873.515,365.084 874.255,361.543 C875.589,355.164 881.034,348.865 874.005,342.124 C870.901,339.148 869.842,338.074 866.271,341.057 C862.377,344.308 858.614,347.737 854.824,351.061 C843.046,361.391 830.288,370.527 814.894,374.977 C811.208,376.042 811.928,377.580 813.804,379.812 C816.485,383.003 819.834,385.647 821.682,389.530 C824.648,395.764 827.174,402.156 829.631,408.616 C833.180,417.944 837.655,427.028 845.272,433.848 C851.663,439.570 857.857,445.761 866.933,447.406 C869.584,447.887 871.098,452.071 869.647,453.744 C867.205,456.560 860.833,457.916 857.376,456.273 C847.689,451.670 839.391,445.263 833.292,436.410 C827.385,427.835 822.243,418.796 819.304,408.683 C816.998,400.745 813.527,393.586 806.447,388.662 C799.964,384.153 793.593,379.987 784.985,380.689 C781.085,381.007 776.843,379.758 773.542,377.148 C771.302,375.378 768.792,374.463 766.129,374.180 C755.287,373.026 744.534,370.850 733.552,371.245 C718.445,371.789 703.548,372.985 689.291,378.993 C680.416,382.732 670.995,385.194 661.772,388.077 C653.034,390.808 644.274,393.518 635.579,396.339 C626.738,399.206 617.859,401.961 608.894,404.310 C601.443,406.263 594.384,409.288 587.004,411.428 C582.035,412.869 577.028,414.721 572.142,416.740 C563.554,420.290 554.907,423.729 546.526,427.719 C538.475,431.551 530.711,435.957 522.420,439.334 C517.952,441.154 513.782,443.706 509.484,445.939 C508.774,446.308 507.892,446.634 508.005,447.641 C508.119,448.669 509.047,448.691 509.833,448.900 C513.226,449.802 516.596,450.795 519.998,451.659 C527.585,453.586 535.186,455.456 542.781,457.349 ZM739.564,356.981 C743.905,356.940 748.099,356.920 752.292,356.853 C754.660,356.816 755.847,355.557 754.353,353.538 C752.634,351.216 751.831,348.424 750.111,346.177 C743.981,338.172 741.474,328.439 740.070,319.076 C738.470,308.409 735.998,297.543 737.596,286.484 C737.856,284.684 738.240,281.653 736.535,280.865 C734.430,279.892 733.964,283.028 732.710,284.254 C719.049,297.603 702.470,305.648 684.317,310.622 C681.596,311.367 679.007,312.781 675.836,312.630 C670.075,312.355 664.407,312.605 658.875,310.182 C655.716,308.799 652.880,307.690 651.009,304.461 C647.128,297.764 644.199,290.662 641.357,283.511 C636.558,271.434 632.374,259.175 630.886,246.165 C630.751,244.985 630.987,243.319 629.564,243.074 C627.845,242.779 627.749,244.592 627.151,245.764 C622.974,253.949 616.823,260.622 609.293,265.549 C603.558,269.301 596.447,270.494 589.712,271.812 C584.125,272.905 579.209,274.475 575.088,278.762 C570.553,283.480 565.597,283.402 561.520,278.520 C559.139,275.669 556.264,275.253 553.280,275.118 C540.662,274.548 528.411,273.117 518.644,263.823 C517.335,262.578 516.137,262.245 514.917,264.530 C513.053,268.024 510.731,267.968 508.504,264.782 C505.077,259.878 501.820,254.935 503.664,248.430 C504.304,246.173 503.345,244.031 502.123,242.283 C496.367,234.049 493.144,224.724 490.632,215.181 C489.560,211.108 488.361,207.033 488.481,202.536 C488.626,197.124 489.006,191.733 489.240,186.331 C489.297,185.006 489.413,183.501 487.468,183.237 C485.987,183.036 485.148,183.704 484.835,185.112 C484.280,187.612 482.012,188.376 480.167,189.289 C476.715,190.999 476.683,193.208 478.275,196.234 C483.305,205.795 485.762,216.316 487.023,226.776 C488.846,241.897 488.026,257.193 485.896,272.341 C485.484,275.276 484.610,278.238 484.766,281.143 C485.314,291.332 483.857,301.564 486.346,311.741 C488.516,320.613 488.947,329.807 491.871,338.646 C494.269,345.893 498.376,352.306 500.588,359.578 C502.627,366.282 505.301,372.794 507.685,379.374 C511.977,391.221 515.694,403.348 522.249,414.338 C525.883,420.429 527.062,421.417 533.812,419.158 C534.706,418.858 535.671,418.749 536.535,418.387 C551.524,412.100 565.861,404.391 581.454,399.362 C590.279,396.516 599.091,393.439 607.964,390.748 C620.805,386.853 633.342,382.047 646.486,378.974 C656.877,376.545 666.932,372.456 676.887,368.483 C681.824,366.513 686.941,365.407 691.946,363.840 C699.316,361.534 706.793,359.402 714.371,357.969 C722.701,356.394 731.198,355.725 739.564,356.981 ZM471.722,840.154 C475.070,837.009 477.197,834.396 477.638,831.163 C478.014,828.415 481.745,828.072 481.462,826.931 C480.647,823.636 482.691,820.796 482.499,818.264 C482.098,812.983 485.764,811.204 488.694,809.829 C499.581,804.720 508.045,796.369 517.412,789.267 C520.151,787.190 522.229,786.303 525.242,787.665 C525.893,787.959 526.549,788.957 527.222,787.770 C529.537,783.684 534.076,782.230 537.448,779.417 C540.847,776.581 543.820,773.191 547.887,770.954 C551.313,769.070 553.799,765.691 551.906,761.043 C550.923,758.627 552.208,757.237 554.483,757.168 C559.424,757.018 562.611,754.048 565.797,750.849 C567.704,748.934 567.246,747.948 565.097,746.531 C560.928,743.781 556.124,742.309 551.925,739.853 C546.453,736.653 540.663,734.051 535.294,730.630 C531.680,728.327 528.170,725.534 524.231,724.007 C515.041,720.443 508.114,713.736 500.890,707.644 C493.429,701.351 485.438,695.863 477.718,689.971 C471.575,685.283 464.612,681.960 458.204,677.707 C454.009,674.924 450.573,670.688 445.049,669.864 C451.285,675.038 454.293,682.745 460.015,688.281 C462.846,691.019 464.058,694.861 466.879,697.739 C473.475,704.468 479.690,711.581 485.855,718.715 C487.269,720.351 487.817,721.276 489.708,719.268 C492.078,716.753 497.260,716.455 500.036,718.475 C501.974,719.886 503.961,721.460 503.485,724.362 C502.871,728.108 503.251,731.825 503.967,735.495 C504.698,739.237 503.187,741.890 499.441,742.676 C498.206,742.935 496.966,742.901 496.716,744.497 C496.625,745.083 496.794,745.621 497.375,745.827 C498.564,746.249 499.442,745.566 500.300,744.880 C500.617,744.626 500.929,744.363 501.264,744.134 C506.494,740.564 510.792,741.623 513.822,747.223 C515.626,750.557 519.246,751.410 522.437,749.706 C524.729,748.482 527.169,747.141 529.929,747.369 C533.314,747.648 535.974,746.839 538.488,744.229 C541.474,741.129 548.742,742.326 549.880,745.654 C551.224,749.583 547.890,758.366 544.204,760.408 C543.178,760.976 542.684,761.609 542.405,762.823 C541.801,765.449 540.778,767.975 541.103,770.758 C541.375,773.088 539.939,773.854 537.946,774.054 C533.209,774.528 531.092,773.245 529.186,768.743 C527.032,763.654 525.215,763.282 520.799,766.619 C514.883,771.090 510.797,777.256 505.999,782.707 C499.552,790.032 498.604,790.685 490.196,785.761 C488.868,784.983 488.554,785.551 488.288,786.663 C487.817,788.632 487.562,790.696 486.781,792.535 C485.943,794.508 486.487,797.065 484.639,798.518 C481.340,801.113 479.616,805.153 475.960,807.484 C474.680,808.300 473.279,809.923 473.173,811.796 C472.657,820.914 472.230,830.037 471.722,840.154 ZM295.446,628.535 C294.925,625.261 296.486,622.494 296.683,619.560 C297.112,613.153 300.992,610.940 306.973,613.446 C312.689,615.841 315.314,621.555 316.729,626.173 C318.698,632.598 321.518,639.052 321.769,646.055 C321.980,651.952 325.946,654.454 331.240,655.547 C331.753,654.055 331.273,652.736 331.388,651.405 C332.028,643.987 331.615,636.574 330.357,629.227 C330.199,628.305 330.468,626.805 328.788,626.999 C328.000,627.090 327.136,628.586 326.507,627.070 C326.005,625.861 326.522,624.514 327.788,624.004 C330.072,623.083 330.020,621.193 330.076,619.294 C330.196,615.191 328.354,611.935 326.644,608.235 C322.441,599.141 316.136,591.303 312.155,582.151 C311.121,579.775 310.545,577.517 312.184,575.283 C312.999,574.171 312.727,573.305 312.072,572.344 C310.017,569.325 307.988,566.289 305.909,563.287 C305.161,562.206 304.268,561.529 302.848,562.411 C299.811,564.295 297.828,570.746 299.615,574.021 C300.993,576.548 298.325,577.247 297.745,578.856 C297.100,580.642 296.205,579.257 295.457,578.491 C294.415,577.423 293.812,577.944 293.579,579.192 C292.491,585.003 289.226,590.028 287.614,595.694 C286.952,598.020 286.591,601.337 283.348,602.503 C282.856,602.680 282.777,603.932 282.453,604.663 C280.388,609.321 279.182,614.746 275.963,618.388 C273.253,621.454 275.039,621.805 276.681,623.122 C277.849,624.057 278.960,624.892 280.655,623.803 C282.662,622.516 285.200,622.990 286.835,624.052 C289.552,625.816 292.837,626.385 295.446,628.535 ZM180.834,755.975 C180.992,757.233 183.861,756.633 182.899,758.222 C180.612,762.002 181.481,766.527 180.059,770.155 C177.770,775.995 177.725,782.043 177.226,787.867 C176.300,798.682 177.083,809.623 177.538,820.514 C177.891,828.975 176.327,837.403 176.452,845.902 C176.604,856.237 175.076,866.521 175.709,876.912 C176.067,882.789 175.059,888.746 174.702,894.670 C174.616,896.099 174.328,898.315 176.781,896.788 C179.283,895.231 181.888,895.326 184.507,895.415 C188.232,895.541 189.050,894.743 188.324,891.150 C188.113,890.102 188.054,889.018 187.995,887.947 C187.225,873.970 189.149,860.081 189.557,846.139 C189.962,832.309 190.488,818.458 190.777,804.628 C191.159,786.346 191.884,768.000 189.292,749.775 C189.129,748.624 189.418,746.908 187.635,747.210 C186.168,747.459 183.582,748.276 184.069,749.750 C185.250,753.323 181.927,753.920 180.834,755.975 ZM375.757,864.387 C377.377,864.535 376.418,862.047 378.230,862.730 C379.963,863.383 380.144,863.280 379.921,861.725 C379.798,860.870 379.793,860.457 380.379,859.669 C384.077,854.696 386.269,849.197 385.654,842.823 C385.582,842.076 386.031,841.267 386.285,840.502 C390.753,827.070 394.006,813.312 397.296,799.563 C398.501,794.530 398.057,789.548 396.289,784.815 C395.230,781.981 395.226,779.350 395.711,776.515 C396.013,774.747 396.908,773.544 398.642,773.984 C401.078,774.601 401.366,773.212 401.717,771.493 C403.470,762.900 403.845,754.059 406.384,745.609 C406.716,744.504 406.511,743.423 405.967,742.468 C403.843,738.734 401.688,735.017 399.488,731.327 C398.895,730.331 397.941,729.855 396.713,730.111 C395.431,730.379 395.086,731.226 394.924,732.439 C394.096,738.657 391.555,740.296 386.004,737.770 C382.912,736.363 382.897,737.701 383.038,740.060 C383.481,747.452 383.757,754.855 384.260,762.242 C384.983,772.848 386.463,783.306 389.635,793.535 C390.384,795.951 393.734,800.028 387.946,801.558 C387.724,801.617 387.619,802.272 387.532,802.665 C386.728,806.310 385.136,805.630 383.268,803.450 C381.933,801.891 380.039,801.544 379.525,803.565 C378.981,805.706 377.990,807.771 378.135,810.219 C378.491,816.214 378.434,822.237 378.411,828.249 C378.399,831.511 376.854,835.555 378.269,837.843 C380.179,840.928 373.162,843.454 378.501,845.612 C377.185,849.885 375.556,854.120 376.884,858.723 C376.898,858.772 376.684,858.882 376.583,858.971 C374.842,860.495 375.398,862.358 375.757,864.387 ZM112.839,696.043 C112.937,694.965 113.089,693.888 113.117,692.807 C113.147,691.648 113.972,690.177 112.745,689.410 C111.389,688.563 110.632,690.132 109.731,690.817 C106.412,693.340 102.895,693.490 99.007,692.243 C95.741,691.196 93.187,688.349 89.421,688.589 C88.551,688.644 87.500,687.740 86.835,688.737 C86.348,689.466 87.103,690.248 87.424,690.979 C90.052,696.962 91.515,703.604 91.578,709.744 C91.688,720.425 96.446,729.681 98.145,739.731 C99.138,745.602 102.585,750.326 103.883,755.981 C104.762,759.809 106.373,763.477 106.954,767.429 C107.117,768.538 108.046,769.369 109.326,769.164 C110.579,768.962 110.735,767.950 110.395,766.971 C108.579,761.742 113.479,755.896 108.914,750.919 C108.778,750.771 108.812,750.366 108.898,750.128 C110.345,746.137 110.135,742.300 109.103,738.113 C108.299,734.847 109.392,731.153 109.361,727.651 C109.266,716.969 112.457,706.663 112.839,696.043 ZM157.220,942.571 C157.562,930.646 158.092,918.723 158.189,906.797 C158.274,896.359 159.875,886.034 160.178,875.639 C160.673,858.654 160.841,841.657 160.897,824.664 C160.940,811.700 161.522,798.748 161.029,785.766 C160.592,774.288 159.979,762.865 158.044,751.537 C157.851,750.403 157.907,748.732 156.274,748.800 C154.566,748.870 154.780,750.601 154.844,751.693 C155.185,757.487 154.773,763.341 154.416,769.034 C153.691,780.623 154.609,792.129 154.980,803.625 C155.536,820.875 153.995,838.107 155.261,855.357 C155.782,862.468 154.884,869.676 154.758,876.843 C154.647,883.153 155.021,889.487 154.594,895.771 C154.287,900.305 156.518,904.624 155.614,908.985 C153.909,917.209 154.657,925.507 154.282,933.763 C154.144,936.805 153.850,940.166 157.220,942.571 ZM270.021,969.131 C270.344,968.743 270.863,968.398 270.962,967.959 C272.355,961.785 275.254,956.026 275.977,949.668 C276.160,948.065 276.974,946.616 277.417,945.135 C278.408,941.823 281.784,938.196 280.014,935.300 C277.822,931.711 278.597,928.356 278.282,924.875 C277.535,916.614 276.677,908.357 276.213,900.079 C275.837,893.361 274.681,886.693 274.951,879.935 C274.997,878.796 274.718,877.655 273.360,877.509 C272.377,877.402 272.007,878.269 271.892,879.111 C270.571,888.833 267.000,898.120 266.333,907.967 C266.242,909.312 266.450,910.860 265.859,911.959 C262.026,919.097 263.996,926.892 263.156,934.353 C262.505,940.138 264.638,945.677 265.213,951.364 C265.525,954.456 266.214,957.529 266.491,960.556 C266.786,963.781 270.497,965.451 270.021,969.131 ZM328.588,134.657 C328.734,133.041 328.904,131.427 329.016,129.808 C329.072,128.999 329.091,128.037 327.982,127.987 C327.177,127.951 326.944,128.728 326.836,129.416 C325.091,140.529 323.928,151.570 327.215,162.705 C328.586,167.351 330.925,171.550 332.253,176.238 C333.800,181.704 336.165,187.235 339.432,191.848 C344.167,198.536 349.862,204.581 355.453,210.617 C362.167,217.864 370.290,222.702 380.411,223.496 C381.952,223.617 383.605,223.599 384.036,221.745 C384.433,220.040 382.946,219.397 381.693,218.911 C371.507,214.956 364.323,207.038 357.545,199.180 C349.371,189.704 342.615,179.067 336.572,167.997 C330.849,157.515 328.641,146.371 328.588,134.657 ZM203.837,731.744 C205.982,729.839 206.633,726.561 209.923,726.101 C210.385,726.036 210.885,724.807 211.018,724.055 C211.982,718.619 213.536,713.100 212.730,707.646 C211.851,701.705 215.749,698.386 221.405,698.858 C223.334,699.018 224.531,698.564 224.842,696.465 C225.177,694.201 225.733,691.970 226.068,689.707 C226.858,684.377 227.598,679.040 228.296,673.698 C228.431,672.663 228.654,671.497 227.650,670.674 C226.986,670.130 226.334,670.414 225.864,670.936 C222.403,674.783 218.251,678.467 217.756,683.856 C217.394,687.802 214.600,689.861 212.890,692.728 C211.644,694.819 209.369,694.546 207.471,693.421 C205.581,692.300 204.244,692.784 202.875,694.268 C198.869,698.610 194.864,702.956 190.736,707.180 C189.046,708.910 189.380,709.410 191.275,710.975 C195.554,714.509 201.177,717.042 201.873,723.807 C202.136,726.368 202.397,729.143 203.837,731.744 ZM263.756,649.401 C263.635,643.845 263.569,639.258 263.414,634.674 C263.373,633.482 263.179,631.757 261.497,632.329 C259.251,633.093 256.279,633.600 255.451,636.039 C253.480,641.843 248.591,645.205 244.918,649.566 C243.732,650.973 242.783,652.269 242.655,654.138 C242.232,660.303 241.774,666.466 241.287,672.626 C241.194,673.805 241.430,674.953 242.357,675.536 C245.148,677.291 245.974,680.475 247.925,682.828 C249.020,684.149 249.799,686.506 251.726,685.860 C253.496,685.267 254.300,683.268 253.344,681.117 C253.187,680.764 253.537,680.072 253.823,679.652 C256.984,675.025 257.823,669.466 259.842,664.387 C261.856,659.319 261.967,653.655 263.756,649.401 ZM720.050,166.136 C722.054,165.499 721.741,163.962 722.353,162.983 C724.268,159.920 725.640,156.096 730.638,158.238 C732.031,158.835 732.818,157.553 733.266,156.334 C735.447,150.400 737.840,144.531 739.727,138.504 C741.788,131.922 741.580,131.873 734.716,131.146 C733.648,131.032 732.608,130.550 731.544,130.506 C724.113,130.203 716.653,124.102 709.171,130.984 C707.571,132.456 705.586,132.876 706.017,135.723 C706.411,138.322 707.054,140.168 710.127,139.982 C711.782,139.882 712.871,140.898 713.922,142.004 C717.524,145.792 719.390,150.213 719.383,155.512 C719.378,159.013 719.807,162.514 720.050,166.136 ZM384.624,1072.994 C381.530,1079.001 381.853,1079.967 387.113,1081.783 C388.809,1082.369 389.623,1083.522 389.885,1085.361 C390.825,1091.955 391.100,1098.583 391.404,1105.226 C391.558,1108.606 390.422,1112.746 393.673,1115.114 C396.926,1117.486 400.886,1118.875 405.082,1118.141 C406.738,1117.852 408.001,1117.730 409.636,1118.582 C411.961,1119.794 415.752,1117.266 415.028,1114.991 C413.734,1110.925 413.269,1106.076 409.911,1103.292 C406.940,1100.830 406.868,1098.311 407.129,1095.156 C407.273,1093.422 406.831,1091.634 407.026,1089.913 C407.524,1085.519 404.906,1084.766 401.546,1085.214 C398.690,1085.595 396.318,1084.879 393.848,1083.509 C389.630,1081.169 387.483,1077.093 384.624,1072.994 ZM277.876,997.695 C278.750,992.873 281.198,988.971 282.881,984.747 C284.228,981.364 286.073,978.077 290.470,977.805 C292.109,977.704 292.789,976.879 292.728,975.157 C292.576,970.873 294.222,966.796 294.181,962.475 C294.138,957.879 296.411,953.295 296.166,948.986 C295.831,943.104 295.406,937.111 294.465,931.235 C294.266,929.989 294.337,927.071 292.832,927.936 C291.292,928.822 287.667,929.533 288.675,932.632 C289.912,936.436 288.677,939.555 286.916,942.623 C285.677,944.780 284.858,947.076 284.523,949.452 C283.087,959.632 279.423,969.197 276.633,979.005 C274.875,985.182 271.248,991.476 277.876,997.695 ZM800.024,362.499 C795.736,359.103 792.956,355.082 788.737,352.822 C780.773,348.556 773.778,343.331 769.452,335.108 C768.847,333.958 767.804,332.471 766.724,332.233 C761.482,331.080 757.424,328.348 754.439,323.417 C753.039,326.272 754.341,328.255 755.133,330.100 C758.440,337.800 762.482,345.081 766.987,352.189 C771.023,358.558 776.279,362.148 783.540,363.210 C784.342,363.327 785.252,363.284 785.919,363.659 C790.691,366.342 795.000,364.289 800.024,362.499 ZM670.046,286.886 C670.152,284.961 669.385,283.825 668.819,282.598 C666.346,277.236 662.338,272.450 661.637,266.447 C661.195,262.666 660.116,259.672 656.982,257.546 C653.952,255.491 652.322,252.334 650.595,249.316 C649.467,247.347 648.920,245.053 647.984,242.962 C647.513,241.909 647.088,240.330 645.611,240.600 C643.989,240.895 644.458,242.530 644.489,243.661 C644.632,248.817 645.650,253.923 647.089,258.775 C650.574,270.522 654.998,281.946 660.943,292.739 C662.520,295.601 664.836,296.666 667.773,297.045 C668.805,297.179 670.011,297.043 669.529,295.700 C668.368,292.465 668.167,289.396 670.046,286.886 ZM50.216,402.000 C51.690,396.060 48.103,391.764 46.902,386.955 C44.988,379.293 42.181,371.873 40.794,364.058 C40.124,360.284 40.778,356.277 38.763,352.727 C38.136,351.624 37.578,350.025 36.394,351.932 C33.003,357.396 30.662,363.396 28.075,369.262 C27.549,370.456 28.067,371.516 28.684,372.670 C31.353,377.658 34.458,382.529 36.277,387.829 C38.708,394.914 44.840,397.620 50.216,402.000 ZM358.405,800.235 C359.013,792.556 359.540,785.554 359.237,778.521 C358.744,767.096 357.399,755.805 353.842,744.877 C353.504,743.838 353.717,741.996 352.075,742.107 C350.533,742.212 350.298,743.926 349.857,745.177 C348.337,749.490 348.809,753.768 349.564,758.208 C351.397,768.992 350.467,780.007 352.015,790.855 C353.150,798.808 353.613,806.857 354.356,814.865 C354.444,815.811 354.325,817.086 355.522,817.096 C356.715,817.105 356.630,815.779 356.755,814.870 C357.458,809.781 358.386,804.716 358.405,800.235 ZM331.164,1050.654 C330.744,1050.826 330.323,1050.998 329.903,1051.170 C329.856,1059.053 329.830,1066.937 329.744,1074.821 C329.727,1076.327 330.504,1076.821 331.755,1076.558 C335.292,1075.813 339.154,1078.401 342.016,1076.934 C345.276,1075.264 344.392,1070.349 346.251,1067.207 C347.134,1065.715 347.696,1064.019 348.291,1062.375 C348.979,1060.475 349.750,1058.543 349.539,1056.478 C348.935,1050.583 348.416,1044.670 347.490,1038.822 C347.200,1036.990 347.978,1033.570 345.391,1033.708 C343.956,1033.784 344.374,1037.422 344.592,1039.536 C344.992,1043.399 345.459,1047.257 345.772,1051.128 C346.247,1057.024 343.948,1058.771 338.179,1057.712 C334.154,1056.973 331.652,1055.078 331.164,1050.654 ZM227.546,1012.495 C228.075,1011.895 228.379,1011.713 228.392,1011.511 C228.715,1006.559 228.485,1001.432 233.829,998.512 C234.737,998.016 234.753,996.636 234.701,995.513 C234.386,988.748 235.023,982.014 235.252,975.264 C235.886,956.635 235.165,937.958 237.301,919.379 C237.425,918.300 238.282,916.587 236.623,916.252 C235.020,915.927 234.398,917.574 234.214,918.929 C233.777,922.132 233.439,925.352 233.163,928.573 C232.305,938.606 231.433,948.638 230.683,958.679 C230.005,967.751 229.499,976.836 228.880,985.912 C228.286,994.625 226.628,1003.296 227.546,1012.495 ZM386.287,601.021 C386.565,598.939 385.969,598.195 385.361,597.482 C384.749,596.764 383.865,596.202 383.465,595.392 C379.436,587.221 372.330,581.602 366.114,575.422 C361.586,570.921 356.628,566.632 351.495,562.670 C349.155,560.865 346.282,559.111 345.052,556.636 C342.156,550.810 337.372,546.679 333.293,541.933 C329.306,537.293 329.130,537.429 324.162,540.630 C322.361,541.791 319.777,543.005 319.804,545.007 C319.834,547.244 322.850,547.664 324.652,548.746 C333.420,554.010 342.699,558.460 350.186,565.705 C354.437,569.818 358.798,573.930 363.232,577.722 C369.217,582.841 374.464,588.537 379.876,594.141 C381.885,596.222 383.822,598.371 386.287,601.021 ZM411.832,15.810 C411.427,15.796 411.017,15.742 410.616,15.776 C408.728,15.935 406.836,16.066 404.958,16.304 C398.685,17.097 398.655,17.182 400.760,23.043 C401.078,23.928 401.173,24.889 401.416,25.803 C402.422,29.583 404.031,30.610 407.607,29.070 C411.350,27.458 414.941,27.918 418.668,28.793 C423.009,29.812 426.446,32.472 429.940,34.964 C433.178,37.273 434.080,33.719 435.996,32.801 C437.489,32.085 437.196,30.896 436.193,29.819 C429.512,22.646 422.139,16.683 411.832,15.810 ZM865.214,311.242 C863.795,315.278 867.018,317.485 869.492,319.018 C871.919,320.521 873.631,317.398 875.297,315.773 C878.350,312.793 878.597,308.433 880.477,304.873 C884.437,297.373 888.683,290.023 892.126,282.257 C893.046,280.182 894.129,278.175 894.953,276.065 C895.287,275.212 895.170,274.074 894.059,273.677 C893.703,273.550 892.736,273.994 892.719,274.226 C892.412,278.346 887.958,279.436 886.568,282.846 C884.797,287.189 881.543,290.872 878.759,294.402 C875.640,298.358 871.961,302.334 867.859,305.597 C866.005,307.071 864.991,308.777 865.214,311.242 ZM80.169,508.580 C81.858,509.252 82.186,508.016 82.324,505.776 C82.536,502.315 80.593,499.576 79.745,496.490 C77.812,489.453 75.355,482.595 70.915,476.645 C69.920,475.311 69.429,472.836 67.241,473.663 C65.208,474.432 65.597,476.861 65.585,478.676 C65.561,482.161 67.323,485.450 66.585,489.078 C65.657,493.637 67.513,498.187 66.921,502.773 C66.827,503.503 66.969,504.484 67.622,504.429 C72.109,504.048 75.260,507.552 80.169,508.580 ZM247.956,997.981 C247.788,999.186 247.466,1000.394 247.483,1001.597 C247.529,1004.919 250.660,1005.466 252.716,1006.487 C254.350,1007.298 254.829,1004.892 255.402,1003.627 C256.570,1001.049 257.476,998.347 258.707,995.801 C260.534,992.020 262.353,988.428 262.120,983.901 C261.870,979.029 259.374,974.961 258.416,970.394 C258.172,969.232 258.204,967.745 256.543,967.736 C255.071,967.728 254.713,968.967 254.277,970.183 C251.044,979.197 249.644,988.621 247.956,997.981 ZM390.748,662.829 C389.658,664.712 390.357,665.872 390.821,667.160 C392.740,672.485 394.869,677.837 396.157,683.264 C398.903,694.833 402.988,705.864 407.447,716.807 C409.245,721.218 412.437,722.454 417.001,720.960 C419.093,720.275 419.157,719.466 417.994,717.820 C415.745,714.637 413.043,711.804 411.475,708.101 C406.378,696.065 401.227,684.047 395.784,672.166 C394.387,669.114 393.877,665.430 390.748,662.829 ZM417.866,948.447 C420.491,942.521 421.551,936.158 422.810,929.878 C426.266,912.645 429.426,895.356 430.289,877.747 C430.352,876.462 430.978,874.536 429.452,874.148 C427.916,873.758 427.590,875.801 427.024,876.922 C423.781,883.343 423.513,890.443 422.573,897.372 C421.229,907.279 419.500,917.177 418.948,927.135 C418.557,934.208 416.908,941.215 417.866,948.447 ZM446.568,1049.596 C443.893,1050.774 444.142,1054.193 441.096,1054.007 C438.494,1053.848 437.996,1055.187 437.608,1057.337 C436.159,1065.352 434.278,1073.124 435.609,1081.591 C436.362,1086.382 436.523,1091.409 437.456,1096.282 C438.069,1099.488 440.369,1098.132 441.900,1097.706 C443.482,1097.266 445.305,1096.419 444.167,1093.932 C441.594,1088.302 442.038,1082.201 441.468,1076.245 C441.172,1073.145 444.552,1072.233 444.777,1069.561 C445.336,1062.903 445.966,1056.251 446.568,1049.596 ZM266.461,1054.757 C270.578,1051.511 267.846,1046.219 271.333,1043.491 C269.255,1036.784 273.473,1030.834 273.806,1024.314 C274.033,1019.878 272.397,1016.943 270.630,1013.616 C270.030,1012.486 269.063,1011.552 267.760,1012.882 C263.421,1017.314 259.463,1022.842 262.362,1030.270 C263.014,1031.940 263.272,1033.620 263.518,1035.363 C264.397,1041.591 265.395,1047.802 266.461,1054.757 ZM320.481,928.229 C319.150,928.231 319.269,929.159 319.210,929.937 C318.856,934.583 317.708,939.079 317.754,943.854 C317.842,952.860 315.291,961.714 315.559,970.815 C315.652,973.981 315.762,976.996 317.206,979.849 C317.691,980.807 318.090,982.004 319.483,981.665 C320.642,981.383 320.407,980.208 320.657,979.324 C321.706,975.607 321.435,971.768 321.676,967.993 C322.115,961.143 325.469,954.635 324.143,947.626 C323.617,944.845 325.645,942.739 325.643,940.207 C325.640,935.945 322.790,932.730 321.208,929.048 C321.063,928.710 320.699,928.467 320.481,928.229 ZM180.981,923.348 C180.629,930.909 179.772,938.331 180.076,945.705 C180.407,953.743 180.605,961.809 181.758,969.844 C182.329,973.822 184.136,976.240 186.857,978.504 C187.555,979.085 188.449,979.730 189.414,978.975 C190.320,978.267 190.256,977.283 189.695,976.425 C188.333,974.338 188.905,971.974 188.559,969.740 C187.906,965.515 190.270,961.376 188.536,957.055 C187.895,955.455 186.469,954.128 186.869,951.879 C187.898,946.093 184.969,940.649 184.788,934.806 C184.699,931.967 183.337,928.491 182.876,925.226 C182.757,924.385 182.576,923.618 180.981,923.348 ZM386.617,724.544 C387.514,718.028 387.057,711.641 390.821,706.316 C391.107,705.911 390.725,705.014 390.614,704.352 C389.297,696.444 384.092,690.169 381.528,682.779 C381.274,682.045 380.614,681.297 379.676,681.530 C378.669,681.780 378.853,682.800 378.739,683.562 C378.201,687.143 379.358,690.741 378.560,694.352 C378.210,695.933 379.010,697.472 379.503,699.039 C381.162,704.312 382.685,709.712 382.411,715.274 C382.225,719.030 383.537,721.708 386.617,724.544 ZM83.267,667.975 C81.623,669.800 83.202,671.232 83.656,672.848 C84.621,676.286 88.042,675.470 90.213,676.794 C91.563,677.617 92.851,679.509 94.741,677.566 C96.493,675.766 97.258,673.927 95.972,671.392 C94.826,669.136 94.110,666.767 95.279,664.064 C96.005,662.384 95.177,660.718 93.529,659.518 C90.760,657.504 87.447,656.020 86.399,652.215 C86.205,651.509 85.012,651.011 84.202,650.558 C83.016,649.895 81.955,650.033 82.088,651.669 C82.316,654.491 83.660,657.419 80.661,659.717 C80.272,660.015 80.626,661.041 81.311,661.416 C84.185,662.986 82.533,665.809 83.267,667.975 ZM327.929,914.864 C329.457,910.748 330.973,900.032 331.151,897.315 C331.435,892.970 330.455,888.431 332.923,884.345 C333.468,883.444 333.181,882.248 332.279,881.630 C331.964,881.414 331.537,884.652 330.570,881.952 C330.210,880.947 329.885,879.080 331.729,878.582 C333.678,878.055 332.808,876.592 332.200,876.262 C329.627,874.865 330.583,872.978 330.913,870.936 C331.136,869.554 330.967,867.962 329.443,866.320 C324.287,882.300 321.116,897.901 327.929,914.864 ZM281.079,1124.024 C281.034,1126.882 282.692,1130.707 284.512,1134.358 C285.498,1136.335 286.757,1134.870 287.449,1133.645 C290.044,1129.052 291.694,1124.063 293.368,1119.095 C293.608,1118.385 293.680,1117.235 293.276,1116.753 C289.868,1112.688 289.765,1107.325 287.628,1102.778 C287.342,1102.171 287.167,1101.347 286.404,1101.320 C285.295,1101.280 285.448,1102.360 285.150,1103.052 C282.463,1109.293 282.800,1116.109 281.079,1124.024 ZM306.432,1094.417 C307.372,1086.563 306.207,1084.713 298.836,1082.694 C297.224,1082.252 295.917,1081.290 294.386,1080.797 C293.309,1080.450 292.089,1079.337 291.060,1080.560 C290.298,1081.465 290.773,1082.710 291.345,1083.621 C292.394,1085.293 292.635,1087.144 292.934,1089.016 C293.791,1094.389 296.280,1099.205 298.204,1104.213 C298.869,1105.942 300.191,1105.803 300.970,1104.641 C303.175,1101.353 306.374,1098.538 306.432,1094.417 ZM398.287,1059.701 C397.920,1055.665 397.469,1051.799 397.241,1047.920 C396.938,1042.772 393.934,1038.027 395.021,1032.687 C395.204,1031.787 394.948,1030.970 394.087,1030.685 C392.787,1030.256 392.474,1031.409 392.192,1032.257 C390.657,1036.870 389.191,1041.506 387.687,1046.130 C387.150,1047.781 387.398,1049.454 388.077,1050.896 C390.277,1055.565 391.483,1060.547 393.019,1065.429 C393.378,1066.572 393.837,1067.831 394.645,1068.647 C395.673,1069.687 397.238,1069.527 397.166,1067.821 C397.045,1064.945 397.313,1062.213 398.287,1059.701 ZM429.168,731.984 C429.884,730.357 429.371,728.474 427.195,727.457 C425.490,726.660 424.531,725.271 423.442,723.908 C422.099,722.228 412.134,723.389 411.239,725.338 C411.041,725.769 411.206,726.372 411.219,726.895 C411.397,733.917 417.590,736.213 421.680,740.153 C421.905,740.370 422.459,740.354 422.833,740.290 C424.415,740.019 428.935,734.441 429.168,731.984 ZM236.943,710.142 C236.849,710.134 236.755,710.125 236.661,710.116 C236.247,714.696 235.870,719.280 235.399,723.855 C235.225,725.551 235.749,727.068 236.310,728.579 C236.650,729.496 237.545,729.514 238.379,729.356 C239.197,729.201 239.333,728.607 239.363,727.856 C239.580,722.379 241.120,717.149 243.661,712.430 C247.017,706.199 245.095,700.807 242.296,695.260 C241.726,694.130 241.082,692.693 239.923,692.785 C238.213,692.922 238.411,694.846 238.269,696.049 C237.717,700.734 237.368,705.443 236.943,710.142 ZM135.895,532.544 C138.230,527.520 140.429,523.455 145.406,521.825 C147.441,521.158 147.560,519.617 146.004,518.062 C144.714,516.774 144.167,515.214 143.916,513.381 C143.584,510.967 139.499,507.981 137.887,508.687 C133.382,510.661 130.121,516.951 131.299,522.000 C132.117,525.508 133.579,528.827 135.895,532.544 ZM349.875,655.506 C348.111,657.866 348.440,659.582 348.472,661.335 C348.538,665.082 350.526,668.292 351.135,671.878 C352.578,680.366 354.754,688.688 357.163,696.940 C357.586,698.391 357.625,701.417 359.681,700.711 C361.450,700.104 363.023,697.637 362.641,695.090 C362.423,693.633 361.902,692.215 361.451,690.800 C360.029,686.340 358.592,681.885 357.130,677.438 C354.796,670.339 352.437,663.248 349.875,655.506 ZM288.034,793.739 C286.382,796.170 285.300,797.873 284.934,800.106 C283.364,809.689 283.080,819.348 282.969,829.023 C282.935,831.984 284.446,834.122 286.781,835.791 C287.433,836.257 288.013,837.063 288.879,836.623 C289.786,836.162 289.345,835.232 289.312,834.449 C289.047,828.111 288.773,821.774 288.569,815.435 C288.346,808.472 289.581,801.478 288.034,793.739 ZM341.715,966.678 C342.147,966.634 342.579,966.590 343.012,966.546 C343.224,964.197 343.475,961.850 343.613,959.497 C343.638,959.071 343.310,958.384 342.956,958.217 C341.329,957.449 341.153,957.447 341.598,956.153 C342.429,953.734 342.055,951.368 341.590,948.992 C341.119,946.585 332.474,942.603 330.569,943.940 C330.090,944.276 329.756,945.002 329.619,945.608 C328.968,948.498 328.417,951.410 327.809,954.310 C327.655,955.042 326.994,955.928 328.434,956.054 C331.682,956.340 333.984,958.687 336.762,959.982 C339.346,961.187 342.679,962.309 341.715,966.678 ZM456.786,756.060 C457.309,753.502 456.008,751.613 454.562,749.770 C451.736,746.169 448.382,742.957 446.557,738.616 C446.219,737.810 445.371,737.168 444.649,736.586 C443.714,735.831 442.521,734.776 441.414,735.732 C440.060,736.902 441.566,737.900 442.226,738.761 C448.440,746.872 449.610,756.279 449.440,766.078 C449.400,768.347 449.717,770.627 449.972,772.891 C450.021,773.323 450.476,773.898 450.880,774.056 C451.483,774.291 451.827,773.723 451.981,773.178 C453.589,767.474 455.186,761.767 456.786,756.060 ZM460.032,35.266 C458.922,35.563 457.062,33.838 456.000,35.943 C455.418,37.096 455.704,38.321 456.614,39.333 C461.629,44.914 467.012,50.003 473.940,53.237 C476.207,54.295 477.634,52.446 479.029,51.733 C480.502,50.979 478.613,49.460 477.830,48.520 C475.843,46.132 473.895,43.667 471.613,41.581 C468.389,38.633 465.394,35.079 460.032,35.266 ZM369.585,663.306 C370.292,660.412 371.955,658.690 374.569,657.905 C376.324,657.378 376.023,656.214 375.478,655.036 C374.184,652.233 372.397,649.576 371.594,646.645 C369.832,640.217 366.795,634.891 360.391,631.229 C362.694,642.340 365.716,652.841 369.585,663.306 ZM289.046,1054.061 C288.832,1051.412 288.793,1048.746 288.371,1046.143 C287.304,1039.564 288.295,1032.966 287.962,1026.389 C287.917,1025.490 288.619,1023.901 286.858,1023.891 C285.585,1023.884 284.027,1023.815 283.283,1025.262 C282.861,1026.083 282.426,1027.044 282.455,1027.927 C282.647,1033.718 281.436,1039.340 280.570,1045.004 C279.604,1051.323 279.578,1051.387 285.746,1052.600 C286.978,1052.843 287.433,1054.392 289.046,1054.061 ZM301.105,717.921 C301.041,721.260 301.010,724.014 300.931,726.766 C300.679,735.535 301.895,744.406 298.961,752.995 C298.484,754.391 298.615,756.228 300.394,756.733 C301.987,757.186 302.600,755.844 303.165,754.461 C306.899,745.323 307.714,735.832 306.171,726.210 C305.712,723.343 304.511,720.276 301.105,717.921 ZM925.011,228.700 C925.027,227.630 925.046,226.563 923.882,226.288 C922.550,225.974 922.074,227.075 921.478,228.004 C915.829,236.815 909.915,245.473 905.855,255.193 C905.319,256.477 904.023,257.962 905.943,259.074 C907.686,260.085 909.465,259.673 910.582,258.002 C912.297,255.435 913.806,252.690 915.321,250.043 C919.011,243.597 920.537,236.068 924.653,229.745 C924.864,229.419 924.915,228.990 925.011,228.700 ZM201.838,565.072 C199.764,564.270 199.033,565.332 197.996,565.939 C195.472,567.419 194.830,570.175 193.376,572.330 C191.318,575.377 187.791,576.719 185.752,579.760 C181.674,585.838 179.135,592.888 174.019,598.298 C173.486,598.861 173.279,599.436 173.668,600.090 C174.111,600.837 174.912,600.781 175.440,600.377 C178.283,598.200 181.724,596.422 183.747,593.629 C190.310,584.572 194.666,574.102 201.838,565.072 ZM21.301,447.544 C19.859,449.310 20.794,451.004 20.308,452.534 C17.207,462.299 16.954,472.116 19.658,482.073 C20.219,484.137 19.972,486.455 22.856,485.950 C25.681,485.455 24.627,482.867 24.433,481.237 C23.438,472.900 22.971,464.565 23.292,456.164 C23.401,453.313 22.445,450.522 21.301,447.544 ZM284.674,865.364 C283.962,882.102 286.175,898.788 285.612,915.999 C294.402,898.670 287.734,882.052 284.674,865.364 ZM944.016,265.517 C935.873,276.420 935.681,287.535 940.067,300.313 C944.276,288.456 945.084,277.437 944.016,265.517 ZM304.966,433.509 C306.187,433.620 306.465,433.607 306.722,433.674 C309.035,434.278 310.977,433.906 312.284,431.679 C313.089,430.307 313.515,428.816 312.498,427.505 C310.868,425.402 308.782,426.438 306.617,426.689 C299.033,427.568 292.700,431.844 285.615,434.044 C284.087,434.518 280.837,434.510 281.709,436.902 C282.635,439.441 285.391,437.996 287.386,437.315 C288.146,437.055 288.910,436.741 289.590,436.319 C294.665,433.173 300.263,433.211 304.966,433.509 ZM544.465,259.328 C554.704,260.130 553.043,262.092 553.295,251.037 C553.319,249.970 553.044,248.898 553.017,247.826 C552.966,245.820 552.133,245.376 550.484,246.472 C546.351,249.219 542.177,251.910 538.148,254.802 C537.309,255.405 535.648,255.950 536.129,257.482 C536.564,258.866 537.991,258.786 539.221,258.865 C540.972,258.978 542.718,259.170 544.465,259.328 ZM26.552,527.889 C26.832,530.261 25.192,531.572 24.887,533.787 C23.921,540.798 28.127,547.362 26.195,554.327 C26.093,554.693 26.185,555.145 26.287,555.530 C26.861,557.703 28.613,557.430 30.228,557.359 C32.081,557.278 32.393,556.064 32.193,554.533 C31.319,547.872 30.959,541.186 30.714,534.471 C30.633,532.251 29.601,529.454 26.552,527.889 ZM598.750,254.156 C599.364,253.773 599.894,253.335 600.500,253.081 C608.586,249.701 613.052,242.793 617.349,235.751 C618.512,233.844 621.446,231.248 618.780,229.638 C615.749,227.807 614.402,231.618 613.125,233.793 C611.440,236.663 609.762,239.201 606.928,241.362 C603.485,243.988 601.045,247.941 598.236,251.373 C597.761,251.953 597.276,252.762 597.715,253.595 C597.859,253.868 598.355,253.954 598.750,254.156 ZM308.988,858.699 C309.077,861.300 305.223,860.112 305.466,862.937 C305.915,868.155 304.569,873.198 303.856,878.303 C303.453,881.196 304.162,884.278 302.401,886.936 C299.623,891.132 299.803,894.373 303.060,898.332 C305.531,894.148 310.352,863.479 308.988,858.699 ZM406.848,57.402 C406.935,58.342 406.270,59.701 407.589,60.512 C408.906,61.321 410.207,60.875 411.336,60.015 C415.221,57.054 417.993,53.123 420.575,49.072 C422.384,46.232 420.687,45.125 418.060,44.912 C412.402,44.454 408.902,47.208 407.788,52.844 C407.502,54.294 407.192,55.739 406.848,57.402 ZM294.740,62.804 C294.630,62.477 294.587,61.711 294.183,61.287 C293.476,60.544 292.675,61.044 292.056,61.593 C285.723,67.207 279.329,72.755 273.139,78.522 C271.773,79.794 270.194,81.958 272.184,83.830 C274.141,85.671 275.849,83.584 276.972,82.376 C281.733,77.258 287.245,72.838 291.329,67.096 C292.335,65.681 294.258,65.055 294.740,62.804 ZM117.394,557.882 C120.865,558.936 121.763,556.978 122.667,555.439 C124.036,553.109 123.166,550.328 121.362,549.331 C117.541,547.220 114.408,544.380 111.097,541.687 C110.441,541.154 109.433,540.428 108.580,541.357 C107.961,542.031 108.595,542.836 108.777,543.605 C109.429,546.356 112.158,548.220 112.066,551.244 C111.933,555.630 114.418,557.542 117.394,557.882 ZM626.752,122.787 C626.539,118.756 625.090,115.216 622.307,112.252 C621.635,111.537 620.779,111.241 619.728,111.527 C616.257,112.475 614.145,117.147 615.951,120.314 C617.012,122.175 618.265,123.984 619.728,125.537 C620.599,126.461 621.314,128.686 623.159,127.455 C624.768,126.381 626.523,125.120 626.752,122.787 ZM211.577,937.515 C211.544,939.381 211.506,941.246 211.482,943.112 C211.471,944.045 211.321,945.208 212.672,945.211 C213.665,945.213 213.800,944.194 213.913,943.401 C214.487,939.404 216.666,935.908 217.916,932.152 C218.909,929.169 218.418,925.318 221.297,922.948 C222.205,922.201 222.811,921.081 221.791,920.173 C220.380,918.917 218.458,918.602 216.627,918.510 C215.709,918.464 214.687,919.095 214.754,920.252 C215.106,926.263 211.591,931.568 211.577,937.515 ZM792.781,336.736 C792.836,336.480 793.122,335.308 793.336,334.122 C793.743,331.868 794.446,329.225 792.935,327.513 C791.210,325.559 788.839,327.663 786.952,328.168 C780.968,329.772 780.351,332.583 784.494,337.182 C785.489,338.287 786.473,339.342 787.734,340.168 C791.616,342.711 792.271,342.403 792.781,336.736 ZM455.933,704.291 C447.397,690.501 437.125,678.143 426.749,665.868 C434.316,680.369 443.979,693.253 455.933,704.291 ZM356.873,468.666 C352.961,471.294 351.320,475.032 348.542,477.724 C342.973,483.120 342.966,483.114 350.031,486.271 C351.045,486.725 352.051,487.997 353.078,486.245 C356.145,481.012 357.871,475.498 356.873,468.666 ZM315.701,558.144 C317.178,564.118 320.632,568.263 323.700,572.603 C325.166,574.676 326.319,574.721 327.159,571.922 C327.654,570.272 328.063,568.110 330.630,568.125 C331.276,568.129 332.103,568.143 332.265,567.298 C332.446,566.356 331.719,565.762 331.018,565.417 C326.132,563.006 321.758,559.500 315.701,558.144 ZM752.249,288.909 C752.190,292.453 752.410,295.935 754.148,299.130 C754.666,300.082 755.049,301.409 756.420,300.879 C759.429,299.717 761.681,297.495 763.092,294.677 C764.189,292.487 763.183,290.176 761.459,288.846 C759.100,287.027 755.804,288.164 753.072,287.012 C752.401,286.729 752.166,288.117 752.249,288.909 ZM98.649,508.560 C98.314,504.766 97.396,500.913 97.778,497.192 C98.401,491.116 96.990,485.820 93.826,480.769 C92.606,478.823 90.434,476.798 88.884,477.427 C86.912,478.227 89.048,480.647 89.181,482.385 C89.201,482.638 89.388,482.878 89.495,483.126 C93.042,491.336 96.120,499.698 98.649,508.560 ZM224.162,949.613 C218.368,960.536 216.937,979.475 220.773,987.095 C221.928,974.318 223.045,961.966 224.162,949.613 ZM842.387,230.306 C842.743,230.478 843.100,230.651 843.457,230.823 C846.006,226.362 848.589,221.919 851.086,217.429 C851.908,215.949 850.826,215.139 849.646,214.656 C847.047,213.592 844.408,212.624 841.776,211.641 C841.018,211.358 840.159,211.077 839.599,211.923 C839.154,212.597 839.730,213.217 840.065,213.744 C841.371,215.799 842.247,217.924 842.791,220.372 C843.549,223.786 842.574,227.004 842.387,230.306 ZM405.554,1126.215 C401.840,1124.722 398.377,1123.360 394.940,1121.937 C393.014,1121.140 391.988,1121.697 392.228,1123.791 C392.756,1128.385 391.287,1132.780 391.014,1137.290 C390.967,1138.078 390.519,1138.984 391.559,1139.346 C392.274,1139.595 392.843,1138.988 393.169,1138.412 C393.948,1137.037 395.031,1135.880 395.233,1134.128 C395.667,1130.357 398.490,1128.881 401.783,1128.222 C403.086,1127.962 404.475,1128.177 405.554,1126.215 ZM352.180,840.318 C353.020,836.344 352.393,834.461 349.064,834.114 C343.975,833.584 342.692,829.768 340.740,826.371 C339.809,824.751 339.161,822.964 338.435,821.231 C338.082,820.386 337.995,819.074 336.868,819.212 C335.462,819.384 335.622,820.959 335.677,821.853 C335.899,825.432 336.314,829.002 336.783,832.559 C336.961,833.913 337.766,834.556 339.351,834.330 C344.559,833.587 348.756,835.459 352.180,840.318 ZM378.846,939.415 C378.385,939.344 377.924,939.273 377.463,939.202 C374.856,951.515 370.278,963.545 371.583,976.419 C372.177,976.507 372.770,976.594 373.364,976.682 C375.191,964.260 377.019,951.837 378.846,939.415 ZM444.329,962.975 C442.519,963.836 442.845,965.189 442.649,966.322 C440.608,978.114 438.303,989.867 437.436,1001.833 C437.331,1003.284 435.545,1005.473 437.885,1005.843 C439.929,1006.167 439.460,1003.460 439.662,1002.033 C441.175,991.352 442.606,980.660 443.988,969.961 C444.276,967.739 445.185,965.519 444.329,962.975 ZM326.787,424.150 C327.216,426.165 325.502,429.859 329.615,429.236 C332.287,428.832 333.656,429.844 335.178,431.376 C337.071,433.280 339.090,435.066 340.474,437.434 C341.068,438.450 342.049,438.928 343.234,438.316 C344.097,437.870 344.356,437.092 343.829,436.293 C341.729,433.111 340.709,428.874 336.405,427.741 C333.894,427.080 332.375,425.778 331.779,423.295 C331.447,421.911 330.563,421.206 329.117,421.504 C327.733,421.790 326.435,422.240 326.787,424.150 ZM173.157,739.480 C173.962,741.014 172.161,743.758 174.478,744.333 C176.653,744.873 176.175,741.825 177.147,740.588 C179.786,737.231 178.018,732.928 179.756,729.445 C180.537,727.881 180.677,726.484 178.976,725.697 C177.582,725.053 176.160,723.314 174.614,724.307 C173.126,725.263 172.386,727.652 173.155,728.983 C175.202,732.530 174.886,735.839 173.157,739.480 ZM919.507,205.884 C920.254,201.010 915.036,194.401 910.787,194.413 C908.399,194.420 908.502,195.961 909.519,197.422 C911.776,200.665 913.312,204.214 914.370,207.988 C915.165,210.823 916.514,210.290 917.921,208.542 C918.661,207.624 919.147,206.502 919.507,205.884 ZM470.945,173.552 C474.254,173.724 476.194,171.139 474.816,168.358 C473.270,165.240 471.283,162.388 470.745,158.809 C470.555,157.539 469.367,156.921 468.529,158.450 C467.567,160.203 465.192,161.849 465.811,163.659 C466.879,166.788 467.439,170.212 469.500,172.947 C469.838,173.396 470.694,173.455 470.945,173.552 ZM334.803,1013.186 C333.802,1011.119 336.826,1007.815 333.060,1007.713 C329.748,1007.624 331.374,1011.225 330.678,1013.134 C330.590,1013.374 330.619,1013.675 330.656,1013.939 C331.668,1021.181 330.090,1028.392 330.426,1035.612 C330.499,1037.189 328.039,1039.962 331.113,1040.230 C333.448,1040.434 330.763,1037.568 331.888,1036.358 C332.054,1036.180 332.099,1035.859 332.137,1035.596 C333.226,1028.038 332.900,1020.334 334.803,1013.186 ZM686.704,293.207 C690.469,292.932 693.059,291.058 695.476,288.907 C696.266,288.204 696.245,287.206 695.665,286.326 C694.434,284.458 693.313,281.235 691.869,281.074 C689.366,280.796 688.514,283.944 687.459,286.098 C686.812,287.418 685.855,288.587 685.215,289.910 C684.306,291.789 684.875,292.998 686.704,293.207 ZM356.895,29.203 C357.329,28.008 357.213,27.111 356.256,26.522 C355.170,25.854 353.928,25.500 352.800,26.224 C350.128,27.941 347.993,30.203 346.862,33.216 C346.346,34.591 346.750,35.874 348.032,36.790 C349.030,37.503 350.291,38.650 351.257,37.577 C353.557,35.024 356.703,32.942 356.895,29.203 ZM639.126,116.999 C639.597,122.219 639.910,126.865 640.505,131.474 C640.665,132.719 641.634,133.880 642.319,135.028 C642.727,135.712 643.264,136.433 644.238,136.158 C645.239,135.877 645.995,135.119 645.888,134.114 C645.245,128.085 645.880,121.565 639.126,116.999 ZM246.701,1032.967 C245.524,1037.704 243.691,1042.138 243.365,1046.954 C243.270,1048.367 242.015,1050.006 244.464,1050.330 C246.440,1050.591 249.345,1050.755 249.451,1048.320 C249.680,1043.115 248.619,1037.953 246.701,1032.967 ZM760.396,154.215 C760.265,155.662 760.155,156.863 760.048,158.064 C759.976,158.880 759.888,159.725 760.931,160.016 C761.812,160.262 767.725,156.762 767.843,155.883 C768.233,152.986 766.766,150.670 765.185,148.518 C764.544,147.645 763.141,147.754 762.162,148.280 C759.723,149.589 760.740,152.053 760.397,154.061 C760.375,154.191 760.397,154.329 760.396,154.215 ZM314.781,998.210 C316.088,1004.808 317.247,1010.876 318.533,1016.918 C318.724,1017.816 319.561,1018.133 320.273,1017.122 C323.940,1011.909 321.448,1002.322 314.781,998.210 ZM229.239,525.190 C228.923,525.288 228.609,525.299 228.418,525.457 C224.494,528.721 220.536,531.976 217.696,536.287 C216.824,537.611 217.404,538.196 219.066,537.930 C222.439,537.390 229.879,531.107 230.700,527.857 C231.025,526.571 230.878,525.409 229.239,525.190 ZM355.223,622.438 C351.547,618.381 350.815,613.488 346.699,610.872 C345.975,610.411 345.743,608.881 344.580,609.489 C343.315,610.150 343.494,611.528 343.719,612.748 C344.987,619.631 346.523,621.050 355.223,622.438 ZM393.855,133.607 C394.193,131.558 394.117,130.304 392.715,129.811 C391.505,129.386 390.233,128.528 388.896,129.350 C386.063,131.091 385.003,137.486 386.967,140.114 C387.667,141.051 388.315,140.905 388.954,140.334 C391.262,138.269 393.140,135.892 393.855,133.607 ZM319.371,458.651 C319.133,456.892 318.196,457.368 317.274,457.651 C314.358,458.546 311.672,459.880 308.952,461.277 C306.234,462.674 306.173,463.764 308.084,465.697 C310.873,468.519 311.787,468.392 314.167,465.086 C315.261,463.568 316.619,462.242 317.818,460.796 C318.411,460.080 318.913,459.289 319.371,458.651 ZM470.258,879.048 C469.826,878.987 469.393,878.926 468.960,878.864 C467.074,881.805 467.351,885.245 466.985,888.524 C466.384,893.895 465.867,899.274 465.303,904.649 C465.142,906.187 465.737,907.751 467.147,907.793 C469.041,907.849 468.216,905.932 468.158,904.955 C467.902,900.645 468.464,896.425 469.030,892.174 C469.610,887.822 469.862,883.425 470.258,879.048 ZM896.602,341.214 C896.397,339.549 896.247,337.547 895.867,335.589 C895.687,334.656 895.069,333.806 893.832,334.511 C891.514,335.831 889.384,345.849 890.930,347.931 C891.621,348.862 892.705,349.356 893.120,348.277 C894.036,345.897 896.186,344.175 896.602,341.214 ZM216.259,909.227 C216.040,911.110 218.377,912.094 220.022,913.577 C220.923,914.389 221.430,916.374 223.083,914.941 C224.273,913.909 224.312,912.424 223.513,910.906 C222.157,908.327 220.446,905.876 220.494,902.738 C220.506,901.928 219.790,901.295 218.879,901.207 C217.769,901.099 217.620,901.931 217.470,902.746 C217.130,904.591 216.781,906.435 216.259,909.227 ZM866.851,228.506 C866.879,228.511 866.908,228.516 866.937,228.521 C866.817,229.321 866.646,230.118 866.587,230.923 C866.490,232.237 866.077,233.773 867.782,234.377 C869.256,234.899 869.882,233.540 870.728,232.726 C873.316,230.239 873.679,227.460 871.915,224.347 C871.188,223.064 870.636,221.264 868.904,221.525 C867.187,221.784 867.842,223.739 867.477,224.936 C867.127,226.083 867.048,227.313 866.851,228.506 ZM269.657,423.610 C270.181,424.450 270.732,424.477 271.237,424.231 C275.929,421.941 280.307,419.036 285.267,417.256 C286.831,416.694 286.329,415.641 285.258,414.851 C283.861,413.821 282.281,413.219 280.770,414.357 C276.899,417.270 272.579,419.689 269.657,423.610 ZM70.223,457.883 C68.269,455.029 67.486,451.667 65.772,448.845 C64.052,446.013 65.367,441.821 61.680,440.003 C61.112,442.062 62.687,443.941 62.272,445.947 C60.900,452.576 64.624,455.851 70.223,457.883 ZM111.262,508.565 C111.085,508.664 110.908,508.763 110.732,508.863 C110.982,510.980 111.202,513.102 111.490,515.214 C112.091,519.619 113.327,523.875 114.634,528.107 C114.866,528.861 115.353,529.731 116.272,529.694 C117.298,529.653 117.444,528.654 117.473,527.870 C117.521,526.534 117.748,525.068 117.309,523.876 C115.410,518.729 113.297,513.661 111.262,508.565 ZM503.088,761.383 C498.335,762.118 494.490,764.594 493.350,767.567 C492.665,769.354 492.597,770.269 495.116,770.088 C500.622,769.691 501.675,768.698 503.088,761.383 ZM332.493,982.744 C333.586,986.780 331.305,990.391 331.544,994.241 C331.634,995.688 331.266,997.664 333.310,997.677 C335.297,997.689 337.041,996.354 336.954,994.149 C336.789,989.997 335.798,986.028 332.493,982.744 ZM876.836,250.152 C870.942,254.569 869.582,261.335 865.551,266.181 C865.029,266.808 865.385,267.802 866.245,268.226 C867.152,268.673 867.832,268.124 868.294,267.428 C869.187,266.088 870.164,264.764 870.803,263.302 C872.631,259.117 876.704,255.968 876.836,250.152 ZM276.205,1078.241 C274.620,1083.872 272.471,1089.347 272.108,1095.226 C272.046,1096.230 272.552,1097.305 272.947,1098.287 C273.184,1098.877 273.687,1099.566 274.464,1099.239 C274.849,1099.077 275.226,1098.470 275.285,1098.022 C276.155,1091.501 275.364,1084.872 276.205,1078.241 ZM837.541,284.474 C838.165,284.485 838.532,284.608 838.681,284.478 C843.246,280.514 846.977,275.823 850.332,270.831 C850.750,270.209 850.497,269.125 849.698,268.697 C848.824,268.230 848.122,268.932 847.647,269.547 C845.360,272.508 843.121,275.507 840.894,278.515 C839.580,280.289 837.477,281.619 837.541,284.474 ZM339.327,935.246 C337.716,929.788 338.857,924.484 336.322,919.228 C331.897,926.340 332.825,931.860 339.327,935.246 ZM863.343,184.181 C866.414,187.980 873.768,189.575 877.224,187.628 C877.830,187.286 878.517,187.024 878.292,186.196 C878.097,185.477 877.393,185.286 876.731,185.074 C872.526,183.728 868.224,184.129 863.343,184.181 ZM822.257,221.238 C822.428,221.196 822.919,221.226 823.158,220.994 C825.496,218.737 826.368,215.743 827.167,212.732 C827.314,212.179 827.004,211.512 826.368,211.652 C823.791,212.222 821.574,213.539 819.862,215.523 C818.209,217.438 819.563,220.805 822.257,221.238 ZM805.299,338.533 C805.312,336.935 805.395,335.333 805.305,333.741 C805.269,333.096 804.818,332.381 804.018,332.509 C803.563,332.581 802.843,333.055 802.810,333.403 C802.494,336.743 800.343,339.599 800.321,342.999 C800.314,344.116 800.450,345.182 801.765,345.552 C803.175,345.948 803.605,344.770 804.231,343.957 C805.484,342.329 805.169,340.390 805.299,338.533 ZM519.246,62.621 C521.248,62.576 522.988,62.504 524.728,62.507 C525.953,62.510 526.778,62.050 527.152,60.843 C527.569,59.492 526.688,58.944 525.750,58.310 C523.328,56.673 521.268,57.576 519.078,58.909 C517.981,59.578 515.590,58.716 515.832,60.832 C516.015,62.438 518.067,62.412 519.246,62.621 ZM355.335,940.654 C353.656,941.006 353.232,942.265 352.869,943.779 C351.974,947.511 354.874,950.746 354.172,954.440 C354.136,954.632 354.674,955.102 354.994,955.155 C355.626,955.262 355.904,954.727 356.031,954.196 C356.527,952.119 357.136,950.056 357.430,947.950 C357.634,946.487 359.081,944.121 355.433,944.435 C354.866,944.483 356.490,942.075 355.335,940.654 ZM137.296,771.000 C135.886,777.228 136.837,783.248 138.356,789.228 C138.894,783.087 140.096,776.910 137.296,771.000 ZM219.041,1089.326 C214.214,1094.241 217.274,1099.991 215.168,1104.672 C215.071,1104.886 215.688,1105.711 216.075,1105.798 C217.181,1106.049 217.330,1105.064 217.534,1104.310 C218.808,1099.605 218.411,1094.777 219.041,1089.326 ZM458.273,728.471 C459.193,732.306 459.776,734.954 460.485,737.568 C460.747,738.534 461.569,739.342 462.597,738.923 C463.804,738.430 465.072,737.732 465.891,736.765 C466.439,736.117 465.261,735.502 464.726,734.963 C462.871,733.090 461.010,731.223 458.273,728.471 ZM304.928,838.926 C304.912,835.657 306.042,833.114 306.905,830.504 C307.283,829.358 307.993,828.005 306.239,827.525 C304.853,827.146 303.875,828.081 303.639,829.437 C303.341,831.151 303.889,833.466 302.949,834.529 C300.426,837.380 302.580,837.821 304.928,838.926 ZM436.870,97.672 C441.151,95.505 442.279,92.225 442.258,88.296 C442.254,87.618 442.206,86.855 441.390,86.694 C440.649,86.547 440.206,87.124 439.786,87.679 C437.653,90.497 437.513,93.853 436.870,97.672 ZM366.918,728.019 C367.273,727.958 367.627,727.898 367.982,727.837 C368.670,724.401 366.690,721.136 367.045,717.699 C367.146,716.722 367.666,714.815 365.868,715.067 C364.689,715.232 363.100,716.320 363.761,718.311 C364.832,721.541 365.867,724.782 366.918,728.019 ZM899.468,364.902 C899.794,366.221 899.520,368.428 901.368,368.316 C904.089,368.150 904.108,365.369 904.463,363.356 C904.659,362.244 905.264,360.100 903.284,360.168 C900.706,360.257 900.293,362.817 899.468,364.902 ZM340.319,781.083 C336.692,787.101 336.889,790.474 340.680,794.106 C341.885,789.824 340.382,785.971 340.319,781.083 ZM887.239,328.577 C887.038,327.670 887.759,326.570 886.653,326.005 C885.828,325.584 885.088,326.286 884.538,326.794 C883.158,328.069 882.118,329.661 881.585,331.441 C881.213,332.685 881.784,333.897 883.120,334.334 C884.285,334.716 884.713,333.786 885.123,332.882 C885.781,331.432 886.524,330.019 887.239,328.577 ZM121.742,488.637 C120.328,488.616 118.867,488.296 118.915,490.142 C118.963,491.954 119.507,493.746 121.711,493.840 C123.717,493.925 125.873,492.689 125.904,490.961 C125.948,488.502 122.978,489.521 121.742,488.637 ZM293.453,780.174 C293.851,780.185 294.249,780.196 294.647,780.207 C293.865,775.739 295.996,772.148 297.946,768.276 C296.564,769.848 293.843,765.943 293.508,769.489 C293.175,773.021 293.447,776.610 293.453,780.174 ZM338.187,1089.140 C337.622,1086.988 335.769,1086.131 333.948,1085.391 C332.353,1084.743 330.596,1085.309 330.546,1087.025 C330.455,1090.209 334.196,1088.607 335.576,1090.410 C336.124,1091.127 337.556,1090.325 338.187,1089.140 ZM554.221,173.033 C556.291,172.750 557.544,171.359 557.954,169.179 C558.185,167.950 558.187,166.386 556.542,166.433 C554.125,166.502 553.355,168.605 552.723,170.549 C552.355,171.679 552.512,172.710 554.221,173.033 ZM257.689,99.993 C260.526,99.839 261.454,97.729 262.822,96.123 C263.517,95.307 264.729,94.604 263.607,93.483 C262.631,92.510 261.285,92.700 260.304,93.601 C258.551,95.212 257.540,97.214 257.689,99.993 ZM483.359,136.904 C483.278,136.005 483.942,134.833 482.625,134.524 C481.671,134.300 481.478,135.373 481.112,136.062 C480.240,137.702 479.254,139.284 478.438,140.950 C478.028,141.787 477.819,142.886 478.767,143.488 C480.003,144.274 480.330,143.095 480.731,142.287 C481.617,140.499 482.484,138.701 483.359,136.904 ZM305.267,1067.106 C306.985,1061.627 306.706,1056.120 306.606,1050.616 C306.277,1050.612 305.947,1050.608 305.617,1050.604 C305.501,1056.105 305.384,1061.605 305.267,1067.106 ZM296.246,750.404 C296.015,747.960 296.896,745.905 296.157,743.786 C295.910,743.075 295.550,742.613 294.792,742.517 C294.008,742.417 293.290,742.781 293.324,743.509 C293.438,745.938 291.682,749.077 296.246,750.404 ZM436.494,818.043 C434.947,820.376 435.248,822.625 434.535,824.602 C434.099,825.811 434.956,826.631 436.036,827.038 C436.959,827.386 437.936,826.804 437.722,826.011 C437.050,823.524 438.530,820.732 436.494,818.043 ZM67.740,668.305 C66.553,667.408 68.918,664.569 65.860,664.201 C64.850,664.080 63.674,664.742 63.929,666.175 C64.238,667.918 64.854,669.683 66.643,670.314 C67.747,670.704 67.685,669.489 67.740,668.305 ZM288.512,1065.423 C289.065,1066.736 288.265,1068.963 290.409,1069.956 C291.347,1070.390 292.011,1069.717 291.885,1068.762 C291.620,1066.744 291.616,1064.458 289.962,1063.102 C289.377,1062.622 288.689,1064.093 288.512,1065.423 ZM416.375,693.351 C416.942,697.245 419.187,699.503 420.463,702.196 C420.760,702.823 421.534,703.181 422.184,702.856 C423.007,702.446 422.598,701.757 422.253,701.168 C420.728,698.561 419.188,695.966 416.375,693.351 ZM628.965,97.151 C627.833,93.800 625.630,92.083 621.501,92.412 C623.600,95.212 626.427,95.945 628.965,97.151 ZM891.407,315.996 C890.648,317.560 890.032,318.726 889.511,319.933 C888.951,321.231 889.130,322.319 890.700,322.703 C892.488,323.140 892.672,321.816 892.822,320.602 C893.014,319.044 893.207,317.448 891.407,315.996 ZM300.168,760.544 C299.567,764.289 298.481,767.058 300.343,769.844 C300.919,767.072 302.036,764.304 300.168,760.544 ZM481.333,835.123 C481.580,834.046 481.649,832.488 480.644,832.762 C478.825,833.258 478.897,835.515 478.201,837.027 C477.796,837.907 478.040,839.328 479.164,839.195 C481.620,838.904 480.215,836.205 481.333,835.123 ZM462.983,923.876 C462.780,926.838 461.752,929.807 462.966,933.865 C464.204,929.833 464.834,926.888 462.983,923.876 ZM292.707,488.239 C292.590,489.111 291.978,490.445 293.249,490.558 C294.647,490.683 295.553,489.418 295.977,488.070 C296.282,487.101 296.199,486.011 295.092,485.754 C293.121,485.296 293.147,487.051 292.707,488.239 ZM329.962,1100.650 C331.044,1099.758 332.574,1098.961 333.354,1097.701 C333.931,1096.770 332.514,1096.250 331.619,1096.059 C329.004,1095.503 329.615,1097.969 328.894,1099.136 C328.498,1099.778 328.909,1100.399 329.962,1100.650 ZM428.179,711.051 C428.020,708.596 426.635,707.049 424.612,705.972 C424.143,705.722 423.381,706.135 423.527,706.711 C424.032,708.703 425.136,710.318 427.072,711.214 C427.258,711.301 427.554,711.152 428.179,711.051 ZM795.271,171.663 C794.244,171.736 792.815,171.261 792.663,172.737 C792.541,173.916 793.716,174.589 794.796,174.713 C796.022,174.854 797.484,174.545 797.624,173.130 C797.773,171.635 796.169,171.989 795.271,171.663 ZM294.210,787.265 C293.480,789.195 293.222,791.173 294.280,793.125 C294.543,793.611 295.444,793.431 295.580,792.912 C296.086,790.990 296.459,789.021 294.892,787.335 C294.828,787.265 294.647,787.304 294.210,787.265 ZM205.289,988.463 C202.864,989.985 203.631,992.584 202.972,994.626 C202.761,995.279 203.188,996.026 203.943,996.124 C204.774,996.232 205.107,995.470 205.126,994.827 C205.189,992.752 206.151,990.690 205.289,988.463 ZM905.446,288.699 C904.009,290.558 903.254,292.176 904.096,294.118 C904.183,294.317 904.968,294.485 905.064,294.367 C906.411,292.728 906.618,290.931 905.446,288.699 ZM305.929,1070.468 C304.948,1072.035 303.157,1073.353 304.434,1075.410 C304.608,1075.691 305.652,1075.845 305.826,1075.647 C307.231,1074.053 306.813,1072.277 305.929,1070.468 ZM273.756,441.961 C273.989,440.962 273.520,440.594 272.736,440.656 C271.370,440.763 270.128,441.242 269.488,442.543 C269.123,443.288 269.698,443.906 270.354,444.020 C272.083,444.320 272.851,442.918 273.756,441.961 ZM629.653,211.622 C628.960,212.717 628.719,213.178 628.403,213.580 C627.555,214.662 625.867,215.369 626.692,217.175 C626.842,217.503 627.759,217.861 627.992,217.707 C629.363,216.798 630.104,215.419 630.239,213.784 C630.278,213.314 629.991,212.816 629.653,211.622 ZM274.410,869.171 C273.433,870.833 271.736,872.374 273.151,874.499 C273.306,874.732 274.078,874.893 274.205,874.755 C275.778,873.055 274.948,871.132 274.410,869.171 ZM824.729,252.519 C826.073,250.953 827.176,249.284 825.969,246.819 C823.934,248.560 824.899,250.666 824.729,252.519 Z" class="cls-1"/>
</svg>
