<?xml version="1.0" encoding="UTF-8" standalone="no"?>
<svg width="1000px" height="150px" viewBox="0 0 1000 150" version="1.1" xmlns="http://www.w3.org/2000/svg" xmlns:xlink="http://www.w3.org/1999/xlink">
    <defs></defs>
    <g stroke="none" stroke-width="1" fill="none" fill-rule="evenodd">
        <g transform="translate(-63.000000, -217.000000)" fill="#3778FF">
            <path d="M78.2794318,235.218505 C74.2990167,234.112421 76.209299,231.042921 75.3235757,228.943134 C75.2281477,228.716726 75.4296833,228.163026 75.6467217,228.062801 C77.8581017,227.041497 79.2829759,224.819469 82.0965513,224.653524 C91.4925909,224.098181 100.753584,222.466 110.069699,221.266263 C123.703154,219.510855 137.307672,217.456087 151.115102,217.322674 C153.28652,217.301643 155.475851,217.330889 157.624531,217.082135 C161.834387,216.594813 165.688369,218.427772 169.797973,218.602919 C171.270045,218.665683 172.720757,219.000531 174.222456,218.764921 C175.086131,218.629207 175.805114,218.961756 176.148585,219.800027 C176.499292,220.656043 176.094498,221.282365 175.423746,221.803204 C173.997149,222.911589 172.295293,223.543496 170.680252,224.508281 C171.949754,224.31276 173.215122,224.087009 174.490137,223.934536 C175.085786,223.863557 175.620803,224.085037 175.92259,224.637751 C176.285354,225.301862 176.243669,226.046809 175.609435,226.401374 C174.49806,227.022438 174.029533,227.769686 174.093611,229.026271 C174.140808,229.94998 173.421481,230.66141 172.51681,231.00546 C171.030614,231.571318 169.54614,232.221627 167.994143,232.536102 C161.263197,233.899813 154.417186,234.570167 147.604593,235.434727 C146.933841,235.519507 146.183508,235.589829 145.564432,235.394638 C142.562757,234.447598 139.650997,235.375907 136.737171,235.749202 C133.94461,236.106725 133.458169,236.768864 133.478494,239.352686 C133.524314,245.260676 132.78156,251.128905 132.246888,256.990562 C131.601629,264.059843 130.20087,271.063074 129.291031,278.11461 C128.814236,281.811088 127.814481,285.444803 127.569194,289.138652 C127.3525,292.406958 126.681748,295.571096 126.205297,298.78354 C125.389164,304.287674 124.661913,309.812511 124.18994,315.351478 C123.951198,318.157108 124.410424,321.011372 124.450731,323.845262 C124.543403,330.289536 123.632531,336.715736 124.044215,343.168225 C124.169615,345.137884 124.251951,345.180274 126.222867,344.940721 C130.875756,344.37552 135.521756,343.72291 140.2308,343.739341 C142.640959,343.747884 145.033894,343.639116 147.431995,343.282251 C150.420924,342.837648 154.447847,346.201907 154.530184,348.973691 C154.560845,349.993352 153.617245,350.438612 153.155263,351.347862 C154.116089,351.969254 155.144782,351.755661 156.123866,351.750075 C157.843981,351.740217 159.565475,351.663652 161.283868,351.703742 C162.240214,351.726415 163.668878,351.472404 163.607556,352.890992 C163.558637,354.03158 162.29568,354.234001 161.239771,354.346055 C155.888224,354.913227 150.636584,356.152725 145.229917,356.395565 C143.303443,356.481988 141.354232,356.900302 139.494592,357.422784 C130.444091,359.96553 121.050463,360.800515 111.850447,362.588127 C108.257945,363.286084 104.67819,364.052063 101.113937,364.870946 C99.3796969,365.269544 97.7908381,365.579419 96.3142881,364.185476 C95.3117775,363.239094 93.8948269,363.532209 92.6894026,363.683039 C87.010576,364.393812 81.3186582,365.170963 75.8175964,366.67926 C73.4460214,367.329569 71.4248084,366.942144 69.5713694,365.956986 C68.0731156,365.160447 66.9734544,363.738573 64.9450068,364.09741 C64.6466651,364.150315 63.8952989,363.569999 63.930094,363.377765 C64.2487614,361.619071 63.0471267,360.144291 63.0006185,358.520325 C62.9685795,357.396824 64.1874395,357.043245 65.2461045,356.847397 C67.8126695,356.372562 70.2858736,355.509645 72.7887051,355.367031 C73.1535363,354.630627 72.6602046,354.423606 72.3908014,354.097958 C70.9776404,352.392498 71.3872573,350.93612 73.4770269,350.541465 C78.7541602,349.544478 84.0688446,348.815632 89.4507075,348.52153 C93.9120521,348.277377 98.3661621,347.902438 102.820272,347.550502 C103.846209,347.469665 104.857677,347.233398 105.87948,347.092427 C106.775883,346.968871 107.500722,346.5568 107.447668,345.657408 C107.110398,339.93738 109.559486,334.379026 108.811221,328.707302 C107.872099,321.588402 108.998976,314.519779 108.747832,307.432096 C108.725094,306.779815 108.750243,306.107818 108.886323,305.470981 C111.187963,294.689449 110.567853,283.688738 111.570364,272.809938 C111.713334,271.255308 111.869739,269.898498 112.956309,268.566661 C114.532421,266.635121 114.164145,264.136079 114.127283,261.895321 C114.015663,255.120142 113.757973,248.342663 112.901877,241.603302 C112.519476,238.591965 112.490882,238.485168 109.285604,238.865364 C102.347955,239.68852 95.445101,240.954964 88.48437,241.366706 C83.5886041,241.656207 78.7183316,241.96411 73.8659734,242.61902 C73.4201835,242.679483 72.9361534,242.660095 72.4986316,242.561843 C71.400693,242.316046 70.6600064,241.641748 70.4529587,240.581011 C70.2403989,239.493986 71.116476,238.981362 71.9363988,238.618582 C73.9913734,237.70966 75.9578101,236.678826 78.2794318,235.218505 L78.2794318,235.218505 Z M129.255257,240.964497 C130.124468,239.795211 129.924329,238.818467 129.416471,237.414201 C128.785404,238.780239 128.793067,239.75067 129.255257,240.964497 L129.255257,240.964497 Z M384.217558,325.412186 C383.196265,326.360837 383.360028,327.182082 383.348722,327.911712 C383.329194,329.219596 382.758764,330.011288 381.389047,330.135411 C379.759638,330.283504 377.958244,329.150311 377.820861,327.791202 C377.677996,326.382181 377.703349,324.95116 377.747544,323.532616 C377.799962,321.85532 377.514233,320.592751 375.436018,320.121545 C373.475657,319.677265 373.76721,318.068269 374.059791,316.635277 C374.476736,314.594479 375.515843,312.746432 375.934159,310.681992 C377.455648,303.168308 378.808236,295.64773 378.187101,287.950161 C378.096312,286.828461 378.297761,285.801002 378.572869,284.751871 C379.814111,280.017154 379.97205,275.239421 379.195032,270.424254 C378.928831,268.773227 379.007287,267.351728 380.247501,265.854377 C381.651479,264.159348 380.981694,261.892963 380.759347,259.782879 C379.345434,261.693316 379.018935,263.978418 378.575953,266.179131 C378.357031,267.268323 378.142563,268.3122 377.586179,269.280225 C376.479922,271.204124 376.333289,271.304604 374.036836,270.140217 C373.053573,269.641756 372.776409,270.202606 372.479716,270.73653 C370.878401,273.61926 368.985875,276.382136 368.53467,279.742639 C368.421269,280.587855 368.120466,281.459011 367.6929,282.206374 C366.60343,284.109586 366.06726,284.219917 363.928061,283.033201 C363.314121,282.692356 362.761506,282.664117 362.462416,283.171771 C361.670323,284.517089 359.658229,285.293676 360.304031,287.344325 C360.378033,287.580092 360.184806,288.022402 359.965884,288.193152 C358.136397,289.620233 357.435436,291.81011 355.999939,293.494959 C355.4994,294.082406 354.991665,294.720094 354.344493,295.124642 C353.217679,295.828988 352.106283,295.462202 351.779099,294.150378 C351.533454,293.165279 351.503305,292.585055 350.14181,292.787329 C349.0681,292.946915 348.806696,291.776945 348.363713,291.043374 C346.403695,287.796814 345.492719,284.146691 344.088057,280.688007 C342.841675,277.619421 340.920371,274.890367 339.570867,271.881873 C339.401965,271.505893 339.033326,271.016299 338.676679,270.94373 C335.681664,270.335595 335.182495,267.822277 334.169425,265.686253 C333.273181,263.796832 332.37317,261.908724 331.421082,260.045244 C331.14015,259.49523 330.989405,258.591894 330.143867,258.702225 C329.118463,258.836198 329.243512,259.796999 329.146214,260.531883 C328.242433,267.35534 327.198186,274.156468 326.883336,281.049538 C326.719916,284.626107 325.844229,288.156047 325.124425,291.690256 C324.53892,294.562807 324.626968,297.557838 324.353573,300.493435 C324.195634,302.192075 324.247024,303.851311 322.538132,305.191703 C321.211582,306.232625 321.363355,308.231064 321.113599,309.800984 C320.41161,314.213574 320.02961,318.671806 319.453356,323.104098 C319.235804,324.775812 319.410873,326.695443 317.01541,327.294055 C316.075656,327.529165 316.033859,328.502772 316.071202,329.229119 C316.187344,331.490908 314.981389,333.449943 314.615149,335.598116 C314.369847,337.035705 313.555485,337.384759 311.912373,337.168365 C309.133881,336.801908 307.380451,335.93305 307.776497,332.907481 C307.820008,332.573204 307.608966,332.273077 307.239642,332.181463 C306.730195,332.05537 306.245072,332.291137 306.109403,332.691087 C305.760292,333.71986 305.526639,334.786394 305.282022,335.845705 C305.008627,337.029466 304.516652,337.967938 303.004755,337.646139 C301.733022,337.375565 301.583648,336.467631 301.63401,335.370887 C301.861839,330.39482 302.087613,325.442068 303.265817,320.539555 C304.224414,316.549573 305.329301,312.568129 305.729116,308.464861 C305.760635,308.142733 305.815451,307.78153 305.991205,307.519822 C308.856032,303.255982 308.24449,298.25102 309.097223,293.584931 C309.897538,289.207148 309.874241,284.735453 311.252524,280.380656 C312.265594,277.179739 312.271761,273.695441 312.875423,270.361864 C313.156013,268.812302 313.028908,267.069333 314.738485,265.975544 C315.726203,265.343767 315.139671,264.131437 315.392853,263.208727 C317.141829,256.828894 317.856152,250.349237 317.893838,243.747756 C317.912338,240.520898 318.087064,237.195858 319.812744,234.204439 C320.458546,233.085366 319.968627,231.841513 319.904561,230.651185 C319.874755,230.097887 319.922034,229.52029 320.554132,229.268433 C321.261945,228.986695 321.91083,229.155804 322.375054,229.739968 C322.648107,230.083439 322.773499,230.537898 323.05683,230.870205 C324.519734,232.584935 325.571861,232.514665 326.85216,230.555302 C327.286235,229.891345 327.718254,229.267448 328.420928,228.864871 C329.396655,228.305991 330.065754,228.415665 330.493662,229.57874 C333.286543,237.170246 336.382625,244.635659 340.139584,251.853156 C343.334335,257.989341 347.45959,263.656291 350.022585,270.110007 C350.910606,272.345855 352.026457,274.499939 353.082009,276.671756 C353.314635,277.150842 353.732608,277.547509 354.134479,278.072567 C355.580253,277.403028 355.988633,276.083979 356.535767,274.958996 C357.792426,272.373766 359.332416,269.949764 360.820331,267.490627 C362.644679,264.474909 364.28231,261.381039 365.766456,258.176182 C369.045487,251.096599 372.529051,244.068242 378.308039,238.427561 C379.061075,237.692348 378.671881,236.946956 378.475228,236.311239 C378.117553,235.155389 378.561221,234.658242 379.64007,234.443162 C380.883368,234.194916 382.122212,234.001509 382.544981,232.550457 C382.736495,231.893067 383.225386,231.340754 384.034266,231.468489 C384.994233,231.619866 385.236795,232.391856 385.289898,233.187816 C385.339575,233.938462 385.300518,234.694362 385.300518,235.228286 C386.229994,236.26067 386.690792,235.31399 387.269787,235.198076 C388.183503,235.015176 389.061931,235.291989 389.209592,236.096487 C389.602555,238.235467 390.906836,240.056588 390.978097,242.360407 C391.170638,248.589192 391.580046,254.817649 391.40532,261.04709 C391.348448,263.066873 392.591403,264.515955 393.027534,266.301283 C394.328046,271.62706 393.629141,276.972211 393.478054,282.302913 C393.301957,288.528743 394.106041,294.768036 393.182732,300.981059 C393.078924,301.678838 393.325254,302.286973 393.929601,302.707939 C395.562436,303.844744 395.451091,305.398902 395.360302,307.118886 C394.931366,315.244645 392.400232,323.022663 391.184685,331.015433 C390.847908,333.22928 389.27126,333.73792 387.202295,332.498336 C386.233763,331.918113 385.888421,331.261708 386.802137,330.424373 C387.380105,329.894718 388.047491,329.467841 388.212967,328.640358 C388.391462,327.747858 388.687126,326.755205 387.149534,326.913807 C385.841828,327.048108 385.141209,326.078442 384.217558,325.412186 L384.217558,325.412186 Z M391.690808,295.994083 L391.690808,300.431953 C392.038455,298.962189 392.40053,297.51454 391.690808,295.994083 L391.690808,295.994083 Z M544.738119,222.588101 C545.635612,221.930872 546.855819,221.347841 546.444282,220.02448 C545.945979,218.422794 544.360534,218.725851 543.2535,218.975486 C539.055482,219.922252 534.636606,218.149746 530.531526,220.000737 C530.252367,220.126708 529.813394,220.133963 529.532521,220.014257 C527.32051,219.074087 525.263169,219.941378 523.197598,220.499017 C519.352472,221.537129 515.483341,222.442673 511.551793,223.149037 C502.578233,224.761936 493.691439,226.716144 484.984692,229.4153 C481.306925,230.55564 477.687116,232.017834 473.796722,232.385196 C470.141589,232.730134 466.417867,233.098815 463.134147,234.579806 C460.31169,235.853043 458.226571,238.411058 455.366047,239.825765 C454.763489,240.123546 454.673979,240.93049 455.068026,241.60025 C455.504598,242.342559 456.354764,242.980002 457.014252,242.528878 C458.981398,241.183092 461.013018,242.072149 462.958558,242.19911 C465.10678,242.339261 467.133256,241.7282 469.278391,241.487799 C469.13161,243.005064 468.003313,242.751802 467.209733,243.027818 C466.105099,243.411998 464.162989,243.384957 464.490846,244.870565 C464.880092,246.632518 466.737151,245.749728 467.99954,245.633979 C469.014665,245.540655 469.999609,245.157793 471.01439,245.051278 C476.974815,244.426696 483.025777,244.678969 488.912125,243.333843 C489.134012,243.283059 489.364816,243.268219 489.58636,243.215456 C490.703682,242.950322 491.342593,243.38067 491.541159,244.450769 C491.661534,245.099424 491.73561,245.757972 491.891309,246.398383 C492.854991,250.370116 491.958526,254.478703 492.940041,258.466264 C494.132126,263.305948 493.942476,268.250169 493.911954,273.189113 C493.878688,278.549831 493.969912,283.900656 495.786161,289.107373 C497.523875,294.089846 497.499869,299.22896 496.606491,304.40171 C496.17815,306.883878 495.903106,309.413533 495.860238,311.92637 C495.834174,313.449901 496.38289,314.938806 494.425003,315.782684 C493.963739,315.981205 493.647885,316.753852 494.006608,317.24158 C495.408233,319.148962 493.95688,321.068215 494.103662,322.979554 C494.188027,324.08263 493.610503,325.327176 492.650937,325.83535 C490.666301,326.885992 489.89124,328.6275 489.005407,330.418474 C487.570858,333.319448 485.299175,334.267862 482.261348,333.143022 C480.098379,332.342343 478.133977,330.972815 477.089016,329.013 C474.69593,324.525839 472.670826,319.862581 470.953003,315.088191 C470.470133,313.747022 470.174855,312.441468 472.363202,312.275595 C472.931123,312.232395 473.526137,311.978473 473.429425,311.273428 C473.365637,310.806146 472.896485,310.510673 472.458884,310.439114 C468.289331,309.757812 467.142858,306.800777 466.555732,303.353376 C466.354422,302.168847 466.034452,300.985637 465.603368,299.860467 C465.294372,299.054183 464.806701,298.266695 464.228149,297.610126 C463.199993,296.443075 462.160519,297.467996 461.124818,297.742363 C460.280482,297.966276 459.290736,298.564147 459.677581,299.236875 C460.691676,301.000477 460.57816,302.375612 459.139496,303.81802 C458.891546,304.066665 459.312342,304.863716 459.284906,305.400579 C459.247525,306.125411 460.229383,306.747684 459.369614,307.695109 C458.434054,306.912239 458.596954,305.657799 457.954613,304.821506 C457.467971,304.18769 457.035858,303.513973 456.048855,303.762948 C455.014183,304.024125 454.993263,304.809964 455.115353,305.601408 C455.282711,306.687666 455.36639,307.814485 455.743289,308.836438 C457.908658,314.711925 458.959106,320.910915 461.330587,326.717481 C462.954099,330.692511 464.453122,334.76977 467.233739,338.171663 C469.677582,341.161675 471.486972,344.855742 475.853034,345.930129 C476.492631,346.087428 476.7543,346.862384 477.15692,347.393642 C477.896314,348.368767 479.042444,349.497235 480.167997,349.200114 C483.14478,348.414275 486.343793,348.894418 489.190598,347.619203 C490.784618,346.905254 492.410188,346.607143 494.169165,346.758837 C496.062577,346.921743 497.7269,346.553061 498.994776,344.931589 C499.732113,343.988781 500.730776,343.126766 501.800771,342.556926 C503.547059,341.627308 504.677756,340.468171 504.734,338.467465 C504.759721,337.556974 505.229902,336.82258 505.948033,336.190743 C507.71284,334.637533 509.912161,333.306587 509.006095,330.381539 C508.841823,329.851601 509.292113,329.123472 509.517772,328.507135 C511.148829,324.050642 512.195505,319.59316 509.784585,315.055544 C509.587047,314.683895 509.584647,314.198476 509.558926,313.762521 C509.321949,309.711644 508.908355,305.659118 508.932361,301.60923 C508.952595,298.21756 509.254388,294.824241 509.329151,291.421029 C509.403571,288.052443 508.29688,284.872814 508.494417,281.436625 C508.800326,276.112841 507.973823,270.744538 507.36372,265.41284 C507.155894,263.594496 506.731668,261.647542 508.961854,260.468949 C509.622714,260.119394 509.557554,259.339821 509.405285,258.668742 C509.113437,257.381326 508.843195,256.088633 508.518424,254.808801 C507.51736,250.864109 506.78894,246.873909 506.360256,242.835893 C506.171978,241.066025 507.057811,240.434518 508.775977,241.000071 C509.841171,241.350945 510.41115,242.102158 510.859039,243.043647 C511.235252,243.835421 511.80866,244.475172 512.888258,244.397347 C512.888258,244.13683 512.932156,244.002284 512.881742,243.925118 C510.797994,240.731969 510.801767,240.797263 514.789558,240.514652 C516.17438,240.41671 518.013949,240.910374 518.710818,239.182386 C519.373392,237.541128 520.694425,237.224221 522.204079,237.015477 C526.723439,236.390236 531.24177,235.760708 535.760101,235.128211 C536.544765,235.018398 537.356864,234.974209 538.098659,234.735127 C538.653891,234.555733 538.944367,234.010955 538.841483,233.399564 C538.761233,232.924698 538.420686,232.675063 537.942961,232.532933 C537.044782,232.26516 535.907225,232.751239 535.053287,231.764901 C535.854754,230.813849 536.539963,229.975577 537.756397,229.727261 C538.437491,229.588429 539.289029,229.35858 539.318865,228.651226 C539.409061,226.500146 541.067554,226.69438 542.487013,226.533782 C544.865352,226.264691 547.246779,226.002195 549.633692,225.821482 C550.971872,225.719913 552.435915,225.532605 552.315197,223.993245 C552.195166,222.458172 550.687226,222.835428 549.571961,222.956453 C547.653514,223.164537 545.73781,223.395375 543.137927,223.695464 C544.009699,223.093636 544.381111,222.849608 544.738119,222.588101 L544.738119,222.588101 Z M283.015402,344.675701 C282.194555,346.16472 282.438544,347.26203 282.491392,348.349118 C282.539434,349.334653 282.599831,350.325134 282.550416,351.30869 C282.492764,352.459415 282.166416,353.673446 280.738511,353.686305 C279.426254,353.698175 279.121524,352.470625 279.201825,351.501577 C279.368602,349.485006 278.442403,348.364285 276.711143,347.303904 C273.775034,345.504949 272.575677,342.543728 271.955237,339.36753 C271.026293,334.61197 271.199591,329.7631 270.673864,324.967314 C269.99337,318.762632 269.65707,312.522341 269.205467,306.295238 C269.076094,304.513099 268.11249,303.883662 266.316028,303.831236 C261.317506,303.684181 256.539295,304.556292 251.97213,306.471309 C250.721641,306.995565 249.537727,307.621374 248.030209,307.467725 C247.57689,306.137962 249.257362,305.934854 249.270402,304.981632 C249.107056,304.843808 248.959839,304.611355 248.791689,304.596518 C248.111539,304.537498 247.422466,304.498921 246.741286,304.536179 C241.680651,304.812485 241.757177,304.847106 240.484383,309.648167 C238.766505,316.126187 236.898322,322.567278 235.10186,329.026174 C234.3946,331.568649 233.648219,334.103211 233.020916,336.664481 C231.955393,341.017781 228.907756,344.462372 227.200174,348.525189 C226.776023,349.533804 225.817567,350.15269 224.388977,349.473136 C222.904451,348.766874 221.259324,348.385388 219.564095,348.35868 C218.08403,348.3356 217.294068,347.630987 217.084395,346.201319 C216.925853,345.119505 216.603966,344.059454 216.355172,342.98984 C216.25737,342.569446 216.287569,341.876044 216.042893,341.770534 C213.111932,340.506715 214.790689,338.609832 215.152726,336.801974 C216.065542,332.243587 218.451216,328.554344 221.499882,324.988086 C224.456237,321.529977 226.255444,317.286803 228.374136,313.276412 C233.963586,302.697657 236.248027,291.340103 237.260017,279.668324 C237.889036,272.41678 239.251739,265.306685 241.505638,258.364749 C242.311043,255.88492 242.871086,253.266939 245.476385,251.676367 C246.429693,251.09408 246.527495,249.775198 246.756042,248.704925 C247.763571,243.989921 249.247067,239.371525 249.780687,234.558594 C249.999968,232.577303 250.564473,230.690972 252.382554,229.414953 C252.742189,229.162717 253.020152,228.58142 253.3616,228.561636 C256.538952,228.376993 257.895478,225.974319 259.511436,223.937305 C260.055007,223.252476 260.257131,222.204624 261.400552,222.336842 C262.595791,222.474995 263.512724,223.097507 263.905647,224.288458 C264.561776,226.275684 265.264232,228.248402 265.905605,230.239584 C266.243278,231.287436 266.46153,232.370898 266.797487,233.419409 C266.961862,233.932784 267.227471,234.802257 267.521906,234.831932 C270.74284,235.158026 269.343418,237.592023 269.767569,239.182925 C270.900695,243.432364 271.979945,247.694661 272.701275,252.029168 C274.286691,261.557103 276.061191,271.068223 276.42666,280.7353 C276.531668,283.513855 277.329867,286.143377 277.74784,288.850383 C278.852141,295.998724 279.760838,303.194216 282.352753,310.048448 C282.546298,310.560504 282.760089,311.102894 282.772443,311.635393 C282.93922,318.762303 285.751103,325.493548 286.134417,332.591443 C286.257956,334.879703 287.297742,337.020909 287.439812,339.350055 C287.657378,342.917302 286.929527,346.580827 288.53622,350.03399 C288.855362,350.719479 288.275758,351.283961 287.65326,351.630497 C286.944283,352.024843 286.333109,351.701387 285.788508,351.258902 C285.03046,350.642655 284.968004,349.72768 284.712004,348.890849 C284.307757,347.56867 284.150931,346.145925 283.015402,344.675701 L283.015402,344.675701 Z M260.261363,245.402367 C259.490883,245.859963 259.468121,246.307689 259.361206,246.724164 C258.298951,250.872134 257.378446,255.05958 256.137195,259.158533 C252.72729,270.420128 248.945251,281.572834 245.101478,292.707447 C243.208734,298.190702 243.470159,298.368674 249.462928,297.164319 C249.68745,297.11925 249.928871,297.105105 250.13201,297.014309 C255.125984,294.784228 260.412424,295.148726 265.674376,295.477037 C268.08859,295.627705 268.351394,295.608954 268.142047,293.32229 C267.673,288.19498 266.46072,283.178532 265.362252,278.15057 C264.661095,274.942794 263.271198,271.650801 264.319657,268.478224 C265.151181,265.962599 264.874926,264.009181 263.369491,262.092279 C262.544864,261.04221 262.142035,259.864172 262.284474,258.720676 C262.854918,254.139125 261.437775,249.879964 260.261363,245.402367 L260.261363,245.402367 Z M696.470403,328.877668 C693.187562,327.668583 693.230075,325.438324 694.371707,322.693035 C694.80306,321.656065 694.461572,320.31666 694.421824,319.116789 C694.367214,317.478896 694.11732,315.829815 695.428313,314.443019 C696.00898,313.828933 695.983057,313.052275 695.811968,312.261137 C694.694876,307.092413 695.053645,301.816404 694.568028,296.601936 C694.390717,294.699124 695.649865,293.08723 695.52198,291.160065 C695.240633,286.92728 695.702056,282.642826 694.423207,278.484415 C694.297396,278.074366 694.274929,277.605739 694.329885,277.178906 C694.883247,272.89906 694.468139,268.659364 693.851527,264.417363 C693.502781,262.018938 693.447134,259.611628 694.191286,257.244467 C694.32159,256.830797 694.406962,256.366119 694.352697,255.943564 C693.745762,251.233266 695.266556,246.6523 695.270704,241.972278 C695.272777,239.839431 694.900874,238.209436 692.701599,237.140544 C691.153846,236.388568 691.276201,235.315727 692.804253,234.501224 C693.300584,234.236304 693.875721,234.106971 694.406616,233.897668 C694.820341,233.734439 695.307687,233.629458 695.3343,233.054863 C694.8276,232.447358 694.084485,232.696481 693.440567,232.624081 C692.442373,232.511861 691.55651,232.266029 691.634278,231.1017 C691.710318,229.963699 692.530164,229.808038 693.591609,229.811 C695.999302,229.817911 698.407341,229.692526 700.815725,229.623746 C701.160669,229.613873 701.526351,229.548384 701.847791,229.630986 C703.733921,230.114423 704.74594,225.611123 707.086234,228.803648 C709.157625,228.991231 711.194452,228.627913 713.237154,228.420585 C715.044825,228.236622 716.655138,228.649304 718.135493,229.611899 C720.031992,230.845008 721.95545,232.042904 723.811855,233.328668 C725.188519,234.282048 726.530274,234.997495 728.275731,235.466122 C730.592522,236.087778 732.833965,237.499913 733.90405,239.933222 C735.555148,243.686849 738.383479,246.44563 741.93004,248.665687 C743.82723,249.853052 745.010338,251.588356 744.92151,253.913394 C744.829917,256.308199 745.158616,258.709915 744.415155,261.083658 C743.274559,264.722432 741.039684,267.490098 737.624811,269.430756 C736.840911,269.876347 736.106091,270.405857 735.377838,270.933063 C732.927286,272.706212 732.970836,274.475413 735.476344,276.326886 C736.074292,276.769186 736.734801,277.046282 737.336205,276.503609 C738.81414,275.170126 739.890793,275.986275 740.74382,277.121315 C741.499724,278.12735 742.351023,278.950739 743.450142,279.595431 C743.815133,279.809341 744.350521,280.348395 744.273099,280.566583 C743.491964,282.762945 745.464848,283.523477 746.530786,284.791799 C747.724955,286.212162 747.540732,287.052335 745.997126,288.414777 C744.233696,289.971055 744.124821,290.076693 745.822235,291.661273 C746.710862,292.490586 747.102812,293.357086 746.654524,294.249913 C745.572686,296.40481 746.078696,298.508039 746.485854,300.651418 C746.648994,301.512323 746.765127,302.381456 746.915132,303.244665 C747.380703,305.930059 746.393915,307.9418 743.899467,309.306217 C741.083925,310.84604 738.559407,312.711665 736.652885,315.268054 C736.044913,316.082887 735.211933,316.802941 734.243809,317.086618 C728.626896,318.732409 724.498286,322.829938 719.337957,325.194466 C714.807028,327.271039 710.586134,329.976507 705.698165,331.33862 C704.259286,331.739455 702.86534,332.20907 701.931089,333.477721 C701.100528,334.605191 699.700016,335.015569 698.482344,335.583912 C696.27823,336.612325 693.313373,335.267325 692.731669,333.026206 C692.489379,332.0929 692.990204,331.330393 693.867771,330.835767 C694.742573,330.342458 695.827522,330.126902 696.470403,328.877668 L696.470403,328.877668 Z M737.946369,298.453506 C738.198964,295.252332 737.871282,292.337289 736.324916,289.962789 C734.067131,286.496846 731.125955,283.436473 727.878551,280.695569 C727.29862,280.206168 726.547063,279.764671 725.799312,279.601214 C722.453292,278.869378 719.096545,278.098701 715.607273,278.685853 C713.585474,279.026038 711.662291,279.38791 709.564713,278.487115 C707.880284,277.763695 706.824229,278.703979 706.672326,280.536967 C706.610042,281.286604 706.656755,282.044011 706.649835,282.797533 C706.554679,292.891749 706.644644,302.989527 705.641184,313.05882 C705.30762,316.406944 705.485475,316.520878 709.078554,316.367131 C709.648104,316.342856 710.276824,316.371016 710.771633,316.158036 C713.828034,314.840667 717.27786,314.919644 720.371286,313.736925 C721.54914,313.286366 722.820766,313.236196 724.098274,313.173079 C727.248793,313.01739 730.075782,311.729799 732.983048,310.74679 C733.769207,310.48105 734.357442,309.900372 734.644985,309.179218 C736.082009,305.575389 738.382355,302.195545 737.946369,298.453506 L737.946369,298.453506 Z M707.386999,269.031803 C707.386999,269.892615 707.375723,270.330098 707.389049,270.767252 C707.459437,273.021821 707.68905,273.190362 710.034731,272.676509 C710.58758,272.55537 711.144188,272.426001 711.675511,272.237709 C715.281333,270.96114 718.95105,269.876156 722.541155,268.5298 C726.353014,267.099833 729.588789,265.208352 732.136064,262.118647 C733.40714,260.576758 733.840399,258.813658 734.20122,256.988013 C734.326277,256.356971 734.48482,255.500439 733.766594,255.20615 C730.70508,253.952624 729.360542,250.884646 726.709051,249.182774 C724.439225,247.725813 722.487168,245.885356 721.004589,243.620911 C719.659026,241.565827 717.542617,240.459774 715.189078,239.989044 C713.984973,239.748412 712.755584,239.51963 711.532686,239.316525 C709.202382,238.929406 708.658416,239.349443 708.612288,241.648122 C708.425044,250.925794 708.744521,260.222558 707.386999,269.031803 L707.386999,269.031803 Z M1055.5089,330.49121 C1054.49953,330.778667 1053.91945,330.026147 1053.13335,329.898863 C1050.73606,329.510105 1050.23086,329.810718 1049.63801,332.139321 C1049.16007,334.016017 1048.64727,334.269269 1046.80798,333.421368 C1045.62331,332.875396 1044.51456,331.708793 1043.30781,333.436826 C1043.06211,333.788419 1042.35262,333.681527 1042.04964,333.360193 C1040.84944,332.086697 1039.16992,331.161834 1038.77411,329.284151 C1038.59432,328.430659 1038.40729,327.5525 1038.03494,326.766432 C1035.15005,320.676544 1034.34083,314.171257 1034.01163,307.622226 C1033.85185,304.442434 1033.46881,301.291913 1033.04746,298.159154 C1032.6344,295.089871 1030.71091,292.497163 1029.08039,289.859724 C1028.83711,289.466032 1028.19491,288.999654 1028.02375,289.188442 C1026.2728,291.119735 1024.66057,288.202733 1023.06077,289.100297 C1022.18702,289.590685 1022.27916,290.626387 1022.19806,291.490075 C1021.85954,295.084609 1021.88852,298.749198 1021.13003,302.260191 C1019.83597,308.247463 1019.1534,314.300843 1018.25308,320.333174 C1017.73683,323.791215 1017.85623,327.308457 1016.97248,330.736239 C1016.20915,333.696327 1015.07349,334.565278 1011.84938,333.523327 C1010.53979,333.100034 1010.29305,333.309871 1009.99249,334.316959 C1009.85928,334.762288 1009.51282,335.086582 1008.99451,335.043496 C1008.28433,334.984623 1008.08314,334.395895 1007.97996,333.878537 C1006.88467,328.394481 1005.88773,322.872272 1006.60239,317.28231 C1007.27082,312.054136 1007.50686,306.814451 1007.52825,301.568517 C1007.58381,288.06328 1008.42443,274.671183 1013.0406,261.74678 C1013.59515,260.193392 1014.19594,258.654804 1014.77533,257.109638 C1015.05071,256.375207 1015.44859,255.787465 1016.19604,255.339176 C1017.61467,254.488315 1018.91426,253.65061 1019.13821,251.693005 C1019.2828,250.430363 1020.84568,249.743952 1022.10317,249.167064 C1027.69109,246.602312 1033.41015,246.690128 1039.19304,248.445789 C1040.06265,248.709894 1040.88774,249.293361 1041.82499,249.010508 C1045.43731,247.91988 1048.23835,249.5772 1050.97624,251.413442 C1051.63914,251.858441 1052.28859,252.276801 1053.04777,252.55768 C1056.42095,253.805522 1057.67981,256.301534 1058.34168,259.597099 C1059.17471,263.746813 1059.47114,268.054399 1061.64516,271.930799 C1062.66522,273.749938 1063.0807,275.848969 1062.98719,277.973984 C1062.89194,280.143399 1062.45748,282.127645 1060.05778,283.110723 C1059.74893,283.23702 1059.44491,283.447515 1059.22682,283.690572 C1055.85571,287.446595 1050.99487,288.483283 1046.4346,290.056406 C1044.33374,290.780969 1044.03248,291.073689 1044.47591,293.153973 C1045.82139,299.472775 1047.13685,305.800457 1048.68075,312.076172 C1049.22356,314.281767 1050.2809,316.397901 1051.30476,318.464372 C1052.91284,321.709615 1053.40942,325.372559 1055.51856,328.427699 C1055.87814,328.948346 1056.04861,329.647585 1055.5089,330.49121 L1055.5089,330.49121 Z M1044.07983,278.462558 C1043.11754,277.609681 1042.3782,277.641269 1041.72086,277.449746 C1037.44812,276.20285 1036.63621,273.464999 1039.44213,270.219412 C1041.70481,267.602261 1044.79509,266.437494 1047.9754,265.330583 C1049.9108,264.656927 1050.57826,263.365475 1049.45547,261.802367 C1047.40214,258.944814 1044.07006,257.750121 1040.84684,256.507548 C1040.5883,256.407796 1040.15391,256.569727 1039.86466,256.720684 C1038.28969,257.541973 1036.76042,257.098078 1035.1366,256.802148 C1032.66318,256.350938 1030.55822,254.663805 1027.70903,255.312191 C1025.27643,255.865812 1024.68224,255.920011 1024.79424,258.446721 C1024.89298,260.688806 1024.39614,262.843442 1024.27227,265.040306 C1024.01652,269.564044 1022.78557,274.014631 1023.18926,278.587247 C1023.25346,279.313772 1022.66276,280.248778 1023.66622,280.647119 C1024.64491,281.035153 1025.67279,281.102652 1026.42365,280.012366 C1027.03912,279.118259 1027.9714,278.947018 1028.75715,279.791915 C1029.93646,281.060091 1031.49992,280.902483 1032.96255,280.887853 C1035.04937,280.86757 1037.13899,280.670395 1039.21779,280.462246 C1040.95675,280.288013 1042.42147,279.47138 1044.07983,278.462558 L1044.07983,278.462558 Z M1052.64463,273.847857 C1053.23928,271.923998 1050.93789,271.579436 1050.045,270.332221 C1048.43377,268.082519 1048.42023,268.116143 1045.93184,269.189691 C1043.86649,270.080906 1042.39687,271.551705 1041.17574,273.287684 C1040.33371,274.484637 1040.67879,275.478804 1041.95921,276.149555 C1043.80318,277.115297 1045.91501,277.445646 1047.90169,277.334375 C1049.4928,277.245288 1050.71357,275.691295 1052.38737,275.278445 C1052.83748,275.167173 1052.88212,274.551538 1052.64463,273.847857 L1052.64463,273.847857 Z M1053.71495,256.053254 C1053.80227,257.390652 1054.27068,258.145932 1055.57196,258.715976 C1055.55753,257.329158 1055.2397,256.47843 1053.71495,256.053254 L1053.71495,256.053254 Z M598.865182,326.910606 C599.444955,327.661123 599.208264,328.322089 599.121973,329.069981 C598.980236,330.299411 599.452233,331.241492 600.822827,331.511455 C601.679145,331.680059 602.489373,331.952646 602.598535,332.815346 C602.968994,335.744591 605.185857,337.105558 607.426978,338.743048 C609.044313,339.924586 609.702407,339.592955 610.784327,338.467837 C611.497175,337.726833 612.0416,337.021912 612.26651,335.975847 C612.547559,334.667691 615.661979,332.670688 616.960838,333.017736 C619.239386,333.626875 621.049402,332.702506 622.839665,331.737463 C624.149267,331.031558 625.478276,330.05405 626.921645,330.172138 C629.000928,330.342382 630.736437,329.569888 632.570711,329.040459 C636.978445,327.76773 641.46346,326.656716 645.719753,325.020538 C648.652582,323.893124 651.544172,322.989093 654.684583,322.806384 C656.080475,322.725362 657.437207,322.473769 658.730175,321.990591 C659.365742,321.752774 660.055371,321.377188 660.027994,320.615519 C659.993339,319.661956 659.178954,319.444805 658.347587,319.287026 C656.739608,318.982293 655.145144,319.110878 653.523996,319.236183 C651.307826,319.407739 650.685428,318.928497 649.810049,316.700238 C649.343597,315.513451 648.417623,315.338287 647.310404,315.55511 C646.38443,315.736506 645.503161,315.965138 644.771946,315.128352 C643.68552,313.885473 642.330521,314.327648 640.948144,314.53135 C633.083601,315.688615 625.164304,316.378119 617.224907,316.832759 C614.717292,316.976433 614.494115,316.712703 614.317029,314.294846 C614.061971,310.811899 614.195391,307.285325 613.42571,303.862078 C612.95302,301.761091 613.453434,299.734566 613.3966,297.675238 C613.358133,296.289013 614.312178,295.697916 615.638761,295.76024 C618.671049,295.90293 621.356443,294.928374 624.212685,294.084699 C628.808941,292.727341 633.318214,291.015061 638.072495,290.133008 C638.63806,290.02804 639.235161,289.992942 639.761913,289.793832 C641.407319,289.171901 641.584058,287.919181 640.247425,286.782254 C639.144019,285.842796 637.801495,285.672552 636.395553,285.566601 C634.994463,285.461306 633.490448,285.812618 631.874844,284.920396 C633.331382,283.772644 634.872824,283.80151 636.245845,283.444621 C637.163155,283.206476 638.052049,282.933233 638.617614,282.206007 C639.245557,281.399398 639.337392,280.327091 638.167102,280.089603 C635.74543,279.598553 633.343512,278.041428 630.822381,279.073388 C626.200134,280.965424 621.295797,281.521751 616.417452,282.278172 C612.676128,282.858116 612.623453,282.817769 612.836233,279.374841 C613.227138,273.049576 613.914342,266.765313 615.279045,260.547639 C615.580541,259.173879 616.051152,258.387936 617.54685,258.142575 C626.297167,256.709115 634.6143,253.311454 643.524722,252.726261 C647.858989,252.441537 649.102053,248.653857 652.141619,246.992421 C652.262564,246.926489 652.271228,246.570256 652.232414,246.366226 C652.019634,245.247667 652.542574,244.769082 653.692071,244.664443 C654.716465,244.571284 655.068557,243.887685 654.820776,243.024 C654.541805,242.052397 653.707319,242.043212 652.863823,242.269876 C652.198453,242.448648 651.563925,242.739276 650.892663,242.887543 C648.360096,243.446822 645.812974,243.703664 643.254416,243.272642 C643.251297,242.455537 643.722601,242.296774 644.152319,242.221328 C646.142194,241.871984 647.657991,240.631073 649.382757,239.786086 C649.899459,239.532853 650.493787,239.233696 650.305612,238.587163 C650.148973,238.047893 649.564347,237.707733 649.014377,237.631304 C648.230487,237.522072 647.396695,237.489598 646.622508,237.624087 C645.711782,237.782195 644.854771,238.017715 643.905924,237.766777 C640.968937,236.990347 638.153934,237.57718 635.488639,238.738709 C630.486576,240.918093 625.243317,241.906098 619.765445,242.186886 C616.669392,242.345649 613.479078,242.734684 610.646748,243.887029 C608.855792,244.615239 608.143291,244.664115 607.143849,243.031545 C606.3759,241.777185 605.11932,242.061253 604.67366,243.503898 C604.322261,244.641481 604.270972,245.86271 604.092847,247.047529 C603.533866,250.767637 604.422413,254.70916 602.166044,258.17669 C601.943214,258.518818 601.885341,259.034798 601.940095,259.447778 C602.23674,261.684567 602.024306,263.824588 601.626124,266.083353 C601.103184,269.049664 601.613995,272.174411 601.625777,275.231584 C601.662165,284.83183 602.493878,294.442244 601.3475,304.027729 C600.829758,308.355007 599.879179,312.654075 600.944812,317.023996 C601.170068,317.948037 600.841887,318.595554 599.928735,319.209285 C597.128287,321.09148 597.16814,321.194151 599.736748,323.58675 C597.560085,325.107464 597.503251,325.147155 598.865182,326.910606 L598.865182,326.910606 Z M542.123079,311.541779 C542.001621,309.418767 542.652957,306.312281 543.820063,303.311156 C544.514753,301.524638 544.670963,299.747999 544.600772,297.843609 C544.3145,290.056158 545.005749,282.310851 545.769254,274.55863 C546.510738,267.029311 547.467958,259.550039 549.261283,252.179091 C549.414741,251.549233 549.7337,250.649719 549.146362,250.313883 C546.821095,248.986341 548.194991,247.58867 549.178705,246.574905 C553.064013,242.569893 554.345352,237.055263 558.004602,232.944231 C558.509018,232.37759 558.326313,231.768804 558.30154,231.102729 C558.240982,229.476228 558.813181,229.015276 560.299246,229.797906 C562.492387,230.95292 564.384462,230.801793 566.77992,230.167326 C568.807905,229.630317 571.26048,230.464969 573.398225,231.216321 C574.708467,231.676614 575.965721,232.160284 577.386755,231.866921 C578.486079,231.639738 579.511426,231.919931 580.254286,232.63243 C582.571295,234.854547 585.11505,236.923562 586.268049,240.023463 C586.611781,240.947342 586.757669,242.114209 587.434123,242.719373 C590.90069,245.820261 591.62497,250.165061 593.298901,254.07064 C594.148769,256.05372 593.988085,258.194183 593.663277,260.245418 C592.948975,264.758136 592.945535,269.214223 594.520715,273.557706 C595.499956,276.257895 594.987971,278.770741 593.733125,281.178227 C592.429764,283.67889 591.659722,286.29084 591.561316,289.056222 C591.287088,296.769921 589.121816,304.184989 587.760651,311.726818 C587.600656,312.614809 587.345351,313.530786 586.692983,314.111585 C584.185012,316.345226 583.538149,319.408251 582.623594,322.316198 C581.289611,326.557613 578.957119,330.065785 575.171937,332.650737 C573.125716,334.048409 571.281468,335.715408 569.007125,336.812144 C567.853438,337.368579 566.537346,338.038605 565.409121,337.528595 C562.601459,336.258343 559.616943,336.520757 556.727047,336.399921 C553.106678,336.248137 551.043254,334.134343 549.487685,331.604377 C547.994051,329.174173 546.57164,326.718946 544.958611,324.343069 C542.573819,320.830946 542.204281,316.743949 542.123079,311.541779 L542.123079,311.541779 Z M557.135708,278.968034 C556.181522,282.687466 555.615696,285.830792 554.535044,288.802442 C553.711805,291.066588 553.807603,293.963955 550.833053,295.167009 C550.577707,295.270345 550.411268,295.975538 550.481221,296.354216 C551.197635,300.223205 550.20003,304.324616 552.186969,308.017637 C552.460234,308.525732 552.679052,309.010057 552.217294,309.528718 C551.124581,310.755213 551.823076,312.061273 552.119084,313.301634 C552.857208,316.391806 553.953711,319.388877 554.612578,322.509423 C555.310729,325.815842 557.687406,326.919522 560.914544,325.672888 C565.337085,323.96504 568.609366,321.008577 571.002238,317.100961 C574.403742,311.545584 576.38689,305.474847 578.148463,299.310349 C579.028905,296.230411 580.008936,293.173254 579.919341,289.94607 C579.778401,284.871716 580.377998,279.842263 580.805296,274.802574 C580.97277,272.827307 580.872492,270.839164 581.021702,268.885356 C581.401102,263.91929 580.377653,259.040384 580.323896,254.099409 C580.283578,250.396484 579.462407,246.689928 577.666374,243.27192 C577.091588,242.177814 576.243194,241.548555 575.260062,242.198613 C573.418199,243.416194 572.748304,242.620211 571.538774,241.220059 C568.965678,238.240485 564.803996,238.624116 562.611333,241.817624 C561.159896,243.931223 559.944852,246.174899 559.217755,248.638123 C558.866957,249.826981 558.578185,250.980184 559.32458,252.198425 C559.632648,252.169042 559.983102,252.203377 560.274285,252.093108 C560.861476,251.870589 561.38664,251.068333 562.057223,251.713109 C562.560678,252.197434 562.470738,252.974599 562.296717,253.60683 C562.12373,254.234109 561.908358,254.940953 561.466586,255.393914 C559.183985,257.735314 558.897281,260.710925 558.517192,263.643288 C558.185002,266.210178 557.205316,268.734809 558.585766,271.390839 C559.138498,272.454241 558.6633,273.878824 556.788011,273.759311 C556.101921,273.715732 555.69771,273.958389 555.496811,274.557936 C554.968546,276.133726 554.519193,277.752104 554.920302,279.393593 C555.300391,280.946933 555.964082,279.854148 557.135708,278.968034 L557.135708,278.968034 Z M551.868517,289.781065 C552.969268,288.552545 553.660524,287.345081 553.957689,286.00562 C554.083919,285.436773 554.590715,284.728701 553.45202,284.501791 C552.372308,284.286509 551.776099,284.850641 551.620942,285.642312 C551.350075,287.025144 551.206189,288.425576 551.868517,289.781065 L551.868517,289.781065 Z M566.249768,335.047337 C569.546419,333.900526 572.377736,332.180952 574.606314,329.721893 C571.578451,331.19251 568.669933,332.808004 566.249768,335.047337 L566.249768,335.047337 Z M545.42174,317.295858 C545.941209,316.179498 545.99308,315.099387 545.35652,313.745562 C544.336269,315.216123 545.305793,316.241552 545.42174,317.295858 L545.42174,317.295858 Z M590.852424,254.336964 C590.53177,254.20688 590.332638,254.294308 590.406164,254.580562 C590.45467,254.767755 590.593042,254.998661 590.802896,255.099132 C591.126103,255.253893 591.393654,255.122752 591.300726,254.870341 C591.230264,254.678565 591.008666,254.513228 590.852424,254.336964 L590.852424,254.336964 Z M891.71963,262.612309 C893.278222,262.007191 894.617444,262.320579 895.83445,263.397584 C896.266668,263.780542 896.918255,263.860611 897.463419,263.69719 C900.31626,262.841033 903.129965,263.713598 905.953282,263.849126 C908.275721,263.960371 910.23941,264.9619 912.282058,266.07008 C915.808114,267.982568 919.171103,270.326253 923.093673,271.422291 C925.191593,272.008048 925.970202,273.205486 925.917677,274.924035 C925.862749,276.72331 926.256173,278.367367 926.757051,280.057366 C927.287453,281.846468 927.61462,283.718265 927.39731,285.571357 C926.94621,289.411429 927.290886,293.189808 928.077391,296.946856 C928.375034,298.368096 927.896814,299.196688 926.458378,299.726003 C925.231416,300.176888 923.632658,303.068591 923.800189,304.19646 C923.922062,305.015536 924.64231,305.134328 925.29424,305.316782 C928.160814,306.119778 930.650441,307.662435 933.122903,309.165386 C935.733716,310.752344 936.514386,313.404166 935.095174,316.002171 C934.4429,317.195999 934.238979,318.207702 934.679092,319.396936 C935.805467,322.439263 935.039559,325.230879 933.358752,327.841681 C932.094027,329.806674 931.052448,331.855347 930.206895,334.009029 C929.230543,336.495789 927.371219,338.186117 924.869919,339.26345 C923.309267,339.935512 921.795305,340.790684 920.161186,341.208426 C915.266384,342.459025 910.53465,344.177246 905.329502,344.448302 C898.962963,344.780067 892.586812,345.473459 886.316054,346.702728 C885.010476,346.958689 883.828143,347.752496 882.555865,348.216179 C881.903248,348.453764 881.158282,348.4705 880.795068,347.708523 C880.435974,346.954095 880.910074,346.416248 881.531795,346.091047 C883.071505,345.28641 884.15428,344.308836 884.859079,342.602757 C885.73347,340.487797 886.067503,338.287188 885.746516,336.259846 C884.644859,329.304269 884.740983,322.364771 885.045836,315.375723 C885.484233,305.337784 885.453335,295.296236 884.55869,285.267486 C884.210238,281.357845 884.143981,277.42589 883.930104,273.505092 C883.82677,271.612621 883.521574,271.373396 881.400653,271.400305 C880.830428,271.407524 880.250248,271.514831 879.692038,271.447231 C878.410148,271.292342 877.778472,270.258981 878.589352,269.386416 C879.962904,267.909062 880.768977,265.829214 883.436778,265.638228 C885.455395,265.493512 887.440712,264.855578 888.593864,262.870567 C889.389295,261.501832 890.694873,262.931932 891.71963,262.612309 L891.71963,262.612309 Z M893.42243,276.612947 C892.778377,277.81935 893.204538,279.119838 893.459203,280.378955 C894.987539,287.936994 895.500994,295.556088 895.059368,303.243242 C894.989601,304.461323 895.035311,305.686076 895.034967,306.907493 C895.034623,308.329088 895.908596,308.68407 897.077445,308.24101 C900.691219,306.872129 904.501233,305.924621 907.71256,303.663949 C908.544261,303.078429 909.545051,302.642376 909.46085,301.413285 C909.291073,298.934753 910.977157,297.836111 912.98458,297.077771 C915.13841,296.264383 917.081222,295.122703 918.970076,293.860917 C919.976709,293.188654 920.275708,292.306872 919.766034,291.269284 C918.093697,287.866932 916.831024,284.159309 914.565155,281.173994 C910.898111,276.342373 905.375206,274.079032 899.370465,273.041111 C898.151783,272.83059 896.675686,272.779879 895.838142,273.788774 C895.109889,274.666219 896.006888,275.653429 896.44061,276.533543 C896.662282,276.983942 896.664001,277.430672 896.168417,277.639524 C895.907222,277.749622 895.517147,277.632851 895.203369,277.552447 C894.571689,277.39097 894.497455,276.342373 893.42243,276.612947 L893.42243,276.612947 Z M894.940576,333.888543 C897.53052,334.567491 899.099305,333.739628 900.705832,333.886544 C906.074087,334.377265 911.040448,332.762517 916.005412,331.217062 C919.11013,330.250945 921.573216,328.493611 922.776801,325.444345 C923.1088,324.602157 923.632311,323.868574 924.314482,323.252591 C926.124053,321.61852 927.437373,319.899831 925.68197,317.486869 C925.504787,317.243674 925.39016,316.776273 925.515271,316.544072 C926.805526,314.148101 924.826111,313.783641 923.252084,313.164993 C921.104572,312.320807 918.815874,311.707822 916.834012,310.596454 C913.412671,308.678544 910.21674,309.03101 906.978174,310.798672 C906.1653,311.24242 905.259466,311.982999 904.418284,311.552244 C902.20612,310.419221 899.693059,311.612209 897.454335,310.471858 C896.382501,309.925835 895.05066,310.313281 895.173325,311.966008 C895.418305,315.275793 895.203379,318.779468 896.579954,321.783426 C897.991825,324.864008 897.45084,327.791343 897.385489,330.829283 C897.357531,332.13654 896.961928,333.177281 894.940576,333.888543 L894.940576,333.888543 Z M920.010214,308.11777 C921.127203,309.083834 922.234554,309.156972 923.286667,309.286799 C923.895766,309.361992 924.552688,309.253608 924.644257,308.640602 C924.732489,308.046688 924.116347,307.827275 923.542096,307.70068 C922.392112,307.446901 921.254732,307.404898 920.010214,308.11777 L920.010214,308.11777 Z M799.212619,275.294359 C799.967108,273.67777 798.75329,272.241021 800.242913,270.970075 C801.557306,272.122216 801.783687,273.645785 802.028386,275.193179 C802.831607,280.269782 802.784257,285.381635 802.845086,290.492508 C802.865823,292.227248 803.016514,293.964926 803.205914,295.691506 C803.29301,296.482991 803.423654,297.267949 802.706493,297.796694 C801.144981,298.948509 801.407652,300.378078 801.720438,301.94016 C802.082648,303.749642 802.212947,305.599923 802.468015,307.429315 C802.673313,308.90164 802.640479,310.455236 804.852793,310.773136 C805.70371,310.895531 805.877902,311.843681 805.779401,312.668458 C805.404748,315.808288 805.926289,319.010458 805.667765,322.053025 C805.452444,324.58382 805.422375,327.652825 803.261558,329.913698 C801.474703,331.783562 801.543481,331.83611 803.694966,333.517976 C803.952107,333.719029 804.155677,333.981443 804.527565,334.362662 C803.306489,335.363687 802.192555,335.228563 801.280464,334.208281 C800.548441,333.389053 799.967453,332.419361 799.475982,331.446079 C798.824488,330.154897 798.393154,328.782446 796.415516,328.852292 C795.38384,328.888521 795.151583,328.071251 795.062413,327.26769 C794.795249,324.849498 793.809195,322.66761 792.587773,320.565686 C791.322804,318.388367 791.533287,315.912731 791.010709,313.586581 C790.405183,310.889982 789.738136,310.132114 786.860849,310.723852 C783.199695,311.476823 779.58209,311.491837 775.884301,311.327339 C773.084432,311.202986 772.563928,311.842375 772.211742,314.507967 C771.896536,316.891562 771.855407,319.274504 772.132595,321.665606 C772.313008,323.220833 771.789739,324.063235 769.972815,323.358895 C768.717868,322.871927 768.302087,323.439185 768.187341,324.518216 C768.142411,324.944476 768.019024,325.376611 767.850016,325.775128 C767.323982,327.017352 764.930218,328.891458 764.067896,328.774286 C763.002349,328.629697 760.813191,325.917758 760.707086,324.618743 C760.52529,322.395078 761.484731,320.349292 761.8186,318.206244 C761.916065,317.580562 762.325279,316.970221 761.849015,316.139569 C760.464806,316.313859 760.452018,317.490806 760.020339,318.380207 C759.51677,319.417787 759.197072,321.187777 757.737518,320.799378 C755.907114,320.31241 756.709299,318.562983 757.178651,317.455883 C758.373805,314.635911 759.196726,311.672981 760.759966,308.991396 C761.090724,308.424138 761.482657,307.832727 761.588417,307.212921 C762.539564,301.634663 764.785403,296.341666 765.511551,290.699437 C765.882401,287.814514 766.679401,284.933181 767.670294,282.173916 C769.571204,276.882225 770.658179,271.476952 771.095734,265.921867 C771.219121,264.355869 771.114398,262.563358 773.449061,262.088467 C773.989611,261.978475 774.297904,261.293392 774.230163,260.737557 C773.777055,257.02492 775.432575,253.837763 777.050768,250.662031 C777.905141,248.985714 778.814122,247.375327 778.621957,245.423867 C778.570114,244.898712 778.673455,244.279558 779.300409,244.040644 C779.933931,243.798792 780.435426,244.149004 780.727129,244.640867 C781.828275,246.497023 782.705804,245.398409 783.522159,244.441772 C784.095542,243.77007 784.50925,242.978585 785.059477,242.286974 C785.341503,241.932845 785.825717,241.771284 786.300944,241.891394 C786.955549,242.056872 787.264533,242.582679 787.114879,243.139493 C786.364538,245.931723 787.613609,248.038542 789.128116,250.373506 C790.259331,252.117384 790.2894,254.530354 790.672001,256.667201 C791.038359,258.715924 791.286168,260.602433 793.489496,261.939962 C794.567831,262.594365 795.209302,264.286349 795.504116,265.61637 C796.229918,268.890019 797.320695,271.99819 799.212619,275.294359 L799.212619,275.294359 Z M788.150963,299.135971 C787.623687,292.293072 786.208841,286.48071 785.23928,280.598645 C784.881652,278.426513 783.558796,276.526857 782.430252,274.62053 C782.202943,274.236997 781.987967,273.784428 781.488021,273.805439 C780.846758,273.832786 780.547123,274.358394 780.42647,274.898675 C780.066176,276.513517 779.796205,278.148702 779.431911,279.762543 C777.994401,286.130194 777.180823,292.623911 775.443012,298.9352 C774.696093,301.64828 775.390018,302.355649 778.200045,302.182559 C780.626115,302.033481 783.06085,301.867394 785.462256,301.511209 C787.965317,301.140015 788.229621,300.688447 788.150963,299.135971 L788.150963,299.135971 Z M799.098283,278.242604 C797.677378,281.253455 798.597815,284.18982 799.76018,287.118343 C800.022979,284.144201 800.969823,281.148318 799.098283,278.242604 L799.098283,278.242604 Z M784.448468,304.245071 C785.722914,304.389163 786.697853,304.564108 788.162488,304.13971 C786.650562,303.822314 785.701324,304.051417 784.448468,304.245071 L784.448468,304.245071 Z M955.863487,260.397352 C955.901874,258.228251 957.193683,257.446575 959.257355,256.643277 C963.845693,254.85715 968.536854,253.712811 973.412413,253.111975 C978.05559,252.539969 982.721731,252.453808 987.394041,252.523589 C987.955116,252.532107 988.534699,252.612699 989.069383,252.770934 C989.666103,252.947515 989.963264,253.419928 989.937215,254.028954 C989.909795,254.662878 989.509126,254.995729 988.89184,255.129066 C988.015439,255.317769 987.005025,255.062561 986.277376,255.70959 C985.791362,256.141707 985.183331,256.621654 985.227545,257.31979 C985.279985,258.139469 986.167697,258.156832 986.744538,258.415316 C987.784086,258.881176 988.741718,258.439559 989.697293,258.051669 C990.400265,257.765994 991.180354,257.190712 991.785986,258.152573 C992.250406,258.889694 991.683505,259.343433 991.154305,259.791603 C990.71045,260.167043 990.328288,260.633231 990.844463,261.172804 C991.329106,261.679615 991.968326,261.915822 992.70523,261.692065 C994.426842,261.169528 996.082304,260.496946 997.743936,259.488564 C998.353337,260.78688 997.853614,261.466669 996.669428,261.699927 C995.218927,261.986258 993.743064,262.170047 992.270286,262.333851 C990.99013,262.476034 989.72437,262.469809 989.69695,264.234968 C989.680841,265.261696 988.902123,265.640085 987.842353,265.756386 C984.451226,266.127568 981.080664,266.699901 977.683025,266.978369 C974.814243,267.213593 972.176129,268.307153 969.36013,268.706836 C968.192052,268.872279 967.687188,269.696544 967.787612,270.869058 C968.254775,276.33522 967.849992,281.766656 967.156617,287.198419 C966.996898,288.45087 967.366378,289.765566 967.519585,291.328918 C972.436616,290.363453 977.305662,289.454665 982.150031,288.440386 C985.576803,287.722922 986.844277,288.567171 986.555342,291.968084 C986.460059,293.08687 986.741111,293.317835 987.648016,293.432826 C988.843513,293.584181 989.756588,294.285265 990.642929,294.947036 C992.062924,296.00718 991.812034,297.284201 990.146975,297.86538 C989.828565,297.97644 989.484448,298.056704 989.147529,298.075705 C981.987227,298.477682 975.004467,300.240548 967.836282,300.607143 C965.074094,300.74867 965.008972,301.012396 964.462978,303.71419 C963.662667,307.672367 962.713604,311.600403 961.548611,315.483557 C960.60606,318.62402 959.811575,321.809366 959.084612,325.002574 C958.635272,326.977731 959.061305,327.38495 961.189756,327.066186 C963.599259,326.70516 966.293926,326.905002 967.627893,324.163567 C968.207819,322.972379 969.543499,322.933394 970.631717,323.437912 C972.913033,324.495763 975.112089,324.067577 977.255621,323.248881 C980.766024,321.907649 984.565361,321.584953 988.084674,320.248962 C990.626477,319.284153 992.978398,320.691563 995.290219,321.446702 C996.342105,321.790037 996.285209,322.909478 995.232294,323.477553 C993.684455,324.313284 992.765896,325.547716 991.825744,327.271924 C993.666975,327.366276 994.887149,326.955781 995.972283,326.09122 C996.344505,325.795061 996.760598,325.599479 997.170865,325.980816 C997.661677,326.436848 997.651051,327.121224 997.207881,327.440643 C994.701381,329.245771 992.567446,331.725446 989.077609,331.863042 C987.299101,331.932823 985.601138,332.006535 985.170307,334.180223 C984.956776,335.257403 983.882268,335.381567 983.021634,335.508352 C976.707914,336.438434 970.547744,338.037168 964.32211,339.349899 C962.546687,339.724356 960.937838,339.639178 959.645344,338.177385 C958.944771,337.385226 957.934699,337.352792 957.186828,337.982457 C956.039315,338.947922 954.497302,339.062258 953.28501,339.946476 C952.097053,340.812675 951.140793,340.315036 950.877221,338.85095 C950.387438,336.129826 950.786051,333.4146 951.191176,330.70953 C951.465716,328.874589 952.23518,326.932521 951.86947,325.216176 C950.640384,319.450906 953.895783,313.844527 952.272882,308.116932 C952.096368,307.493819 952.151207,306.644001 952.716738,306.277734 C954.537061,305.097357 954.259094,303.270935 954.554541,301.585385 C955.505317,296.16345 955.011764,290.689097 955.231464,285.241936 C955.336687,282.630562 955.483382,280.059484 955.897419,277.458265 C956.588394,273.116786 955.432655,268.765806 955.406949,264.407946 C955.399066,263.072283 954.654965,261.613766 955.871027,260.391783 C958.071112,260.023878 957.395218,262.848526 959.089753,263.037556 C959.621351,262.91503 959.750909,262.488483 959.819801,262.071764 C959.953815,261.256017 960.566302,260.331831 959.902746,259.633695 C959.11683,258.807137 958.287385,259.845003 957.453484,259.923302 C956.912632,259.974409 956.392686,260.232237 955.863487,260.397352 L955.863487,260.397352 Z M955.589851,335.049771 C955.083766,335.265208 954.530357,335.520698 954.366489,336.16934 C954.333644,336.299613 954.818539,336.721542 955.107781,336.790761 C955.835653,336.964977 956.124542,336.395276 956.213186,335.72719 C956.26828,335.309539 956.062738,335.017495 955.589851,335.049771 L955.589851,335.049771 Z M832.980909,263.097014 C834.31164,262.479999 835.461208,262.010375 836.539493,261.42408 C837.198773,261.06557 837.822934,260.893015 838.49508,261.220151 C841.175667,262.525425 844.382704,262.422481 846.945413,264.04672 C848.960113,265.323889 851.224825,265.515726 853.589332,265.411147 C854.794884,265.357551 856.328684,264.970282 856.928504,266.438634 C857.513372,267.870384 855.890207,268.384127 854.931886,269.337102 C858.405278,272.108441 860.255853,275.774909 862.538299,279.150518 C865.753334,283.905587 864.486236,289.149561 859.402544,292.073847 C858.196645,292.767662 857.009523,293.434025 856.207329,294.518377 C855.045591,296.089674 852.981167,296.120721 851.462319,297.097226 C850.432715,297.759667 850.153842,298.047259 850.698374,299.331618 C851.98564,302.366691 853.495448,305.284768 854.981262,308.230296 C858.040518,314.294561 861.047963,320.394448 862.369306,327.069845 C862.679126,328.637547 863.073442,330.197079 860.554894,330.411466 C860.006537,330.457872 860.0121,330.877495 859.905698,331.340583 C859.466177,333.254049 858.825674,333.620402 857.361418,332.519709 C854.778888,330.578792 851.889669,328.978736 850.226516,326.010004 C849.233075,324.237066 847.488207,322.805317 845.946757,321.345461 C844.901853,320.355884 844.39557,319.231335 844.142776,317.912988 C843.240786,313.203019 841.868676,308.612335 840.093209,304.128191 C839.97255,303.822952 839.857106,303.491894 839.641866,303.248749 C839.01701,302.541861 840.386686,300.740491 838.245068,300.90651 C835.485201,301.120569 834.547395,301.950664 834.438211,304.128845 C834.317551,306.53187 834.44447,308.939144 834.97405,311.279422 C835.986963,315.754743 835.38158,320.211435 834.580081,324.571718 C833.950357,328.00027 833.517791,331.421958 833.174242,334.871099 C833.111305,335.508376 833.001077,336.198923 832.680825,336.744694 C831.922096,338.037877 830.415418,338.029053 829.700154,336.73489 C829.277325,335.969177 828.99115,335.120454 828.763044,334.280229 C828.379507,332.868088 827.935119,331.624253 826.141223,331.20986 C825.381103,331.034363 824.950276,330.377151 824.963489,329.437248 C825.057374,322.706293 824.773285,315.982201 824.39253,309.262031 C824.230144,306.398205 825.189856,303.668371 825.541055,300.864351 C826.192338,295.669398 825.707614,290.427711 826.336295,285.247137 C826.792853,281.482626 826.288657,277.660596 827.40693,273.924845 C827.973716,272.030661 826.892302,270.07471 826.820323,268.115491 C826.765731,266.631452 826.148177,265.044795 828.654208,264.685632 C829.511689,264.563078 829.457445,263.489511 829.610442,262.7421 C829.796821,261.832917 829.659123,260.513263 831.038535,260.491367 C832.431856,260.469471 832.129338,261.933901 832.620322,262.716282 C832.677696,262.808442 832.772624,262.879686 832.980909,263.097014 L832.980909,263.097014 Z M835.524309,286.323433 C835.524309,289.034982 835.525354,291.746532 835.52396,294.458082 C835.52396,294.989573 835.41631,295.563753 836.005424,295.907544 C836.754446,296.344533 840.627757,295.028677 840.752826,294.150136 C841.09424,291.742622 843.000238,290.975202 845.02364,290.433609 C847.5839,289.748634 850.209655,289.277103 852.806494,288.712047 C853.820286,288.491434 854.860554,288.342512 855.839508,288.027724 C857.586992,287.466579 857.916909,286.076099 857.768847,284.593398 C857.597443,282.876725 856.269063,283.41343 855.132292,283.506628 C854.038373,283.596242 852.932608,283.223448 852.382862,282.389226 C851.400773,280.898704 849.821557,280.580005 848.269167,280.218291 C846.000852,279.689733 843.863528,278.892985 841.760695,277.953833 C840.514532,277.39725 839.191378,276.949507 837.855681,276.62038 C836.21306,276.215652 835.721145,276.568567 835.824614,278.231147 C835.992883,280.935853 835.932612,283.627851 835.524309,286.323433 L835.524309,286.323433 Z"></path>
        </g>
    </g>
</svg>