<?xml version="1.0" encoding="UTF-8" standalone="no"?>
<svg width="1077px" height="169px" viewBox="0 0 1077 169" version="1.1" xmlns="http://www.w3.org/2000/svg" xmlns:xlink="http://www.w3.org/1999/xlink">
    <defs></defs>
    <g stroke="none" stroke-width="1" fill="none" fill-rule="evenodd">
        <g transform="translate(-63.000000, -217.000000)" fill="#3778FF">
            <path d="M79.455948,237.526183 C75.169041,236.279994 77.226415,232.821691 76.272491,230.455931 C76.1697151,230.200844 76.3867689,229.577009 76.6205193,229.46409 C79.0021755,228.31342 80.5367651,225.809936 83.5669858,225.62297 C93.6865204,224.997284 103.66061,223.15836 113.694065,221.806656 C128.377297,219.828896 143.029362,217.513858 157.899965,217.363546 C160.238582,217.339851 162.596492,217.372801 164.91062,217.092538 C169.444635,216.54349 173.595373,218.608624 178.021417,218.805955 C179.606838,218.876669 181.169255,219.253932 182.786585,218.988478 C183.716763,218.835574 184.491107,219.210245 184.861026,220.154697 C185.238737,221.119142 184.802774,221.824797 184.080375,222.411609 C182.54393,223.66039 180.71103,224.372339 178.971631,225.459329 C180.338885,225.239043 181.701687,224.984697 183.074877,224.812911 C183.716392,224.732941 184.292605,224.982475 184.617629,225.605199 C185.008326,226.353431 184.963431,227.192739 184.280361,227.592215 C183.083411,228.291947 182.578807,229.133846 182.647819,230.549599 C182.69865,231.590311 181.923935,232.391856 180.949604,232.779485 C179.348971,233.417018 177.750193,234.1497 176.078692,234.504008 C168.829463,236.040456 161.45631,236.795722 154.119146,237.769793 C153.396746,237.865312 152.588638,237.944541 151.921893,237.724625 C148.689089,236.657627 145.553124,237.703522 142.414933,238.124101 C139.407345,238.52691 138.883447,239.27292 138.905338,242.184026 C138.954686,248.840362 138.15474,255.4519 137.578898,262.056033 C136.883954,270.020756 135.375337,277.911063 134.395441,285.855794 C133.881932,290.020493 132.805197,294.114478 132.541022,298.276215 C132.307642,301.958506 131.585242,305.523435 131.072105,309.142788 C130.193129,315.344113 129.40988,321.568763 128.901566,327.809332 C128.64444,330.970342 129.139027,334.186145 129.182437,337.378995 C129.282245,344.639543 128.301236,351.879729 128.744619,359.149534 C128.879675,361.368682 128.968352,361.416442 131.091027,361.146545 C136.102189,360.509753 141.105931,359.774479 146.177571,359.792991 C148.773313,359.802616 151.350503,359.680071 153.933259,359.278003 C157.152335,358.777084 161.489332,362.567482 161.578008,365.690358 C161.61103,366.839177 160.594773,367.340836 160.097219,368.365258 C161.132028,369.06536 162.23993,368.824712 163.294404,368.818418 C165.146968,368.807311 167.001016,368.721048 168.851725,368.766215 C169.881711,368.791761 171.420382,368.505575 171.354338,370.103851 C171.301652,371.388913 169.941447,371.616974 168.804233,371.743222 C163.040618,372.382236 157.384601,373.778737 151.561621,374.052336 C149.486808,374.149706 147.387508,374.621007 145.384675,375.20967 C135.637286,378.074497 125.520349,379.015247 115.611931,381.02929 C111.742807,381.815655 107.88741,382.678657 104.04871,383.601266 C102.180934,384.050353 100.469733,384.399479 98.8794883,382.82897 C97.7997843,381.762712 96.2737285,382.092956 94.9754866,382.262891 C88.8593903,383.063695 82.7291949,383.939285 76.8045513,385.638633 C74.250365,386.371315 72.0735186,385.934816 70.0773649,384.824871 C68.4637455,383.927437 67.2794104,382.325459 65.0947723,382.729749 C64.7734583,382.789355 63.9642369,382.135532 64.0017112,381.918949 C64.3449161,379.937486 63.0507554,378.275901 63.0006661,376.446233 C62.9661601,375.180422 64.2788723,374.782056 65.4190545,374.5614 C68.1832451,374.02642 70.8468859,373.0542 73.5424354,372.893521 C73.9353586,372.06384 73.4040404,371.830596 73.1138931,371.463699 C71.5919187,369.542214 72.0330761,367.901362 74.2837579,367.456718 C79.9672305,366.333445 85.6911456,365.512278 91.487412,365.180924 C96.2922801,364.905844 101.089357,364.483414 105.886433,364.086899 C106.991367,363.995823 108.080718,363.729629 109.1812,363.570801 C110.146626,363.431595 110.927278,362.967329 110.870139,361.954014 C110.506898,355.509448 113.144567,349.247035 112.338685,342.856894 C111.327251,334.836266 112.540897,326.872284 112.270415,318.886828 C112.245926,318.151925 112.273012,317.394808 112.41957,316.677305 C114.898436,304.530113 114.230578,292.135978 115.310282,279.879197 C115.464261,278.127647 115.632709,276.598974 116.802945,275.098438 C118.500418,272.922236 118.103784,270.106649 118.064084,267.582062 C117.943869,259.948693 117.666337,252.312733 116.744322,244.71972 C116.332476,241.326947 116.30168,241.206623 112.849596,241.634977 C105.377748,242.562399 97.9433738,243.989259 90.4466665,244.453155 C85.1739266,244.779327 79.9286432,245.126231 74.7026534,245.864096 C74.2225376,245.932218 73.7012372,245.910374 73.2300262,245.799676 C72.0475463,245.522745 71.2498269,244.763036 71.0268365,243.567939 C70.7979096,242.343224 71.7414447,241.765668 72.6245015,241.356936 C74.8377091,240.332884 76.9555614,239.171477 79.455948,237.526183 L79.455948,237.526183 Z M134.356911,244 C135.293052,242.682604 135.077502,241.58214 134.53054,240 C133.85088,241.539069 133.859133,242.632421 134.356911,244 L134.356911,244 Z M408.95131,339.144397 C407.851378,340.21321 408.02775,341.138479 408.015574,341.960529 C407.994542,343.434079 407.380189,344.326051 405.905003,344.465896 C404.15013,344.632748 402.210028,343.356017 402.062067,341.824754 C401.908202,340.237257 401.935507,338.624973 401.983105,337.026748 C402.039559,335.136994 401.731829,333.714499 399.493591,333.183607 C397.382282,332.683052 397.696285,330.870249 398.011395,329.255745 C398.460444,326.956446 399.579563,324.874314 400.030089,322.548377 C401.668733,314.082961 403.12547,305.609775 402.456508,296.937182 C402.358728,295.673399 402.575688,294.515796 402.87198,293.333775 C404.208798,287.999327 404.378898,282.616414 403.542049,277.191326 C403.255351,275.331169 403.339848,273.729614 404.675559,272.042598 C406.187643,270.132866 405.466285,267.579405 405.226816,265.202044 C403.704032,267.354469 403.352393,269.929018 402.875301,272.408488 C402.639522,273.635644 402.40854,274.811745 401.809315,275.902386 C400.617876,278.06998 400.459952,278.183188 397.986673,276.871311 C396.927698,276.309712 396.629192,276.941603 396.309655,277.543157 C394.585038,280.791033 392.546787,283.903873 392.060839,287.69004 C391.938707,288.642317 391.614741,289.623819 391.154253,290.465848 C389.980894,292.610134 389.403439,292.73444 387.099522,291.397406 C386.438308,291.013388 385.843142,290.981571 385.521022,291.553529 C384.667938,293.069254 382.500913,293.944208 383.196442,296.254606 C383.276142,296.520237 383.068036,297.018573 382.832258,297.210952 C380.8619,298.818796 380.106965,301.286057 378.560935,303.18432 C378.021853,303.846178 377.475024,304.564639 376.778019,305.02043 C375.56444,305.813993 374.367466,305.400748 374.01509,303.922759 C373.75053,302.81288 373.71806,302.159162 372.25173,302.387057 C371.095344,302.566857 370.813811,301.248691 370.336719,300.422201 C368.225779,296.76441 367.244659,292.651939 365.731837,288.755154 C364.389484,285.297881 362.320239,282.223147 360.866824,278.833577 C360.684916,278.409973 360.287893,277.858363 359.903783,277.776602 C356.678152,277.091437 356.140547,274.259766 355.049471,271.853178 C354.084216,269.72443 353.114904,267.597163 352.089506,265.497642 C351.786941,264.877959 351.62459,263.8602 350.713945,263.984507 C349.609585,264.13545 349.744263,265.217952 349.639472,266.045922 C348.666101,273.733683 347.541447,281.396287 347.202353,289.16248 C347.026349,293.19208 346.083234,297.169146 345.308005,301.151022 C344.677417,304.387429 344.772245,307.761831 344.477798,311.06927 C344.307698,312.983071 344.363045,314.852477 342.522568,316.362652 C341.093874,317.535424 341.257333,319.786999 340.988346,321.555776 C340.232304,326.527293 339.82089,331.550235 339.200264,336.54395 C338.965961,338.427415 339.154511,340.590199 336.574596,341.264635 C335.562481,341.529526 335.517466,342.626457 335.557685,343.444807 C335.682769,345.993089 334.383956,348.200269 333.989516,350.620545 C333.725325,352.240228 332.848258,352.633495 331.078625,352.389692 C328.08619,351.976817 326.197746,350.997903 326.624288,347.589095 C326.671148,347.212476 326.443856,346.874333 326.046095,346.771115 C325.49742,346.62905 324.974943,346.894681 324.828827,347.345292 C324.452835,348.504375 324.20119,349.706004 323.937738,350.899494 C323.643291,352.233199 323.113434,353.290543 321.485121,352.927983 C320.115464,352.623136 319.954589,351.600198 320.008829,350.364532 C320.254201,344.758164 320.49736,339.178063 321.766285,333.654566 C322.798694,329.159186 323.988657,324.673425 324.419258,320.05041 C324.453204,319.687479 324.512241,319.280524 324.701528,318.985666 C327.786947,314.18174 327.128316,308.542815 328.046709,303.285689 C328.908649,298.353387 328.883558,293.315277 330.367968,288.408872 C331.459045,284.802505 331.465686,280.876864 332.115831,277.121034 C332.418026,275.375194 332.281134,273.411448 334.122349,272.179113 C335.186121,271.46731 334.554426,270.101419 334.827102,269.061833 C336.71075,261.873887 337.480075,254.573473 337.520663,247.135805 C337.540588,243.500212 337.728768,239.754 339.587325,236.383668 C340.282854,235.122846 339.755212,233.721439 339.686212,232.380335 C339.654111,231.756953 339.70503,231.106194 340.3858,230.822435 C341.148114,230.505009 341.846964,230.695539 342.346933,231.353697 C342.641011,231.740675 342.776058,232.252699 343.081206,232.627098 C344.656754,234.559027 345.789894,234.479856 347.168776,232.272307 C347.636275,231.524248 348.10156,230.821325 348.85834,230.367754 C349.909197,229.738083 350.629817,229.86165 351.090674,231.172047 C354.098607,239.725143 357.433087,248.136176 361.479332,256.267889 C364.920079,263.181324 369.362978,269.566088 372.123324,276.837274 C373.079723,279.35633 374.281494,281.783265 375.418324,284.230178 C375.668862,284.769949 376.119019,285.21686 376.551833,285.808426 C378.108933,285.054078 378.548758,283.56795 379.138021,282.300468 C380.491443,279.387776 382.150012,276.656734 383.752496,273.886106 C385.717319,270.488397 387.481048,267.002637 389.079473,263.391831 C392.61099,255.415502 396.362788,247.496886 402.586758,241.141719 C403.397778,240.313379 402.978616,239.473571 402.766821,238.757329 C402.381605,237.455071 402.859435,236.894952 404.021356,236.652629 C405.360387,236.372939 406.694622,236.155033 407.149945,234.520181 C407.356205,233.779522 407.882741,233.15725 408.753905,233.301164 C409.787789,233.471716 410.049028,234.341491 410.10622,235.238273 C410.159722,236.084001 410.117658,236.935648 410.117658,237.537202 C411.118704,238.700355 411.614983,237.633762 412.238561,237.503166 C413.222633,237.297098 414.1687,237.608974 414.327731,238.515375 C414.750952,240.925293 416.155662,242.977089 416.23241,245.572725 C416.439777,252.59049 416.88071,259.607884 416.692529,266.626388 C416.631279,268.90201 417.969941,270.534642 418.439654,272.546113 C419.840306,278.546488 419.087584,284.568691 418.924864,290.574616 C418.735208,297.58905 419.601206,304.618653 418.606802,311.61866 C418.495001,312.404824 418.760298,313.089989 419.411181,313.564277 C421.169744,314.845078 421.049825,316.596097 420.952045,318.533945 C420.490081,327.688966 417.76405,336.4522 416.454906,345.457388 C416.092197,347.951656 414.394147,348.524723 412.165871,347.128126 C411.122762,346.474407 410.75083,345.734858 411.734902,344.79146 C412.357373,344.194716 413.076147,343.713768 413.254365,342.78147 C413.446604,341.775919 413.765035,340.657532 412.109048,340.836222 C410.700648,340.987536 409.946082,339.895045 408.95131,339.144397 L408.95131,339.144397 Z M417,306 L417,311 C417.374416,309.344066 417.76437,307.713048 417,306 L417,306 Z M581.831954,223.295927 C582.798554,222.555449 584.112717,221.898568 583.669492,220.407581 C583.13282,218.603015 581.425295,218.944459 580.23302,219.225714 C575.711754,220.292404 570.952624,218.29538 566.531454,220.38083 C566.230799,220.522758 565.758026,220.530932 565.455525,220.396063 C563.07319,219.336805 560.857433,220.313953 558.632813,220.942226 C554.491613,222.111832 550.324558,223.132078 546.090281,223.927916 C536.425757,225.745114 526.85468,227.946856 517.477514,230.987905 C513.516559,232.272688 509.618024,233.920093 505.42807,234.333988 C501.491492,234.722618 497.481043,235.137999 493.944476,236.806582 C490.904691,238.241095 488.659017,241.123125 485.578233,242.717029 C484.929277,243.052528 484.832876,243.961685 485.257264,244.716281 C485.727452,245.552616 486.643081,246.270802 487.353349,245.762536 C489.471965,244.246284 491.66002,245.247954 493.755367,245.390997 C496.069002,245.548901 498.251516,244.860439 500.561827,244.589586 C500.403744,246.299039 499.188568,246.013697 498.333882,246.324675 C497.144192,246.757518 495.052539,246.727052 495.405642,248.400836 C495.824859,250.385971 497.824912,249.39136 499.184505,249.26095 C500.277794,249.155804 501.338579,248.724447 502.431498,248.60444 C508.850876,247.900745 515.367762,248.184972 521.707359,246.669463 C521.946331,246.612246 522.194906,246.595527 522.433509,246.536081 C523.636865,246.237363 524.324972,246.722222 524.538829,247.927867 C524.668472,248.658685 524.748252,249.400649 524.915939,250.122178 C525.953825,254.596997 524.988333,259.226005 526.045425,263.718658 C527.3293,269.171368 527.125047,274.741857 527.092175,280.306401 C527.056347,286.346143 527.154596,292.37474 529.110696,298.240973 C530.982214,303.85456 530.956359,309.644628 529.994191,315.472594 C529.532868,318.26917 529.236646,321.119247 529.190476,323.950377 C529.162405,325.666888 529.753372,327.344388 527.644729,328.295157 C527.147947,328.518824 526.807772,329.38934 527.194116,329.938847 C528.703667,332.08783 527.14056,334.250189 527.298644,336.40363 C527.389505,337.646429 526.767512,339.048619 525.734059,339.621161 C523.596606,340.804885 522.761865,342.766984 521.807823,344.784813 C520.262814,348.053245 517.816212,349.121792 514.544472,347.854471 C512.214954,346.952374 510.099293,345.409371 508.973871,343.201313 C506.396516,338.145778 504.21548,332.891841 502.365384,327.512695 C501.845333,326.001645 501.527319,324.530721 503.884169,324.343837 C504.495819,324.295165 505.136649,324.00908 505.032491,323.214729 C504.963791,322.688258 504.458515,322.355359 503.987219,322.274735 C499.496609,321.507134 498.261858,318.175542 497.629524,314.29147 C497.412713,312.956901 497.068105,311.623818 496.603827,310.356126 C496.271039,309.447713 495.745817,308.560477 495.122716,307.820742 C494.015392,306.505865 492.895879,307.660609 491.780429,307.969729 C490.871079,308.222004 489.805123,308.895605 490.221754,309.653545 C491.313935,311.640537 491.191679,313.189856 489.642238,314.814969 C489.375195,315.09511 489.828392,315.99312 489.798844,316.597986 C489.758584,317.414629 490.816046,318.115724 489.890074,319.183156 C488.882476,318.301122 489.057919,316.887787 488.366119,315.945563 C487.842005,315.231465 487.376619,314.47241 486.313617,314.752922 C485.199275,315.047181 485.176745,315.932559 485.308235,316.824253 C485.48848,318.048104 485.578602,319.317654 485.984522,320.469054 C488.316625,327.088769 489.447957,334.072965 492.002042,340.615028 C493.750565,345.093563 495.365013,349.687274 498.359737,353.520074 C500.991756,356.88882 502.940469,361.050803 507.642718,362.261278 C508.331563,362.438502 508.613381,363.31162 509.047003,363.91017 C509.84333,365.008811 511.077712,366.280219 512.289933,365.945462 C515.495928,365.060084 518.941265,365.601045 522.007274,364.164302 C523.724033,363.35992 525.474772,363.024048 527.36919,363.194956 C529.408395,363.378497 531.200871,362.963116 532.566374,361.136257 C533.360486,360.074026 534.436045,359.102823 535.588431,358.460803 C537.469183,357.413434 538.686944,356.107473 538.747518,353.853344 C538.775219,352.827524 539.281604,352.000106 540.055032,351.288237 C541.955729,349.538287 544.324398,348.038755 543.348564,344.743201 C543.171643,344.146137 543.656605,343.325779 543.89964,342.631372 C545.656289,337.61039 546.783559,332.588294 544.186998,327.475913 C543.97425,327.057188 543.971665,326.510282 543.943963,326.019108 C543.688739,321.455119 543.243298,316.889273 543.269153,312.326399 C543.290945,308.505117 543.615976,304.681978 543.696496,300.847693 C543.776645,297.052419 542.584739,293.470037 542.797487,289.598598 C543.126951,283.600468 542.236808,277.55218 541.579726,271.545133 C541.355898,269.496465 540.899006,267.302897 543.300917,265.975016 C544.012663,265.581184 543.942486,264.702865 543.778492,263.946783 C543.464172,262.496294 543.173121,261.03986 542.823342,259.597916 C541.745197,255.153563 540.960689,250.657938 540.498996,246.108439 C540.29622,244.114388 541.250262,243.40289 543.100727,244.04008 C544.247942,244.435398 544.861808,245.281764 545.344185,246.342509 C545.749367,247.234575 546.366927,247.955361 547.529654,247.867678 C547.529654,247.574162 547.576932,247.422574 547.522636,247.335633 C545.27844,243.738018 545.282503,243.811583 549.577354,243.493174 C551.068807,243.382827 553.050023,243.939021 553.800551,241.992155 C554.514143,240.143004 555.936896,239.785955 557.562793,239.550771 C562.430144,238.846332 567.296386,238.137064 572.162629,237.424451 C573.007711,237.300729 573.882342,237.250943 574.681256,236.981577 C575.27924,236.779459 575.592083,236.165676 575.481277,235.476843 C575.394848,234.941826 575.028079,234.660571 574.513569,234.500437 C573.54623,234.198747 572.321082,234.746396 571.40139,233.635122 C572.264571,232.563603 573.00254,231.61915 574.31264,231.339381 C575.046178,231.182963 575.963284,230.924 575.995418,230.127048 C576.092558,227.703498 577.878755,227.922334 579.407513,227.741395 C581.968985,227.438219 584.533781,227.142473 587.104486,226.93887 C588.545707,226.824436 590.12248,226.613401 589.992467,224.879056 C589.863193,223.149541 588.239143,223.574582 587.038002,223.710937 C584.971835,223.945378 582.908622,224.205455 580.108547,224.543556 C581.047446,223.865497 581.447456,223.590558 581.831954,223.295927 L581.831954,223.295927 Z M299.956588,360.847957 C299.072536,362.525584 299.335312,363.761887 299.392229,364.986673 C299.443971,366.097042 299.509018,367.212984 299.455798,368.321124 C299.393707,369.617607 299.04223,370.985416 297.504377,370.999904 C296.091075,371.013277 295.762882,369.630238 295.849365,368.538443 C296.028984,366.26644 295.031468,365.003762 293.166901,363.809065 C290.004712,361.782242 288.713004,358.445934 288.04479,354.867417 C287.044318,349.509487 287.230959,344.046426 286.664752,338.643174 C285.93186,331.652566 285.569664,324.621837 285.083288,317.605968 C284.943953,315.598091 283.906152,314.888926 281.971363,314.82986 C276.587954,314.664177 271.441821,315.646756 266.522984,317.804342 C265.176208,318.395003 263.901132,319.100082 262.277535,318.92697 C261.78931,317.42877 263.599179,317.199935 263.613223,316.125972 C263.4373,315.970691 263.278747,315.708794 263.097649,315.692077 C262.365127,315.625581 261.622996,315.582117 260.889365,315.624095 C255.439061,315.9354 255.521479,315.974406 254.15068,321.383601 C252.300526,328.68217 250.288493,335.939133 248.353704,343.216156 C247.591984,346.080678 246.788132,348.936285 246.112526,351.821982 C244.964958,356.7267 241.682653,360.607606 239.843587,365.185046 C239.386777,366.321419 238.35452,367.018697 236.815928,366.253066 C235.217093,365.457345 233.445292,365.027537 231.619531,364.997446 C230.025501,364.971442 229.174711,364.177579 228.948893,362.566819 C228.778144,361.347976 228.431471,360.153651 228.16352,358.948553 C228.058188,358.47491 228.090711,357.693676 227.827196,357.574801 C224.670551,356.150898 226.478572,354.013744 226.868486,351.976891 C227.851588,346.841109 230.420959,342.684561 233.704373,338.666577 C236.888367,334.770441 238.826113,329.989798 241.107945,325.471424 C247.127783,313.552694 249.588125,300.756516 250.678038,287.606312 C251.355492,279.436239 252.823123,271.425532 255.250572,263.604283 C256.117993,260.810343 256.72116,257.860751 259.527066,256.068707 C260.55378,255.412664 260.659112,253.926723 260.905257,252.720882 C261.990366,247.408644 263.588091,242.205252 264.1628,236.782683 C264.398966,234.550428 265.006937,232.425161 266.96501,230.987514 C267.352338,230.703328 267.651703,230.048399 268.019443,230.02611 C271.441451,229.818079 272.90243,227.111066 274.642816,224.816031 C275.228243,224.044456 275.44593,222.863876 276.677394,223.012842 C277.964667,223.168494 278.952204,223.869858 279.375382,225.211662 C280.082032,227.450604 280.838578,229.673199 281.529336,231.916598 C281.89301,233.097178 282.128068,234.317878 282.489894,235.499201 C282.666926,236.077604 282.952986,237.05721 283.270092,237.090644 C286.739039,237.458043 285.231862,240.200346 285.688672,241.992762 C286.909049,246.780463 288.071401,251.582652 288.848273,256.466196 C290.555766,267.201003 292.466902,277.916864 292.860513,288.808438 C292.973606,291.938943 293.833266,294.901538 294.283424,297.951431 C295.472756,306.00523 296.451423,314.11215 299.242915,321.834584 C299.451363,322.411501 299.681616,323.022594 299.694921,323.622542 C299.87454,331.652194 302.902938,339.236064 303.315767,347.233025 C303.448819,349.811133 304.568668,352.223557 304.721677,354.847728 C304.955996,358.866827 304.172101,362.994398 305.902509,366.884963 C306.246225,367.65728 305.621992,368.293263 304.951561,368.683694 C304.187993,369.12799 303.529758,368.763563 302.943223,368.26503 C302.126805,367.570724 302.05954,366.539853 301.783828,365.597023 C301.348454,364.107368 301.179553,362.504409 299.956588,360.847957 L299.956588,360.847957 Z M275.450488,249 C274.620682,249.515558 274.596166,250.019997 274.481019,250.489225 C273.336971,255.162604 272.345586,259.88046 271.008759,264.498614 C267.336292,277.186678 263.263036,289.75206 259.123291,302.297057 C257.084806,308.474858 257.366361,308.675373 263.820573,307.318466 C264.062383,307.267689 264.322394,307.251751 264.541175,307.149455 C269.919685,304.636897 275.61318,305.047565 281.280303,305.417462 C283.880411,305.587214 284.163452,305.566088 283.937985,302.98978 C283.432821,297.213011 282.127195,291.561146 280.944146,285.896309 C280.189,282.282214 278.69208,278.573236 279.82127,274.9988 C280.716822,272.164528 280.419295,269.963677 278.797942,267.803967 C277.909819,266.62089 277.475972,265.293634 277.629379,264.005295 C278.243747,258.843414 276.717483,254.044759 275.450488,249 L275.450488,249 Z M745.247624,343.048839 C741.712004,341.686603 741.757791,339.173845 742.987329,336.08082 C743.451895,334.9125 743.084113,333.403437 743.041305,332.051582 C742.982489,330.206223 742.713353,328.348258 744.125293,326.785802 C744.750671,326.093931 744.722753,325.218897 744.53849,324.327548 C743.335381,318.504119 743.721776,312.559816 743.198766,306.684848 C743.007802,304.541013 744.363905,302.724946 744.226173,300.553674 C743.923162,295.784735 744.420114,290.957584 743.042794,286.272441 C742.907295,285.810453 742.883099,285.282466 742.942287,284.801568 C743.538257,279.979608 743.091186,275.202883 742.427094,270.423563 C742.051495,267.721337 741.991563,265.009101 742.793015,262.342099 C742.933353,261.876032 743.025298,261.352494 742.966855,260.876416 C742.313186,255.569479 743.951081,250.408258 743.955548,245.135433 C743.957781,242.732425 743.557242,240.895965 741.188622,239.69168 C739.521692,238.844454 739.653468,237.635719 741.29918,236.718045 C741.833729,236.41957 742.453152,236.273854 743.024926,236.03804 C743.470508,235.854134 743.995378,235.735856 744.024042,235.088479 C743.478325,234.404024 742.67799,234.684702 741.98449,234.603131 C740.909436,234.476696 739.955362,234.199725 740.039118,232.887915 C740.121013,231.605767 741.003987,231.430389 742.147163,231.433726 C744.740248,231.441513 747.333706,231.300246 749.927536,231.222754 C750.29904,231.211631 750.69288,231.137846 751.039071,231.230911 C753.070433,231.775583 754.160378,226.701865 756.680875,230.298777 C758.911762,230.51012 761.105424,230.100782 763.305415,229.867192 C765.252276,229.659927 766.986584,230.124882 768.580926,231.209406 C770.623455,232.598709 772.69502,233.948338 774.694368,235.396966 C776.177035,236.471108 777.622105,237.277178 779.501962,237.805165 C781.997146,238.505563 784.41118,240.096569 785.563662,242.838097 C787.341895,247.067183 790.388007,250.17541 794.207653,252.676674 C796.250926,254.014439 797.525134,255.969548 797.429466,258.58909 C797.33082,261.287237 797.684829,263.993171 796.884122,266.667588 C795.655701,270.767273 793.24874,273.885511 789.570921,276.071985 C788.726661,276.574018 787.93526,277.170598 787.150931,277.764584 C784.511687,279.762332 784.55859,281.755631 787.257022,283.841625 C787.901013,284.33995 788.61238,284.652144 789.260093,284.040732 C790.851829,282.538343 792.011384,283.45787 792.930095,284.736682 C793.744203,285.870148 794.661052,286.797833 795.844803,287.524186 C796.237898,287.765191 796.814511,288.372524 796.731127,288.61835 C795.889845,291.092918 798.014641,291.949785 799.162657,293.378761 C800.448777,294.979036 800.250368,295.92563 798.587905,297.460649 C796.688691,299.214055 796.571433,299.333074 798.399547,301.118367 C799.356599,302.052726 799.778729,303.028983 799.295922,304.034902 C798.130783,306.462753 798.675755,308.832391 799.114265,311.247264 C799.289966,312.217217 799.415042,313.19644 799.576598,314.168989 C800.078017,317.194533 799.015246,319.461095 796.328726,320.998338 C793.296387,322.733205 790.577482,324.835142 788.524157,327.715341 C787.869372,328.633386 786.972252,329.444647 785.929583,329.764257 C779.880167,331.618514 775.433654,336.235063 769.875979,338.899099 C764.996169,341.238704 760.450266,344.286865 755.185923,345.821512 C753.636251,346.273119 752.134972,346.802218 751.128783,348.231565 C750.234269,349.501849 748.725917,349.964208 747.414484,350.60454 C745.040653,351.76322 741.847503,350.247853 741.221008,347.722859 C740.960061,346.671334 741.49945,345.812243 742.44459,345.254965 C743.386752,344.699169 744.555241,344.45631 745.247624,343.048839 L745.247624,343.048839 Z M789.917239,308.77095 C790.189284,305.164294 789.836371,301.880013 788.170934,299.204742 C785.7393,295.29978 782.571653,291.851759 779.074199,288.763674 C778.449614,288.212282 777.640187,287.714863 776.834859,287.530701 C773.231196,286.706166 769.615979,285.83787 765.858033,286.499394 C763.680555,286.88267 761.609287,287.290379 759.350196,286.275483 C757.536066,285.46043 756.398695,286.519816 756.235095,288.584982 C756.168016,289.429574 756.218325,290.282919 756.210872,291.131887 C756.108389,302.504704 756.205282,313.881533 755.124555,325.226271 C754.765307,328.99849 754.956857,329.126856 758.826603,328.953635 C759.440008,328.926284 760.117139,328.958011 760.650049,328.718053 C763.941793,327.233818 767.657256,327.322799 770.988875,325.990269 C772.257424,325.482639 773.626965,325.426114 775.002842,325.355002 C778.39595,325.179592 781.440617,323.728907 784.571743,322.621383 C785.418436,322.321983 786.051965,321.667753 786.361649,320.855252 C787.909324,316.794938 790.386796,312.986981 789.917239,308.77095 L789.917239,308.77095 Z M757.004798,275.622498 C757.004798,276.592346 756.992654,277.085244 757.007006,277.57777 C757.082813,280.117918 757.330107,280.307808 759.856405,279.728866 C760.451824,279.592383 761.051291,279.446628 761.623526,279.234485 C765.506996,277.796218 769.459281,276.573802 773.325824,275.056908 C777.431196,273.445812 780.916125,271.314743 783.659541,267.833676 C785.028489,266.096481 785.495109,264.110055 785.883714,262.053162 C786.018401,261.342187 786.189151,260.377161 785.415622,260.045596 C782.118371,258.63329 780.670303,255.176701 777.814648,253.259259 C775.370046,251.61775 773.26768,249.544167 771.670942,246.992893 C770.221771,244.677498 767.942399,243.431346 765.407637,242.900989 C764.110816,242.629877 762.786764,242.372116 761.469703,242.143284 C758.959965,241.707131 758.374114,242.180372 758.324435,244.770218 C758.122772,255.223061 758.466849,265.697415 757.004798,275.622498 L757.004798,275.622498 Z M1131.93208,344.866763 C1130.845,345.190632 1130.22025,344.342792 1129.37362,344.199386 C1126.79174,343.761385 1126.24763,344.100076 1125.60913,346.723635 C1125.09439,348.838046 1124.54211,349.123376 1122.5612,348.168075 C1121.28531,347.552946 1120.09118,346.238573 1118.79151,348.185491 C1118.52689,348.581619 1117.76277,348.461187 1117.43646,348.099151 C1116.14385,346.664345 1114.33501,345.622333 1113.90872,343.506811 C1113.71509,342.54521 1113.51365,341.555817 1113.11264,340.67018 C1110.00561,333.808906 1109.13408,326.479616 1108.77952,319.101042 C1108.60744,315.518476 1108.19491,311.968889 1107.74112,308.439313 C1107.29625,304.981255 1105.22465,302.060137 1103.46858,299.088623 C1103.20657,298.645063 1102.51492,298.11961 1102.33058,298.332311 C1100.44481,300.508235 1098.70844,297.221745 1096.98545,298.233001 C1096.04442,298.785505 1096.14365,299.952396 1096.05631,300.925484 C1095.69172,304.975326 1095.72294,309.104096 1094.90604,313.059815 C1093.51234,319.805475 1092.77721,326.625617 1091.80756,333.422043 C1091.25157,337.318102 1091.38016,341.280862 1090.42836,345.142829 C1089.60626,348.477862 1088.38314,349.456879 1084.91078,348.282948 C1083.50035,347.806038 1083.23462,348.042455 1082.91091,349.177107 C1082.76745,349.678844 1082.39431,350.044216 1081.83608,349.995673 C1081.07122,349.929342 1080.85455,349.266041 1080.74342,348.683152 C1079.56379,342.504448 1078.49008,336.282759 1079.25978,329.984736 C1079.97967,324.094327 1080.23388,318.190948 1080.25693,312.280529 C1080.31676,297.064628 1081.22211,281.976199 1086.19373,267.414706 C1086.79098,265.664555 1087.43803,263.931079 1088.06203,262.190192 C1088.35861,261.362733 1088.78713,260.700544 1089.59213,260.195472 C1091.12,259.236835 1092.51965,258.293021 1092.76086,256.087453 C1092.91658,254.664876 1094.5998,253.891519 1095.95411,253.241558 C1101.9723,250.351938 1108.13173,250.450877 1114.35991,252.428922 C1115.29648,252.726481 1116.1851,253.383853 1117.19451,253.065172 C1121.08499,251.836398 1124.1017,253.703646 1127.05041,255.772477 C1127.76436,256.273844 1128.46381,256.745195 1129.28145,257.061653 C1132.91437,258.467554 1134.27016,261.279728 1134.98299,264.992731 C1135.88017,269.668076 1136.19942,274.52129 1138.54084,278.8887 C1139.63945,280.938263 1140.08692,283.303172 1139.9862,285.697355 C1139.88362,288.141563 1139.41571,290.377147 1136.83123,291.484748 C1136.4986,291.627043 1136.17117,291.864201 1135.93629,292.138044 C1132.3056,296.36983 1127.07048,297.537832 1122.15907,299.310217 C1119.89644,300.126559 1119.57198,300.456356 1120.04956,302.800143 C1121.49864,309.919326 1122.91538,317.048514 1124.57816,324.119154 C1125.16278,326.604124 1126.30152,328.988302 1127.40422,331.316525 C1129.13613,334.972833 1129.67094,339.09975 1131.94249,342.541875 C1132.32975,343.12847 1132.51335,343.916279 1131.93208,344.866763 L1131.93208,344.866763 Z M1119.62298,286.247815 C1118.58659,285.286907 1117.79032,285.322496 1117.08236,285.106714 C1112.48062,283.701878 1111.6062,280.617232 1114.62818,276.960538 C1117.06508,274.011881 1120.39332,272.699577 1123.8185,271.452457 C1125.90293,270.693471 1126.62179,269.238435 1125.41254,267.477333 C1123.20111,264.257824 1119.61246,262.911803 1116.14105,261.511838 C1115.8626,261.399451 1115.39476,261.581892 1115.08324,261.751971 C1113.38699,262.677289 1111.73997,262.177168 1109.99112,261.843753 C1107.32725,261.33539 1105.0602,259.434553 1101.99162,260.165068 C1099.37172,260.788815 1098.73177,260.849879 1098.8524,263.696638 C1098.95874,266.222721 1098.42364,268.650277 1098.29024,271.125411 C1098.01479,276.222156 1096.68906,281.236484 1097.12383,286.388299 C1097.19298,287.20685 1096.55679,288.260289 1097.63752,288.709088 C1098.69157,289.146273 1099.7986,289.222321 1100.60727,287.993932 C1101.27013,286.986571 1102.2742,286.793641 1103.12045,287.745557 C1104.39057,289.174369 1106.07441,288.996798 1107.64966,288.980315 C1109.89717,288.957463 1112.14769,288.735311 1114.38656,288.500797 C1116.25942,288.304495 1117.83692,287.384421 1119.62298,286.247815 L1119.62298,286.247815 Z M1128.84726,281.048585 C1129.4877,278.881037 1127.00911,278.492831 1126.04746,277.087635 C1124.31217,274.552971 1124.29759,274.590855 1121.6176,275.800385 C1119.3932,276.804487 1117.81043,278.461587 1116.49527,280.417458 C1115.58841,281.766024 1115.96006,282.886119 1117.33907,283.641832 C1119.32502,284.729902 1121.59947,285.102095 1123.73912,284.976729 C1125.45274,284.876358 1126.76751,283.125526 1128.5702,282.660382 C1129.05496,282.535015 1129.10304,281.8414 1128.84726,281.048585 L1128.84726,281.048585 Z M1130,261 C1130.09404,262.506801 1130.59853,263.35775 1132,264 C1131.98446,262.437518 1131.64216,261.479031 1130,261 L1130,261 Z M640.126801,340.832616 C640.751217,341.678198 640.4963,342.422887 640.403365,343.265512 C640.250714,344.650669 640.759055,345.712081 642.235185,346.01624 C643.15744,346.2062 644.030054,346.513315 644.147622,347.48529 C644.546607,350.785572 646.934168,352.318928 649.347855,354.163834 C651.089726,355.495034 651.798492,355.121396 652.96372,353.853763 C653.731457,353.018898 654.317804,352.224687 654.560031,351.046121 C654.862721,349.572266 658.216952,347.322309 659.615823,347.713316 C662.069819,348.399612 664.019206,347.358157 665.94732,346.270875 C667.357761,345.475555 668.789103,344.374229 670.343612,344.507275 C672.583,344.699083 674.452142,343.82874 676.427656,343.23225 C681.174786,341.798309 686.005146,340.546567 690.589173,338.70314 C693.74783,337.432919 696.862073,336.414378 700.244295,336.208526 C701.747671,336.117241 703.208872,335.833779 704.601398,335.289399 C705.285905,335.021459 706.028635,334.598299 705.99915,333.740151 C705.961827,332.665804 705.084733,332.421147 704.189351,332.243383 C702.457557,331.90005 700.74032,332.044922 698.994344,332.186099 C696.607529,332.379385 695.937206,331.83944 694.994423,329.328934 C694.492054,327.991821 693.49478,327.79447 692.302305,328.038757 C691.305031,328.243131 690.355904,328.500723 689.568386,327.557943 C688.398305,326.157633 686.938971,326.655817 685.450151,326.885321 C676.980038,328.189173 668.450955,328.966014 659.900225,329.478242 C657.199523,329.640114 656.959162,329.342978 656.768441,326.61886 C656.493742,322.694739 656.637437,318.721466 655.80849,314.864608 C655.299402,312.497496 655.838348,310.214277 655.777138,307.894102 C655.73571,306.332288 656.763216,305.666319 658.191945,305.736538 C661.45772,305.897302 664.349889,304.799302 667.426062,303.848761 C672.37623,302.319471 677.232716,300.390302 682.353077,299.396522 C682.962191,299.278259 683.605268,299.238715 684.17258,299.014384 C685.944682,298.313675 686.13503,296.902278 684.695477,295.621339 C683.507108,294.562884 682.06121,294.371076 680.547011,294.251704 C679.038036,294.133071 677.418212,294.528883 675.678207,293.523646 C677.246899,292.230512 678.907032,292.263034 680.385775,291.86094 C681.373718,291.59263 682.331056,291.284776 682.94017,290.465434 C683.616465,289.556655 683.715372,288.348523 682.454969,288.080953 C679.846829,287.527703 677.259962,285.773342 674.544704,286.936017 C669.566544,289.067711 664.284574,289.694506 659.030596,290.54674 C655.00119,291.200144 654.944459,291.154687 655.173623,287.275654 C655.594628,280.149188 656.334746,273.068919 657.804531,266.063673 C658.129242,264.515904 658.63609,263.630408 660.246957,263.353968 C669.671049,261.738937 678.628601,257.910905 688.225126,257.251588 C692.893131,256.930799 694.231912,252.663346 697.505524,250.791461 C697.635781,250.717177 697.645112,250.315822 697.60331,250.085947 C697.374146,248.825705 697.937352,248.286499 699.175361,248.168606 C700.278633,248.063647 700.657836,247.293458 700.390975,246.320374 C700.090524,245.2257 699.191783,245.215352 698.283338,245.470727 C697.566734,245.672144 696.883347,245.999585 696.160398,246.166632 C693.432823,246.796753 690.689573,247.086128 687.934006,246.60051 C687.930646,245.679905 688.438241,245.501032 688.901048,245.41603 C691.044142,245.022435 692.676656,243.624343 694.534229,242.672324 C695.090717,242.387014 695.730809,242.049964 695.528144,241.321537 C695.359443,240.71396 694.729802,240.330713 694.137484,240.244603 C693.293235,240.121535 692.39524,240.084947 691.561441,240.236472 C690.580589,240.414606 689.657588,240.679959 688.635681,240.397236 C685.472545,239.522458 682.440786,240.183623 679.570264,241.492279 C674.183043,243.947719 668.536052,245.060871 662.636384,245.377225 C659.301935,245.556098 655.865967,245.994411 652.815547,247.292719 C650.886688,248.11317 650.119324,248.168236 649.042925,246.328874 C648.215844,244.915629 646.862507,245.235679 646.382532,246.861058 C646.004075,248.142735 645.948837,249.518654 645.756996,250.853549 C645.154974,255.044871 646.111939,259.485653 643.68183,263.392404 C643.441842,263.777868 643.379512,264.359205 643.438483,264.824497 C643.757969,267.344612 643.529178,269.755702 643.100335,272.300578 C642.537129,275.642622 643.087272,279.163169 643.099962,282.607584 C643.139151,293.423862 644.034907,304.251595 642.800257,315.051242 C642.24265,319.926642 641.218876,324.770258 642.366562,329.693702 C642.609163,330.734788 642.255713,331.464324 641.272248,332.155794 C638.256165,334.276401 638.299087,334.392077 641.065478,337.087739 C638.721212,338.801076 638.660002,338.845795 640.126801,340.832616 L640.126801,340.832616 Z M579.015557,323.517071 C578.884745,321.125144 579.586234,317.62517 580.843208,314.243902 C581.591389,312.231093 581.759627,310.229412 581.684031,308.0838 C581.375717,299.309938 582.120192,290.583559 582.942487,281.849389 C583.741065,273.366357 584.771991,264.939711 586.703402,256.635109 C586.868676,255.92547 587.212195,254.912017 586.579632,254.533641 C584.075319,253.037945 585.555006,251.463235 586.614465,250.32106 C590.798942,245.808746 592.178944,239.595596 596.119956,234.963834 C596.663212,234.325418 596.466439,233.63952 596.439758,232.889075 C596.374538,231.05655 596.990796,230.537211 598.591288,231.418974 C600.953301,232.72029 602.991066,232.550021 605.570974,231.835187 C607.755114,231.230158 610.396537,232.170532 612.698888,233.017055 C614.110019,233.535652 615.464081,234.080587 616.994536,233.750065 C618.178507,233.494105 619.282805,233.809789 620.082866,234.612538 C622.578284,237.116123 625.317908,239.447214 626.559689,242.939768 C626.929888,243.980672 627.08701,245.295342 627.81555,245.97716 C631.549043,249.470828 632.329093,254.365969 634.131916,258.766254 C635.047224,261.000525 634.874168,263.412112 634.52435,265.723171 C633.755046,270.8075 633.751341,275.828024 635.44781,280.721682 C636.502452,283.763896 635.951044,286.595035 634.599575,289.307469 C633.195856,292.124883 632.366521,295.06768 632.260538,298.183343 C631.965193,306.874111 629.633196,315.228421 628.167221,323.725549 C627.994906,324.726018 627.719943,325.758019 627.017343,326.412386 C624.316258,328.928955 623.619586,332.379963 622.634611,335.65625 C621.197911,340.434911 618.685817,344.387451 614.609176,347.29983 C612.405397,348.874541 610.419141,350.752693 607.969674,351.988349 C606.727152,352.615265 605.309722,353.370162 604.094623,352.79555 C601.070772,351.3644 597.856447,351.660052 594.74403,351.523911 C590.844892,351.352901 588.622584,348.97136 586.947237,346.120931 C585.338593,343.382901 583.806656,340.616679 582.069424,337.939858 C579.501003,333.982865 579.103011,329.378183 579.015557,323.517071 L579.015557,323.517071 Z M595.184157,286.817319 C594.1565,291.007879 593.547105,294.549359 592.383243,297.897418 C591.496614,300.448356 591.599788,303.712722 588.396198,305.068164 C588.121191,305.184589 587.941935,305.979106 588.017275,306.40575 C588.788853,310.764811 587.714433,315.385735 589.854366,319.546537 C590.148672,320.118992 590.384339,320.664665 589.887025,321.249022 C588.710173,322.630873 589.462453,324.102367 589.781253,325.49984 C590.576213,328.981435 591.757147,332.358135 592.466747,335.87395 C593.218655,339.599182 595.778336,340.842661 599.253964,339.438121 C604.017041,337.513945 607.541287,334.182996 610.11841,329.780416 C613.78183,323.521358 615.917681,316.681661 617.814895,309.736327 C618.763131,306.266264 619.818624,302.821866 619.72213,299.185906 C619.570338,293.468801 620.216103,287.802283 620.676304,282.124234 C620.856673,279.898766 620.748674,277.658791 620.909373,275.457501 C621.317987,269.862401 620.215732,264.365499 620.157836,258.798667 C620.114414,254.626706 619.230012,250.450652 617.295685,246.599697 C616.676641,245.367004 615.76292,244.658038 614.704087,245.390438 C612.7204,246.762245 611.998924,245.865437 610.696259,244.287933 C607.925035,240.930947 603.442903,241.36317 601.081406,244.96119 C599.518208,247.342511 598.209605,249.870387 597.426522,252.645619 C597.048712,253.985066 596.737706,255.28434 597.541572,256.656892 C597.873362,256.623787 598.250801,256.662471 598.564405,256.538235 C599.19681,256.28753 599.762411,255.383655 600.48463,256.110103 C601.02685,256.655776 600.929985,257.531382 600.742565,258.243695 C600.556258,258.950429 600.324302,259.746807 599.848514,260.257143 C597.390151,262.89512 597.081372,266.247643 596.672016,269.551438 C596.314247,272.443467 595.259125,275.287885 596.74587,278.280345 C597.341162,279.478445 596.829375,281.083475 594.809688,280.948824 C594.070769,280.899724 593.635434,281.173119 593.419065,281.848607 C592.850124,283.623997 592.366171,285.447371 592.798165,287.296782 C593.207521,289.046878 593.922317,287.815673 595.184157,286.817319 L595.184157,286.817319 Z M589.511393,299 C590.696902,297.615867 591.441385,296.255458 591.761431,294.746332 C591.897381,294.105431 592.4432,293.307669 591.216826,293.052017 C590.053976,292.809467 589.411859,293.445056 589.244755,294.337005 C588.953031,295.894996 588.798065,297.472815 589.511393,299 L589.511393,299 Z M605,350 C608.550494,348.707926 611.599822,346.770539 614,344 C610.738992,345.656895 607.606518,347.477018 605,350 L605,350 Z M582.568214,330 C583.127683,328.742234 583.183547,327.525309 582.497972,326 C581.399161,327.656831 582.443339,328.812148 582.568214,330 L582.568214,330 Z M631.49706,259.066312 C631.151717,258.919752 630.937251,259.018253 631.016439,259.340766 C631.06868,259.55167 631.217706,259.811825 631.443719,259.925022 C631.791812,260.099386 632.079966,259.951634 631.979882,259.66725 C631.903994,259.451183 631.665333,259.264904 631.49706,259.066312 L631.49706,259.066312 Z M955.531042,268.389868 C957.209645,267.708102 958.651987,268.061186 959.962703,269.274612 C960.428201,269.706077 961.129961,269.796289 961.717102,269.612168 C964.789612,268.647564 967.819972,269.630654 970.860685,269.783349 C973.361952,269.908684 975.476844,271.037074 977.676776,272.285624 C981.474339,274.440361 985.096278,277.080911 989.320886,278.315781 C991.580346,278.975734 992.418908,280.324848 992.362338,282.261079 C992.30318,284.288262 992.726898,286.140567 993.266344,288.044633 C993.837587,290.060354 994.189946,292.169245 993.955902,294.257063 C993.470069,298.583544 993.841284,302.840517 994.68835,307.073458 C995.008912,308.674722 994.493869,309.608269 992.944673,310.20463 C991.623235,310.712627 989.901372,313.970613 990.081804,315.241345 C990.21306,316.16417 990.988767,316.298009 991.690897,316.503575 C994.778196,317.408283 997.459525,319.146344 1000.12237,320.839668 C1002.93421,322.627641 1003.77499,325.615361 1002.2465,328.542446 C1001.544,329.887493 1001.32438,331.027344 1001.79838,332.367215 C1003.01149,335.794903 1002.18661,338.940123 1000.37638,341.881628 C999.014267,344.09552 997.892486,346.403691 996.981825,348.830173 C995.930295,351.631923 993.927802,353.536358 991.233903,354.750154 C989.553081,355.507343 987.922543,356.470838 986.162597,356.941493 C980.890895,358.350502 975.794818,360.286363 970.188874,360.591753 C963.332111,360.965542 956.464996,361.746763 949.71139,363.13174 C948.305282,363.420123 947.03191,364.314479 945.661667,364.836895 C944.958798,365.104574 944.15647,365.12343 943.765288,364.264936 C943.378544,363.414947 943.88915,362.808973 944.558743,362.442579 C946.217011,361.536022 947.38316,360.434622 948.142229,358.51244 C949.083947,356.129585 949.443701,353.650232 949.097997,351.366093 C947.911513,343.529476 948.015039,335.710976 948.343365,327.836647 C948.815519,316.527237 948.782242,305.213759 947.818709,293.914701 C947.443427,289.509839 947.372068,285.079836 947.141722,280.662403 C947.030431,278.53022 946.701735,278.260693 944.417504,278.29101 C943.803371,278.299144 943.178517,278.420043 942.577325,278.34388 C941.196729,278.169371 940.516414,277.005118 941.389732,276.022029 C942.869047,274.357543 943.737188,272.014248 946.61041,271.79907 C948.784461,271.636023 950.922647,270.917284 952.164591,268.680839 C953.021271,267.138731 954.427378,268.749977 955.531042,268.389868 L955.531042,268.389868 Z M957.364957,284.16392 C956.671312,285.523135 957.130288,286.98835 957.404562,288.406956 C959.05058,296.922347 959.603571,305.506526 959.127939,314.167386 C959.052801,315.539757 959.10203,316.919646 959.101659,318.295776 C959.101289,319.897439 960.042558,320.297385 961.301408,319.798204 C965.193443,318.255932 969.296828,317.188407 972.755427,314.641382 C973.651169,313.981697 974.72902,313.49041 974.638335,312.105634 C974.455486,309.313154 976.271398,308.075352 978.433393,307.220956 C980.753068,306.304538 982.845476,305.018246 984.879772,303.596633 C985.963915,302.839217 986.285938,301.845742 985.737019,300.676727 C983.935912,296.84341 982.576013,292.666155 980.135672,289.302699 C976.186266,283.859074 970.238097,281.309042 963.77099,280.139651 C962.45847,279.902465 960.868713,279.84533 959.966679,280.982019 C959.18235,281.970607 960.148419,283.082863 960.615537,284.074458 C960.854278,284.581908 960.856129,285.085224 960.322385,285.32053 C960.041078,285.444574 959.620967,285.313013 959.283029,285.222423 C958.602709,285.040493 958.522759,283.859074 957.364957,284.16392 L957.364957,284.16392 Z M959,348.694426 C961.78937,349.459373 963.478951,348.526648 965.209181,348.692173 C970.990792,349.245052 976.339563,347.425769 981.686828,345.684557 C985.03061,344.596065 987.683353,342.616135 988.979614,339.180628 C989.337178,338.231763 989.900999,337.40526 990.635697,336.711252 C992.584606,334.870199 993.999051,332.933809 992.108482,330.215206 C991.917656,329.941206 991.794202,329.414601 991.928947,329.152988 C993.318551,326.453527 991.186721,326.042903 989.491495,325.345892 C987.178624,324.394775 984.713696,323.704146 982.579231,322.452004 C978.894447,320.29116 975.452429,320.688272 971.964493,322.679837 C971.089028,323.179793 970.113444,324.014178 969.207492,323.528861 C966.824991,322.252322 964.118425,323.596423 961.707319,322.311627 C960.552954,321.696441 959.11856,322.132964 959.250671,323.995036 C959.514515,327.72406 959.28304,331.671533 960.76561,335.055994 C962.286195,338.526782 961.703555,341.824914 961.633172,345.247659 C961.603061,346.720501 961.176996,347.89307 959,348.694426 L959,348.694426 Z M986,319.659354 C987.202998,320.747786 988.395615,320.830188 989.528741,320.97646 C990.18474,321.061178 990.892245,320.939065 990.990865,320.248412 C991.085891,319.579269 990.422305,319.332064 989.803837,319.189432 C988.565304,318.903508 987.340347,318.856185 986,319.659354 L986,319.659354 Z M855.900991,282.678311 C856.713575,280.856955 855.406293,279.238216 857.010617,277.806284 C858.426218,279.104364 858.670031,280.820917 858.933572,282.564315 C859.798641,288.283955 859.747645,294.043309 859.813158,299.801559 C859.835492,301.756033 859.997785,303.713816 860.201769,305.659097 C860.295572,306.550837 860.436276,307.435222 859.663892,308.030942 C857.982145,309.328653 858.265041,310.939301 858.601912,312.699247 C858.992012,314.73793 859.132344,316.82258 859.407052,318.883694 C859.628158,320.542515 859.592796,322.2929 861.975458,322.651066 C862.891895,322.788964 863.079501,323.857214 862.973414,324.786462 C862.569914,328.324004 863.131613,331.931783 862.853183,335.359742 C862.621282,338.211104 862.588898,341.668849 860.261698,344.2161 C858.337255,346.322813 858.411329,346.382017 860.728478,348.276919 C861.00542,348.503439 861.224665,348.799093 861.625187,349.228599 C860.310089,350.35642 859.110382,350.204181 858.12806,349.054664 C857.339671,348.131667 856.713947,347.039147 856.184632,345.942583 C855.482973,344.487851 855.018427,342.941555 852.888511,343.020249 C851.777396,343.061067 851.527255,342.140276 851.431219,341.23493 C851.143483,338.510434 850.081503,336.052174 848.766032,333.684006 C847.40366,331.230893 847.63035,328.441677 847.067534,325.820881 C846.415382,322.782713 845.696972,321.928849 842.598134,322.59554 C838.655072,323.443888 834.758911,323.460803 830.776392,323.275468 C827.760934,323.135364 827.200351,323.855743 826.821046,326.858977 C826.481569,329.544493 826.437274,332.229275 826.735804,334.923249 C826.93011,336.675472 826.366549,337.624578 824.409721,336.831021 C823.058144,336.282371 822.610348,336.921482 822.486767,338.137191 C822.438376,338.617443 822.305489,339.104315 822.123467,339.553311 C821.556929,340.952883 818.978845,343.064376 818.050124,342.932362 C816.90253,342.769459 814.544807,339.714008 814.430532,338.250451 C814.234737,335.745121 815.268055,333.440202 815.627632,331.025701 C815.732602,330.320767 816.173326,329.633116 815.660389,328.697248 C814.169596,328.893615 814.155824,330.219642 813.690905,331.2217 C813.148562,332.390707 812.804246,334.384895 811.232307,333.947299 C809.260962,333.398649 810.124915,331.427628 810.630407,330.180295 C811.917588,327.003126 812.803874,323.664892 814.487483,320.64364 C814.84371,320.004529 815.265822,319.338206 815.379725,318.639891 C816.40411,312.355054 818.822879,306.391611 819.60494,300.034699 C820.004346,296.784352 820.862715,293.53805 821.929906,290.429279 C823.977187,284.467307 825.147859,278.377366 825.619106,272.118637 C825.751993,270.354279 825.639206,268.334717 828.153639,267.799673 C828.735811,267.675749 829.067843,266.903888 828.994885,266.277647 C828.506888,262.094743 830.289883,258.50388 832.032678,254.925888 C832.952837,253.037238 833.931809,251.222868 833.724848,249.024223 C833.669013,248.432549 833.780311,247.734969 834.455541,247.465792 C835.137844,247.193306 835.677954,247.587878 835.992118,248.142044 C837.178052,250.233312 838.123151,248.99554 839.002365,247.91773 C839.619899,247.160946 840.065462,246.269206 840.658057,245.489991 C840.961799,245.091006 841.483297,244.908981 841.995117,245.044304 C842.700126,245.230742 843.032902,245.823152 842.871725,246.450496 C842.063608,249.596408 843.408857,251.970091 845.039981,254.600816 C846.258299,256.565586 846.290684,259.284199 846.702745,261.691713 C847.097312,263.999941 847.364203,266.125408 849.737187,267.632357 C850.898554,268.369651 851.589418,270.275953 851.906933,271.774444 C852.688621,275.462754 853.863388,278.964627 855.900991,282.678311 L855.900991,282.678311 Z M843.987587,309.539861 C843.419711,301.830195 841.895922,295.2816 840.851704,288.654474 C840.466539,286.207205 839.041823,284.066925 837.826381,281.919131 C837.58157,281.487017 837.35004,280.977122 836.811599,281.000794 C836.120958,281.031606 835.798252,281.62379 835.668308,282.232507 C835.280271,284.051895 834.989513,285.894204 834.597169,287.712465 C833.04897,294.886686 832.172746,302.20294 830.301124,309.313659 C829.496692,312.370396 830.244049,313.167364 833.270449,312.972349 C835.883326,312.804389 838.505536,312.617264 841.091849,312.215962 C843.787646,311.797751 844.072302,311.288983 843.987587,309.539861 L843.987587,309.539861 Z M855.777851,286 C854.247536,289.392226 855.238846,292.70053 856.490714,296 C856.773749,292.649133 857.7935,289.273771 855.777851,286 L855.777851,286 Z M840,315.296113 C841.372578,315.458457 842.422587,315.655562 844,315.177406 C842.371655,314.819807 841.349326,315.077929 840,315.296113 L840,315.296113 Z M1024.61398,265.89435 C1024.65532,263.450496 1026.0466,262.569808 1028.26917,261.664758 C1033.21081,259.652389 1038.26319,258.3631 1043.51417,257.686159 C1048.51487,257.041699 1053.5403,256.944624 1058.57238,257.023244 C1059.17666,257.03284 1059.80087,257.12364 1060.37673,257.301919 C1061.01939,257.500867 1061.33944,258.033119 1061.31138,258.719288 C1061.28185,259.433509 1060.85033,259.808522 1060.18551,259.958748 C1059.24163,260.171353 1058.15341,259.883819 1057.36973,260.612805 C1056.8463,261.099656 1056.19145,261.640397 1056.23907,262.426963 C1056.29554,263.350468 1057.25161,263.370031 1057.87287,263.661256 C1058.99246,264.186125 1060.02383,263.68857 1061.05298,263.251547 C1061.81008,262.929687 1062.65024,262.281535 1063.30251,263.365232 C1063.80269,264.195722 1063.19213,264.706935 1062.62219,265.211872 C1062.14415,265.634868 1061.73257,266.160107 1062.28849,266.768026 C1062.81045,267.339033 1063.49889,267.605159 1064.29253,267.353059 C1066.14671,266.764335 1067.92964,266.006559 1069.71922,264.870449 C1070.37554,266.333218 1069.83734,267.099114 1068.56197,267.361918 C1066.99978,267.684517 1065.41028,267.891586 1063.8241,268.076139 C1062.44537,268.236331 1061.08215,268.229318 1061.05262,270.218065 C1061.03527,271.374844 1060.19659,271.801162 1059.05521,271.932195 C1055.40297,272.350393 1051.77288,272.995222 1048.11362,273.308963 C1045.02394,273.573981 1042.18269,274.806059 1039.14986,275.256369 C1037.89184,275.442768 1037.3481,276.37144 1037.45626,277.692472 C1037.95939,283.851015 1037.52344,289.970432 1036.77668,296.090219 C1036.60466,297.501313 1037.00259,298.982538 1037.16759,300.743915 C1042.46324,299.656157 1047.7072,298.632256 1052.92458,297.489502 C1056.61522,296.681159 1057.98029,297.632346 1057.6691,301.464041 C1057.56648,302.72454 1057.86918,302.98476 1058.84591,303.114317 C1060.13346,303.284844 1061.11685,304.074732 1062.07143,304.820327 C1063.60077,306.014756 1063.33056,307.453533 1061.53729,308.108328 C1061.19436,308.233456 1060.82375,308.323887 1060.46089,308.345295 C1052.74924,308.798189 1045.22881,310.784351 1037.50868,311.197381 C1034.5338,311.356835 1034.46366,311.653966 1033.87563,314.697988 C1033.01369,319.157533 1031.99155,323.583121 1030.73685,327.958141 C1029.72173,331.496396 1028.86607,335.085219 1028.08313,338.6829 C1027.59919,340.908244 1028.05803,341.367043 1030.35037,341.007903 C1032.9454,340.601147 1035.84756,340.826302 1037.28424,337.737619 C1037.90882,336.395547 1039.34735,336.351623 1040.51936,336.920048 C1042.97634,338.111893 1045.34472,337.62947 1047.6533,336.707073 C1051.43401,335.195951 1055.52589,334.832381 1059.31619,333.327164 C1062.05372,332.240146 1064.58673,333.825827 1067.07657,334.676618 C1068.20945,335.063442 1068.14817,336.324679 1067.01418,336.964709 C1065.34716,337.9063 1064.35787,339.297094 1063.34533,341.239702 C1065.32833,341.346004 1066.64246,340.883514 1067.81115,339.909442 C1068.21203,339.575769 1068.66016,339.355413 1069.10202,339.785053 C1069.63063,340.298849 1069.61918,341.069913 1069.14189,341.429791 C1066.44239,343.463569 1064.14414,346.257336 1060.38558,346.412361 C1058.47013,346.49098 1056.64143,346.574029 1056.17742,349.023051 C1055.94745,350.236674 1054.7902,350.376565 1053.8633,350.519409 C1047.06342,351.567303 1040.42892,353.368543 1033.72391,354.847553 C1031.81178,355.269442 1030.07905,355.173474 1028.68704,353.52652 C1027.93252,352.634021 1026.84467,352.597479 1026.03921,353.306902 C1024.80334,354.394659 1023.14259,354.523477 1021.83696,355.519696 C1020.55753,356.495614 1019.52763,355.934941 1019.24377,354.285404 C1018.71627,351.219604 1019.14558,348.160449 1019.5819,345.112737 C1019.87758,343.045371 1020.70629,340.857307 1020.31242,338.923558 C1018.98869,332.428021 1022.49476,326.1115 1020.74689,319.658411 C1020.55679,318.95637 1020.61585,317.998908 1021.22493,317.586246 C1023.18541,316.256356 1022.88604,314.198587 1023.20424,312.299533 C1024.22823,306.19082 1023.69667,300.023049 1023.93329,293.885915 C1024.04661,290.943766 1024.2046,288.047018 1024.65052,285.116312 C1025.3947,280.224912 1024.14997,275.322808 1024.12228,270.412953 C1024.11379,268.908105 1023.3124,267.264843 1024.6221,265.888076 C1026.99159,265.473569 1026.26365,268.656006 1028.08866,268.86898 C1028.6612,268.730934 1028.80073,268.250357 1028.87493,267.780854 C1029.01926,266.861779 1029.67891,265.820529 1028.96426,265.033963 C1028.11783,264.102707 1027.22451,265.272037 1026.3264,265.360253 C1025.7439,265.417834 1025.18392,265.708321 1024.61398,265.89435 L1024.61398,265.89435 Z M1024.31927,350.002743 C1023.77422,350.245467 1023.17819,350.53332 1023.00171,351.264124 C1022.96634,351.410898 1023.48857,351.88627 1023.80008,351.964258 C1024.584,352.160541 1024.89513,351.518678 1024.9906,350.765968 C1025.04994,350.295414 1024.82857,349.966378 1024.31927,350.002743 L1024.31927,350.002743 Z M892.269439,268.935969 C893.702636,268.240799 894.940721,267.711689 896.102034,267.05113 C896.812079,266.647209 897.4843,266.452797 898.208201,266.82137 C901.095193,268.291979 904.549173,268.175995 907.30921,270.005972 C909.479042,271.444915 911.918136,271.661052 914.464711,271.543226 C915.76309,271.482841 917.414993,271.046518 918.060999,272.700861 C918.690902,274.313966 916.942753,274.892784 915.910641,275.966468 C919.651485,279.088844 921.644554,283.219731 924.102748,287.022917 C927.56534,292.380294 926.200676,298.288506 920.72554,301.583201 C919.426787,302.364899 918.148257,303.115669 917.284294,304.337371 C916.033101,306.107699 913.809717,306.142679 912.173917,307.242874 C911.065034,307.989225 910.764688,308.313245 911.351149,309.760289 C912.737534,313.179806 914.363597,316.467505 915.96382,319.786133 C919.258638,326.618538 922.497657,333.491078 923.920742,341.012025 C924.254419,342.778303 924.679097,344.535376 921.966621,344.776918 C921.37604,344.829203 921.382032,345.301978 921.267436,345.823724 C920.794073,347.979562 920.104251,348.392319 918.527247,347.152206 C915.745863,344.965439 912.634173,343.162709 910.842957,339.817938 C909.773021,337.820428 907.893799,336.207323 906.233657,334.562553 C905.108295,333.44763 904.563029,332.180637 904.29077,330.6953 C903.319327,325.388735 901.841564,320.216564 899.929386,315.164429 C899.799436,314.820526 899.675103,314.447534 899.44329,314.17359 C898.77032,313.377163 900.245461,311.347619 897.938938,311.534667 C894.966561,311.775841 893.956545,312.711081 893.838953,315.165165 C893.709003,317.872574 893.845694,320.584769 894.416052,323.221482 C895.506959,328.263677 894.854961,333.284883 893.991747,338.197469 C893.313535,342.060304 892.847661,345.915407 892.477659,349.801438 C892.409875,350.519437 892.29116,351.297454 891.946249,351.912355 C891.129098,353.369341 889.506405,353.3594 888.736066,351.901309 C888.280679,351.038606 887.972468,350.082378 887.726799,349.135724 C887.313729,347.544712 886.835123,346.143325 884.903097,345.676442 C884.084448,345.478716 883.620447,344.738256 883.634678,343.6793 C883.735792,336.095757 883.429828,328.519947 883.019755,320.948555 C882.844865,317.721978 883.878475,314.646365 884.256716,311.487169 C884.958148,305.634188 884.4361,299.728554 885.113189,293.891774 C885.604903,289.650425 885.061883,285.344272 886.266263,281.135325 C886.876692,279.001211 885.712009,276.797506 885.634488,274.590119 C885.575692,272.918102 884.910587,271.130469 887.609582,270.725812 C888.533089,270.587735 888.474668,269.378183 888.639446,268.536099 C888.840176,267.511754 888.691876,266.024943 890.177503,266.000274 C891.678109,265.975604 891.352298,267.625529 891.881086,268.507011 C891.942878,268.610844 892.045116,268.691113 892.269439,268.935969 L892.269439,268.935969 Z M895.008681,295.104401 C895.008681,298.159414 895.009806,301.214426 895.008305,304.269439 C895.008305,304.868252 894.892366,305.515161 895.526842,305.902499 C896.333538,306.39484 900.505094,304.912309 900.639793,303.922487 C901.007496,301.21002 903.060256,300.345394 905.239461,299.735199 C907.99686,298.963461 910.824798,298.432202 913.621594,297.795573 C914.713448,297.547016 915.833817,297.379231 916.88815,297.024569 C918.77019,296.392345 919.125511,294.825738 918.966048,293.155229 C918.781446,291.22111 917.35078,291.825797 916.126479,291.930801 C914.948327,292.031766 913.757419,291.611752 913.165342,290.671861 C912.107632,288.99254 910.406817,288.633473 908.734893,288.225942 C906.291918,287.630433 903.99002,286.732764 901.725268,285.674652 C900.383151,285.047569 898.958114,284.543111 897.519568,284.172295 C895.750466,283.716301 895.220673,284.113919 895.332109,285.987092 C895.513335,289.034395 895.448424,292.067379 895.008681,295.104401 L895.008681,295.104401 Z"></path>
        </g>
    </g>
</svg>