<svg width="405" height="373" viewBox="0 0 405 373" fill="none" xmlns="http://www.w3.org/2000/svg">
<path d="M236.136 66.7692C228.237 66.7692 220.335 66.6905 212.437 66.7692C181.385 67.0786 155.214 79.0657 128.066 94.7936C118.269 100.469 108.083 106.713 97.9488 113.574M97.9488 113.574C72.6827 130.678 47.7405 151.616 29.9637 177.152M97.9488 113.574C100.609 103.487 104.222 93.7262 109.648 84.3488C115.484 74.2636 122.216 64.4988 129.262 55.1393M97.9488 113.574C95.1071 124.348 93.3526 135.495 91.6368 146.944C89.4665 161.426 86.8877 175.854 81.9539 189.459C78.3594 199.37 76.4691 208.445 76.4691 219.028C76.4691 239.66 88.5007 259.309 94.7516 278.607C97.4527 286.946 100.93 296.375 104.502 304.352C108.335 312.909 110.807 322.866 116.691 330.169C123.116 338.146 129.892 341.212 139.239 344.145C148.279 346.982 157.312 349.077 166.441 350.49M29.9637 177.152C17.8596 194.538 9.07745 214.056 5.77689 235.945C3.18691 253.122 2.12039 270.194 2.12039 287.581C2.12039 301.052 1.40141 310.161 11.3293 319.651C20.7289 328.636 31.1414 336.441 40.175 345.836C47.5268 353.483 57.5668 361.854 67.5987 364.667C77.3492 367.4 85.4077 368.638 95.4287 368.638C102.929 368.638 112.693 370.412 119.941 368.05C129.21 365.029 137.396 359.437 146.542 355.721M29.9637 177.152C29.8898 167.211 30.2242 157.148 32.7943 147.9C37.6605 130.39 43.6764 119.166 55.749 106.489C72.7418 88.6453 93.8965 74.5156 114.93 63.0914C119.727 60.4858 124.5 57.8241 129.262 55.1393M29.9637 177.152C30.0025 182.363 30.1535 187.54 30.1535 192.548C30.1535 212.246 39.8427 228.445 48.436 245.213C55.3325 258.67 60.9189 272.915 67.9373 286.257C75.3471 300.343 88.3271 310.822 99.1529 321.71C113.212 335.851 129.221 347.443 146.542 355.721M146.542 355.721C148.759 354.82 151.032 354.029 153.391 353.413C157.752 352.272 162.099 351.307 166.441 350.49M146.542 355.721C164.935 364.51 184.807 369.563 205.394 369.962C221.234 370.27 241.465 373.492 256.314 366.579C273.065 358.781 290.645 353.522 308.318 348.779C308.952 348.608 309.58 348.428 310.202 348.236M166.441 350.49C186.353 346.745 206.153 346.131 226.656 346.131C233.525 346.131 240.482 345.926 247.465 345.734M166.441 350.49C175.81 351.94 185.28 352.672 194.967 352.751C213.492 352.901 229.237 350.916 247.106 345.836C247.225 345.802 247.345 345.768 247.465 345.734M247.465 345.734C261.307 345.354 275.251 345.021 288.817 346.425C296.02 347.17 303.099 347.812 310.202 348.236M247.465 345.734C265.935 340.487 284.391 335.462 303.036 330.905C327.429 324.943 340.758 302.937 348.269 278.46C356.948 250.175 362.242 218.331 359.092 188.266M310.202 348.236C315.921 348.578 321.655 348.779 327.481 348.779C337.094 348.779 348.818 350.786 358.019 347.455C368.433 343.684 379.57 329.663 384.766 319.504C389.412 310.419 390.834 299.626 392.147 289.493C393.653 277.868 395.888 266.435 397.564 254.849C400.191 236.688 403.326 218.371 401.626 199.904C400.247 184.925 397.015 169.584 389.438 156.8C384.47 148.419 377.261 141.453 371.494 133.704C364.603 124.446 358.162 115.024 351.925 105.238C337.33 82.3379 318.31 63.235 296.604 48.454C278.245 35.9528 260.033 22.4562 239.793 13.8097L239.351 13.6209C219.963 5.33748 199.587 -3.3677 179.122 6.15994C163.084 13.6264 151.001 27.7619 139.713 41.7605C136.2 46.1174 132.694 50.5803 129.262 55.1393M310.202 348.236C340.382 338.954 355.825 305.234 363.572 274.635C367.78 258.011 372.377 238.951 371.156 221.529C370.311 209.488 365.373 198.415 359.092 188.266M129.262 55.1393C141.536 48.2189 153.74 41.1445 166.121 34.4786C178.758 27.6745 189.654 24.9634 203.634 26.0198C221.135 27.3422 238.865 35.8136 254.419 44.2614C268.643 51.9872 278.662 64.1234 289.765 76.1842C307.007 94.9143 326.207 110.775 340.414 132.674C351.273 149.413 357.016 168.453 359.092 188.266M359.092 188.266C354.657 181.098 349.552 174.391 344.748 168.128C327.501 145.647 306.871 124.416 292.947 99.2069C285.331 85.4184 279.209 70.1655 266.878 60.4435C245.386 43.4989 214.485 54.8533 189.82 54.8533" stroke="#A5D718" stroke-width="4" stroke-linecap="round"/>
</svg>
