<svg width="404" height="429" viewBox="0 0 404 429" fill="none" xmlns="http://www.w3.org/2000/svg">
<path d="M339.694 118.224C333.866 111.893 328.089 105.502 322.208 99.2298C299.088 74.5719 271.638 62.4412 240.927 52.2878C229.843 48.6236 218.087 45.0663 205.951 42.0059M205.951 42.0059C175.693 34.3758 143.069 29.8344 112.61 34.4269M205.951 42.0059C214.764 36.6961 224.06 32.3905 234.432 29.8208C245.587 27.057 257.186 25.2481 268.741 23.9893M205.951 42.0059C196.536 47.6778 187.671 54.4955 178.629 61.5677C167.191 70.5132 155.49 79.0909 142.609 85.1743C133.225 89.6062 125.667 94.7863 118.479 102.594C104.466 117.817 99.9976 141.956 91.5022 161.204C87.8311 169.521 83.9927 179.265 81.2108 188.013C78.2263 197.397 73.2881 206.725 72.668 216.829C71.9908 227.863 74.9081 235.556 79.812 245.211C84.555 254.55 89.7961 263.335 95.5721 271.694M112.61 34.4269C91.871 37.5539 72.1352 44.9155 54.833 58.4201C41.2558 69.0172 28.8736 80.7582 17.0647 93.5859C7.91513 103.525 1.19835 109.669 2.07732 124.627C2.90951 138.79 5.29078 152.893 5.57438 167.065C5.80519 178.598 7.52667 192.821 13.0181 202.936C18.3555 212.767 23.4597 220.14 30.8531 228.171C36.3869 234.182 42.3861 243.316 49.3376 247.382C58.2284 252.582 68.066 255.016 77.3381 259.605M112.61 34.4269C119.307 27.0339 126.389 19.8774 134.566 15.1141C150.049 6.09538 162.111 2.63547 179.628 2.95799C204.284 3.41195 229.489 9.94153 252.767 18.3702C258.076 20.2926 263.405 22.1537 268.741 23.9893M112.61 34.4269C109.1 38.3027 105.695 42.2434 102.293 45.9384C88.9142 60.4716 85.0604 80.1886 80.0118 99.4469C75.9601 114.902 70.4067 129.889 66.5231 145.358C62.423 161.689 64.8824 179.823 65.474 196.533C66.2424 218.233 70.1807 239.616 77.3381 259.605M77.3381 259.605C79.5853 260.717 81.7993 261.956 83.9585 263.391C87.9507 266.045 91.8139 268.817 95.5721 271.694M77.3381 259.605C84.9382 280.831 96.1679 300.485 111.086 317.279C122.564 330.201 135.301 348.792 150.952 355.593C168.607 363.264 185.149 373.473 201.41 384.138C201.993 384.521 202.58 384.891 203.168 385.248M95.5721 271.694C112.806 284.889 127.831 300.304 142.959 316.737C148.027 322.242 153.298 327.667 158.581 333.121M95.5721 271.694C101.499 280.272 107.989 288.402 115.082 296.223C128.648 311.181 141.613 322.335 158.246 332.909C158.358 332.98 158.469 333.05 158.581 333.121M158.581 333.121C169.052 343.934 179.565 354.864 188.621 366.772C193.429 373.095 198.216 379.242 203.168 385.248M158.581 333.121C175.771 344.052 192.802 355.137 209.653 366.718C231.699 381.869 256.479 376.315 278.645 364.276C304.259 350.363 329.794 331.112 347.89 306.406M203.168 385.248C207.156 390.083 211.25 394.827 215.548 399.496C222.641 407.201 229.926 418.078 238.978 422.994C249.222 428.558 266.962 427.139 277.696 423.808C287.295 420.829 295.674 414.005 303.524 407.582C312.531 400.212 321.945 393.567 331.051 386.363C345.324 375.069 360.078 364.068 371.367 349.081C380.523 336.924 388.557 323.015 391.65 307.511C393.677 297.346 393.09 286.429 394.098 276.09C395.302 263.737 396.949 251.623 398.994 239.405C403.78 210.812 402.721 181.474 396.746 153.172C391.692 129.236 387.422 104.682 378.361 82.081L378.163 81.5876C369.485 59.9377 360.365 37.1854 338.794 27.8128C321.89 20.4679 303.375 21.213 285.539 22.4946C279.988 22.8934 274.37 23.3761 268.741 23.9893M203.168 385.248C231.739 402.587 266.036 390.086 292.533 373.718C306.93 364.826 323.267 354.448 334.198 340.615C341.753 331.054 345.63 318.927 347.89 306.406M268.741 23.9893C282.498 28.7206 296.307 33.2823 309.969 38.2866C323.913 43.3947 333.794 50.1269 343.39 62.1103C355.404 77.1119 362.732 97.572 368.469 116.27C373.717 133.37 372.866 150.354 372.866 168.15C372.866 195.788 376.259 222.878 371.867 250.421C368.509 271.473 359.815 290.124 347.89 306.406M347.89 306.406C349.486 297.563 350.275 288.523 350.984 280.051C353.529 249.643 352.728 217.445 359.577 187.687C363.323 171.41 369.165 155.25 366.671 138.194C362.323 108.468 331.813 92.0799 313.615 72.3128" stroke="#A5D718" stroke-width="4" stroke-linecap="round"/>
</svg>
