<svg xmlns="http://www.w3.org/2000/svg" width="348" height="107" viewBox="0 0 348 107" version="1.1"><g stroke="none" stroke-width="1" fill="none" fill-rule="evenodd"><g transform="translate(-220.000000, -2420.000000)" fill="#3778FF"><g transform="translate(-189.000000, 219.000000)"><path d="M412.12 2209.06C411.78 2207.65 411 2206.45 410.38 2205.17 410.2 2204.79 409.96 2204.44 409.82 2204.05 409.61 2203.45 409.92 2203.01 410.38 2202.66 410.86 2202.29 411.36 2202.26 411.86 2202.65 412.9 2203.47 413.87 2204.41 414.52 2205.53 415.06 2206.46 415.77 2207.3 416.2 2208.26 416.89 2209.83 418.3 2210.62 419.6 2212.12 419.27 2210.14 418.4 2208.82 417.81 2207.42 417.31 2206.23 417.15 2204.99 417.06 2203.75 416.99 2202.72 417.79 2201.82 418.68 2201.67 419.5 2201.54 420.13 2201.91 420.56 2202.99 422.33 2207.5 424.88 2211.63 426.76 2216.08 426.88 2216.35 427.01 2216.64 427.21 2216.85 428.87 2218.68 429.33 2221.08 430.31 2223.23 431.56 2225.95 432.75 2228.72 434.82 2230.92 435.85 2232.01 435.9 2233.42 436.38 2234.66 437.73 2238.17 438.87 2241.76 440.05 2245.33 440.44 2246.53 440.79 2247.75 441.57 2248.75 442.33 2249.74 442.5 2250.83 442.14 2251.97 441.92 2252.69 442.12 2253.24 442.47 2253.83 443.72 2255.93 444.61 2258.22 445.48 2260.5 446.82 2264.01 448.29 2267.48 449.24 2271.13 449.4 2271.75 449.76 2272.33 450.07 2272.91 450.55 2273.81 451.01 2274.72 451.18 2275.74 451.21 2275.98 451.21 2276.27 451.35 2276.43 452.82 2278.02 452.68 2280.19 453.38 2282.06 454.39 2284.76 455.51 2286.85 456.99 2288.32 457.95 2287.07 458.63 2285.66 458.86 2284.17 459.07 2282.83 459.55 2281.63 460.1 2280.46 461.73 2277 463.4 2273.56 465.13 2270.15 466.1 2268.24 467.3 2266.44 468.27 2264.52 470.23 2260.63 472.76 2257.09 475.13 2253.45 475.64 2252.67 475.86 2251.85 476.04 2250.97 476.37 2249.31 476.64 2249.21 478.18 2249.83 478.45 2249.94 478.74 2250.07 479.03 2250.07 480.04 2250.1 480.57 2250.72 480.78 2251.58 481.03 2252.63 481.83 2253.3 482.31 2254.19 482.51 2254.57 482.88 2254.83 483.36 2254.65 483.6 2254.55 484.03 2254.48 483.74 2254.07 482.98 2252.97 483.77 2251.88 483.9 2250.86 484.06 2249.67 485.43 2249.62 486.41 2250.68 488.12 2252.54 489.5 2254.63 490.66 2256.88 491.72 2258.94 492.88 2260.95 493.9 2263.04 495.29 2265.86 496.54 2268.76 497.94 2271.58 499.86 2275.43 501.26 2279.51 503.34 2283.28 503.45 2283.49 503.54 2283.72 503.67 2283.91 504.06 2284.44 504.37 2284.26 504.57 2283.76 504.69 2283.43 504.71 2283.06 504.79 2282.72 505.47 2280.05 506 2277.35 507.16 2274.83 507.58 2273.93 507.87 2273.01 509.26 2272.98 509.94 2272.97 510.37 2271.87 510.42 2271.19 510.62 2268.55 512.37 2266.45 512.79 2263.89 512.9 2263.21 513.18 2262.52 513.37 2261.83 513.86 2260.06 514.29 2258.3 515.27 2256.67 516.11 2255.26 516.68 2253.63 517.06 2252.03 517.54 2250 518.79 2248.2 518.76 2246.03 520.94 2241.72 521.88 2236.94 523.83 2232.53 524.88 2230.16 525.91 2227.71 526.35 2225.1 526.67 2223.19 527.7 2221.53 528.23 2219.69 528.78 2217.8 529.41 2215.94 530.12 2214.1 530.59 2212.89 530.78 2211.56 531.01 2210.27 531.43 2207.83 532.8 2205.72 533.43 2203.34 533.62 2202.62 534.29 2202.21 534.96 2201.91 535.9 2201.49 536.69 2201.84 537.12 2202.83 537.47 2203.65 537.81 2204.48 538.14 2205.31 538.49 2206.19 539.14 2206.09 539.89 2205.94 540.66 2205.8 540.56 2205.27 540.59 2204.74 540.66 2203.51 540.99 2203.08 541.9 2203.03 543.04 2202.98 543.54 2203.43 543.57 2204.59 543.59 2205 543.52 2205.42 543.49 2205.84 543.43 2206.53 543.55 2207.21 544.2 2207.55 545.28 2208.11 545.26 2209.02 545.14 2210 544.96 2211.63 544.31 2213.2 543.42 2214.44 540.85 2218 539.05 2221.94 537.3 2225.89 535.85 2229.15 534.24 2232.36 533.38 2235.88 533.11 2237.02 532.48 2238.07 532.53 2239.3 532.55 2239.7 532.33 2240.04 532.01 2240.18 530.72 2240.75 530.55 2242.04 530.16 2243.11 529.63 2244.61 529.39 2246.21 528.41 2247.54 528.06 2248.01 528.35 2248.62 528.59 2249.08 529.02 2249.91 528.86 2250.63 528.59 2251.48 527.83 2253.87 526.84 2256.18 526.03 2258.55 524.5 2263.06 522.78 2267.5 520.98 2271.91 520.26 2273.66 519.25 2275.3 518.47 2277.05 517.38 2279.49 516.71 2282.06 515.94 2284.6 515.18 2287.11 514.52 2289.65 513.77 2292.16 512.99 2294.78 512.21 2297.41 511.53 2300.07 511.33 2300.84 511.34 2301.72 510.47 2302.23 510.05 2302.47 510.09 2303.08 509.96 2303.54 509.76 2304.27 509.4 2304.93 508.6 2305.03 507.82 2305.12 507.19 2304.63 506.92 2303.93 506.65 2303.24 506.29 2302.83 505.51 2302.79 505.23 2302.78 504.87 2302.65 504.71 2302.45 503.57 2301.02 501.82 2300.86 500.3 2300.24 499.78 2300.03 499.34 2299.83 499.04 2299.32 497.3 2296.35 495.42 2293.46 493.78 2290.43 493.05 2289.09 492.63 2287.35 490.96 2286.64 490.68 2286.52 490.65 2286.15 490.52 2285.89 489.62 2284.08 488.98 2282.16 487.98 2280.4 486.57 2277.94 485.93 2275.19 485.02 2272.54 484.53 2271.1 484.13 2269.61 483.1 2268.28 481.02 2270.42 479.57 2272.79 478.25 2275.26 477.38 2276.89 476.39 2278.46 475.45 2280.05 474.04 2282.47 472.39 2284.73 471.08 2287.22 470.72 2287.88 470.13 2288.43 469.62 2289.01 467.32 2291.65 465.89 2294.8 464.35 2297.89 463.34 2299.91 462.31 2301.93 461.45 2304.03 461.29 2304.44 460.99 2304.7 460.65 2304.96 459.33 2305.95 458.92 2305.8 458.6 2303.99 457.14 2304.71 455.37 2304.21 454.04 2305.43 453.59 2305.85 453.07 2305.64 452.63 2305.18 452.06 2304.59 451.75 2303.89 451.55 2303.14 451.09 2301.39 449.99 2300.21 448.35 2299.53 447.82 2299.31 447.52 2299.04 447.22 2298.52 446.02 2296.44 445.14 2294.24 444.44 2291.95 443.53 2288.92 442.29 2286 440.83 2283.21 439.52 2280.7 438.73 2278.02 437.66 2275.44 436 2271.47 434.52 2267.44 432.97 2263.44 432.6 2262.49 432.26 2261.53 431.92 2260.57 429.53 2253.89 427.46 2247.07 424.42 2240.63 423.01 2237.67 421.85 2234.59 420.39 2231.66 418.64 2228.14 416.91 2224.6 415.09 2221.11 413.8 2218.63 412.57 2216.1 411.64 2213.44 411.27 2212.37 410.7 2211.37 410.22 2210.34 410.13 2210.15 409.66 2207.7 409.67 2207.51 409.69 2207.09 409.65 2206.58 410.19 2206.51 410.63 2206.45 410.66 2206.96 410.83 2207.25 411.22 2207.88 411.18 2208.84 412.16 2209.02 412.11 2209.43 412 2209.87 412.65 2209.93 412.63 2209.52 412.34 2209.31 412.12 2209.06L412.12 2209.06ZM452.83 2297.01C452.53 2297.05 452.42 2297.26 452.42 2297.51 452.43 2297.89 452.58 2298.25 452.96 2298.33 453.28 2298.39 453.31 2298.06 453.3 2297.83 453.29 2297.48 453.31 2297.09 452.83 2297.01L452.83 2297.01ZM476.81 2255.49C477.06 2255.41 477.23 2255.22 477.25 2254.98 477.28 2254.74 477.07 2254.72 476.9 2254.8 476.67 2254.89 476.48 2255.05 476.55 2255.33 476.57 2255.4 476.72 2255.44 476.81 2255.49ZM725.93 2293.67C725.58 2295.12 726.42 2296.2 726.65 2297.39 726.73 2297.8 726.96 2298.17 727.04 2298.58 727.14 2299.09 726.97 2299.56 726.47 2299.77 726.04 2299.95 725.65 2299.77 725.34 2299.44 725.3 2299.4 725.24 2299.36 725.22 2299.3 724.33 2297.01 722.77 2294.99 722.34 2292.48 723.2 2292.27 723.01 2293.17 723.55 2293.26 724.11 2293 723.94 2292.48 723.83 2292.07 723.24 2289.75 722.75 2287.41 721.96 2285.16 720.37 2280.57 718.16 2276.27 715.31 2272.32 714.92 2271.78 714.61 2271.1 713.86 2270.84 713.58 2271.61 714.67 2272.17 714 2272.88 713.13 2272.26 713.13 2272.26 711.88 2269.21 711.35 2269.3 711.49 2269.72 711.48 2270.04 711.43 2273.27 711.51 2276.5 711.15 2279.71 710.99 2281.07 710.85 2282.43 710.74 2283.8 710.62 2285.43 711.12 2286.99 711.06 2288.61 711.03 2289.22 711.28 2289.83 712.3 2289.63 713.09 2289.46 713.29 2289.89 712.84 2290.73 712.38 2291.55 712.17 2292.5 712.27 2293.32 712.49 2295.08 711.36 2296.34 710.92 2297.84 710.7 2298.6 709.7 2298.96 708.93 2299.2 708.13 2299.45 707.25 2298.49 707.45 2297.41 707.7 2296.02 707.42 2294.68 707.48 2293.32 707.49 2293.05 707.55 2292.72 707.16 2292.58 706.59 2295.59 707.08 2298.6 707.08 2301.61 707.08 2301.91 707.14 2302.2 707.15 2302.5 707.15 2302.99 706.87 2303.29 706.43 2303.42 706 2303.54 705.8 2303.22 705.58 2302.92 705.3 2302.53 705.1 2302.11 705.04 2301.62 705 2301.27 704.97 2300.79 704.75 2300.61 703.85 2299.92 703.82 2299.01 703.9 2298.03 703.92 2297.79 703.89 2297.53 703.62 2297.43 703.26 2297.31 702.99 2297.55 702.91 2297.82 702.7 2298.49 702.15 2299.03 702.22 2299.82 702.27 2300.34 701.99 2300.86 701.5 2300.92 700.87 2301.01 700.67 2300.37 700.42 2299.91 700.37 2299.81 700.34 2299.67 700.36 2299.56 700.72 2297.72 700.47 2295.8 701.14 2293.99 701.92 2291.89 701.94 2289.64 701.98 2287.44 702.07 2283.19 702.02 2278.94 702.03 2274.7 702.04 2274.16 702.07 2273.62 702.14 2273.08 702.4 2271.13 702.41 2271.13 700.91 2269.51 700.53 2270.08 700.39 2270.68 700.28 2271.31 700 2272.98 699.89 2274.71 698.93 2276.2 698.81 2276.39 698.8 2276.66 698.8 2276.89 698.79 2278.32 698.8 2279.75 698.8 2281.44 699.65 2280.48 699.76 2279.49 700.31 2278.65 700.16 2279.59 700.06 2280.54 699.84 2281.46 699.65 2282.28 699.77 2283.06 699.8 2283.87 699.85 2285.29 699.8 2286.9 698.57 2288 698.14 2288.39 697.67 2288.95 697.03 2288.75 696.26 2288.52 696.24 2287.75 696.26 2287.1 696.28 2285.96 696.36 2284.83 696.49 2283.7 697.05 2278.84 698.09 2274.04 698.64 2269.18 699.08 2265.28 699.61 2261.37 699.35 2257.39 699.18 2254.84 698.98 2252.27 699.24 2249.69 699.38 2248.22 698.81 2246.76 698.81 2245.25 698.81 2243.13 699.25 2241.09 699.68 2239.05 700.13 2236.93 700.45 2234.82 700.3 2232.66 700.23 2231.69 700.36 2230.94 701.36 2230.25 702.4 2229.52 703.17 2228.46 703.26 2226.83 703.32 2225.69 703.74 2224.48 703.73 2223.26 703.73 2222.97 703.86 2222.67 703.99 2222.4 704.27 2221.78 704.75 2221.57 705.23 2222.12 705.72 2222.66 706.18 2222.88 706.93 2222.78 707.54 2222.7 707.91 2223.12 707.84 2223.81 707.78 2224.41 707.72 2225.03 708.46 2225.32 709.01 2224.96 708.87 2224.38 708.93 2223.87 708.98 2223.45 708.93 2223.02 709.01 2222.61 709.15 2221.93 709.96 2221.37 710.62 2221.48 711.42 2221.62 711.44 2222.24 711.38 2222.86 711.15 2225.07 711.23 2227.28 711.11 2229.49 710.89 2233.6 710.84 2237.73 711.1 2241.86 711.19 2243.34 711.11 2244.83 711.11 2246.48 712.01 2246.15 712.49 2245.48 712.78 2244.85 713.96 2242.29 716.03 2240.42 717.75 2238.3 721.06 2234.22 724.47 2230.22 727.9 2226.25 729.58 2224.3 731.34 2222.42 733.17 2220.62 735.4 2218.43 737.3 2215.97 739.41 2213.69 741.15 2211.8 743.01 2210.02 744.86 2208.22 745.84 2207.27 746.9 2206.39 747.92 2205.47 748.43 2205 748.99 2204.63 749.68 2205.04 750.39 2205.45 750.6 2206.1 750.38 2206.89 750.33 2207.06 750.28 2207.24 750.22 2207.4 750.1 2207.72 750.16 2208 750.42 2208.21 750.74 2208.47 751.07 2208.39 751.42 2208.23 751.82 2208.05 752.09 2207.74 752.34 2207.4 752.71 2206.93 753.06 2206.45 753.47 2206.01 754.32 2205.09 754.82 2205.04 755.57 2205.74 756.4 2206.51 756.62 2207.58 755.86 2208.24 754.46 2209.47 754.8 2211.2 754.41 2212.7 754.29 2213.18 754.44 2213.74 754.05 2214.18 753.97 2214.27 753.85 2214.37 753.84 2214.47 753.68 2217.22 751.56 2218.83 750.07 2220.75 747.22 2224.43 744.16 2227.95 741.12 2231.49 740.03 2232.75 738.61 2233.74 737.75 2235.18 736.55 2237.19 735.02 2238.94 733.53 2240.72 732.27 2242.22 730.88 2243.63 729.65 2245.14 728.1 2247.03 726.52 2248.91 725.07 2250.88 724.29 2251.93 723.23 2252.76 722.58 2253.93 721.97 2255.04 721.65 2256.05 722.35 2257.29 722.97 2258.37 723.33 2259.59 723.84 2260.74 724.03 2261.17 724.22 2261.65 724.55 2261.98 726.83 2264.28 727.45 2267.37 728.64 2270.2 729.61 2272.48 730.38 2274.91 732.13 2276.8 732.72 2277.45 733.01 2278.24 733.14 2279.07 733.39 2280.61 734.07 2281.97 734.63 2283.41 735.5 2285.6 736.78 2287.54 737.76 2289.64 738.12 2290.4 738.57 2291.11 739.02 2291.82 739.4 2292.42 739.39 2293.06 739.32 2293.72 739.27 2294.17 739.18 2294.59 738.63 2294.59 737.82 2294.59 737.67 2295.01 737.68 2295.74 737.69 2296.44 737.07 2296.74 736.49 2296.9 735.88 2297.06 735.68 2296.52 735.47 2296.1 735.12 2295.4 734.78 2294.7 734.44 2294.01 734.25 2293.64 734.09 2293.24 733.84 2292.91 733.37 2292.31 732.74 2292.43 732.25 2292.8 731.74 2293.18 731.99 2293.78 732.36 2294.04 733.82 2295.08 733.75 2296.87 734.52 2298.23 734.73 2298.6 734.56 2298.9 734.35 2299.22 733.81 2300.02 732.91 2300.25 732.12 2300.66 731.71 2300.87 731.43 2300.51 731.21 2300.26 729.72 2298.57 727.97 2297.07 727.04 2294.94 726.83 2294.44 726.5 2294.04 725.93 2293.67ZM728.65 2227.11C727.27 2227.64 726.85 2229.03 725.98 2230.02 724.07 2232.21 724.08 2232.22 723.94 2233.49 725.77 2231.39 727.64 2229.6 728.65 2227.11L728.65 2227.11ZM735.03 2227.41C734.46 2227.94 733.4 2228.14 733.46 2229.4 734.43 2228.99 734.48 2228 735.03 2227.41L735.03 2227.41ZM698.55 2283.15C698.72 2283.07 698.8 2282.93 698.78 2282.75 698.75 2282.54 698.59 2282.46 698.44 2282.61 698.34 2282.7 698.31 2282.89 698.28 2283.04 698.28 2283.06 698.45 2283.11 698.55 2283.15ZM607.84 2260.6C607.84 2261.82 607.77 2263.91 607.86 2265.99 607.99 2268.97 607.98 2271.95 608.49 2274.91 608.72 2276.25 608.66 2277.63 608.41 2279.01 607.82 2282.22 607.34 2285.46 606.87 2288.69 606.7 2289.83 606.32 2290.91 605.84 2291.92 605.05 2293.59 604.32 2295.25 603.81 2297.05 603.48 2298.23 602.56 2299.24 601.64 2300.05 600.15 2301.36 598.7 2302.68 597.31 2304.08 595.72 2305.67 593.77 2306.69 591.64 2307.37 590.94 2307.59 590.14 2307.74 589.52 2307.47 587.63 2306.63 585.78 2307.05 583.95 2307.48 582.5 2307.82 581.15 2308.04 579.82 2307.14 579.3 2306.79 578.65 2306.96 578.06 2307.01 575.34 2307.21 573.4 2305.8 572.19 2303.65 571.22 2301.94 570.05 2300.35 569.22 2298.56 568.95 2297.96 568.75 2297.36 568.58 2296.71 567.08 2290.81 566.02 2284.81 564.74 2278.86 564.6 2278.23 564.36 2277.6 564.1 2277 562.56 2273.48 562.36 2269.72 562.02 2265.98 561.75 2263.06 561.32 2260.16 561.08 2257.24 560.81 2253.92 560.59 2250.59 560.23 2247.3 559.74 2242.87 561.89 2239.65 564.16 2236.38 565.42 2234.57 566.47 2232.64 567.59 2230.75 568.88 2228.59 570.48 2226.66 572 2224.68 572.82 2223.61 574.09 2223.57 575.21 2223.31 576.3 2223.05 577.2 2222.64 578.03 2221.89 579.23 2220.81 580.59 2220.15 582.25 2220.92 582.71 2221.13 583.2 2221.02 583.67 2221 584.75 2220.95 585.72 2221.14 586.77 2221.56 587.94 2222.01 589.34 2222.02 590.62 2221.98 592.18 2221.93 593.7 2222.29 595.25 2222.33 596.6 2222.37 597.9 2223.35 599.03 2224.2 601.84 2226.32 603.39 2229.33 604.7 2232.5 605.88 2235.36 606.16 2238.34 606.25 2241.41 606.33 2244.09 606.87 2246.75 607.05 2249.42 607.28 2252.87 608.25 2256.24 607.84 2260.6ZM572.5 2295.55C572.29 2296.11 572.11 2296.65 572.79 2297.14 573.09 2296.46 572.5 2296.08 572.49 2295.57 572.18 2295 572.02 2294.4 571.93 2293.74 571.81 2292.89 571.82 2291.9 570.62 2291.1 570.78 2292.94 571.2 2294.32 572.18 2295.52 572.22 2295.58 572.4 2295.54 572.5 2295.55L572.5 2295.55ZM573.72 2269.95C573.72 2271.14 573.8 2272.34 573.71 2273.53 573.46 2276.79 574.2 2279.84 575.66 2282.69 576.38 2284.09 576.91 2285.52 577.4 2286.99 578.03 2288.86 578.71 2290.71 579.42 2292.55 579.9 2293.81 580.66 2295.05 582 2295.35 584.08 2295.8 586.24 2296.08 588.38 2295.43 588.85 2295.28 589.21 2295.01 589.59 2294.71 592.64 2292.28 594.77 2289.11 596.73 2285.82 597.31 2284.85 598.14 2284.06 598.57 2282.98 599.53 2280.58 600.19 2278.14 600.39 2275.53 600.6 2272.68 600.66 2269.79 601.49 2267.01 601.78 2266.02 601.81 2265 601.73 2263.98 601.45 2260.17 601.41 2256.36 601.85 2252.55 602.17 2249.77 601.59 2247.1 600.67 2244.49 599.98 2242.53 598.52 2240.94 597.93 2238.91 597.8 2238.47 597.47 2238.08 597.21 2237.68 596.49 2236.59 595.75 2235.51 595.03 2234.41 593.63 2232.3 591.8 2230.77 589.33 2230.08 588.93 2229.97 588.51 2229.98 588.14 2229.71 586.74 2228.68 585.51 2229.12 584.25 2230.12 582.55 2231.46 581.18 2233.15 579.45 2234.43 577.51 2235.85 576.51 2237.8 575.85 2240.03 574.8 2243.55 574.52 2247.19 574.39 2250.8 574.16 2257.18 573.44 2263.55 573.72 2269.95L573.72 2269.95ZM563.48 2253.48C564.28 2249.87 563.51 2246.27 563.68 2242.67 562.49 2246.26 563.09 2249.88 563.48 2253.48L563.48 2253.48ZM567.97 2259.16C568.57 2256.8 568.55 2253.85 568.04 2252.87 567.3 2255.06 567.86 2257.12 567.97 2259.16L567.97 2259.16ZM576.54 2232.81C577.51 2232.91 577.82 2231.97 578.52 2231.73 579.02 2231.56 579.29 2231.15 578.88 2230.63 578.52 2230.18 578.02 2230.24 577.62 2230.54 576.91 2231.08 576.47 2231.8 576.54 2232.81L576.54 2232.81ZM592.37 2225.58C593.42 2226.21 594.37 2226.77 595.5 2227.45 594.36 2225.01 594.36 2225.01 592.37 2225.58L592.37 2225.58ZM568.32 2251.84C568.87 2250.21 568.68 2248.5 568.93 2246.84 568.35 2248.46 568.26 2250.14 568.32 2251.84L568.32 2251.84ZM582.25 2298.41C583.29 2298.97 584.27 2299.56 585.39 2298.8 584.45 2298.88 583.67 2298.26 582.74 2298.31 582.58 2298.32 582.41 2298.38 582.25 2298.41L582.25 2298.41ZM590.65 2304.23C591.41 2304.11 592.29 2304.27 592.91 2303.35 591.85 2303.19 591.19 2303.57 590.65 2304.23L590.65 2304.23ZM580.77 2229.78C581.01 2229.66 581.29 2229.51 581.26 2229.19 581.24 2228.99 581 2229.01 580.85 2229.08 580.65 2229.17 580.44 2229.29 580.42 2229.54 580.41 2229.73 580.57 2229.81 580.77 2229.78L580.77 2229.78ZM567.97 2261.39C568.14 2261.3 568.23 2261.16 568.22 2260.97 568.21 2260.79 568.14 2260.6 567.94 2260.61 567.73 2260.63 567.74 2260.85 567.75 2261.01 567.76 2261.17 567.74 2261.36 567.97 2261.39ZM677.94 2302.2C677.94 2302.72 678.02 2303.1 677.92 2303.42 677.7 2304.19 677.07 2304.62 676.34 2304.66 675.7 2304.69 675.22 2304.22 675.12 2303.55 674.97 2302.6 674.4 2301.8 673.69 2301.37 672.31 2300.52 671.75 2299.08 670.78 2297.94 669.45 2296.35 668.17 2294.69 666.6 2293.32 665.47 2292.34 664.26 2291.46 663.09 2290.54 661.84 2289.57 660.9 2288.32 660.1 2286.99 659.36 2285.77 658.77 2284.46 658.09 2283.21 656.9 2281 655.46 2278.95 653.98 2276.93 653.8 2276.68 653.56 2276.44 653.24 2276.53 652.79 2276.66 652.83 2277.1 652.89 2277.43 653.13 2278.73 653.07 2280.06 653.27 2281.35 653.64 2283.68 653.46 2286.01 653.53 2288.34 653.57 2289.71 653.56 2291.09 653.88 2292.44 654.02 2293.04 654.08 2293.62 653.79 2294.19 653.71 2294.34 653.64 2294.54 653.66 2294.71 653.94 2297.56 652.47 2300.14 652.39 2302.92 652.38 2303.46 652.07 2303.8 651.81 2304.2 651.52 2304.64 651.14 2304.9 650.62 2304.83 650.05 2304.74 649.93 2304.22 649.76 2303.78 649.69 2303.62 649.67 2303.43 649.65 2303.26 649.4 2301.58 649.39 2301.65 647.77 2301.49 647.02 2301.41 646.7 2301.54 646.56 2302.29 646.44 2302.87 646.2 2303.43 645.96 2303.98 645.73 2304.54 645.25 2304.76 644.65 2304.71 644.06 2304.66 643.88 2304.22 643.81 2303.72 643.71 2303.07 643.63 2302.41 643.55 2301.76 643.51 2301.4 643.6 2300.97 643.43 2300.7 642.11 2298.64 643.07 2296.39 642.82 2294.25 642.75 2293.66 642.94 2293.01 642.47 2292.55 641.63 2291.73 641.73 2290.79 641.81 2289.73 642.11 2285.8 642.39 2281.86 642.5 2277.92 642.63 2273.57 642.61 2269.22 642.6 2264.87 642.59 2260.1 642.32 2255.35 641.84 2250.61 641.38 2246.03 641.33 2241.44 640.99 2236.85 640.94 2236.2 641.01 2235.54 641.09 2234.89 641.14 2234.48 641.32 2234.13 641.74 2233.89 643.03 2233.14 643.11 2232.77 643.01 2231.38 642.86 2229.31 642.8 2227.23 642.81 2225.15 642.81 2223.94 644.14 2222.52 645.39 2222.28 646.39 2222.1 647.4 2221.98 648.41 2221.93 649.06 2221.89 649.72 2222.12 650.09 2221.29 650.26 2220.91 650.7 2220.99 651.05 2221.09 651.69 2221.27 652.33 2221.43 652.94 2221.65 653.37 2221.81 653.66 2221.86 654.03 2221.46 654.92 2220.51 655.94 2220.64 656.92 2221.36 657.88 2222.08 658.96 2222.55 660.05 2223.05 661.22 2223.58 662.24 2223.62 663.29 2223.01 664.65 2222.21 665.76 2222.64 666.88 2223.53 668.26 2224.63 669.08 2226.2 670.29 2227.44 671.24 2228.42 672.05 2229.52 673.03 2230.5 674.54 2232.01 675.32 2234.01 675.84 2236.04 677.02 2240.57 677.56 2245.21 677.42 2249.9 677.32 2252.94 677.11 2255.96 676.22 2258.93 675.54 2261.19 674.03 2262.68 672.39 2264.15 670.03 2266.26 667.18 2267.42 664.22 2268.39 662.34 2269 662.31 2269.29 663.25 2271.09 663.68 2271.9 664.25 2272.58 664.82 2273.27 667.07 2275.98 669.29 2278.71 671.54 2281.41 672.16 2282.16 672.68 2282.97 673.06 2283.84 674.8 2287.9 677.37 2291.51 679.37 2295.43 679.45 2295.59 679.53 2295.81 679.66 2295.87 681.56 2296.62 681.67 2298.5 682.33 2300.04 682.44 2300.31 682.59 2300.57 682.67 2300.86 682.8 2301.38 683.53 2301.68 683.05 2302.44 682.58 2303.2 682.63 2304.19 681.47 2304.59 680.75 2304.84 680.31 2304.93 680.07 2304.23 679.72 2303.24 678.99 2302.71 677.94 2302.2ZM651.82 2254.09C651.67 2256.56 651.97 2258.98 652.38 2261.4 652.55 2262.4 653.19 2262.8 653.91 2262.14 654.96 2261.17 656.08 2261.08 657.38 2261.21 658.73 2261.35 658.77 2261.24 658.69 2259.9 658.6 2258.52 659.09 2258.04 660.46 2258.4 661.03 2258.54 661.41 2258.43 661.75 2258.09 663.37 2256.5 665.24 2255.22 667 2253.8 667.64 2253.28 668.27 2252.71 668.33 2251.76 668.47 2249.68 668.92 2247.65 668.8 2245.54 668.67 2243.17 668.14 2241.1 666.05 2239.68 665.62 2239.39 665.3 2238.92 664.94 2238.52 664.35 2237.85 663.88 2237.01 663.16 2236.53 660.95 2235.06 659.38 2232.91 657.27 2231.32 656.09 2230.43 654.98 2229.49 653.63 2228.86 652.17 2228.19 651.71 2228.54 651.72 2230.13 651.75 2232.52 652.19 2234.88 652.18 2237.28 652.15 2242.89 652 2248.49 651.82 2254.09L651.82 2254.09ZM663.49 2285.13C663.84 2286.9 664.63 2288.36 665.94 2289.53 666.26 2289.82 666.64 2290.06 667.02 2289.61 667.33 2289.24 667.61 2288.84 667.32 2288.32 666.46 2286.76 664.99 2285.96 663.49 2285.13L663.49 2285.13ZM664.53 2234.84C663.48 2233.8 663.37 2231.67 660.8 2232.06 662.12 2233.13 662.99 2234.37 664.53 2234.84L664.53 2234.84ZM668.35 2292.11C668.88 2292.79 669.22 2293.41 670.06 2293.4 670.23 2293.4 670.4 2293.19 670.34 2293.03 670.06 2292.32 669.32 2292.3 668.77 2292 668.73 2291.98 668.66 2292.03 668.35 2292.11L668.35 2292.11ZM653.89 2273.48C654.44 2274.32 654.61 2275 655.69 2275.32 655.11 2274.54 655.26 2273.65 653.89 2273.48L653.89 2273.48ZM659.7 2230.54C659.36 2229.42 658.63 2229.34 657.94 2229.19 658.26 2229.8 658.68 2230.29 659.7 2230.54L659.7 2230.54ZM645.77 2226.18C646.25 2226.1 646.37 2225.71 646.42 2225.31 646.46 2224.99 646.2 2224.89 645.97 2224.96 645.59 2225.07 645.17 2225.23 645.26 2225.76 645.29 2226 645.51 2226.12 645.77 2226.18L645.77 2226.18ZM656.79 2277C656.99 2277 657.26 2277 657.28 2276.7 657.31 2276.34 657.02 2276.21 656.73 2276.13 656.46 2276.05 656.27 2276.15 656.25 2276.45 656.22 2276.81 656.41 2276.98 656.79 2277L656.79 2277ZM653.48 2269.87C653.49 2269.82 653.53 2269.75 653.51 2269.72 653.36 2269.48 653.21 2269.24 653.03 2269.02 653.02 2269.01 652.79 2269.09 652.78 2269.16 652.71 2269.49 652.95 2269.68 653.18 2269.85 653.25 2269.9 653.38 2269.86 653.48 2269.87L653.48 2269.87ZM658.12 2270.93C657.96 2270.68 657.74 2270.51 657.41 2270.55 657.37 2270.55 657.28 2270.76 657.32 2270.83 657.45 2271.12 657.68 2271.3 658.02 2271.23 658.16 2271.2 658.19 2271.08 658.12 2270.93L658.12 2270.93ZM670.2 2285.53C670.12 2285.36 670.01 2285.22 669.81 2285.24 669.78 2285.24 669.72 2285.45 669.75 2285.53 669.78 2285.62 669.89 2285.72 669.99 2285.74 670.12 2285.78 670.2 2285.68 670.2 2285.53L670.2 2285.53ZM677.06 2298.56C676.96 2298.59 676.81 2298.6 676.77 2298.66 676.68 2298.84 676.79 2299 676.94 2299.1 677.1 2299.22 677.27 2299.18 677.31 2298.97 677.35 2298.78 677.23 2298.65 677.06 2298.56L677.06 2298.56Z"/></g></g></g></svg>